<?xml version="1.0" encoding="UTF-8" ?>
<!DOCTYPE svg PUBLIC "-//W3C//DTD SVG 1.1//EN" "http://www.w3.org/Graphics/SVG/1.1/DTD/svg11.dtd">
<svg width="1371pt" height="494pt" viewBox="0 0 1371 494" version="1.1" xmlns="http://www.w3.org/2000/svg">
<g id="#3f75a0ff">
<path fill="#3f75a0" opacity="1.00" d=" M 231.57 14.68 C 255.70 14.27 279.85 14.62 303.99 14.50 C 577.64 14.50 851.30 14.50 1124.95 14.50 C 1188.47 12.97 1251.51 39.99 1295.67 85.38 C 1322.95 113.62 1343.13 148.79 1353.24 186.76 C 1362.99 223.25 1364.05 261.98 1356.14 298.91 C 1348.27 335.63 1331.27 370.36 1307.11 399.09 C 1281.57 429.39 1248.51 453.44 1211.44 467.59 C 1189.23 476.15 1165.59 480.55 1141.93 482.38 C 1117.64 483.47 1093.31 482.78 1069.01 482.99 C 793.34 482.96 517.67 482.98 242.01 482.95 C 221.29 482.20 200.46 480.06 180.45 474.43 C 143.07 463.64 108.00 444.09 80.12 416.85 C 47.01 385.37 24.01 343.57 14.82 298.84 C 4.07 248.42 9.74 194.46 31.77 147.76 C 62.29 81.85 126.00 33.12 197.06 19.03 C 208.44 16.73 219.98 15.31 231.57 14.68 M 215.55 45.67 C 162.25 51.94 112.47 81.49 80.52 124.46 C 46.77 169.43 32.85 228.52 42.55 283.85 C 51.97 342.30 88.24 395.84 139.39 425.79 C 170.28 443.94 206.16 453.66 242.01 453.00 C 537.34 453.01 832.67 453.01 1128.00 453.00 C 1154.94 453.57 1181.97 448.38 1206.89 438.15 C 1242.94 423.27 1274.28 397.39 1295.99 365.03 C 1319.45 330.81 1331.39 289.28 1331.52 247.92 C 1331.13 222.11 1326.57 196.24 1316.99 172.21 C 1303.56 137.77 1280.52 107.19 1251.17 84.74 C 1216.76 58.35 1173.38 43.59 1129.96 44.50 C 829.98 44.49 530.01 44.51 230.03 44.49 C 225.19 44.71 220.36 45.15 215.55 45.67 Z" />
<path fill="#3f75a0" opacity="1.00" d=" M 416.92 136.29 C 419.85 132.48 426.77 132.30 429.51 136.39 C 430.51 139.26 430.41 142.41 430.63 145.42 C 434.39 145.47 438.85 145.31 441.66 148.26 C 442.80 150.62 442.76 153.35 442.38 155.88 C 440.45 160.09 435.24 160.63 431.17 160.52 C 430.23 164.41 430.81 169.65 426.62 171.77 C 424.26 172.16 421.72 172.29 419.41 171.71 C 415.60 169.52 415.92 164.45 415.32 160.66 C 412.27 160.14 409.02 160.22 406.17 158.89 C 403.33 156.50 403.26 152.12 404.58 148.91 C 406.68 144.87 411.85 145.74 415.63 145.39 C 416.08 142.36 415.73 139.16 416.92 136.29 Z" />
<path fill="#3f75a0" opacity="1.00" d=" M 237.55 180.99 C 281.56 180.95 325.57 181.04 369.58 180.98 C 367.49 196.65 364.43 212.18 362.49 227.87 C 332.67 228.19 302.84 227.91 273.03 228.00 C 263.57 227.90 254.11 228.19 244.66 227.87 C 242.88 212.15 240.12 196.58 237.55 180.99 Z" />
<path fill="#3f75a0" opacity="1.00" d=" M 708.24 280.20 C 709.62 278.43 711.32 276.96 712.92 275.39 C 716.74 277.04 719.79 279.89 723.00 282.46 C 728.03 282.01 732.79 279.61 737.95 279.95 C 748.51 279.35 759.44 286.33 761.85 296.91 C 764.35 306.24 759.06 314.99 755.15 323.05 C 770.03 330.00 772.71 352.88 760.67 363.66 C 747.67 376.04 727.80 378.65 711.01 373.72 C 709.94 374.79 708.91 375.91 707.74 376.87 C 705.65 377.35 703.35 376.48 701.77 375.12 C 699.38 372.35 699.41 368.39 699.99 364.98 C 702.37 339.02 704.68 313.05 706.90 287.07 C 707.17 284.78 706.84 282.19 708.24 280.20 M 719.77 297.22 C 718.03 304.85 717.12 312.67 717.51 320.50 C 728.61 320.80 741.39 318.36 748.31 308.80 C 748.68 305.88 748.59 302.91 748.41 299.99 C 745.53 295.59 740.12 293.30 734.96 293.45 C 729.63 293.13 724.51 294.99 719.77 297.22 M 715.82 337.02 C 714.79 343.27 713.81 349.55 713.55 355.88 C 713.88 358.16 713.40 361.29 715.92 362.48 C 719.45 364.29 723.55 363.12 727.34 363.71 C 735.35 363.75 743.45 360.81 749.16 355.11 C 752.19 351.77 754.98 347.66 755.03 342.98 C 753.73 338.16 749.32 334.83 745.16 332.54 C 735.26 332.40 724.99 332.93 715.82 337.02 Z" />
<path fill="#3f75a0" opacity="1.00" d=" M 1091.57 277.74 C 1095.28 275.39 1098.77 279.23 1101.79 281.02 C 1099.50 295.95 1098.48 311.03 1097.19 326.07 C 1096.94 337.16 1094.15 348.05 1095.02 359.18 C 1104.51 357.51 1113.76 353.44 1120.66 346.59 C 1122.25 345.14 1122.09 342.82 1122.50 340.88 C 1123.87 330.85 1125.99 320.42 1132.20 312.15 C 1136.97 305.06 1147.09 302.50 1154.81 305.93 C 1158.83 308.23 1161.35 312.64 1162.35 317.07 C 1163.77 330.38 1157.65 345.05 1145.52 351.49 C 1142.40 353.34 1138.81 353.83 1135.32 354.40 C 1134.67 359.02 1137.17 363.59 1139.44 367.50 C 1147.90 370.06 1156.57 365.01 1161.98 358.65 C 1164.41 355.54 1167.55 352.39 1167.69 348.19 C 1169.07 335.54 1169.91 321.64 1178.49 311.45 C 1182.09 306.47 1188.31 304.46 1194.07 303.24 C 1200.63 304.48 1206.86 309.56 1207.69 316.49 C 1208.80 324.99 1206.82 333.98 1202.11 341.17 C 1197.80 348.34 1190.24 353.12 1181.97 354.19 C 1181.96 357.86 1181.80 361.85 1183.86 365.07 C 1186.80 369.15 1192.75 368.51 1196.91 366.96 C 1204.54 363.27 1210.48 356.44 1213.88 348.74 C 1215.14 345.94 1216.39 343.13 1217.75 340.38 C 1221.69 339.81 1224.54 342.68 1227.08 345.23 C 1223.71 352.49 1220.93 360.10 1216.58 366.85 C 1210.39 376.29 1199.22 381.87 1188.09 382.37 C 1183.66 382.14 1179.26 380.80 1175.62 378.26 C 1172.86 375.85 1171.20 372.50 1169.35 369.41 C 1162.57 376.60 1153.22 382.59 1142.98 382.05 C 1137.59 382.39 1132.38 380.08 1128.35 376.66 C 1124.81 372.82 1123.35 367.65 1122.00 362.75 C 1118.20 364.80 1114.58 367.16 1110.83 369.30 C 1116.46 381.20 1118.94 395.00 1115.60 407.90 C 1113.86 413.90 1111.08 420.20 1105.51 423.56 C 1100.58 426.92 1093.60 426.87 1088.82 423.24 C 1083.07 419.34 1080.96 412.28 1079.54 405.85 C 1077.81 398.35 1078.71 390.63 1078.50 383.02 C 1078.32 376.63 1078.60 370.24 1079.62 363.92 C 1076.12 365.29 1072.83 367.10 1069.47 368.75 C 1073.92 379.19 1078.10 390.67 1075.83 402.16 C 1075.11 410.84 1070.34 418.80 1064.00 424.56 C 1057.29 425.52 1048.60 425.99 1044.10 419.79 C 1038.68 411.24 1037.56 400.87 1037.05 390.99 C 1037.50 380.28 1038.18 369.56 1039.10 358.87 C 1035.09 359.88 1031.06 360.77 1027.09 361.87 C 1025.42 362.03 1024.73 363.66 1023.81 364.79 C 1016.65 375.10 1002.23 379.83 990.43 375.39 C 984.53 373.33 980.27 368.48 977.03 363.35 C 975.13 363.60 973.72 364.95 972.21 365.97 C 965.06 371.20 956.88 375.38 948.00 376.46 C 939.29 377.53 929.98 372.23 927.14 363.80 C 919.96 348.01 923.37 329.28 932.01 314.79 C 935.22 309.96 939.96 305.33 946.06 304.89 C 953.19 303.84 959.93 308.37 963.83 314.04 C 964.45 321.15 963.39 328.56 960.34 335.05 C 959.29 337.50 956.13 337.21 954.03 338.12 C 951.43 336.49 949.03 334.16 948.63 330.97 C 948.27 326.61 948.61 322.22 948.51 317.85 C 946.33 318.63 944.58 320.27 943.40 322.22 C 939.59 329.19 938.24 337.18 938.01 345.04 C 938.29 349.32 938.76 353.59 939.08 357.87 C 941.20 359.96 943.32 362.23 946.17 363.34 C 954.50 364.56 962.78 360.41 968.36 354.41 C 971.01 351.40 974.35 348.22 974.23 343.88 C 975.42 331.22 981.20 318.14 992.43 311.36 C 1000.02 306.50 1009.41 306.72 1018.06 307.16 C 1024.38 307.03 1028.50 312.96 1030.77 318.16 C 1034.27 327.41 1033.21 337.64 1032.20 347.26 C 1034.71 346.95 1037.25 346.63 1039.80 346.50 C 1042.14 325.26 1043.00 303.86 1046.42 282.76 C 1047.01 278.85 1051.43 276.87 1055.04 277.45 C 1058.00 276.79 1059.03 280.02 1060.48 281.88 C 1058.32 307.77 1055.27 333.59 1053.48 359.50 C 1062.90 358.04 1071.82 353.90 1078.95 347.58 C 1081.35 345.41 1081.66 342.08 1081.87 339.05 C 1082.58 320.27 1084.80 301.59 1087.05 282.94 C 1086.94 280.26 1089.77 279.14 1091.57 277.74 M 1136.84 339.85 C 1147.04 339.07 1154.44 324.53 1146.20 317.01 C 1139.58 322.66 1137.85 331.64 1136.84 339.85 M 1182.33 339.63 C 1193.02 339.14 1198.77 324.79 1191.91 316.79 C 1185.92 322.87 1183.51 331.40 1182.33 339.63 M 991.93 360.82 C 994.92 361.71 997.78 363.27 1000.92 363.54 C 1006.36 363.17 1010.04 358.86 1013.50 355.16 C 1010.35 352.06 1006.82 349.13 1004.96 345.02 C 1000.93 337.66 1002.21 329.04 1001.47 321.01 C 988.79 329.23 983.60 347.80 991.93 360.82 M 1014.12 325.03 C 1013.44 330.85 1013.81 339.02 1020.20 341.51 C 1022.29 335.07 1020.28 327.89 1019.35 321.31 C 1017.37 322.03 1014.37 322.40 1014.12 325.03 M 1053.26 373.69 C 1050.23 384.51 1051.73 395.87 1052.03 406.92 C 1054.70 407.47 1058.34 409.20 1060.36 406.40 C 1063.76 400.99 1064.68 394.20 1063.68 387.94 C 1062.74 381.93 1059.11 375.98 1053.26 373.69 M 1093.00 394.99 C 1093.28 399.79 1091.71 405.84 1095.77 409.46 C 1097.72 408.93 1099.55 408.03 1101.42 407.22 C 1103.17 402.92 1105.02 398.55 1105.49 393.88 C 1105.29 385.91 1102.39 376.12 1093.79 373.65 C 1092.09 380.60 1093.40 387.89 1093.00 394.99 Z" />
<path fill="#3f75a0" opacity="1.00" d=" M 535.91 304.09 C 542.03 302.25 548.56 301.34 554.89 302.67 C 565.02 304.22 574.59 310.93 578.21 320.72 C 583.68 334.45 582.90 351.13 574.35 363.48 C 562.92 376.77 541.10 378.24 527.28 367.95 C 521.71 364.00 518.44 357.62 516.76 351.14 C 514.00 340.11 514.63 327.94 520.06 317.80 C 523.25 311.37 529.06 306.29 535.91 304.09 M 546.19 318.15 C 542.50 318.82 539.29 321.27 537.53 324.55 C 533.65 333.31 533.39 343.74 537.53 352.47 C 541.18 359.65 552.57 360.96 557.60 354.59 C 562.88 347.69 562.66 338.37 561.30 330.22 C 560.31 323.22 553.58 316.62 546.19 318.15 Z" />
<path fill="#3f75a0" opacity="1.00" d=" M 610.18 309.54 C 616.08 304.85 623.45 301.82 631.06 302.06 C 636.86 302.53 643.18 304.29 646.80 309.20 C 650.96 314.90 651.67 322.22 652.00 329.05 C 652.00 343.86 651.98 358.67 652.00 373.49 C 645.50 373.51 639.01 373.49 632.52 373.50 C 632.64 365.00 632.09 356.47 632.99 348.01 C 633.36 342.32 632.15 336.69 632.52 331.01 C 632.80 327.06 632.18 322.55 628.76 320.02 C 623.11 316.16 613.29 318.16 611.11 325.08 C 610.90 336.32 609.96 347.58 610.73 358.83 C 611.55 363.71 610.16 368.58 610.47 373.49 C 604.15 373.50 597.83 373.50 591.51 373.49 C 591.50 350.16 591.49 326.83 591.51 303.50 C 597.47 303.50 603.42 303.49 609.38 303.51 C 609.67 305.52 609.94 307.52 610.18 309.54 Z" />
<path fill="#3f75a0" opacity="1.00" d=" M 777.10 311.03 C 778.61 307.60 782.78 307.61 785.94 306.93 C 787.66 309.96 790.31 313.15 789.36 316.88 C 786.57 332.45 781.73 347.94 783.11 363.94 C 785.32 363.93 787.84 364.44 789.69 362.87 C 793.74 359.61 796.04 354.71 798.03 350.02 C 803.37 337.50 803.77 323.50 809.00 310.96 C 811.87 306.11 818.42 307.06 822.53 309.67 C 822.87 316.90 821.18 323.99 819.38 330.94 C 817.90 336.45 817.70 342.19 816.77 347.80 C 816.02 352.66 815.89 357.82 818.20 362.32 C 825.22 358.59 829.69 350.81 829.83 342.91 C 829.99 331.16 832.98 319.51 838.19 309.00 C 841.74 309.02 845.47 308.55 848.78 310.16 C 849.15 311.43 850.02 312.63 849.80 314.03 C 848.55 326.13 843.69 337.72 843.99 350.01 C 843.92 353.58 846.22 356.47 847.78 359.50 C 856.84 357.85 863.97 351.13 868.67 343.54 C 873.44 335.97 876.41 327.48 879.48 319.13 C 880.89 315.43 883.61 311.44 887.88 311.04 C 890.01 312.11 892.13 313.32 893.92 314.93 C 892.91 330.02 887.17 345.14 890.75 360.29 C 897.24 355.15 903.87 349.80 908.07 342.51 C 912.41 341.64 917.75 345.23 917.05 349.98 C 917.15 352.38 915.39 354.25 914.24 356.20 C 908.42 365.12 899.84 371.94 890.29 376.52 C 891.63 379.93 890.34 383.55 890.43 387.07 C 889.66 395.84 887.70 404.52 884.77 412.83 C 882.36 419.29 878.26 425.82 871.58 428.47 C 865.86 430.47 859.08 429.53 854.24 425.82 C 849.06 421.23 847.64 413.63 849.23 407.10 C 852.02 390.42 862.90 376.26 876.00 366.09 C 876.01 363.71 876.00 361.34 875.97 358.97 C 871.88 361.85 868.35 365.47 864.00 367.98 C 858.45 371.68 851.65 373.46 845.01 372.59 C 840.13 372.77 836.70 368.77 833.37 365.81 C 829.42 370.44 824.53 374.18 818.94 376.59 C 813.56 374.77 808.52 371.79 805.12 367.14 C 799.72 372.80 793.57 379.62 784.96 378.92 C 780.95 377.96 775.41 377.95 773.61 373.50 C 767.30 361.97 769.34 348.23 771.35 335.84 C 773.15 327.55 774.12 319.02 777.10 311.03 M 866.46 398.52 C 864.07 403.63 861.72 409.11 862.05 414.88 C 863.57 415.49 865.13 416.41 866.85 415.93 C 873.75 407.46 876.57 396.16 875.96 385.36 C 871.92 389.03 868.73 393.56 866.46 398.52 Z" />
<path fill="#3f75a0" opacity="1.00" d=" M 258.70 315.87 C 258.80 315.28 258.99 314.10 259.09 313.52 C 259.83 313.59 261.31 313.74 262.05 313.82 C 284.69 313.11 307.34 313.58 329.98 313.41 C 336.19 313.25 342.36 314.33 348.58 313.93 C 346.05 332.28 343.04 350.58 339.98 368.85 C 334.97 368.50 329.96 368.62 324.96 368.83 C 303.46 369.02 281.95 369.15 260.45 368.74 C 260.36 368.05 260.19 366.67 260.11 365.98 C 260.39 366.44 260.96 367.37 261.24 367.83 C 263.17 368.31 265.17 368.35 267.15 368.60 C 264.30 351.03 261.74 333.41 258.70 315.87 Z" />
<path fill="#3f75a0" opacity="1.00" d=" M 198.51 324.53 C 206.22 321.47 215.76 328.80 213.64 337.14 C 212.65 345.61 200.63 349.20 194.86 343.16 C 189.16 337.90 191.11 327.16 198.51 324.53 Z" />
</g>
<g id="#010000ff">
<path fill="#010000" opacity="1.00" d=" M 247.15 124.26 C 282.43 124.40 317.71 124.47 352.99 124.23 C 357.65 133.93 361.64 143.94 366.01 153.77 C 372.76 153.89 379.51 153.84 386.26 153.88 C 386.33 162.71 386.23 171.54 386.31 180.37 C 383.62 180.47 380.93 180.54 378.24 180.68 C 376.04 196.37 373.14 211.97 371.06 227.68 C 374.71 227.56 378.36 227.54 382.02 227.67 C 376.94 256.48 371.74 285.27 366.69 314.08 C 363.55 314.21 360.42 314.25 357.29 314.23 C 353.91 335.22 350.78 356.24 347.31 377.21 C 315.97 377.04 284.63 377.32 253.29 377.02 C 250.13 356.10 246.65 335.24 243.53 314.32 C 240.29 313.87 236.36 314.95 233.56 313.60 C 228.31 284.96 223.19 256.27 218.22 227.57 C 222.07 227.58 225.92 227.59 229.77 227.61 C 227.36 211.91 224.93 196.21 222.32 180.54 C 219.96 180.37 217.36 181.04 215.14 180.19 C 214.93 171.42 215.13 162.65 215.06 153.88 C 221.50 153.78 227.96 154.06 234.39 153.60 C 238.45 143.74 242.63 133.92 247.15 124.26 M 252.38 133.15 C 249.85 139.36 247.09 145.48 244.40 151.63 C 281.52 151.47 318.65 151.62 355.77 151.56 C 353.12 145.38 350.31 139.26 347.79 133.03 C 318.51 132.73 289.23 133.01 259.95 132.89 C 257.42 132.85 254.89 132.94 252.38 133.15 M 223.48 162.53 C 223.52 165.48 223.52 168.44 223.48 171.39 C 274.84 171.82 326.22 171.56 377.58 171.52 C 377.59 168.48 377.59 165.45 377.59 162.42 C 326.22 162.51 274.85 162.30 223.48 162.53 M 231.21 180.99 C 233.71 196.38 235.36 211.95 238.87 227.16 C 240.72 227.76 242.74 227.60 244.66 227.87 C 254.11 228.19 263.57 227.90 273.03 228.00 C 302.84 227.91 332.67 228.19 362.49 227.87 C 364.43 212.18 367.49 196.65 369.58 180.98 C 325.57 181.04 281.56 180.95 237.55 180.99 C 235.44 180.99 233.32 180.99 231.21 180.99 M 228.24 236.17 C 232.54 259.27 236.55 282.43 240.60 305.58 C 252.71 305.50 264.82 305.64 276.93 305.21 C 304.44 304.70 331.96 305.56 359.47 305.61 C 363.52 282.50 367.71 259.42 371.75 236.32 C 357.82 236.61 343.91 235.85 329.98 236.04 C 296.06 236.13 262.15 235.86 228.24 236.17 M 252.02 314.07 C 254.71 331.37 257.70 348.63 260.11 365.98 C 260.19 366.67 260.36 368.05 260.45 368.74 C 281.95 369.15 303.46 369.02 324.96 368.83 C 329.96 368.62 334.97 368.50 339.98 368.85 C 343.04 350.58 346.05 332.28 348.58 313.93 C 342.36 314.33 336.19 313.25 329.98 313.41 C 307.34 313.58 284.69 313.11 262.05 313.82 C 261.31 313.74 259.83 313.59 259.09 313.52 C 258.99 314.10 258.80 315.28 258.70 315.87 C 258.39 315.13 258.07 314.40 257.73 313.69 C 255.83 313.89 253.92 314.00 252.02 314.07 Z" />
<path fill="#010000" opacity="1.00" d=" M 536.83 129.83 C 552.13 121.46 574.14 123.36 584.97 138.03 C 588.23 142.49 589.24 148.10 589.89 153.47 C 585.79 153.44 581.70 153.48 577.60 153.45 C 576.91 146.98 573.74 140.31 567.69 137.30 C 563.48 135.22 558.60 135.49 554.03 135.42 C 548.24 135.43 541.85 137.74 538.98 143.09 C 536.33 148.25 536.73 155.61 541.62 159.32 C 550.51 166.86 562.94 166.68 573.02 171.82 C 581.52 175.67 589.17 183.32 590.02 193.01 C 591.16 200.97 587.28 209.15 580.82 213.80 C 573.10 219.22 563.32 221.10 554.02 220.44 C 545.08 219.79 535.87 217.04 529.33 210.64 C 524.38 206.05 521.44 199.41 521.71 192.63 C 525.71 192.58 529.71 192.50 533.71 192.66 C 534.17 197.85 536.72 202.85 541.06 205.84 C 549.30 211.60 560.76 212.08 569.73 207.76 C 577.15 204.42 579.72 193.69 574.43 187.45 C 569.21 180.93 560.48 179.61 552.93 177.39 C 543.24 174.71 532.80 170.62 527.31 161.63 C 520.81 150.86 525.74 135.46 536.83 129.83 Z" />
<path fill="#010000" opacity="1.00" d=" M 951.41 133.36 C 955.54 133.41 959.69 133.43 963.83 133.36 C 963.99 138.92 963.84 144.48 963.88 150.03 C 968.32 150.07 972.75 150.06 977.20 150.06 C 977.22 153.25 977.21 156.43 977.19 159.62 C 972.85 159.73 968.51 159.74 964.17 159.57 C 963.97 174.67 963.13 189.85 964.65 204.90 C 965.44 210.45 972.26 210.53 976.53 209.56 C 977.00 212.58 977.48 215.60 977.88 218.64 C 974.20 219.27 970.64 220.57 966.91 220.80 C 960.13 220.04 952.82 215.47 952.16 208.12 C 950.48 192.02 951.90 175.83 951.38 159.70 C 947.72 159.70 944.07 159.72 940.43 159.70 C 940.48 156.54 940.48 153.37 940.42 150.20 C 944.08 150.02 947.75 149.99 951.43 150.00 C 951.48 144.45 951.37 138.91 951.41 133.36 Z" />
<path fill="#010000" opacity="1.00" d=" M 704.79 149.76 C 713.84 147.38 724.53 149.92 730.39 157.55 C 737.94 167.19 739.06 180.11 738.28 191.91 C 737.85 201.83 733.42 212.35 724.57 217.53 C 714.35 222.90 700.95 221.14 692.53 213.20 C 692.56 224.07 692.42 234.95 692.63 245.83 C 688.44 246.05 684.24 245.97 680.05 245.98 C 680.00 214.02 680.03 182.05 680.04 150.09 C 683.27 150.06 686.51 150.05 689.75 150.08 C 690.15 152.81 690.59 155.53 691.07 158.24 C 694.81 154.28 699.40 150.98 704.79 149.76 M 703.44 159.68 C 699.14 161.02 694.83 163.82 692.94 168.03 C 692.00 179.31 692.69 190.67 692.58 201.98 C 697.52 210.90 711.00 213.41 718.75 206.72 C 724.09 201.73 725.94 194.09 725.96 187.01 C 725.89 179.83 724.77 172.32 720.78 166.20 C 717.20 160.61 709.82 157.85 703.44 159.68 Z" />
<path fill="#010000" opacity="1.00" d=" M 778.82 149.74 C 788.80 147.19 800.81 150.72 806.16 159.95 C 813.55 173.09 814.90 189.52 809.70 203.68 C 807.82 209.23 804.23 214.34 799.00 217.16 C 788.86 223.03 775.26 221.30 766.77 213.27 C 766.75 224.16 766.78 235.05 766.79 245.95 C 762.49 245.98 758.19 245.97 753.89 245.97 C 753.88 214.00 753.82 182.04 753.92 150.08 C 756.98 150.07 760.06 149.90 763.13 150.10 C 764.41 152.51 764.43 155.46 765.12 158.11 C 768.88 154.22 773.42 150.90 778.82 149.74 M 777.46 159.76 C 772.77 161.15 766.80 164.37 766.96 170.00 C 766.43 180.69 766.89 191.41 766.82 202.11 C 771.37 210.25 783.19 213.14 791.04 208.03 C 796.52 204.25 799.38 197.55 799.64 191.03 C 800.32 182.10 799.51 172.37 793.96 164.97 C 790.28 159.94 783.32 158.24 777.46 159.76 Z" />
<path fill="#010000" opacity="1.00" d=" M 848.46 149.64 C 856.54 148.36 865.53 148.79 872.50 153.53 C 880.84 159.15 885.85 169.03 886.25 179.00 C 886.83 188.78 886.47 199.38 880.74 207.75 C 872.19 221.64 851.52 224.42 838.44 215.56 C 824.48 204.81 821.12 184.18 827.55 168.37 C 831.17 159.46 838.65 151.33 848.46 149.64 M 850.40 159.67 C 843.22 162.18 839.23 169.76 838.18 176.90 C 837.00 186.07 837.09 196.35 842.82 204.10 C 848.30 212.28 861.89 212.72 868.01 205.07 C 872.32 199.77 873.72 192.74 873.91 186.07 C 874.17 178.88 872.87 171.37 868.74 165.35 C 864.81 159.61 856.85 157.64 850.40 159.67 Z" />
<path fill="#010000" opacity="1.00" d=" M 913.97 159.26 C 918.95 152.15 927.42 147.48 936.25 149.00 C 935.78 152.92 935.41 156.86 934.56 160.72 C 930.57 161.42 926.13 160.44 922.28 162.35 C 918.81 163.96 914.33 166.64 914.70 171.04 C 914.77 187.06 914.65 203.07 914.76 219.08 C 910.45 219.32 906.13 219.23 901.82 219.18 C 901.80 196.15 901.80 173.11 901.82 150.07 C 905.67 150.04 909.52 149.96 913.37 150.24 C 913.44 153.25 913.63 156.26 913.97 159.26 Z" />
<path fill="#010000" opacity="1.00" d=" M 605.64 150.03 C 609.75 150.07 613.87 150.06 617.99 150.08 C 618.14 164.39 617.80 178.71 618.14 193.02 C 618.48 198.54 619.15 205.31 624.39 208.48 C 633.06 212.97 646.00 208.75 648.96 199.09 C 649.76 182.79 649.12 166.45 649.27 150.13 C 653.44 150.02 657.62 150.02 661.81 150.13 C 661.81 173.12 661.67 196.11 661.81 219.10 C 657.90 219.37 653.97 219.26 650.05 219.20 C 649.89 216.19 649.76 213.17 649.70 210.16 C 645.19 215.89 638.48 220.00 631.13 220.54 C 623.39 221.06 614.71 218.48 610.41 211.57 C 605.34 204.40 605.47 195.31 605.54 186.92 C 605.53 174.62 605.49 162.32 605.64 150.03 Z" />
<path fill="#010000" opacity="1.00" d=" M 1102.49 151.66 C 1111.52 150.34 1121.76 150.91 1129.03 157.10 C 1133.80 160.91 1135.60 167.11 1136.23 172.95 C 1132.01 173.01 1127.80 173.10 1123.59 172.85 C 1122.81 163.28 1111.21 158.24 1103.00 162.07 C 1096.50 163.90 1094.16 174.09 1100.20 177.80 C 1109.78 182.51 1121.36 182.30 1130.20 188.75 C 1138.68 194.46 1139.08 208.02 1131.79 214.87 C 1123.87 222.98 1111.38 223.71 1100.85 221.71 C 1090.46 219.94 1081.48 210.58 1081.72 199.75 C 1085.70 199.69 1089.69 199.66 1093.68 199.88 C 1094.24 202.71 1095.19 205.61 1097.35 207.65 C 1103.01 213.30 1112.47 214.11 1119.43 210.49 C 1124.04 208.24 1125.96 201.46 1122.45 197.48 C 1119.00 194.07 1114.10 192.81 1109.55 191.63 C 1101.90 189.85 1093.69 187.83 1087.95 182.12 C 1083.96 178.28 1083.55 172.24 1084.40 167.09 C 1086.38 158.79 1094.28 152.89 1102.49 151.66 Z" />
<path fill="#010000" opacity="1.00" d=" M 1009.84 152.14 C 1014.22 152.17 1018.61 152.16 1023.00 152.14 C 1023.20 167.79 1022.89 183.45 1023.13 199.10 C 1023.11 203.89 1025.17 209.25 1029.92 211.15 C 1038.85 214.89 1051.77 210.13 1053.58 199.95 C 1053.57 184.02 1053.39 168.07 1053.60 152.13 C 1057.72 152.17 1061.85 152.16 1065.98 152.15 C 1065.94 175.24 1066.11 198.34 1065.83 221.44 C 1062.00 221.31 1058.18 221.30 1054.36 221.38 C 1054.26 218.52 1054.20 215.67 1054.09 212.81 C 1049.02 218.00 1042.58 222.41 1035.12 222.75 C 1029.03 222.87 1022.41 221.56 1017.88 217.20 C 1012.99 212.52 1010.49 205.75 1010.21 199.07 C 1009.32 183.45 1009.88 167.78 1009.84 152.14 Z" />
</g>
</svg>
