<?xml version="1.0" encoding="UTF-8" ?>
<!DOCTYPE svg PUBLIC "-//W3C//DTD SVG 1.1//EN" "http://www.w3.org/Graphics/SVG/1.1/DTD/svg11.dtd">
<svg width="1371pt" height="494pt" viewBox="0 0 1371 494" version="1.1" xmlns="http://www.w3.org/2000/svg">
<g id="#3e739eff">
<path fill="#3e739e" opacity="1.00" d=" M 231.58 14.67 C 257.05 14.26 282.55 14.62 308.03 14.50 C 581.02 14.50 854.01 14.50 1127.01 14.50 C 1171.94 13.80 1216.73 27.41 1254.41 51.73 C 1285.67 71.69 1311.94 99.28 1330.35 131.48 C 1348.10 162.01 1358.31 196.72 1360.80 231.91 C 1361.05 240.56 1362.12 249.24 1361.13 257.90 C 1359.85 302.74 1344.88 347.02 1319.01 383.64 C 1284.72 432.13 1231.65 467.81 1172.92 478.32 C 1161.05 480.55 1149.03 482.21 1136.94 482.55 C 1125.64 483.31 1114.30 482.75 1102.98 482.99 C 824.64 482.96 546.31 483.01 267.98 482.94 C 248.68 483.12 229.31 483.17 210.16 480.40 C 186.01 477.40 162.50 469.90 140.72 459.11 C 90.77 435.24 49.80 392.86 28.24 341.81 C 13.84 307.62 7.60 270.00 10.07 233.00 C 13.10 182.34 32.86 132.56 66.66 94.54 C 107.95 47.28 168.80 17.59 231.58 14.67 M 215.65 45.65 C 180.31 49.82 146.40 64.19 118.34 85.98 C 83.22 113.01 57.76 152.09 46.59 194.93 C 34.04 241.74 38.38 292.90 58.98 336.81 C 69.30 358.82 83.44 379.11 100.84 396.12 C 136.88 431.87 187.14 452.98 237.97 453.00 C 534.64 452.99 831.32 453.00 1128.00 453.00 C 1160.51 453.67 1193.16 446.02 1222.05 431.12 C 1254.93 414.09 1282.80 387.69 1301.81 355.93 C 1326.06 315.88 1335.84 267.37 1329.57 221.02 C 1325.28 187.88 1312.77 155.82 1293.41 128.58 C 1284.43 115.55 1273.44 104.07 1261.79 93.42 C 1227.34 63.05 1182.00 45.00 1135.99 44.49 C 833.99 44.51 531.98 44.50 229.98 44.49 C 225.19 44.73 220.41 45.15 215.65 45.65 Z" />
<path fill="#3e739e" opacity="1.00" d=" M 359.16 180.98 C 362.65 180.96 366.14 180.96 369.64 180.96 C 367.38 196.65 364.56 212.25 362.40 227.96 C 358.62 228.04 354.85 228.04 351.08 227.99 C 354.65 212.49 356.39 196.64 359.16 180.98 Z" />
<path fill="#3e739e" opacity="1.00" d=" M 707.28 282.74 C 707.71 279.47 710.88 277.67 712.89 275.38 C 716.72 277.01 719.77 279.86 722.97 282.43 C 724.98 282.54 726.90 281.71 728.85 281.29 C 736.71 278.97 745.76 279.39 752.72 284.02 C 759.75 288.63 763.94 297.62 762.05 305.95 C 761.15 312.12 757.77 317.46 755.08 322.96 C 770.00 329.96 772.76 352.86 760.65 363.69 C 747.63 376.05 727.75 378.65 710.96 373.70 C 709.86 374.84 708.77 375.98 707.71 377.14 C 703.05 377.45 699.31 373.66 699.61 368.99 C 702.28 340.25 704.80 311.49 707.28 282.74 M 719.74 297.25 C 718.05 304.88 717.11 312.68 717.51 320.51 C 728.73 320.88 741.28 318.19 748.48 308.82 C 748.49 305.82 748.48 302.83 748.56 299.84 C 746.24 297.34 743.57 294.94 740.17 294.13 C 733.25 292.31 725.99 294.10 719.74 297.25 M 715.85 337.00 C 714.66 344.90 712.86 352.93 714.03 360.94 C 717.50 364.75 722.90 363.04 727.39 363.72 C 735.38 363.72 743.46 360.80 749.16 355.11 C 752.20 351.74 755.03 347.60 755.02 342.89 C 753.75 338.00 749.18 335.17 745.34 332.40 C 735.39 332.60 725.08 332.82 715.85 337.00 Z" />
<path fill="#3e739e" opacity="1.00" d=" M 1087.30 280.98 C 1089.42 279.53 1091.24 277.23 1093.94 276.94 C 1097.02 277.14 1099.28 279.51 1101.80 281.02 C 1099.50 295.96 1098.48 311.06 1097.19 326.11 C 1096.93 337.18 1094.17 348.06 1095.02 359.18 C 1104.88 357.38 1114.77 353.16 1121.50 345.52 C 1123.28 338.12 1123.64 330.29 1126.45 323.10 C 1128.86 316.76 1132.20 310.04 1138.38 306.63 C 1143.63 304.02 1150.24 303.47 1155.52 306.32 C 1159.80 309.41 1162.64 314.69 1162.55 320.01 C 1162.72 329.42 1159.46 339.02 1152.89 345.87 C 1148.43 350.84 1142.05 353.79 1135.44 354.39 C 1134.61 359.00 1137.18 364.23 1139.98 367.91 C 1144.33 368.27 1148.95 368.25 1152.86 366.00 C 1159.09 362.50 1164.44 357.04 1167.35 350.49 C 1169.10 337.34 1169.30 322.78 1178.07 311.97 C 1181.65 306.70 1188.01 304.50 1193.98 303.25 C 1200.05 304.35 1206.02 308.74 1207.37 315.03 C 1208.84 321.27 1207.71 327.85 1205.77 333.86 C 1202.21 344.25 1193.20 353.00 1181.97 354.18 C 1181.96 357.84 1181.80 361.81 1183.85 365.04 C 1186.78 369.16 1192.76 368.52 1196.94 366.94 C 1204.52 363.25 1210.45 356.48 1213.84 348.82 C 1215.13 346.00 1216.38 343.16 1217.73 340.37 C 1221.69 339.80 1224.55 342.68 1227.09 345.23 C 1223.93 352.06 1221.24 359.16 1217.36 365.63 C 1211.33 375.79 1199.65 381.90 1188.00 382.37 C 1182.46 381.91 1176.16 380.20 1172.96 375.26 C 1171.63 373.37 1170.46 371.38 1169.33 369.39 C 1164.47 374.81 1158.18 378.94 1151.26 381.17 C 1143.26 383.22 1133.84 382.25 1127.82 376.11 C 1124.70 372.27 1123.26 367.44 1122.00 362.74 C 1118.20 364.83 1114.56 367.16 1110.82 369.33 C 1116.50 381.21 1118.93 395.03 1115.59 407.92 C 1113.90 413.66 1111.36 419.68 1106.19 423.10 C 1101.96 426.26 1095.92 427.04 1091.17 424.63 C 1086.78 422.55 1083.57 418.52 1081.93 414.02 C 1079.51 407.63 1078.21 400.79 1078.49 393.95 C 1078.67 383.93 1077.89 373.85 1079.62 363.91 C 1076.12 365.31 1072.82 367.10 1069.46 368.75 C 1073.93 379.17 1078.08 390.63 1075.84 402.11 C 1075.12 410.82 1070.35 418.87 1063.92 424.59 C 1057.21 425.50 1048.56 425.98 1044.08 419.77 C 1038.68 411.23 1037.56 400.88 1037.06 391.02 C 1037.48 380.30 1038.18 369.57 1039.10 358.87 C 1035.12 359.88 1031.11 360.76 1027.16 361.86 C 1025.49 362.01 1024.77 363.58 1023.87 364.72 C 1017.00 374.66 1003.48 379.41 991.91 375.92 C 985.37 374.01 980.25 368.95 977.00 363.11 C 971.43 366.03 966.65 370.32 960.81 372.78 C 954.64 375.33 947.80 377.61 941.09 376.06 C 934.86 374.47 929.23 370.06 927.15 363.84 C 920.47 349.24 922.94 331.98 930.17 318.07 C 933.52 311.04 939.94 304.65 948.19 304.56 C 954.57 305.02 960.30 308.81 963.83 314.03 C 964.46 321.18 963.39 328.62 960.30 335.14 C 959.19 337.50 956.09 337.23 954.00 338.13 C 951.42 336.46 948.99 334.13 948.62 330.90 C 948.28 326.55 948.61 322.18 948.50 317.82 C 943.39 319.80 941.69 325.44 940.17 330.17 C 937.24 339.13 938.10 348.62 939.07 357.82 C 941.39 360.08 943.72 362.85 947.06 363.48 C 958.36 364.43 968.63 356.55 973.80 347.02 C 974.68 338.16 976.65 329.11 981.79 321.67 C 986.93 313.89 995.42 307.97 1004.88 307.29 C 1010.60 306.89 1016.52 306.53 1022.14 307.87 C 1028.88 311.61 1032.14 319.46 1032.86 326.82 C 1033.32 333.64 1033.21 340.52 1032.16 347.28 C 1034.70 346.95 1037.26 346.63 1039.83 346.47 C 1041.98 325.96 1043.03 305.34 1046.03 284.93 C 1046.35 282.90 1046.57 280.55 1048.43 279.28 C 1050.73 276.98 1054.16 277.35 1057.13 277.58 C 1058.65 278.66 1059.40 280.47 1060.49 281.93 C 1058.28 307.80 1055.32 333.62 1053.45 359.50 C 1062.98 358.15 1071.67 353.70 1079.09 347.69 C 1080.87 345.37 1081.77 342.60 1081.81 339.69 C 1082.59 320.04 1084.89 300.49 1087.30 280.98 M 1136.84 339.84 C 1144.36 339.18 1149.24 332.02 1150.07 325.01 C 1149.50 322.04 1148.45 319.14 1146.22 317.01 C 1139.58 322.65 1137.86 331.63 1136.84 339.84 M 1182.36 339.67 C 1193.02 339.07 1198.82 324.71 1191.84 316.75 C 1186.01 322.97 1183.42 331.38 1182.36 339.67 M 991.90 360.79 C 994.93 361.70 997.82 363.32 1001.02 363.53 C 1006.42 363.13 1010.02 358.81 1013.51 355.20 C 1010.40 352.08 1006.85 349.18 1004.99 345.08 C 1000.93 337.68 1002.17 328.99 1001.49 320.91 C 988.87 329.25 983.59 347.69 991.90 360.79 M 1014.23 324.53 C 1013.24 330.75 1013.89 338.83 1020.38 341.88 C 1021.93 335.04 1020.53 327.98 1019.29 321.21 C 1017.52 322.11 1014.81 322.25 1014.23 324.53 M 1053.23 373.70 C 1050.26 384.53 1051.72 395.86 1052.03 406.91 C 1054.67 407.45 1058.27 409.19 1060.31 406.46 C 1063.78 401.02 1064.67 394.16 1063.67 387.85 C 1062.70 381.88 1059.08 375.94 1053.23 373.70 M 1093.00 385.00 C 1093.03 391.00 1092.94 397.02 1093.01 403.03 C 1092.92 405.50 1094.31 407.66 1095.59 409.67 C 1097.54 408.88 1099.48 408.04 1101.44 407.22 C 1103.15 402.92 1105.00 398.58 1105.49 393.93 C 1105.28 385.93 1102.40 376.02 1093.69 373.67 C 1092.65 377.36 1093.03 381.21 1093.00 385.00 Z" />
<path fill="#3e739e" opacity="1.00" d=" M 545.19 302.19 C 554.73 301.41 564.98 304.21 571.88 311.10 C 577.67 316.57 580.07 324.58 581.31 332.22 C 582.04 341.00 581.58 350.22 577.42 358.19 C 573.55 366.65 565.06 372.19 556.11 373.97 C 546.42 375.63 535.80 374.28 527.74 368.30 C 521.95 364.37 518.49 357.86 516.78 351.22 C 513.52 338.41 514.94 323.75 523.14 313.01 C 528.29 306.12 536.85 302.91 545.19 302.19 M 546.17 318.16 C 541.64 318.98 537.83 322.53 536.56 326.93 C 534.83 332.41 533.78 338.31 534.97 344.03 C 535.73 348.05 536.68 352.36 539.69 355.35 C 544.36 359.70 552.68 359.98 557.12 355.15 C 560.62 350.96 562.18 345.40 562.04 340.00 C 562.07 334.20 561.90 327.71 558.07 323.00 C 555.35 319.44 550.66 317.16 546.17 318.16 Z" />
<path fill="#3e739e" opacity="1.00" d=" M 610.17 309.55 C 616.07 304.86 623.43 301.81 631.05 302.05 C 636.84 302.52 643.15 304.28 646.78 309.17 C 650.96 314.86 651.67 322.19 652.00 329.02 C 652.01 343.85 651.99 358.67 652.00 373.50 C 645.50 373.50 639.00 373.50 632.50 373.50 C 632.65 364.99 632.09 356.46 632.98 347.99 C 633.34 342.33 632.16 336.71 632.51 331.05 C 632.81 327.07 632.18 322.52 628.72 320.00 C 623.06 316.17 613.25 318.18 611.11 325.12 C 610.90 337.40 609.77 349.73 611.00 362.00 C 610.99 365.84 610.26 369.65 610.47 373.50 C 604.14 373.50 597.82 373.51 591.50 373.50 C 591.50 350.16 591.50 326.83 591.50 303.50 C 597.46 303.49 603.43 303.51 609.39 303.49 C 609.67 305.50 609.95 307.52 610.17 309.55 Z" />
<path fill="#3e739e" opacity="1.00" d=" M 777.10 311.01 C 778.62 307.60 782.78 307.61 785.93 306.91 C 787.65 309.95 790.30 313.12 789.37 316.85 C 786.56 332.42 781.76 347.92 783.10 363.93 C 785.08 363.86 787.30 364.45 789.07 363.25 C 792.44 361.12 794.37 357.45 796.23 354.05 C 803.02 340.72 803.36 325.33 808.71 311.51 C 811.25 306.15 818.29 306.89 822.54 309.66 C 822.87 316.89 821.18 323.99 819.38 330.94 C 817.91 336.44 817.70 342.16 816.78 347.77 C 816.02 352.64 815.87 357.85 818.24 362.34 C 825.19 358.52 829.70 350.85 829.83 342.93 C 830.00 331.17 832.96 319.50 838.21 309.00 C 841.75 309.02 845.48 308.55 848.79 310.16 C 849.14 311.42 850.01 312.60 849.81 313.98 C 848.56 326.11 843.68 337.73 843.99 350.04 C 843.94 353.59 846.24 356.47 847.76 359.50 C 856.29 357.96 863.17 351.88 867.82 344.84 C 873.25 336.78 876.34 327.48 879.76 318.46 C 881.11 314.80 883.97 311.82 887.80 310.79 C 889.83 312.18 892.09 313.29 893.94 314.95 C 892.80 330.02 887.36 345.06 890.61 360.23 C 897.33 355.31 903.82 349.72 908.12 342.48 C 912.47 341.68 917.79 345.27 917.05 350.04 C 917.14 352.41 915.38 354.25 914.26 356.18 C 908.43 365.09 899.88 371.96 890.31 376.48 C 891.60 379.89 890.37 383.51 890.43 387.03 C 889.67 395.81 887.71 404.50 884.78 412.82 C 882.36 419.28 878.28 425.83 871.58 428.47 C 865.84 430.47 859.03 429.52 854.19 425.78 C 849.07 421.19 847.64 413.65 849.22 407.16 C 852.00 390.44 862.89 376.25 876.02 366.07 C 876.06 363.64 876.01 361.21 875.66 358.80 C 867.60 366.31 857.61 374.09 845.89 372.65 C 840.66 373.09 836.86 369.05 833.37 365.81 C 829.40 370.46 824.49 374.25 818.83 376.61 C 813.53 374.68 808.48 371.79 805.13 367.13 C 799.72 372.81 793.55 379.64 784.93 378.91 C 780.93 377.96 775.41 377.95 773.61 373.51 C 767.29 361.97 769.34 348.21 771.36 335.80 C 773.16 327.52 774.12 318.99 777.10 311.01 M 863.39 406.06 C 862.67 408.64 861.75 411.29 862.02 414.02 C 862.73 415.96 865.12 415.95 866.84 416.18 C 873.56 407.43 876.66 396.24 875.98 385.28 C 869.91 390.86 865.96 398.32 863.39 406.06 Z" />
<path fill="#3e739e" opacity="1.00" d=" M 338.19 313.76 C 341.66 314.04 345.14 314.04 348.63 314.00 C 345.93 332.31 343.05 350.59 339.98 368.84 C 336.66 368.68 333.35 368.55 330.03 368.65 C 309.04 369.03 288.04 369.15 267.05 368.70 C 287.93 367.70 308.87 369.00 329.75 368.02 C 332.31 349.90 335.24 331.83 338.19 313.76 Z" />
<path fill="#3e739e" opacity="1.00" d=" M 198.49 324.54 C 206.20 321.45 215.76 328.79 213.65 337.14 C 212.65 345.63 200.59 349.21 194.83 343.14 C 189.17 337.87 191.12 327.17 198.49 324.54 Z" />
</g>
<g id="#050301ff">
<path fill="#050301" opacity="1.00" d=" M 247.12 124.26 C 282.42 124.39 317.72 124.47 353.02 124.24 C 357.61 133.96 361.68 143.92 365.99 153.77 C 367.68 153.79 369.38 153.81 371.08 153.84 C 369.66 156.69 368.28 159.55 366.95 162.44 C 319.13 162.46 271.32 162.37 223.50 162.49 C 223.51 165.48 223.51 168.47 223.50 171.47 C 233.54 171.61 243.59 171.56 253.63 171.57 C 273.46 172.31 293.33 171.86 313.18 171.99 C 309.17 174.79 305.15 177.60 301.62 181.00 C 301.32 181.00 300.72 181.00 300.42 181.00 C 279.47 181.02 258.53 181.00 237.58 180.99 C 235.57 180.99 233.56 181.00 231.55 181.03 L 230.99 181.03 C 230.11 182.73 231.03 184.54 231.95 185.99 C 231.99 186.45 232.07 187.35 232.11 187.81 C 231.49 189.32 231.70 191.09 233.07 192.14 C 233.02 192.60 232.92 193.52 232.87 193.98 C 232.41 195.76 232.84 197.62 234.01 199.04 C 233.98 199.51 233.90 200.47 233.86 200.94 C 233.51 202.41 233.95 203.90 234.86 205.08 C 235.50 209.69 236.32 214.27 237.06 218.87 C 236.49 220.34 236.71 221.99 237.87 223.12 L 238.00 223.70 C 235.40 225.22 232.91 227.15 229.89 227.73 C 227.26 212.02 224.97 196.25 222.34 180.54 C 219.94 180.54 217.54 180.55 215.15 180.56 C 214.95 171.67 215.10 162.77 215.06 153.87 C 221.51 153.79 227.97 154.06 234.41 153.60 C 238.42 143.72 242.67 133.94 247.12 124.26 M 252.33 132.15 C 252.23 132.70 252.03 133.80 251.93 134.35 C 249.40 140.10 246.99 145.91 244.40 151.63 C 281.52 151.47 318.63 151.61 355.75 151.56 C 353.73 147.08 351.99 142.47 349.79 138.07 L 350.25 137.26 L 349.75 136.29 L 348.81 136.19 C 348.60 135.08 348.38 133.99 348.14 132.90 C 346.93 131.99 345.39 131.94 343.95 131.94 C 316.30 131.98 288.65 131.98 261.00 131.94 C 258.11 131.94 255.20 131.77 252.33 132.15 Z" />
</g>
<g id="#305a7cff">
<path fill="#305a7c" opacity="1.00" d=" M 542.85 126.88 C 556.05 122.40 572.37 124.21 582.38 134.58 C 587.63 139.38 589.54 146.64 590.13 153.49 C 585.81 153.51 581.50 153.49 577.20 153.51 C 576.74 146.02 572.01 138.37 564.47 136.39 C 557.78 135.31 550.38 134.74 544.26 138.19 C 537.74 141.68 535.42 151.19 539.85 157.16 C 545.55 163.47 554.20 165.42 562.07 167.59 C 570.70 169.89 579.64 173.50 585.26 180.80 C 592.28 189.10 592.40 202.76 584.67 210.65 C 579.97 216.06 572.95 218.84 566.04 220.06 C 556.92 221.77 547.34 220.64 538.73 217.23 C 528.86 213.23 520.84 203.56 521.40 192.51 C 525.53 192.49 529.65 192.51 533.78 192.48 C 534.57 197.37 536.69 202.27 540.79 205.27 C 549.75 211.81 562.79 212.16 572.04 206.01 C 577.62 201.60 578.84 192.44 573.77 187.14 C 567.10 179.84 556.56 179.27 547.75 176.15 C 539.54 173.45 531.21 169.07 526.72 161.36 C 522.45 153.60 523.65 143.66 528.70 136.54 C 531.90 131.55 537.50 128.93 542.85 126.88 Z" />
<path fill="#305a7c" opacity="1.00" d=" M 951.00 133.00 C 955.33 133.00 959.66 133.00 964.00 133.00 C 964.00 138.67 963.99 144.33 964.00 150.00 C 968.49 150.00 972.99 150.00 977.50 150.00 C 977.50 153.33 977.50 156.67 977.49 160.00 C 972.99 160.00 968.49 160.00 964.00 160.00 C 964.32 174.98 963.18 190.04 964.96 204.94 C 966.05 210.24 972.60 210.30 976.82 209.40 C 977.27 212.52 977.80 215.64 978.11 218.79 C 974.02 219.55 970.02 221.27 965.80 220.93 C 960.76 220.04 955.62 217.34 953.19 212.66 C 951.03 207.76 951.77 202.26 951.09 197.08 C 950.95 189.04 950.88 180.99 951.13 172.96 C 951.87 168.64 951.13 164.32 950.91 160.00 C 947.27 160.00 943.63 160.00 940.00 160.00 C 939.91 156.68 939.98 153.36 940.46 150.08 C 943.93 149.99 947.41 150.01 950.89 149.91 C 951.10 144.27 950.96 138.64 951.00 133.00 Z" />
<path fill="#305a7c" opacity="1.00" d=" M 691.06 157.89 C 700.61 146.17 721.20 145.11 730.69 157.41 C 739.14 167.92 738.98 182.15 738.35 194.92 C 737.24 204.14 732.57 213.58 724.16 218.15 C 713.88 223.09 701.07 221.18 692.43 213.79 C 693.28 224.50 692.94 235.26 693.00 246.00 C 688.66 246.00 684.33 246.00 680.00 246.00 C 680.00 214.00 680.00 182.00 680.00 150.00 C 683.32 150.00 686.64 150.00 689.97 149.99 C 690.42 152.61 690.81 155.24 691.06 157.89 M 692.98 167.88 C 693.11 174.53 691.89 181.17 692.73 187.81 C 693.35 192.17 692.89 196.56 692.57 200.92 C 696.94 211.03 712.71 213.68 719.88 205.07 C 725.94 197.93 726.17 187.93 725.14 179.08 C 723.86 171.85 720.94 163.57 713.58 160.58 C 706.05 157.29 697.22 161.27 692.98 167.88 Z" />
<path fill="#305a7c" opacity="1.00" d=" M 765.18 157.27 C 771.05 151.33 779.42 147.93 787.80 148.79 C 794.44 149.36 801.13 152.38 805.17 157.80 C 812.72 169.61 814.71 184.51 811.73 198.10 C 810.12 204.48 807.66 211.12 802.31 215.31 C 792.16 223.32 776.54 222.62 767.00 213.93 C 767.00 224.62 767.00 235.31 767.00 246.00 C 762.48 245.99 757.96 246.06 753.44 245.92 C 753.53 213.98 753.54 182.03 753.44 150.10 C 756.86 149.96 760.30 149.96 763.74 150.07 C 764.22 152.47 764.72 154.87 765.18 157.27 M 768.20 166.25 C 767.10 168.30 767.15 170.75 767.00 173.02 C 766.94 182.73 767.09 192.43 766.94 202.14 C 771.50 208.79 780.54 212.37 788.22 209.17 C 795.92 205.87 799.58 197.04 799.51 189.08 C 799.96 180.17 798.64 170.35 792.31 163.58 C 785.59 157.00 773.54 158.83 768.20 166.25 Z" />
<path fill="#305a7c" opacity="1.00" d=" M 849.13 149.21 C 855.97 148.86 863.34 148.24 869.64 151.53 C 881.16 157.10 887.37 170.52 886.51 182.97 C 886.92 191.56 885.97 200.65 881.03 207.95 C 871.06 223.88 844.86 225.58 833.14 210.84 C 826.77 203.84 824.48 194.18 824.06 184.96 C 824.30 174.55 827.40 163.55 835.32 156.34 C 838.90 152.43 843.94 150.08 849.13 149.21 M 851.51 159.60 C 843.40 161.84 839.23 170.42 838.27 178.19 C 837.51 186.68 837.52 196.04 842.69 203.28 C 847.87 212.10 862.54 212.62 868.30 204.16 C 873.87 196.76 873.99 186.96 873.28 178.13 C 872.31 172.56 870.40 166.75 866.12 162.83 C 862.01 159.81 856.53 158.12 851.51 159.60 Z" />
<path fill="#305a7c" opacity="1.00" d=" M 914.10 158.91 C 918.71 151.68 928.26 146.32 936.76 149.46 C 935.85 153.45 935.34 157.52 934.88 161.58 C 928.25 160.20 920.59 161.79 916.10 167.15 C 914.75 168.41 915.03 170.36 914.97 172.02 C 915.03 187.84 914.98 203.67 915.00 219.50 C 910.50 219.50 906.00 219.50 901.50 219.49 C 901.50 196.33 901.49 173.17 901.50 150.00 C 905.49 149.99 909.48 149.96 913.48 150.09 C 913.71 153.02 913.98 155.96 914.10 158.91 Z" />
<path fill="#305a7c" opacity="1.00" d=" M 605.45 150.07 C 609.80 149.96 614.14 150.00 618.49 150.00 C 618.77 161.69 617.17 173.37 618.39 185.05 C 618.77 191.39 617.64 198.17 620.76 204.03 C 623.04 209.33 629.71 210.63 634.86 209.81 C 641.08 208.88 647.51 204.50 648.92 198.12 C 649.12 182.09 648.94 166.04 649.00 150.00 C 653.33 150.00 657.66 150.00 662.00 150.00 C 662.00 173.16 662.00 196.33 662.00 219.49 C 657.99 219.51 653.99 219.50 649.98 219.51 C 649.41 216.67 649.41 213.78 649.59 210.91 C 644.39 217.40 636.18 221.22 627.88 220.94 C 622.26 220.36 616.33 218.83 612.31 214.61 C 607.30 209.06 605.12 201.36 605.48 193.98 C 605.49 179.35 605.54 164.71 605.45 150.07 Z" />
<path fill="#305a7c" opacity="1.00" d=" M 1103.17 151.27 C 1112.24 150.38 1122.64 150.64 1129.67 157.28 C 1134.33 161.14 1135.73 167.30 1136.56 173.01 C 1132.26 173.11 1127.90 172.59 1123.67 173.54 C 1122.79 170.61 1122.09 167.38 1119.65 165.30 C 1114.72 160.32 1106.37 159.73 1100.63 163.63 C 1097.23 166.33 1095.56 171.85 1098.33 175.55 C 1100.07 178.25 1103.39 178.89 1106.24 179.84 C 1115.06 182.49 1124.84 183.68 1132.12 189.85 C 1137.17 194.41 1138.05 201.99 1136.30 208.27 C 1134.29 214.37 1128.83 218.66 1123.00 220.88 C 1114.90 223.78 1105.99 223.36 1097.77 221.23 C 1088.36 218.48 1081.23 209.42 1081.36 199.51 C 1085.49 199.49 1089.63 199.50 1093.78 199.49 C 1095.37 212.22 1113.46 216.68 1121.95 207.98 C 1124.90 204.88 1124.70 199.28 1121.16 196.73 C 1113.82 191.29 1104.09 191.83 1096.11 187.81 C 1090.94 185.63 1085.52 182.00 1084.25 176.17 C 1083.82 171.67 1083.35 166.71 1085.75 162.64 C 1089.24 156.29 1096.03 152.10 1103.17 151.27 Z" />
<path fill="#305a7c" opacity="1.00" d=" M 1009.42 152.12 C 1014.14 151.93 1018.87 151.91 1023.60 152.14 C 1023.36 167.42 1023.60 182.71 1023.47 198.00 C 1023.24 202.11 1024.25 206.70 1027.65 209.36 C 1036.73 216.11 1053.08 209.84 1053.50 198.00 C 1053.46 182.70 1053.58 167.40 1053.43 152.10 C 1057.61 151.94 1061.80 152.00 1066.00 152.01 C 1066.00 175.17 1066.00 198.33 1066.00 221.50 C 1061.99 221.50 1057.99 221.50 1054.00 221.50 C 1053.99 218.78 1053.99 216.07 1054.00 213.36 C 1048.39 219.35 1040.47 223.78 1032.05 222.99 C 1027.34 222.44 1022.31 221.53 1018.62 218.32 C 1013.32 213.83 1010.47 206.88 1010.04 200.05 C 1008.89 184.10 1009.84 168.09 1009.42 152.12 Z" />
</g>
<g id="#161310e6">
<path fill="#161310" opacity="0.90" d=" M 252.33 132.15 C 255.20 131.77 258.11 131.94 261.00 131.94 C 288.65 131.98 316.30 131.98 343.95 131.94 C 345.39 131.94 346.93 131.99 348.14 132.90 C 316.37 133.17 284.60 132.87 252.83 133.04 C 252.60 133.37 252.16 134.03 251.93 134.35 C 252.03 133.80 252.23 132.70 252.33 132.15 Z" />
</g>
<g id="#4c88b9ff">
<path fill="#4c88b9" opacity="1.00" d=" M 418.30 134.95 C 421.61 132.62 427.17 132.83 429.50 136.44 C 430.51 139.32 430.40 142.48 430.57 145.50 C 432.17 145.50 433.78 145.50 435.40 145.49 C 437.56 146.12 440.09 146.42 441.63 148.27 C 442.81 150.60 442.67 153.32 442.37 155.84 C 440.44 160.05 435.23 160.63 431.15 160.48 C 430.23 163.81 430.81 167.72 428.31 170.45 C 426.26 172.97 422.61 171.67 419.83 172.08 C 415.83 169.73 415.79 164.69 415.38 160.62 C 412.32 160.11 409.03 160.25 406.21 158.85 C 403.22 156.34 403.15 151.55 404.96 148.33 C 407.34 144.93 412.04 145.77 415.63 145.43 C 416.40 141.97 415.17 137.43 418.30 134.95 Z" />
<path fill="#4c88b9" opacity="1.00" d=" M 300.42 181.00 C 300.72 181.00 301.32 181.00 301.62 181.00 C 320.80 181.02 339.98 181.01 359.16 180.98 C 356.39 196.64 354.65 212.49 351.08 227.99 C 315.62 227.91 280.15 228.20 244.69 227.85 C 244.30 225.01 243.94 222.17 243.64 219.33 C 253.23 213.45 262.43 206.95 271.81 200.75 C 281.03 193.72 291.19 188.02 300.42 181.00 Z" />
<path fill="#4c88b9" opacity="1.00" d=" M 258.72 315.72 C 258.79 315.24 258.93 314.27 259.00 313.78 C 285.38 313.52 311.81 313.19 338.19 313.76 C 335.24 331.83 332.31 349.90 329.75 368.02 C 308.87 369.00 287.93 367.70 267.05 368.70 C 264.52 351.00 261.65 333.35 258.72 315.72 Z" />
</g>
<g id="#23212092">
<path fill="#232120" opacity="0.57" d=" M 348.81 136.19 L 349.75 136.29 L 350.25 137.26 L 349.79 138.07 C 349.55 137.60 349.06 136.66 348.81 136.19 Z" />
</g>
<g id="#000000ff">
<path fill="#000000" opacity="1.00" d=" M 371.08 153.84 C 376.14 153.87 381.21 153.85 386.28 153.87 C 386.31 162.71 386.23 171.54 386.32 180.38 C 383.64 180.49 380.97 180.54 378.29 180.61 C 375.99 196.31 373.19 211.94 371.04 227.66 C 374.70 227.57 378.36 227.56 382.03 227.65 C 376.92 256.47 371.75 285.28 366.68 314.10 C 363.57 314.20 360.47 314.24 357.37 314.25 C 357.09 315.26 356.81 316.27 356.52 317.29 C 356.25 313.37 356.83 309.47 357.29 305.60 C 357.83 305.60 358.92 305.61 359.46 305.61 C 359.66 304.43 359.87 303.25 360.08 302.08 C 360.98 300.91 361.61 299.40 361.13 297.92 L 360.98 297.02 C 362.33 295.66 362.59 293.70 361.95 291.95 L 362.03 291.12 C 363.29 290.03 363.51 288.31 362.92 286.82 C 362.96 286.38 363.03 285.52 363.06 285.08 C 363.98 283.93 364.61 282.42 364.14 280.95 L 363.98 280.03 C 365.39 278.70 365.60 276.71 364.92 274.97 C 365.32 272.66 365.72 270.35 366.11 268.04 C 367.00 266.89 367.63 265.40 367.14 263.94 L 366.98 263.03 C 368.31 261.67 368.58 259.73 367.99 257.98 L 368.06 257.07 C 369.00 255.91 369.56 254.40 369.15 252.92 C 369.10 252.48 369.00 251.59 368.94 251.15 C 370.25 250.10 370.49 248.39 369.98 246.87 L 370.01 246.10 C 371.31 245.01 371.52 243.26 370.92 241.74 C 370.96 241.37 371.05 240.63 371.09 240.26 C 371.36 238.84 371.69 237.42 372.00 236.01 C 364.09 236.02 356.17 235.81 348.27 236.18 C 308.27 235.90 268.27 236.03 228.27 236.11 C 230.30 247.00 232.23 257.91 234.08 268.84 C 233.48 270.31 233.70 272.00 234.93 273.10 C 236.73 283.94 238.81 294.73 240.60 305.57 C 251.21 305.59 261.81 305.48 272.42 305.42 C 283.55 306.97 294.79 305.28 305.97 305.87 C 313.20 305.95 320.50 306.54 327.69 305.42 C 331.75 305.43 335.81 305.51 339.87 305.49 C 339.29 308.24 338.72 311.00 338.19 313.76 C 311.81 313.19 285.38 313.52 259.00 313.78 C 258.93 314.27 258.79 315.24 258.72 315.72 C 258.26 315.16 257.81 314.59 257.38 314.02 C 255.61 314.01 253.84 314.01 252.07 314.02 L 252.01 314.81 C 251.51 316.31 251.73 317.97 252.89 319.12 C 253.32 322.04 253.89 324.97 253.96 327.93 C 253.55 329.42 253.87 331.00 255.03 332.08 C 254.99 332.54 254.90 333.48 254.85 333.95 C 254.48 335.43 254.98 336.94 255.91 338.11 C 255.95 338.56 256.03 339.47 256.07 339.92 C 255.38 341.67 255.57 343.71 257.06 345.00 C 257.01 345.48 256.91 346.43 256.86 346.91 C 256.45 348.41 256.95 349.96 258.03 351.06 C 257.98 351.53 257.90 352.46 257.85 352.93 C 257.48 354.40 257.97 355.91 258.91 357.08 C 258.95 357.54 259.03 358.47 259.07 358.94 C 258.40 360.69 258.62 362.65 259.94 364.05 C 260.17 365.54 260.41 367.03 260.65 368.54 C 262.78 368.57 264.92 368.61 267.05 368.70 C 288.04 369.15 309.04 369.03 330.03 368.65 C 330.01 371.48 329.99 374.32 329.98 377.15 C 304.42 377.14 278.87 377.22 253.31 377.06 C 250.09 356.12 246.70 335.21 243.48 314.27 C 240.21 313.99 236.67 314.75 233.57 313.78 C 228.33 285.07 223.25 256.32 218.18 227.57 C 222.08 227.53 225.98 227.61 229.89 227.73 C 232.91 227.15 235.40 225.22 238.00 223.70 C 238.44 224.84 238.34 226.36 239.23 227.30 C 241.02 227.64 242.86 227.72 244.69 227.85 C 280.15 228.20 315.62 227.91 351.08 227.99 C 354.85 228.04 358.62 228.04 362.40 227.96 C 364.56 212.25 367.38 196.65 369.64 180.96 C 366.14 180.96 362.65 180.96 359.16 180.98 C 339.98 181.01 320.80 181.02 301.62 181.00 C 305.15 177.60 309.17 174.79 313.18 171.99 C 324.21 171.74 335.25 172.16 346.27 171.58 C 356.50 171.63 366.73 171.46 376.96 171.56 L 377.98 171.57 C 378.02 168.50 378.02 165.44 377.99 162.37 L 376.95 162.39 C 373.62 162.45 370.28 162.45 366.95 162.44 C 368.28 159.55 369.66 156.69 371.08 153.84 Z" />
</g>
<g id="#2a2d2e76">
<path fill="#2a2d2e" opacity="0.46" d=" M 376.95 162.39 L 377.99 162.37 C 378.02 165.44 378.02 168.50 377.98 171.57 L 376.96 171.56 C 376.97 168.50 376.97 165.44 376.95 162.39 Z" />
</g>
<g id="#19171666">
<path fill="#191716" opacity="0.40" d=" M 253.63 171.57 C 261.73 170.89 269.87 171.11 277.99 171.10 C 292.31 170.96 306.65 170.88 320.97 171.15 C 329.41 171.26 337.85 170.94 346.27 171.58 C 335.25 172.16 324.21 171.74 313.18 171.99 C 293.33 171.86 273.46 172.31 253.63 171.57 Z" />
</g>
<g id="#1c1a1888">
<path fill="#1c1a18" opacity="0.53" d=" M 230.99 181.03 L 231.55 181.03 C 232.46 182.54 232.15 184.34 231.95 185.99 C 231.03 184.54 230.11 182.73 230.99 181.03 Z" />
</g>
<g id="#679ac2fc">
<path fill="#679ac2" opacity="1.00" d=" M 237.58 180.99 C 258.53 181.00 279.47 181.02 300.42 181.00 C 291.19 188.02 281.03 193.72 271.81 200.75 C 262.43 206.95 253.23 213.45 243.64 219.33 C 241.95 206.50 239.70 193.75 237.58 180.99 Z" />
</g>
<g id="#1c1a1895">
<path fill="#1c1a18" opacity="0.58" d=" M 232.11 187.81 C 233.27 188.95 233.50 190.61 233.07 192.14 C 231.70 191.09 231.49 189.32 232.11 187.81 Z" />
</g>
<g id="#1c1b1990">
<path fill="#1c1b19" opacity="0.56" d=" M 232.87 193.98 C 234.69 195.01 234.34 197.32 234.01 199.04 C 232.84 197.62 232.41 195.76 232.87 193.98 Z" />
</g>
<g id="#1d1b1a8a">
<path fill="#1d1b1a" opacity="0.54" d=" M 233.86 200.94 C 235.70 201.44 235.34 203.72 234.86 205.08 C 233.95 203.90 233.51 202.41 233.86 200.94 Z" />
</g>
<g id="#1c1b1980">
<path fill="#1c1b19" opacity="0.50" d=" M 237.06 218.87 C 238.34 219.92 238.56 221.65 237.87 223.12 C 236.71 221.99 236.49 220.34 237.06 218.87 Z" />
</g>
<g id="#37383961">
<path fill="#373839" opacity="0.38" d=" M 348.27 236.18 C 356.17 235.81 364.09 236.02 372.00 236.01 C 371.69 237.42 371.36 238.84 371.09 240.26 C 371.16 239.44 371.30 237.79 371.37 236.96 C 363.68 236.59 355.83 237.98 348.27 236.18 Z" />
</g>
<g id="#1c1c1c9a">
<path fill="#1c1c1c" opacity="0.60" d=" M 370.01 246.10 C 369.53 244.57 369.71 242.88 370.92 241.74 C 371.52 243.26 371.31 245.01 370.01 246.10 Z" />
</g>
<g id="#1e1e1e7d">
<path fill="#1e1e1e" opacity="0.49" d=" M 368.94 251.15 C 368.44 249.62 368.71 247.93 369.98 246.87 C 370.49 248.39 370.25 250.10 368.94 251.15 Z" />
</g>
<g id="#1f1f1f91">
<path fill="#1f1f1f" opacity="0.57" d=" M 368.06 257.07 C 367.65 255.67 367.35 253.46 369.15 252.92 C 369.56 254.40 369.00 255.91 368.06 257.07 Z" />
</g>
<g id="#1b1b1b87">
<path fill="#1b1b1b" opacity="0.53" d=" M 366.98 263.03 C 366.34 261.27 366.66 259.32 367.99 257.98 C 368.58 259.73 368.31 261.67 366.98 263.03 Z" />
</g>
<g id="#1e1e1e84">
<path fill="#1e1e1e" opacity="0.52" d=" M 366.11 268.04 C 365.66 266.67 365.35 264.47 367.14 263.94 C 367.63 265.40 367.00 266.89 366.11 268.04 Z" />
</g>
<g id="#18181888">
<path fill="#181818" opacity="0.53" d=" M 234.08 268.84 C 235.33 269.91 235.52 271.61 234.93 273.10 C 233.70 272.00 233.48 270.31 234.08 268.84 Z" />
</g>
<g id="#1b1b1b8c">
<path fill="#1b1b1b" opacity="0.55" d=" M 363.98 280.03 C 363.37 278.27 363.71 276.38 364.92 274.97 C 365.60 276.71 365.39 278.70 363.98 280.03 Z" />
</g>
<g id="#1f1f1f8b">
<path fill="#1f1f1f" opacity="0.55" d=" M 363.06 285.08 C 362.69 283.70 362.33 281.47 364.14 280.95 C 364.61 282.42 363.98 283.93 363.06 285.08 Z" />
</g>
<g id="#1d1d1d9a">
<path fill="#1d1d1d" opacity="0.60" d=" M 362.03 291.12 C 361.50 289.61 361.67 287.91 362.92 286.82 C 363.51 288.31 363.29 290.03 362.03 291.12 Z" />
</g>
<g id="#1b1b1b92">
<path fill="#1b1b1b" opacity="0.57" d=" M 360.98 297.02 C 360.37 295.26 360.66 293.32 361.95 291.95 C 362.59 293.70 362.33 295.66 360.98 297.02 Z" />
</g>
<g id="#1f1f1f90">
<path fill="#1f1f1f" opacity="0.56" d=" M 360.08 302.08 C 359.67 300.69 359.34 298.48 361.13 297.92 C 361.61 299.40 360.98 300.91 360.08 302.08 Z" />
</g>
<g id="#313131df">
<path fill="#313131" opacity="0.87" d=" M 272.42 305.42 C 278.58 304.83 284.78 305.00 290.97 305.00 C 303.21 305.22 315.47 304.53 327.69 305.42 C 320.50 306.54 313.20 305.95 305.97 305.87 C 294.79 305.28 283.55 306.97 272.42 305.42 Z" />
</g>
<g id="#030609ff">
<path fill="#030609" opacity="1.00" d=" M 339.87 305.49 C 345.67 305.47 351.48 305.56 357.29 305.60 C 356.83 309.47 356.25 313.37 356.52 317.29 C 356.59 319.21 356.24 321.12 355.93 323.02 C 352.97 341.06 350.32 359.16 347.33 377.20 C 341.55 377.14 335.76 377.19 329.98 377.15 C 329.99 374.32 330.01 371.48 330.03 368.65 C 333.35 368.55 336.66 368.68 339.98 368.84 C 343.05 350.59 345.93 332.31 348.63 314.00 C 345.14 314.04 341.66 314.04 338.19 313.76 C 338.72 311.00 339.29 308.24 339.87 305.49 Z" />
</g>
<g id="#1c1c1c84">
<path fill="#1c1c1c" opacity="0.52" d=" M 252.01 314.81 C 253.36 315.85 253.51 317.62 252.89 319.12 C 251.73 317.97 251.51 316.31 252.01 314.81 Z" />
</g>
<g id="#1b1b1b96">
<path fill="#1b1b1b" opacity="0.59" d=" M 253.96 327.93 C 255.66 328.55 255.35 330.68 255.03 332.08 C 253.87 331.00 253.55 329.42 253.96 327.93 Z" />
</g>
<g id="#1b1b1b86">
<path fill="#1b1b1b" opacity="0.53" d=" M 254.85 333.95 C 256.68 334.47 256.35 336.72 255.91 338.11 C 254.98 336.94 254.48 335.43 254.85 333.95 Z" />
</g>
<g id="#1a1a1a8d">
<path fill="#1a1a1a" opacity="0.55" d=" M 256.07 339.92 C 257.28 341.34 257.54 343.23 257.06 345.00 C 255.57 343.71 255.38 341.67 256.07 339.92 Z" />
</g>
<g id="#1a1a1a97">
<path fill="#1a1a1a" opacity="0.59" d=" M 256.86 346.91 C 258.59 347.49 258.35 349.65 258.03 351.06 C 256.95 349.96 256.45 348.41 256.86 346.91 Z" />
</g>
<g id="#1c1c1c89">
<path fill="#1c1c1c" opacity="0.54" d=" M 257.85 352.93 C 259.67 353.45 259.35 355.69 258.91 357.08 C 257.97 355.91 257.48 354.40 257.85 352.93 Z" />
</g>
<g id="#1a1a1a90">
<path fill="#1a1a1a" opacity="0.56" d=" M 259.07 358.94 C 260.36 360.34 260.54 362.29 259.94 364.05 C 258.62 362.65 258.40 360.69 259.07 358.94 Z" />
</g>
</svg>
