<?xml version="1.0" encoding="UTF-8" ?>
<!DOCTYPE svg PUBLIC "-//W3C//DTD SVG 1.1//EN" "http://www.w3.org/Graphics/SVG/1.1/DTD/svg11.dtd">
<svg width="1371pt" height="494pt" viewBox="0 0 1371 494" version="1.1" xmlns="http://www.w3.org/2000/svg">
<g id="#3e739eff">
<path fill="#3e739e" opacity="1.00" d=" M 96.64 66.80 C 136.68 33.86 188.09 15.06 239.91 14.25 C 243.26 13.65 246.61 14.48 249.97 14.51 C 534.66 14.50 819.35 14.48 1104.04 14.52 C 1146.01 11.93 1189.20 18.31 1227.22 36.85 C 1243.04 44.20 1257.37 54.24 1271.39 64.54 C 1286.84 76.33 1300.63 90.33 1311.90 106.20 C 1324.31 120.66 1332.56 138.00 1341.28 154.78 C 1346.76 171.12 1352.87 187.34 1355.84 204.38 C 1358.29 218.44 1360.55 232.65 1360.01 246.97 C 1359.40 270.65 1356.43 294.43 1349.37 317.10 C 1338.13 352.90 1318.52 386.36 1291.35 412.38 C 1268.94 435.98 1240.65 453.46 1210.54 465.49 C 1205.98 467.21 1201.51 469.47 1196.56 469.71 C 1189.19 472.01 1181.99 475.37 1174.10 475.34 C 1170.83 475.06 1167.44 475.06 1164.82 477.30 C 1164.45 477.51 1163.72 477.92 1163.35 478.12 L 1162.60 477.92 C 1157.87 476.19 1152.50 476.39 1148.52 479.71 C 1126.76 481.73 1104.83 480.78 1082.98 481.00 C 808.99 481.00 534.99 481.00 261.00 481.00 C 248.39 481.10 235.79 480.77 223.22 479.80 C 221.17 478.80 219.24 477.47 216.99 476.96 C 214.27 476.40 211.58 477.37 208.94 477.89 C 200.12 476.98 191.46 474.61 182.87 472.39 C 157.17 466.10 133.12 454.11 111.14 439.55 C 105.79 435.33 100.28 431.32 94.89 427.14 C 88.58 422.13 83.64 415.66 77.62 410.34 C 62.57 395.97 50.29 378.88 40.46 360.58 C 31.18 344.94 24.78 327.77 19.80 310.33 C 15.09 293.94 12.20 277.01 11.50 259.97 C 11.69 253.91 10.34 247.86 11.32 241.81 C 11.60 228.87 12.69 215.89 15.23 203.18 C 15.75 203.16 16.79 203.13 17.32 203.11 C 16.70 202.97 15.46 202.67 14.84 202.53 C 18.92 188.88 21.36 174.64 27.69 161.77 C 36.46 138.41 49.24 116.51 65.83 97.84 C 75.15 86.61 85.44 76.16 96.64 66.80 M 232.19 44.19 C 182.43 45.68 134.03 67.80 99.37 103.36 C 65.24 138.08 44.37 185.42 41.54 234.02 C 38.99 269.91 46.17 306.50 62.14 338.77 C 68.39 350.28 75.55 361.26 82.99 372.02 C 89.17 381.58 97.26 389.67 105.33 397.62 C 138.93 429.22 183.83 448.76 229.97 451.01 C 286.64 450.98 343.31 451.01 399.99 450.99 C 406.35 450.74 412.67 451.84 419.04 451.50 C 598.69 451.51 778.35 451.49 958.00 451.51 C 971.29 450.53 984.65 451.19 997.98 451.00 C 1043.96 451.00 1089.95 450.99 1135.93 451.00 C 1145.29 451.23 1154.60 449.96 1163.83 448.53 C 1204.76 441.45 1243.34 421.13 1272.12 391.16 C 1286.16 377.29 1296.21 360.08 1306.40 343.35 C 1328.18 302.67 1334.91 254.39 1326.35 209.15 C 1319.34 170.17 1300.40 133.56 1273.17 104.87 C 1261.32 92.40 1247.49 81.94 1232.74 73.14 C 1217.89 64.10 1202.17 56.19 1185.35 51.59 C 1166.42 46.08 1146.68 43.88 1127.02 44.00 C 852.67 44.00 578.32 44.00 303.97 44.00 C 280.05 44.13 256.11 43.75 232.19 44.19 Z" />
<path fill="#3e739e" opacity="1.00" d=" M 296.50 117.60 C 305.38 116.66 315.37 115.76 323.31 120.74 C 328.00 123.81 331.79 129.14 331.53 134.95 C 331.46 148.66 331.53 162.37 331.50 176.08 C 330.83 182.38 326.77 188.18 321.18 191.13 C 311.59 196.03 299.91 196.00 290.08 191.81 C 284.73 189.22 280.09 184.11 279.54 178.00 C 279.30 171.32 279.85 164.63 279.11 157.97 C 279.97 150.06 279.14 142.09 279.63 134.17 C 280.89 125.73 288.30 119.15 296.50 117.60 Z" />
<path fill="#3e739e" opacity="1.00" d=" M 148.32 134.18 C 157.80 131.99 168.06 134.57 175.78 140.38 C 193.15 152.99 210.56 165.55 228.17 177.82 C 233.39 181.23 237.63 186.57 238.92 192.74 C 240.16 199.32 235.78 205.24 230.54 208.66 C 220.60 214.60 207.17 215.23 197.45 208.49 C 182.24 198.18 167.37 187.35 152.76 176.21 L 152.67 176.72 C 147.63 171.86 141.32 168.51 136.08 163.89 C 131.48 159.93 131.76 153.31 132.43 147.84 C 133.81 140.27 141.20 135.51 148.32 134.18 Z" />
<path fill="#3e739e" opacity="1.00" d=" M 429.50 145.24 C 435.76 140.50 442.68 135.82 450.73 135.14 C 458.47 134.35 467.00 135.74 472.91 141.16 C 474.57 142.77 476.55 144.47 476.97 146.85 C 476.69 152.15 475.72 157.47 476.57 162.77 C 473.27 166.36 469.22 169.08 465.35 171.98 C 450.39 182.83 435.68 194.03 420.47 204.53 C 414.68 208.48 409.02 213.34 401.83 214.31 C 394.08 215.13 385.70 214.36 379.13 209.81 C 375.05 207.20 371.73 203.04 371.01 198.16 C 370.29 192.46 373.42 187.16 377.22 183.20 C 381.77 178.96 387.14 175.77 392.12 172.08 C 404.68 163.28 417.14 154.33 429.50 145.24 Z" />
<path fill="#3e739e" opacity="1.00" d=" M 221.57 222.82 C 240.26 213.48 261.02 208.72 281.78 207.18 C 302.13 205.95 322.76 205.80 342.87 209.61 C 370.58 214.44 398.21 226.84 415.91 249.38 C 369.62 249.66 323.33 249.42 277.04 249.50 C 247.91 249.39 218.76 249.73 189.63 249.33 C 197.97 238.09 209.08 229.09 221.57 222.82 Z" />
<path fill="#3e739e" opacity="1.00" d=" M 375.11 285.91 C 388.12 279.05 403.66 277.41 417.90 280.87 C 429.40 283.68 440.18 290.25 446.94 300.11 C 454.01 309.86 455.77 322.25 456.07 334.00 C 435.73 334.00 415.39 334.01 395.05 333.99 C 391.69 334.03 388.36 334.57 384.99 334.50 C 385.77 340.35 387.03 347.37 392.49 350.70 C 398.93 354.13 407.22 355.59 413.85 351.84 C 417.31 350.10 419.72 346.53 423.59 345.59 C 428.96 345.20 434.36 345.86 439.73 345.28 C 444.81 344.44 449.86 346.01 454.96 345.44 C 450.71 359.71 438.42 370.82 424.14 374.59 C 410.51 377.87 395.96 377.98 382.54 373.62 C 371.07 369.65 360.64 361.72 355.20 350.70 C 348.81 338.00 348.36 322.60 353.52 309.40 C 357.33 299.18 365.30 290.63 375.11 285.91 M 399.03 301.03 C 392.37 303.00 387.31 308.74 385.87 315.50 C 398.56 315.20 411.32 316.16 423.97 314.90 C 422.34 311.72 420.98 308.30 418.45 305.70 C 413.68 300.44 405.68 298.52 399.03 301.03 Z" />
<path fill="#3e739e" opacity="1.00" d=" M 202.49 292.81 C 213.35 284.39 227.37 278.66 241.26 281.34 C 251.18 282.82 259.93 288.89 265.95 296.75 C 272.01 288.78 280.96 283.03 290.88 281.36 C 302.36 278.93 315.14 282.14 323.58 290.44 C 329.17 296.49 330.98 304.99 331.01 313.00 C 330.93 333.19 331.11 353.37 330.92 373.56 C 319.45 373.43 307.97 373.53 296.50 373.50 C 296.46 357.99 296.57 342.47 296.45 326.95 C 296.03 322.77 296.15 318.43 294.70 314.44 C 291.85 307.54 282.65 304.22 276.11 307.91 C 272.74 309.47 270.42 312.57 268.84 315.85 C 266.80 320.27 267.00 325.25 266.55 330.00 C 266.06 344.51 268.06 359.04 266.14 373.51 C 254.93 373.49 243.71 373.51 232.50 373.50 C 232.49 361.00 232.50 348.50 232.50 336.00 C 232.53 329.36 232.60 322.62 231.13 316.12 C 228.58 306.65 215.04 303.39 208.14 310.09 C 203.13 314.14 202.75 321.09 202.50 327.02 C 202.49 342.51 202.51 358.01 202.50 373.50 C 191.02 373.52 179.53 373.46 168.05 373.54 C 167.96 343.18 168.00 312.83 168.03 282.47 C 179.32 282.76 190.63 281.11 201.91 282.53 C 203.73 285.71 202.68 289.38 202.49 292.81 Z" />
<path fill="#3e739e" opacity="1.00" d=" M 698.51 299.99 C 699.23 287.83 712.04 278.83 723.76 280.81 C 731.06 281.62 737.67 286.42 740.96 292.95 C 744.05 299.53 742.72 306.99 743.00 314.00 C 737.99 314.00 732.99 314.00 727.99 314.00 C 727.59 308.25 729.69 300.81 724.39 296.72 C 720.39 293.68 715.26 296.27 712.96 300.09 C 713.34 315.40 711.57 330.72 712.98 346.02 C 713.21 349.52 712.61 353.08 713.27 356.54 C 715.09 362.94 725.96 362.46 727.34 356.03 C 728.73 349.46 727.67 342.66 728.00 336.00 C 725.33 336.00 722.66 336.00 720.00 336.00 C 720.00 331.00 720.00 326.00 720.00 321.00 C 727.66 321.00 735.33 321.00 743.00 321.00 C 742.99 332.67 743.02 344.34 742.99 356.00 C 742.64 367.60 731.43 377.13 720.03 376.55 C 708.81 376.53 697.66 366.65 698.47 355.02 C 698.54 336.68 698.46 318.33 698.51 299.99 Z" />
<path fill="#3e739e" opacity="1.00" d=" M 771.35 281.18 C 783.30 278.12 797.24 286.72 798.80 299.20 C 799.40 305.53 798.54 311.92 799.32 318.24 C 799.70 323.81 799.60 329.42 799.06 334.98 C 798.83 342.39 799.18 349.81 798.93 357.21 C 797.80 367.60 788.37 376.01 778.01 376.51 C 767.45 377.49 756.84 369.75 754.62 359.38 C 753.62 354.98 754.12 350.45 753.99 345.99 C 753.28 337.76 753.35 329.48 753.68 321.23 C 755.06 311.68 751.89 301.32 756.75 292.43 C 759.56 286.66 765.18 282.67 771.35 281.18 M 772.55 296.72 C 770.78 297.89 769.01 299.68 769.03 301.95 C 768.77 310.97 769.43 320.02 768.59 329.01 C 769.44 337.96 768.69 346.97 769.11 355.94 C 770.29 360.20 775.99 362.49 779.81 360.15 C 783.00 358.37 784.12 354.43 784.01 350.99 C 783.95 335.28 784.08 319.58 783.95 303.88 C 784.18 298.39 777.47 293.02 772.55 296.72 Z" />
<path fill="#3e739e" opacity="1.00" d=" M 810.50 282.00 C 824.00 282.00 837.50 282.00 851.00 282.00 C 850.99 286.85 851.04 291.69 850.94 296.54 C 842.46 296.45 833.98 296.52 825.50 296.50 C 825.50 304.67 825.49 312.84 825.51 321.00 C 831.67 321.00 837.83 321.00 844.00 321.00 C 843.98 325.82 844.05 330.65 843.94 335.47 C 837.68 336.31 831.36 335.94 825.07 335.98 C 825.81 339.58 825.43 343.27 825.50 346.93 C 825.52 356.27 825.45 365.61 825.54 374.95 C 820.51 374.84 815.51 375.23 810.51 375.60 C 810.48 344.40 810.50 313.20 810.50 282.00 Z" />
<path fill="#3e739e" opacity="1.00" d=" M 859.47 282.04 C 864.31 281.96 869.15 282.00 874.00 282.00 C 873.99 305.01 874.01 328.02 873.99 351.02 C 873.99 353.55 874.42 356.21 875.85 358.35 C 877.27 360.39 879.84 360.98 882.05 361.78 C 885.85 360.53 889.66 357.39 889.49 353.04 C 889.48 329.38 889.54 305.71 889.46 282.05 C 894.48 281.97 899.51 281.96 904.55 282.06 C 904.43 307.05 904.55 332.04 904.49 357.02 C 903.78 369.59 890.19 378.68 878.21 376.13 C 871.45 375.16 865.56 370.66 862.16 364.84 C 860.29 360.86 859.60 356.41 859.49 352.05 C 859.49 328.71 859.54 305.38 859.47 282.04 Z" />
<path fill="#3e739e" opacity="1.00" d=" M 916.50 282.00 C 921.94 282.00 927.38 282.00 932.83 282.00 C 938.92 301.06 943.23 320.73 950.55 339.38 C 950.43 320.25 950.53 301.13 950.50 282.00 C 955.33 282.00 960.16 282.00 965.00 282.00 C 965.00 313.00 965.00 344.00 965.00 375.01 C 959.73 374.66 954.50 375.52 949.25 375.37 C 943.45 357.15 938.02 338.80 931.42 320.84 C 930.61 339.05 931.16 357.31 931.00 375.55 C 926.15 375.63 921.31 374.52 916.51 375.59 C 916.48 344.39 916.50 313.19 916.50 282.00 Z" />
<path fill="#3e739e" opacity="1.00" d=" M 977.00 282.00 C 985.93 282.25 994.93 281.44 1003.82 282.52 C 1014.13 283.72 1021.38 293.95 1021.47 303.93 C 1021.55 319.95 1021.46 335.98 1021.52 352.01 C 1021.67 360.52 1017.06 369.21 1009.24 372.94 C 1005.49 375.01 1001.11 374.87 996.98 375.23 C 990.32 376.13 983.67 374.54 977.00 375.01 C 977.00 344.01 977.00 313.00 977.00 282.00 M 991.51 297.00 C 991.50 318.16 991.50 339.33 991.50 360.49 C 994.98 360.40 998.57 360.91 1001.97 359.91 C 1005.17 358.69 1007.15 355.39 1006.99 352.00 C 1007.01 337.32 1007.01 322.63 1006.99 307.94 C 1006.67 304.80 1007.04 300.90 1004.16 298.82 C 1000.47 296.29 995.71 297.12 991.51 297.00 Z" />
<path fill="#3e739e" opacity="1.00" d=" M 1032.50 282.00 C 1039.05 282.04 1045.60 281.92 1052.15 282.03 C 1054.38 281.78 1053.86 284.73 1054.40 286.08 C 1058.54 305.84 1061.50 325.86 1066.50 345.43 C 1069.84 324.20 1074.40 303.17 1078.12 282.00 C 1084.94 282.00 1091.76 282.00 1098.58 282.00 C 1097.56 293.29 1098.15 304.64 1098.00 315.97 C 1098.00 335.85 1098.00 355.72 1098.00 375.60 C 1092.99 375.03 1087.96 374.87 1082.94 375.01 C 1083.91 362.35 1083.34 349.65 1083.52 336.96 C 1083.67 332.54 1082.95 328.17 1082.56 323.79 C 1079.65 340.50 1076.14 357.13 1072.32 373.65 C 1069.54 377.25 1063.99 374.67 1060.09 374.91 C 1055.91 357.11 1052.15 339.20 1047.38 321.56 C 1047.66 339.37 1047.43 357.19 1047.50 375.01 C 1042.49 374.81 1037.49 375.16 1032.51 375.60 C 1032.49 344.40 1032.50 313.20 1032.50 282.00 Z" />
<path fill="#3e739e" opacity="1.00" d=" M 1110.00 282.00 C 1123.68 282.00 1137.37 282.00 1151.06 282.00 C 1151.00 286.84 1150.23 291.65 1150.50 296.50 C 1141.83 296.50 1133.17 296.50 1124.50 296.50 C 1124.76 304.66 1123.92 312.89 1125.03 321.00 C 1131.19 321.01 1137.36 320.96 1143.53 321.04 C 1143.48 325.84 1143.50 330.63 1143.50 335.43 C 1137.18 335.97 1130.84 336.12 1124.50 336.00 C 1124.47 343.98 1124.55 351.95 1124.46 359.93 C 1133.23 361.11 1142.13 360.26 1150.97 360.46 C 1151.21 365.49 1150.22 370.49 1150.49 375.53 C 1137.02 374.69 1123.50 375.08 1110.00 375.00 C 1110.00 344.00 1110.00 313.00 1110.00 282.00 Z" />
<path fill="#3e739e" opacity="1.00" d=" M 540.60 304.65 C 548.93 302.89 557.83 303.98 565.56 307.51 C 572.48 311.54 578.07 318.19 580.03 326.05 C 581.98 332.52 581.49 339.33 581.49 346.00 C 581.13 356.00 575.88 365.78 567.44 371.25 C 559.56 376.78 549.30 376.64 540.16 375.35 C 527.73 373.35 518.37 362.24 516.34 350.14 C 515.38 339.79 514.88 328.59 520.20 319.22 C 524.80 312.02 531.81 305.75 540.60 304.65 M 546.14 320.06 C 542.28 321.21 539.32 324.40 537.54 327.91 C 534.57 334.40 534.88 341.81 536.13 348.68 C 536.85 352.34 539.20 355.55 542.12 357.80 C 546.33 361.18 553.01 360.58 556.68 356.68 C 560.24 353.51 561.59 348.66 561.92 344.06 C 562.19 338.18 562.39 331.88 559.34 326.60 C 556.73 322.18 551.40 318.60 546.14 320.06 Z" />
<path fill="#3e739e" opacity="1.00" d=" M 609.96 311.11 C 617.90 304.44 629.19 302.24 639.11 305.08 C 646.01 307.69 650.47 314.93 651.46 322.01 C 651.57 339.86 651.47 357.72 651.50 375.57 C 645.15 375.15 638.83 374.74 632.50 375.58 C 632.50 361.05 632.48 346.52 632.52 331.99 C 632.62 328.57 631.44 325.32 630.43 322.11 C 625.42 319.57 618.41 318.63 614.14 323.03 C 611.42 325.14 611.68 328.89 611.49 331.97 C 611.52 345.81 611.47 359.65 611.52 373.49 C 605.31 377.38 597.82 374.75 591.06 374.44 C 590.92 351.32 591.04 328.19 591.00 305.06 C 597.33 304.73 603.66 304.27 610.01 304.51 C 610.00 306.70 609.99 308.90 609.96 311.11 Z" />
</g>
<g id="#0a131aff">
<path fill="#0a131a" opacity="1.00" d=" M 536.75 127.81 C 551.51 119.78 572.34 121.07 583.69 134.34 C 587.94 139.00 589.11 145.41 590.02 151.43 C 585.86 151.46 581.70 151.47 577.54 151.49 C 576.92 145.02 573.72 138.40 567.73 135.35 C 564.12 133.48 559.92 133.62 555.98 133.42 C 550.49 133.21 544.56 134.51 540.71 138.70 C 536.95 142.98 536.30 149.78 539.21 154.68 C 543.57 160.24 550.56 162.63 557.12 164.50 C 557.62 168.68 558.14 172.86 558.77 177.03 C 547.82 174.16 535.67 170.99 528.49 161.50 C 520.29 150.85 524.95 133.74 536.75 127.81 Z" />
<path fill="#0a131a" opacity="1.00" d=" M 951.33 131.30 C 955.52 131.34 959.71 131.35 963.91 131.32 C 963.94 136.89 963.89 142.47 963.90 148.04 C 968.37 148.05 972.84 148.00 977.32 148.12 C 977.27 151.33 977.25 154.55 977.21 157.76 C 972.78 157.74 968.36 157.74 963.94 157.75 C 963.96 163.24 964.06 168.73 963.91 174.21 C 960.85 177.59 956.04 175.13 952.31 174.57 C 952.01 173.65 951.74 172.74 951.49 171.82 C 951.37 167.13 951.55 162.43 951.30 157.74 C 947.65 157.75 944.01 157.77 940.37 157.80 C 940.36 154.56 940.39 151.33 940.49 148.10 C 944.12 148.05 947.75 148.01 951.40 147.94 C 951.35 142.39 951.33 136.84 951.33 131.30 Z" />
<path fill="#0a131a" opacity="1.00" d=" M 830.34 160.65 C 834.61 154.20 841.01 148.61 848.91 147.51 C 856.87 146.43 865.70 146.77 872.54 151.49 C 878.15 155.11 881.99 160.88 884.40 167.01 C 879.74 166.23 875.06 165.45 870.32 165.65 L 870.18 165.64 C 865.46 155.70 850.36 153.85 843.47 162.48 C 839.08 161.95 834.70 161.33 830.34 160.65 Z" />
<path fill="#0a131a" opacity="1.00" d=" M 913.94 157.53 C 918.59 150.03 927.50 145.38 936.36 147.01 C 935.87 151.11 935.24 155.20 934.54 159.27 C 927.45 158.11 918.91 159.86 914.99 166.44 C 914.26 167.55 913.73 168.81 912.81 169.77 C 910.91 170.13 908.98 169.97 907.08 169.98 C 907.34 162.45 910.11 155.39 911.36 148.03 C 911.86 148.07 912.85 148.16 913.34 148.20 C 913.51 151.31 913.73 154.42 913.94 157.53 Z" />
<path fill="#0a131a" opacity="1.00" d=" M 1093.03 153.25 C 1098.86 149.24 1106.24 148.85 1113.09 149.16 C 1119.96 149.49 1127.00 152.12 1131.49 157.50 C 1134.61 161.29 1135.66 166.23 1136.31 170.97 C 1132.11 171.00 1127.92 170.97 1123.73 171.09 C 1122.78 161.57 1111.48 156.22 1103.11 160.08 C 1096.57 161.87 1094.18 172.11 1100.29 175.80 C 1109.46 180.26 1120.34 180.24 1129.03 185.89 C 1131.57 187.32 1133.46 189.56 1135.11 191.92 C 1130.69 192.68 1126.34 193.77 1121.93 194.59 C 1113.29 189.05 1102.47 189.36 1093.59 184.35 C 1088.53 181.82 1083.99 177.02 1084.11 171.03 C 1083.04 163.91 1087.12 156.99 1093.03 153.25 Z" />
<path fill="#0a131a" opacity="1.00" d=" M 1009.73 150.13 C 1014.20 150.12 1018.67 150.12 1023.14 150.13 C 1023.14 161.08 1023.15 172.03 1023.10 182.98 C 1018.69 182.05 1014.19 181.75 1009.70 181.90 C 1009.60 171.31 1009.83 160.72 1009.73 150.13 Z" />
<path fill="#0a131a" opacity="1.00" d=" M 1053.53 150.13 C 1057.68 150.13 1061.83 150.13 1066.00 150.13 C 1066.01 163.15 1065.99 176.17 1065.98 189.20 C 1061.83 188.67 1057.68 188.19 1053.52 187.80 C 1053.49 175.24 1053.51 162.68 1053.53 150.13 Z" />
<path fill="#0a131a" opacity="1.00" d=" M 521.63 190.59 C 525.64 190.57 529.65 190.55 533.66 190.54 C 534.26 198.13 539.82 204.72 547.08 206.85 C 548.73 207.60 551.07 207.37 552.21 208.91 C 550.98 211.86 549.71 214.78 548.46 217.71 L 548.38 217.91 C 540.71 216.35 533.07 213.17 527.82 207.16 C 523.65 202.72 521.51 196.66 521.63 190.59 Z" />
<path fill="#0a131a" opacity="1.00" d=" M 753.81 196.98 C 757.47 196.95 761.17 196.65 764.82 197.22 C 765.62 198.27 766.26 199.46 766.97 200.59 C 770.97 206.18 778.09 209.68 784.99 208.23 C 790.13 207.71 794.18 203.93 796.74 199.67 C 801.19 199.91 805.64 200.33 810.06 201.00 C 808.03 207.05 804.19 212.70 798.35 215.59 C 788.42 220.84 775.04 219.45 767.05 211.31 C 766.92 211.09 766.66 210.63 766.53 210.41 C 765.61 214.80 765.78 219.28 765.86 223.74 C 761.05 223.58 757.42 220.42 753.81 217.65 C 753.80 210.76 753.80 203.87 753.81 196.98 Z" />
<path fill="#0a131a" opacity="1.00" d=" M 829.37 203.13 C 834.68 203.68 839.97 204.35 845.29 204.92 C 850.06 208.79 856.57 209.04 862.29 207.51 C 866.71 209.68 871.75 209.75 876.40 211.20 C 867.60 219.00 854.37 220.63 843.57 216.39 C 837.30 214.06 832.72 208.73 829.37 203.13 Z" />
</g>
<g id="#070d12ff">
<path fill="#070d12" opacity="1.00" d=" M 691.05 156.34 C 700.16 144.96 719.57 143.27 729.50 154.44 C 739.24 165.80 739.40 181.97 737.67 196.06 C 733.21 196.31 728.75 196.25 724.31 195.81 C 726.63 188.07 726.33 179.68 724.21 171.94 C 722.65 166.30 719.35 160.51 713.59 158.37 C 708.14 155.97 701.59 157.30 697.07 161.02 C 695.22 162.60 693.05 164.41 692.85 167.01 C 691.98 177.00 692.90 187.04 692.47 197.05 C 688.32 197.68 684.17 198.25 680.03 198.81 C 680.02 181.90 680.02 164.99 680.03 148.09 C 683.27 148.06 686.51 148.04 689.76 148.05 C 690.19 150.81 690.64 153.57 691.05 156.34 Z" />
<path fill="#070d12" opacity="1.00" d=" M 765.15 156.08 C 774.81 144.24 795.56 143.54 804.94 156.02 C 813.47 169.15 814.96 186.26 810.06 201.00 C 805.64 200.33 801.19 199.91 796.74 199.67 C 799.99 193.65 799.99 186.58 799.66 179.92 C 799.18 173.27 797.22 166.34 792.54 161.40 C 785.56 154.61 772.76 156.57 767.60 164.62 C 766.64 167.65 766.92 170.91 766.77 174.05 C 766.75 182.90 766.73 191.75 766.97 200.59 C 766.26 199.46 765.62 198.27 764.82 197.22 C 761.17 196.65 757.47 196.95 753.81 196.98 C 753.83 180.67 753.84 164.37 753.81 148.06 C 757.04 148.02 760.28 148.01 763.52 148.09 C 764.06 150.75 764.61 153.41 765.15 156.08 Z" />
<path fill="#070d12" opacity="1.00" d=" M 605.56 148.05 C 609.73 148.04 613.90 148.04 618.08 148.08 C 618.13 162.74 617.75 177.40 618.25 192.05 C 618.60 197.28 619.52 203.57 624.47 206.49 C 633.14 210.93 645.98 206.67 648.94 197.05 C 649.73 180.74 649.04 164.39 649.27 148.06 C 653.45 148.04 657.63 148.04 661.82 148.09 C 661.82 171.16 661.76 194.24 661.81 217.32 C 657.87 217.30 653.95 217.30 650.02 217.28 C 649.84 214.30 649.71 211.33 649.64 208.36 C 644.47 214.88 636.34 219.13 627.92 218.66 C 622.39 218.23 616.54 216.64 612.65 212.45 C 607.80 207.26 605.64 200.02 605.62 193.02 C 605.42 178.03 605.59 163.04 605.56 148.05 Z" />
<path fill="#070d12" opacity="1.00" d=" M 901.78 148.06 C 904.97 148.05 908.16 148.05 911.36 148.03 C 910.11 155.39 907.34 162.45 907.08 169.98 C 908.98 169.97 910.91 170.13 912.81 169.77 C 913.73 168.81 914.26 167.55 914.99 166.44 C 914.45 183.36 914.90 200.32 914.75 217.25 C 910.42 217.25 906.09 217.25 901.77 217.27 C 901.78 194.20 901.78 171.13 901.78 148.06 Z" />
<path fill="#070d12" opacity="1.00" d=" M 829.37 203.13 C 822.47 190.02 822.70 173.40 830.34 160.65 C 834.70 161.33 839.08 161.95 843.47 162.48 C 837.79 169.62 837.16 179.23 837.84 187.97 C 838.30 194.26 840.79 200.44 845.29 204.92 C 839.97 204.35 834.68 203.68 829.37 203.13 Z" />
<path fill="#070d12" opacity="1.00" d=" M 557.12 164.50 C 566.67 166.93 576.82 169.88 583.70 177.39 C 589.45 183.30 591.72 192.35 589.26 200.23 C 587.41 206.05 583.11 210.98 577.72 213.79 C 568.84 218.55 558.27 219.61 548.46 217.71 C 549.71 214.78 550.98 211.86 552.21 208.91 C 557.78 208.20 563.81 208.86 569.02 206.07 C 576.33 203.21 579.61 193.30 575.28 186.71 C 571.67 181.04 564.95 178.69 558.77 177.03 C 558.14 172.86 557.62 168.68 557.12 164.50 Z" />
<path fill="#070d12" opacity="1.00" d=" M 870.32 165.65 C 875.06 165.45 879.74 166.23 884.40 167.01 C 886.75 174.07 886.61 181.64 886.24 188.98 C 885.76 197.27 882.31 205.33 876.40 211.20 C 871.75 209.75 866.71 209.68 862.29 207.51 C 868.09 204.68 871.51 198.74 872.85 192.63 C 874.74 183.67 874.26 174.02 870.32 165.65 Z" />
<path fill="#070d12" opacity="1.00" d=" M 951.49 171.82 C 951.74 172.74 952.01 173.65 952.31 174.57 C 956.04 175.13 960.85 177.59 963.91 174.21 C 963.83 183.95 963.48 193.76 964.80 203.43 C 966.01 208.58 972.46 208.32 976.57 207.62 C 977.03 210.61 977.50 213.61 977.96 216.61 C 974.30 217.32 970.74 218.55 967.02 218.83 C 962.16 218.26 957.24 216.01 954.30 211.98 C 952.14 209.10 951.99 205.38 951.74 201.93 C 951.09 191.91 951.19 181.85 951.49 171.82 Z" />
<path fill="#070d12" opacity="1.00" d=" M 1009.70 181.90 C 1014.19 181.75 1018.69 182.05 1023.10 182.98 C 1023.82 190.81 1021.06 199.97 1026.41 206.63 C 1033.42 213.21 1045.86 210.65 1051.36 203.27 C 1054.85 198.84 1053.30 192.96 1053.52 187.80 C 1057.68 188.19 1061.83 188.67 1065.98 189.20 C 1066.00 199.23 1065.92 209.27 1066.02 219.30 C 1062.10 219.40 1058.19 219.36 1054.28 219.34 C 1054.21 216.43 1054.16 213.51 1054.15 210.60 C 1049.49 215.86 1043.19 220.02 1036.06 220.70 C 1028.29 221.29 1019.54 218.87 1015.08 212.01 C 1008.75 203.30 1010.15 192.02 1009.70 181.90 Z" />
<path fill="#070d12" opacity="1.00" d=" M 1121.93 194.59 C 1126.34 193.77 1130.69 192.68 1135.11 191.92 C 1137.85 198.09 1137.70 205.87 1133.28 211.23 C 1128.07 217.94 1119.27 220.64 1111.06 220.68 C 1104.00 220.60 1096.43 219.78 1090.68 215.28 C 1085.08 211.27 1081.65 204.60 1081.67 197.70 C 1085.64 197.68 1089.62 197.70 1093.61 197.74 C 1094.49 204.93 1101.09 210.05 1108.09 210.52 C 1113.77 211.06 1121.14 209.61 1123.61 203.76 C 1125.07 200.63 1123.82 197.21 1121.93 194.59 Z" />
</g>
<g id="#0d1922ff">
<path fill="#0d1922" opacity="1.00" d=" M 716.98 205.94 C 720.64 203.66 722.78 199.71 724.31 195.81 C 728.75 196.25 733.21 196.31 737.67 196.06 C 735.72 204.02 731.47 212.02 723.96 215.96 C 713.77 220.79 700.37 219.25 692.42 210.90 C 692.78 221.92 692.58 232.94 692.66 243.96 C 688.44 243.99 684.23 243.99 680.03 243.97 C 680.00 228.92 680.03 213.86 680.03 198.81 C 684.17 198.25 688.32 197.68 692.47 197.05 C 691.95 200.45 694.56 203.06 697.06 204.91 C 702.73 209.07 710.96 209.77 716.98 205.94 Z" />
<path fill="#0d1922" opacity="1.00" d=" M 765.86 223.74 C 765.78 219.28 765.61 214.80 766.53 210.41 C 766.66 210.63 766.92 211.09 767.05 211.31 C 766.52 222.19 766.98 233.09 766.84 243.97 C 762.48 243.98 758.13 243.98 753.79 243.98 C 753.79 235.20 753.75 226.42 753.81 217.65 C 757.42 220.42 761.05 223.58 765.86 223.74 Z" />
</g>
<g id="#28597bd0">
<path fill="#28597b" opacity="0.82" d=" M 1164.82 477.30 C 1167.44 475.06 1170.83 475.06 1174.10 475.34 C 1171.58 477.54 1168.05 478.97 1164.82 477.30 Z" />
</g>
<g id="#205879d6">
<path fill="#205879" opacity="0.84" d=" M 208.94 477.89 C 211.58 477.37 214.27 476.40 216.99 476.96 C 219.24 477.47 221.17 478.80 223.22 479.80 C 218.40 480.08 213.35 480.20 208.94 477.89 Z" />
</g>
<g id="#265c80dd">
<path fill="#265c80" opacity="0.87" d=" M 1148.52 479.71 C 1152.50 476.39 1157.87 476.19 1162.60 477.92 C 1158.17 479.89 1153.29 480.39 1148.52 479.71 Z" />
</g>
</svg>
