<?xml version="1.0" encoding="UTF-8" ?>
<!DOCTYPE svg PUBLIC "-//W3C//DTD SVG 1.1//EN" "http://www.w3.org/Graphics/SVG/1.1/DTD/svg11.dtd">
<svg width="1371pt" height="494pt" viewBox="0 0 1371 494" version="1.1" xmlns="http://www.w3.org/2000/svg">
<g id="#3e739eff">
<path fill="#3e739e" opacity="1.00" d=" M 222.85 15.13 C 232.21 14.49 241.61 13.82 250.98 14.51 C 531.65 14.49 812.33 14.51 1093.00 14.50 C 1107.64 14.79 1122.28 13.15 1136.91 14.41 C 1146.81 14.83 1156.66 16.11 1166.45 17.62 C 1199.19 23.14 1230.87 35.61 1257.93 54.95 C 1272.37 64.55 1285.82 75.63 1297.59 88.38 C 1304.23 95.51 1309.71 103.58 1315.85 111.12 C 1323.00 120.26 1328.61 130.47 1333.99 140.73 C 1337.12 147.13 1341.19 153.14 1343.12 160.07 C 1346.59 171.08 1350.86 181.87 1353.41 193.16 C 1356.72 206.89 1358.74 220.90 1359.95 234.96 C 1360.49 259.00 1358.16 283.18 1352.37 306.54 C 1342.58 343.85 1323.74 379.06 1296.87 406.86 C 1290.08 413.43 1283.79 420.55 1276.42 426.49 C 1257.52 442.60 1235.77 455.16 1212.83 464.57 C 1207.52 466.60 1202.33 469.23 1196.59 469.77 C 1189.21 471.85 1182.10 475.46 1174.24 475.29 C 1170.84 475.14 1167.28 475.19 1164.49 477.41 C 1164.24 477.55 1163.74 477.85 1163.49 477.99 L 1162.76 477.85 C 1160.19 477.38 1157.60 476.76 1154.99 476.92 C 1152.59 477.34 1150.52 478.68 1148.35 479.67 C 1132.99 481.27 1117.48 480.99 1102.03 481.00 C 817.02 481.00 532.01 480.99 246.99 481.00 C 239.15 480.38 231.23 480.77 223.43 479.74 C 220.99 478.70 218.69 477.19 216.04 476.81 C 213.61 476.84 211.23 477.45 208.85 477.85 C 200.55 477.10 192.45 474.78 184.37 472.80 C 159.07 466.79 135.40 455.21 113.59 441.24 C 108.12 437.44 103.00 433.16 97.62 429.25 C 89.91 423.77 84.15 416.15 77.16 409.87 C 58.61 392.27 44.90 370.32 33.54 347.59 C 27.48 334.93 22.93 321.59 19.17 308.08 C 9.67 274.04 9.00 237.91 15.14 203.23 C 15.76 203.20 16.99 203.15 17.60 203.13 C 16.90 202.98 15.50 202.67 14.79 202.51 C 18.50 190.80 20.50 178.55 25.32 167.21 C 29.32 158.16 32.65 148.80 37.23 140.01 C 47.49 119.44 61.81 101.20 77.63 84.63 C 115.37 44.71 168.33 20.24 222.85 15.13 M 232.20 44.18 C 202.44 45.25 172.88 53.22 146.79 67.62 C 120.30 81.93 97.10 102.32 79.65 126.87 C 58.16 156.72 44.94 192.48 41.91 229.14 C 38.91 260.83 43.55 293.19 55.07 322.85 C 61.71 340.60 72.33 356.43 82.97 371.99 C 89.97 382.72 99.20 391.74 108.43 400.53 C 144.94 433.18 193.82 452.52 243.00 451.00 C 290.99 451.00 338.98 451.00 386.97 451.00 C 395.66 451.06 404.37 450.73 413.05 451.49 C 591.36 451.51 769.67 451.49 947.98 451.50 C 957.02 451.86 966.02 450.73 975.06 451.00 C 1030.37 451.00 1085.68 450.99 1141.00 451.01 C 1194.51 448.53 1246.26 422.55 1280.78 381.68 C 1285.49 376.32 1289.19 370.20 1293.29 364.38 C 1300.06 353.85 1307.19 343.42 1312.11 331.84 C 1329.77 292.54 1334.40 247.66 1325.65 205.51 C 1317.45 164.43 1296.06 126.16 1265.64 97.41 C 1250.19 83.21 1232.24 72.02 1213.61 62.51 C 1193.12 52.21 1170.49 46.81 1147.75 44.67 C 1138.50 44.31 1129.26 43.76 1119.99 44.00 C 848.99 44.00 577.99 44.00 306.98 44.00 C 282.06 44.12 257.12 43.76 232.20 44.18 Z" />
<path fill="#3e739e" opacity="1.00" d=" M 296.47 117.61 C 301.77 116.58 307.24 116.95 312.61 117.17 C 321.35 117.72 330.41 123.99 331.46 133.13 C 331.59 146.74 331.43 160.35 331.53 173.96 C 331.79 181.06 327.34 187.87 321.14 191.15 C 311.76 195.93 300.42 195.96 290.72 192.10 C 285.30 189.72 280.60 184.82 279.63 178.83 C 279.25 174.22 279.63 169.59 279.50 164.98 C 278.87 155.99 279.85 147.00 279.47 138.00 C 278.69 128.04 287.01 119.33 296.47 117.61 Z" />
<path fill="#3e739e" opacity="1.00" d=" M 148.37 134.17 C 157.85 132.00 168.07 134.59 175.80 140.39 C 193.17 153.00 210.57 165.58 228.20 177.83 C 233.61 181.47 238.26 187.16 239.02 193.80 C 239.77 200.06 235.41 205.43 230.49 208.69 C 220.77 214.46 207.72 215.23 198.07 208.88 C 178.60 195.89 160.07 181.59 141.16 167.83 C 138.05 165.67 134.66 163.39 133.14 159.77 C 131.65 156.00 131.96 151.80 132.44 147.87 C 133.78 140.25 141.24 135.50 148.37 134.17 Z" />
<path fill="#3e739e" opacity="1.00" d=" M 447.61 135.61 C 457.54 133.62 469.33 135.68 475.74 144.18 C 477.98 146.66 476.40 150.06 476.50 153.00 C 475.81 157.46 477.59 163.18 473.11 166.11 C 454.20 180.25 435.21 194.32 415.82 207.80 C 411.62 210.78 407.07 213.60 401.87 214.29 C 394.11 215.15 385.72 214.35 379.14 209.82 C 375.06 207.21 371.75 203.06 371.01 198.19 C 370.19 190.47 375.63 183.77 381.58 179.56 C 395.43 169.70 409.39 160.00 423.09 149.94 C 430.83 144.54 438.11 137.66 447.61 135.61 Z" />
<path fill="#3e739e" opacity="1.00" d=" M 249.97 212.37 C 271.73 206.45 294.48 206.11 316.88 206.60 C 343.33 208.05 370.31 213.88 392.81 228.43 C 401.50 234.20 409.45 241.20 415.91 249.41 C 340.48 249.59 265.05 249.51 189.63 249.45 C 203.85 229.64 226.77 218.12 249.97 212.37 Z" />
<path fill="#3e739e" opacity="1.00" d=" M 374.53 286.20 C 390.02 277.89 409.22 276.80 425.53 283.35 C 437.92 288.21 448.35 298.41 452.54 311.15 C 455.22 318.45 455.71 326.29 456.09 334.00 C 442.38 334.00 428.67 334.00 414.97 334.00 C 404.91 334.07 394.83 333.68 384.80 334.61 C 386.05 340.37 386.93 347.40 392.49 350.70 C 398.93 354.14 407.25 355.60 413.88 351.82 C 417.30 350.06 419.74 346.56 423.58 345.61 C 428.97 345.20 434.40 345.85 439.79 345.26 C 444.86 344.59 449.92 345.82 455.01 345.51 C 450.49 360.08 437.80 371.43 423.02 374.85 C 409.72 377.87 395.59 377.86 382.55 373.62 C 371.09 369.67 360.66 361.73 355.21 350.72 C 348.70 337.80 348.34 322.08 353.79 308.72 C 357.60 299.00 365.21 290.86 374.53 286.20 M 398.15 301.33 C 391.84 303.48 387.36 309.10 385.81 315.49 C 398.53 315.22 411.30 316.15 423.98 314.89 C 422.23 311.47 420.73 307.78 417.87 305.10 C 412.82 300.02 404.73 298.57 398.15 301.33 Z" />
<path fill="#3e739e" opacity="1.00" d=" M 202.43 292.80 C 212.84 284.89 225.88 279.17 239.19 281.04 C 249.88 282.06 259.52 288.28 265.93 296.73 C 277.10 281.54 299.55 275.86 316.25 284.99 C 322.39 288.21 327.32 293.71 329.23 300.45 C 330.89 305.78 331.13 311.42 331.01 316.97 C 330.98 335.81 331.02 354.66 330.99 373.51 C 319.49 373.50 308.00 373.50 296.50 373.50 C 296.46 358.00 296.57 342.50 296.45 327.00 C 295.89 320.87 296.40 313.16 290.58 309.26 C 284.70 304.38 275.12 306.04 270.94 312.34 C 266.95 317.31 266.97 323.95 266.56 329.98 C 266.47 335.30 266.38 340.63 266.62 345.95 C 267.47 355.12 266.93 364.33 266.22 373.49 C 254.98 373.52 243.74 373.49 232.50 373.50 C 232.47 358.32 232.55 343.13 232.46 327.95 C 231.95 322.52 232.47 316.47 228.96 311.89 C 224.03 305.48 213.20 304.61 207.59 310.60 C 203.04 314.73 202.77 321.32 202.51 327.03 C 202.49 342.52 202.51 358.01 202.50 373.50 C 191.00 373.50 179.51 373.49 168.01 373.51 C 167.99 343.17 168.00 312.83 168.01 282.49 C 179.36 282.73 190.73 281.10 202.07 282.56 C 203.48 285.83 202.83 289.39 202.43 292.80 Z" />
<path fill="#3e739e" opacity="1.00" d=" M 698.52 300.05 C 699.18 287.87 711.98 278.85 723.70 280.81 C 731.05 281.59 737.70 286.44 740.99 293.01 C 744.04 299.57 742.73 307.01 743.00 314.00 C 737.99 314.00 732.99 314.00 727.99 314.00 C 727.60 308.27 729.67 300.84 724.42 296.74 C 720.42 293.66 715.37 296.30 712.95 300.01 C 713.43 310.03 712.26 320.00 712.50 330.02 C 712.28 338.66 713.11 347.28 713.13 355.92 C 714.30 361.96 722.05 362.13 726.19 359.05 C 729.40 351.78 727.49 343.67 728.00 336.00 C 725.33 336.00 722.66 336.00 720.00 336.00 C 720.00 331.00 720.00 326.00 720.00 321.00 C 727.66 321.00 735.33 321.00 743.00 321.00 C 742.98 332.67 743.03 344.35 742.99 356.02 C 742.64 367.64 731.36 377.17 719.94 376.54 C 711.44 376.46 703.34 370.97 699.87 363.26 C 698.39 360.06 698.40 356.48 698.48 353.03 C 698.54 335.37 698.45 317.71 698.52 300.05 Z" />
<path fill="#3e739e" opacity="1.00" d=" M 771.43 281.17 C 780.56 278.94 790.79 283.24 795.82 291.14 C 798.87 295.44 799.21 300.92 799.01 306.01 C 798.63 314.35 800.05 322.65 799.38 330.98 C 798.46 340.02 799.45 349.12 798.80 358.16 C 797.00 369.90 784.76 378.22 773.18 376.37 C 764.40 375.06 756.50 368.16 754.63 359.39 C 753.46 354.26 754.31 348.98 753.86 343.79 C 752.66 330.53 754.40 317.27 753.98 304.00 C 753.61 293.55 761.00 283.25 771.43 281.17 M 772.59 296.69 C 770.80 297.86 769.01 299.65 769.04 301.94 C 768.77 310.94 769.38 319.96 768.64 328.94 C 769.27 337.29 768.89 345.67 769.00 354.04 C 768.49 359.10 774.87 362.57 779.18 360.47 C 782.79 358.93 784.12 354.69 784.02 351.04 C 783.99 336.03 783.98 321.02 784.02 306.01 C 783.99 303.79 783.86 301.44 782.73 299.48 C 780.71 296.19 775.98 294.00 772.59 296.69 Z" />
<path fill="#3e739e" opacity="1.00" d=" M 810.50 282.00 C 824.00 282.00 837.50 282.00 851.00 282.00 C 851.00 286.83 851.00 291.67 851.00 296.51 C 842.50 296.50 834.00 296.50 825.50 296.50 C 825.50 304.67 825.50 312.83 825.50 321.00 C 831.66 321.00 837.83 321.00 844.00 321.00 C 844.00 325.81 844.00 330.62 843.98 335.44 C 837.74 336.33 831.44 335.93 825.16 335.99 C 825.94 348.96 825.29 361.99 825.50 374.99 C 820.49 374.83 815.50 375.20 810.52 375.62 C 810.47 344.41 810.51 313.21 810.50 282.00 Z" />
<path fill="#3e739e" opacity="1.00" d=" M 859.49 282.00 C 864.33 282.00 869.16 282.00 874.00 282.00 C 874.00 305.01 874.01 328.01 873.99 351.02 C 874.02 353.81 874.49 356.83 876.37 359.03 C 877.95 360.48 880.06 361.07 882.03 361.85 C 885.75 360.44 889.67 357.48 889.49 353.06 C 889.52 329.38 889.49 305.69 889.50 282.00 C 894.49 282.00 899.50 282.00 904.50 282.00 C 904.50 304.66 904.49 327.32 904.51 349.98 C 904.44 353.82 904.91 357.79 903.62 361.49 C 901.41 368.82 894.73 374.24 887.40 375.92 C 879.44 377.85 870.49 375.13 865.13 368.88 C 860.74 364.50 859.70 358.02 859.50 352.08 C 859.49 328.72 859.50 305.36 859.49 282.00 Z" />
<path fill="#3e739e" opacity="1.00" d=" M 916.50 282.00 C 921.93 282.00 927.38 282.00 932.82 282.00 C 938.90 301.10 943.31 320.74 950.52 339.46 C 950.48 320.31 950.51 301.15 950.50 282.00 C 955.33 282.00 960.16 282.00 965.00 282.00 C 965.00 313.00 965.00 344.00 965.00 375.00 C 959.76 374.79 954.56 375.31 949.34 375.49 C 943.46 357.24 937.96 338.87 931.51 320.81 C 930.49 339.04 931.23 357.32 930.98 375.58 C 926.15 375.51 921.31 374.62 916.51 375.57 C 916.48 344.38 916.51 313.19 916.50 282.00 Z" />
<path fill="#3e739e" opacity="1.00" d=" M 977.00 282.00 C 985.92 282.25 994.91 281.44 1003.79 282.52 C 1014.15 283.71 1021.43 293.99 1021.46 304.02 C 1021.52 320.63 1021.55 337.24 1021.45 353.85 C 1021.12 364.60 1012.20 374.82 1001.13 374.94 C 993.09 376.13 985.05 374.81 977.00 374.99 C 977.00 344.00 977.00 313.00 977.00 282.00 M 991.50 296.99 C 991.50 318.16 991.50 339.33 991.50 360.50 C 995.80 360.23 1000.96 361.57 1004.46 358.31 C 1006.66 356.60 1007.00 353.61 1007.01 351.02 C 1006.99 337.02 1006.99 323.02 1007.01 309.03 C 1006.86 306.17 1006.94 303.11 1005.72 300.48 C 1002.50 295.97 996.28 297.15 991.50 296.99 Z" />
<path fill="#3e739e" opacity="1.00" d=" M 1032.50 282.00 C 1039.36 282.10 1046.23 281.80 1053.09 282.12 C 1054.75 284.64 1054.50 288.17 1055.37 291.08 C 1059.16 309.18 1061.87 327.52 1066.49 345.43 C 1069.86 324.20 1074.38 303.17 1078.13 282.00 C 1084.96 282.01 1091.78 281.97 1098.61 282.03 C 1097.53 292.98 1098.16 304.01 1098.00 315.00 C 1097.99 335.20 1098.01 355.41 1097.99 375.61 C 1092.98 375.00 1087.94 374.89 1082.91 375.00 C 1083.92 362.37 1083.34 349.70 1083.52 337.04 C 1083.66 332.56 1082.93 328.13 1082.51 323.68 C 1081.08 334.41 1078.32 344.90 1076.35 355.54 C 1075.05 361.58 1073.93 367.69 1072.29 373.65 C 1072.05 375.11 1070.31 375.09 1069.21 375.46 C 1066.15 375.65 1063.11 375.05 1060.07 374.89 C 1055.96 357.07 1052.05 339.18 1047.42 321.48 C 1047.60 339.32 1047.46 357.16 1047.50 375.00 C 1042.49 374.86 1037.49 375.09 1032.52 375.63 C 1032.47 344.42 1032.51 313.21 1032.50 282.00 Z" />
<path fill="#3e739e" opacity="1.00" d=" M 1110.00 282.00 C 1123.69 282.00 1137.39 282.00 1151.09 282.00 C 1150.92 286.84 1150.32 291.65 1150.48 296.50 C 1141.82 296.50 1133.16 296.50 1124.50 296.50 C 1124.72 304.66 1123.99 312.87 1124.99 321.00 C 1131.15 321.00 1137.32 321.00 1143.49 320.99 C 1143.50 325.79 1143.49 330.59 1143.51 335.39 C 1137.19 336.01 1130.84 336.11 1124.50 335.99 C 1124.49 344.00 1124.51 352.01 1124.49 360.01 C 1133.30 361.02 1142.20 360.27 1151.06 360.50 C 1151.05 365.53 1150.34 370.53 1150.46 375.57 C 1136.99 374.62 1123.49 375.11 1110.00 375.00 C 1110.00 344.00 1110.00 313.00 1110.00 282.00 Z" />
<path fill="#3e739e" opacity="1.00" d=" M 540.58 304.66 C 548.45 302.94 556.76 303.95 564.23 306.88 C 573.90 311.49 580.35 321.55 581.23 332.16 C 581.67 340.03 582.20 348.21 579.59 355.79 C 575.84 366.08 566.40 374.64 555.27 375.70 C 547.30 376.46 538.74 376.33 531.57 372.30 C 523.36 367.82 517.97 359.17 516.35 350.10 C 515.37 339.76 514.89 328.58 520.19 319.23 C 524.78 312.03 531.80 305.77 540.58 304.66 M 546.16 320.06 C 538.92 322.35 535.53 330.33 535.28 337.39 C 535.15 344.02 535.32 351.72 540.61 356.53 C 544.56 360.85 551.87 361.19 556.15 357.19 C 560.04 353.99 561.61 348.90 561.93 344.04 C 562.20 338.14 562.39 331.80 559.30 326.52 C 556.70 322.13 551.37 318.63 546.16 320.06 Z" />
<path fill="#3e739e" opacity="1.00" d=" M 609.98 311.02 C 618.22 304.34 629.86 302.00 639.95 305.39 C 646.34 308.34 650.53 315.18 651.45 322.01 C 651.57 339.87 651.48 357.74 651.49 375.60 C 645.16 375.13 638.82 374.70 632.51 375.63 C 632.48 361.08 632.49 346.53 632.51 331.98 C 632.60 328.54 631.42 325.27 630.41 322.03 C 625.35 319.65 618.41 318.60 614.14 323.04 C 611.67 324.91 611.74 328.21 611.51 330.99 C 611.47 345.20 611.53 359.41 611.49 373.62 C 605.16 377.20 597.77 374.89 591.00 374.37 C 591.00 351.27 591.00 328.18 591.00 305.09 C 597.33 304.70 603.66 304.29 610.01 304.51 C 609.99 306.67 609.99 308.85 609.98 311.02 Z" />
</g>
<g id="#305a7cff">
<path fill="#305a7c" opacity="1.00" d=" M 540.75 122.79 C 550.38 119.21 561.34 119.09 570.90 122.98 C 577.80 125.88 584.07 131.13 586.81 138.25 C 588.20 141.67 588.70 145.36 589.17 148.99 C 584.86 149.01 580.55 149.00 576.24 149.00 C 575.65 141.49 571.01 133.69 563.31 131.88 C 556.77 130.78 549.60 130.33 543.54 133.50 C 537.00 136.90 534.37 146.23 538.64 152.34 C 544.46 159.15 553.65 160.98 561.86 163.31 C 570.51 165.71 579.51 169.49 584.85 177.08 C 591.39 185.49 591.14 198.82 583.40 206.41 C 576.79 213.69 566.54 215.98 557.09 216.42 C 546.68 216.19 535.50 213.79 527.87 206.20 C 522.91 201.53 520.30 194.81 520.35 188.03 C 524.48 187.98 528.61 188.00 532.74 188.00 C 533.67 192.69 535.51 197.50 539.43 200.50 C 547.90 206.93 560.13 207.61 569.43 202.54 C 575.95 199.03 578.21 189.37 573.46 183.53 C 568.51 176.99 559.90 175.42 552.46 173.34 C 543.04 170.81 533.06 167.10 527.07 158.94 C 520.77 150.45 522.41 138.01 529.09 130.22 C 532.11 126.61 536.46 124.53 540.75 122.79 Z" />
<path fill="#305a7c" opacity="1.00" d=" M 950.00 128.50 C 954.33 128.50 958.66 128.50 963.00 128.50 C 963.00 134.17 962.99 139.83 963.01 145.50 C 967.50 145.50 972.00 145.50 976.50 145.50 C 976.49 148.83 976.49 152.17 976.50 155.50 C 972.00 155.50 967.50 155.50 963.00 155.50 C 963.23 169.59 962.43 183.72 963.60 197.78 C 963.89 199.78 963.93 202.16 965.71 203.50 C 968.49 205.94 972.47 205.34 975.84 204.94 C 976.25 208.05 976.78 211.15 977.15 214.27 C 973.09 215.07 969.09 216.72 964.90 216.45 C 959.33 215.51 953.45 212.23 951.57 206.61 C 950.23 201.49 950.48 196.15 950.03 190.92 C 950.09 182.30 949.66 173.66 950.40 165.07 C 950.59 161.86 950.03 158.68 949.87 155.48 C 946.23 155.51 942.61 155.50 938.98 155.51 C 938.93 152.16 939.00 148.81 939.50 145.49 C 942.99 145.51 946.50 145.53 950.00 145.35 C 950.00 139.73 950.00 134.12 950.00 128.50 Z" />
<path fill="#305a7c" opacity="1.00" d=" M 690.09 153.49 C 699.12 142.11 718.44 140.70 728.49 151.47 C 736.13 159.97 738.03 171.95 737.52 183.00 C 738.20 193.00 735.09 203.62 727.60 210.56 C 717.41 219.27 700.97 217.90 691.31 208.99 C 692.43 219.79 691.87 230.66 692.00 241.50 C 687.66 241.50 683.33 241.50 679.00 241.50 C 679.00 209.50 679.00 177.50 679.00 145.50 C 682.32 145.50 685.64 145.50 688.97 145.48 C 689.44 148.13 689.80 150.81 690.09 153.49 M 692.02 163.27 C 692.13 167.53 691.50 171.77 691.47 176.03 C 691.29 181.80 692.52 187.55 691.79 193.32 C 691.82 194.75 691.11 196.41 692.11 197.67 C 697.13 206.29 710.58 208.65 717.91 201.62 C 721.54 197.96 723.54 192.92 724.27 187.87 C 725.13 179.16 724.47 169.82 719.73 162.22 C 717.05 157.87 712.14 154.88 706.98 154.95 C 700.91 154.70 695.43 158.50 692.02 163.27 Z" />
<path fill="#305a7c" opacity="1.00" d=" M 764.20 152.85 C 770.22 146.50 779.18 143.20 787.87 144.42 C 794.92 145.27 802.07 149.00 805.48 155.45 C 813.18 169.24 814.21 186.63 808.23 201.25 C 805.74 207.99 799.86 213.17 792.98 215.11 C 783.78 218.23 773.21 215.82 765.99 209.41 C 766.01 220.11 765.99 230.80 766.00 241.50 C 761.50 241.50 757.00 241.50 752.50 241.50 C 752.50 209.50 752.50 177.49 752.50 145.49 C 755.92 145.49 759.36 145.48 762.79 145.62 C 763.27 148.03 763.74 150.44 764.20 152.85 M 766.92 162.16 C 765.80 165.65 766.00 169.37 765.98 172.99 C 765.99 181.24 766.05 189.49 765.95 197.74 C 770.28 203.62 778.00 207.39 785.29 205.27 C 793.27 203.27 797.81 194.89 798.37 187.16 C 799.10 177.58 798.29 166.94 791.65 159.42 C 784.92 152.37 772.12 154.22 766.92 162.16 Z" />
<path fill="#305a7c" opacity="1.00" d=" M 913.00 154.77 C 917.35 147.01 926.90 142.44 935.66 144.51 C 935.00 148.69 934.37 152.87 933.85 157.07 C 926.60 155.47 918.35 157.79 913.96 164.02 C 914.06 181.02 913.97 198.01 914.00 215.00 C 909.50 215.00 905.00 215.00 900.50 215.00 C 900.50 191.83 900.50 168.67 900.50 145.50 C 904.46 145.50 908.42 145.50 912.39 145.49 C 912.74 148.57 913.05 151.66 913.00 154.77 Z" />
<path fill="#305a7c" opacity="1.00" d=" M 844.41 145.58 C 849.50 143.96 854.92 144.44 860.17 144.62 C 870.58 145.53 879.27 153.45 882.99 162.94 C 886.12 169.86 885.52 177.59 885.50 184.98 C 885.32 191.86 883.40 198.79 879.37 204.43 C 868.89 219.61 843.27 220.72 831.87 206.07 C 823.86 196.48 821.64 182.93 824.14 170.91 C 826.20 159.94 833.53 149.21 844.41 145.58 M 850.39 155.14 C 842.41 157.37 838.34 165.78 837.31 173.41 C 836.44 182.07 836.52 191.67 841.83 199.03 C 847.37 207.93 862.55 207.98 867.89 198.85 C 872.78 191.66 872.94 182.55 872.34 174.19 C 871.49 168.31 869.45 162.12 864.82 158.13 C 860.72 155.22 855.32 153.59 850.39 155.14 Z" />
<path fill="#305a7c" opacity="1.00" d=" M 604.50 145.50 C 608.83 145.50 613.16 145.50 617.49 145.50 C 617.77 156.89 616.24 168.28 617.31 179.66 C 617.87 186.44 616.51 193.76 619.98 199.99 C 623.12 205.90 631.17 206.42 636.91 204.62 C 642.65 202.65 648.60 197.58 648.02 190.94 C 647.98 175.79 648.01 160.65 648.00 145.50 C 652.33 145.50 656.66 145.50 661.00 145.50 C 661.00 168.67 661.00 191.83 661.00 215.00 C 656.96 215.00 652.93 215.00 648.90 215.01 C 648.52 212.12 648.45 209.21 648.53 206.31 C 640.59 217.05 623.99 219.69 613.20 211.79 C 607.40 207.02 604.66 199.31 604.49 191.96 C 604.51 176.47 604.49 160.99 604.50 145.50 Z" />
<path fill="#305a7c" opacity="1.00" d=" M 1092.24 150.28 C 1097.45 146.81 1103.91 146.28 1110.00 146.45 C 1117.71 146.29 1126.00 148.86 1130.87 155.15 C 1134.03 158.86 1134.69 163.87 1135.63 168.49 C 1131.35 168.40 1127.09 168.56 1122.83 168.75 C 1121.45 166.24 1121.17 163.09 1118.94 161.11 C 1113.86 155.62 1104.50 155.01 1098.82 159.85 C 1094.98 163.42 1094.81 170.49 1099.70 173.27 C 1109.22 177.58 1120.39 177.73 1129.16 183.81 C 1133.82 186.86 1136.44 192.51 1136.07 198.03 C 1136.50 204.82 1132.07 210.99 1126.37 214.26 C 1117.67 219.36 1106.90 219.26 1097.37 216.89 C 1087.69 214.34 1080.28 205.14 1080.31 195.04 C 1084.45 194.97 1088.59 195.00 1092.75 195.00 C 1094.17 206.04 1107.96 210.89 1117.17 206.22 C 1120.93 204.65 1123.81 200.57 1122.90 196.41 C 1121.73 192.06 1117.20 190.13 1113.35 188.77 C 1106.46 186.63 1099.12 185.75 1092.74 182.17 C 1087.26 179.70 1082.44 174.41 1082.95 168.04 C 1081.95 160.83 1086.19 153.92 1092.24 150.28 Z" />
<path fill="#305a7c" opacity="1.00" d=" M 1008.50 147.50 C 1013.16 147.50 1017.83 147.50 1022.50 147.50 C 1022.50 163.36 1022.51 179.21 1022.48 195.07 C 1022.35 199.56 1024.57 204.39 1028.86 206.24 C 1037.84 210.32 1050.93 204.98 1052.44 194.72 C 1052.59 178.98 1052.44 163.24 1052.50 147.50 C 1056.66 147.50 1060.83 147.50 1065.00 147.50 C 1065.00 170.67 1065.00 193.83 1065.00 217.00 C 1060.99 217.00 1056.99 217.00 1053.00 217.00 C 1052.99 214.27 1052.99 211.54 1053.01 208.81 C 1047.62 214.59 1040.12 218.97 1032.00 218.54 C 1026.65 218.13 1020.87 217.04 1016.88 213.17 C 1011.70 208.28 1009.09 201.07 1008.95 194.04 C 1008.00 178.55 1008.72 163.01 1008.50 147.50 Z" />
<path fill="#305a7c" opacity="1.00" d=" M 1164.49 477.41 C 1167.28 475.19 1170.84 475.14 1174.24 475.29 C 1171.44 477.44 1167.99 478.62 1164.49 477.41 Z" />
<path fill="#305a7c" opacity="1.00" d=" M 208.85 477.85 C 211.23 477.45 213.61 476.84 216.04 476.81 C 218.69 477.19 220.99 478.70 223.43 479.74 C 218.50 479.95 213.39 480.07 208.85 477.85 Z" />
<path fill="#305a7c" opacity="1.00" d=" M 1148.35 479.67 C 1150.52 478.68 1152.59 477.34 1154.99 476.92 C 1157.60 476.76 1160.19 477.38 1162.76 477.85 C 1158.20 479.81 1153.24 480.26 1148.35 479.67 Z" />
</g>
</svg>
