<?xml version="1.0" encoding="UTF-8" ?>
<!DOCTYPE svg PUBLIC "-//W3C//DTD SVG 1.1//EN" "http://www.w3.org/Graphics/SVG/1.1/DTD/svg11.dtd">
<svg width="1371pt" height="494pt" viewBox="0 0 1371 494" version="1.1" xmlns="http://www.w3.org/2000/svg">
<g id="#3e739eff">
<path fill="#3e739e" opacity="1.00" d=" M 1100.64 12.66 C 1107.42 12.27 1114.24 12.61 1121.04 12.49 C 1125.32 12.98 1129.62 13.15 1133.94 12.98 C 1177.37 14.04 1220.69 26.96 1256.85 51.23 C 1289.45 72.83 1316.60 102.62 1334.79 137.27 C 1351.11 167.91 1360.04 202.34 1361.52 236.97 C 1361.28 246.65 1361.98 256.35 1360.98 266.00 C 1357.86 307.79 1343.20 348.67 1318.93 382.84 C 1284.01 431.96 1229.79 467.65 1170.10 477.61 C 1143.42 482.99 1116.12 481.45 1089.09 481.66 C 811.70 481.66 534.30 481.66 256.91 481.66 C 245.54 481.64 234.14 481.88 222.82 480.61 C 210.79 479.30 198.71 477.92 186.94 474.97 C 164.18 469.01 142.09 460.16 121.96 447.93 C 92.14 429.73 66.59 404.72 47.60 375.41 C 25.50 342.12 12.62 302.92 10.06 263.07 C 7.37 223.80 14.64 183.79 31.22 148.05 C 47.33 113.33 72.11 82.65 102.80 59.77 C 140.62 31.01 187.55 14.56 235.01 12.98 C 522.34 13.02 809.67 12.99 1097.00 13.00 C 1098.20 12.94 1099.42 12.83 1100.64 12.66 M 225.22 43.16 C 194.46 45.22 164.33 54.98 138.00 70.95 C 104.21 91.06 76.76 121.41 59.91 156.91 C 42.56 193.38 35.93 234.97 41.44 274.99 C 47.60 323.15 71.57 368.84 107.85 401.12 C 141.26 431.23 185.25 449.25 230.18 451.23 C 238.09 451.83 246.04 451.34 253.98 451.50 C 548.66 451.49 843.34 451.51 1138.02 451.49 C 1180.35 450.03 1222.06 434.59 1255.07 408.04 C 1286.19 383.01 1309.66 348.59 1321.59 310.48 C 1335.47 267.23 1334.56 219.51 1319.28 176.76 C 1300.54 123.61 1258.91 78.69 1206.52 57.51 C 1183.26 47.83 1158.13 43.22 1133.03 42.51 C 881.37 42.49 629.70 42.51 378.03 42.50 C 375.99 42.54 373.98 42.92 371.95 42.99 C 323.04 43.12 274.12 42.77 225.22 43.16 Z" />
<path fill="#3e739e" opacity="1.00" d=" M 339.19 126.21 C 357.57 124.74 376.44 128.42 392.59 137.45 C 406.12 144.98 417.81 155.84 425.99 169.00 C 436.36 185.18 441.39 204.68 440.29 223.84 C 439.29 244.29 431.12 264.22 417.74 279.69 C 400.13 300.18 373.10 312.43 346.03 311.51 C 310.29 311.82 275.99 288.60 262.09 255.81 C 253.87 236.63 252.14 214.64 257.64 194.48 C 263.02 173.76 276.23 155.30 293.67 142.99 C 306.92 133.32 322.90 127.71 339.19 126.21 Z" />
</g>
<g id="#020406ff">
<path fill="#020406" opacity="1.00" d=" M 180.01 123.86 C 196.34 123.95 212.67 123.52 229.00 124.02 C 228.99 208.31 229.01 292.59 228.99 376.88 C 212.66 376.87 196.33 376.88 180.01 376.88 C 180.00 292.54 180.00 208.20 180.01 123.86 Z" />
</g>
<g id="#305a7cff">
<path fill="#305a7c" opacity="1.00" d=" M 546.04 124.63 C 558.44 121.75 572.88 124.65 581.65 134.34 C 586.35 139.12 588.08 145.99 588.60 152.49 C 584.28 152.51 579.97 152.50 575.65 152.50 C 575.31 144.97 570.44 137.33 562.91 135.35 C 555.89 134.30 548.02 133.65 541.82 137.78 C 535.30 141.98 533.77 152.93 540.15 157.90 C 549.19 165.71 561.98 165.42 572.23 170.82 C 578.60 173.74 584.13 178.71 587.06 185.13 C 589.92 191.97 589.66 200.16 585.68 206.52 C 582.63 210.83 578.50 214.44 573.56 216.41 C 562.17 221.21 548.98 220.77 537.54 216.36 C 527.52 212.44 519.33 202.66 519.94 191.50 C 524.05 191.50 528.17 191.50 532.29 191.49 C 533.05 196.47 535.30 201.45 539.50 204.44 C 548.19 210.58 560.39 211.04 569.56 205.68 C 572.52 204.00 574.15 200.76 575.16 197.64 C 576.72 192.03 573.58 186.09 568.84 183.10 C 561.50 178.26 552.46 177.62 544.42 174.49 C 536.75 171.78 529.06 167.35 525.03 160.01 C 521.25 152.83 522.06 143.87 526.24 137.05 C 530.26 129.90 538.38 126.34 546.04 124.63 Z" />
<path fill="#305a7c" opacity="1.00" d=" M 949.49 132.02 C 953.83 131.99 958.16 131.99 962.51 132.02 C 962.49 137.68 962.50 143.34 962.50 149.00 C 967.00 149.00 971.50 149.00 976.00 149.00 C 976.00 152.33 976.00 155.67 976.00 159.00 C 971.50 159.00 967.00 159.00 962.50 159.00 C 962.81 173.97 961.70 189.02 963.43 203.92 C 964.59 209.23 971.11 209.30 975.36 208.42 C 975.71 211.54 976.30 214.64 976.65 217.77 C 972.71 218.48 968.87 220.13 964.82 219.97 C 960.12 219.42 955.59 217.03 952.67 213.28 C 950.27 210.08 950.22 205.85 950.01 202.02 C 949.15 192.03 949.51 181.98 949.60 171.97 C 950.52 167.64 949.43 163.34 949.45 159.00 C 945.80 159.00 942.15 159.00 938.51 159.00 C 938.45 155.66 938.34 152.28 939.07 148.99 C 942.46 149.01 945.85 148.98 949.25 149.02 C 949.77 143.37 949.38 137.68 949.49 132.02 Z" />
<path fill="#305a7c" opacity="1.00" d=" M 689.22 157.15 C 698.08 146.36 715.86 144.19 726.54 153.49 C 735.18 161.78 737.59 174.46 737.00 185.99 C 737.76 195.95 734.86 206.52 727.58 213.63 C 717.55 222.70 700.48 221.74 690.94 212.37 C 691.79 223.22 691.44 234.11 691.50 245.00 C 687.16 245.00 682.82 245.01 678.49 244.99 C 678.50 213.00 678.50 181.01 678.49 149.02 C 681.83 148.98 685.18 148.96 688.53 149.09 C 688.92 151.76 689.64 154.43 689.22 157.15 M 691.51 166.86 C 691.83 171.27 690.81 175.61 690.97 180.01 C 690.77 185.37 692.02 190.70 691.38 196.07 C 691.36 197.80 690.50 199.75 691.65 201.30 C 696.67 209.52 709.21 211.97 716.72 205.77 C 720.66 202.29 722.74 197.13 723.68 192.06 C 724.72 183.14 724.04 173.57 719.26 165.73 C 716.65 161.52 711.99 158.62 707.01 158.46 C 700.77 158.01 694.90 161.83 691.51 166.86 Z" />
<path fill="#305a7c" opacity="1.00" d=" M 763.72 156.30 C 773.69 145.32 793.16 144.50 803.04 155.96 C 811.10 167.64 813.18 182.78 810.37 196.53 C 808.68 203.40 806.08 210.69 800.02 214.91 C 789.79 222.33 774.84 221.29 765.42 212.97 C 765.60 223.64 765.44 234.31 765.51 244.99 C 761.00 245.01 756.50 245.00 752.00 245.00 C 752.00 213.00 752.00 181.00 752.00 149.00 C 755.38 149.00 758.76 149.00 762.15 149.00 C 762.72 151.42 763.24 153.86 763.72 156.30 M 767.29 164.44 C 765.63 166.14 765.74 168.69 765.54 170.89 C 765.41 180.99 765.59 191.09 765.46 201.19 C 769.58 206.94 777.08 210.74 784.18 208.90 C 791.95 207.38 796.74 199.59 797.68 192.18 C 798.75 182.13 798.08 170.79 791.09 162.83 C 784.64 156.25 773.01 157.57 767.29 164.44 Z" />
<path fill="#305a7c" opacity="1.00" d=" M 845.47 148.63 C 853.47 147.53 862.39 147.05 869.64 151.32 C 879.62 156.99 885.28 168.72 885.02 180.01 C 884.89 184.81 885.37 189.66 884.38 194.39 C 882.97 203.19 877.85 211.61 869.96 216.00 C 860.05 221.41 847.26 221.20 837.57 215.41 C 823.10 205.02 819.43 184.41 825.33 168.31 C 828.72 159.31 835.87 151.02 845.47 148.63 M 852.24 158.16 C 847.22 158.76 842.67 162.02 840.33 166.48 C 836.07 173.49 836.18 182.02 836.65 189.93 C 837.68 197.59 841.47 206.21 849.49 208.61 C 854.82 209.67 861.24 209.32 865.19 205.08 C 870.73 199.25 872.35 190.81 872.03 183.02 C 872.30 177.13 870.92 171.16 868.01 166.03 C 865.02 160.51 858.34 157.57 852.24 158.16 Z" />
<path fill="#305a7c" opacity="1.00" d=" M 912.42 158.24 C 916.88 150.62 926.35 145.86 935.09 148.03 C 934.58 152.23 933.81 156.40 933.37 160.60 C 926.29 159.08 916.97 161.09 913.60 168.06 C 913.36 184.87 913.57 201.69 913.50 218.50 C 909.00 218.50 904.50 218.50 900.01 218.51 C 899.98 195.34 900.01 172.17 900.00 149.00 C 903.96 149.00 907.93 149.00 911.90 149.00 C 912.24 152.07 912.63 155.15 912.42 158.24 Z" />
<path fill="#305a7c" opacity="1.00" d=" M 604.00 149.00 C 608.33 149.00 612.66 149.00 617.00 149.00 C 617.24 160.98 615.64 172.97 616.96 184.94 C 617.13 191.14 616.29 197.78 619.46 203.43 C 621.68 208.09 627.48 209.36 632.18 208.96 C 638.83 208.40 645.79 203.96 647.43 197.23 C 647.59 181.16 647.46 165.08 647.49 149.02 C 651.82 148.99 656.16 149.00 660.50 149.00 C 660.50 172.17 660.50 195.33 660.50 218.50 C 656.54 218.51 652.59 218.48 648.64 218.54 C 647.74 215.67 647.97 212.64 648.02 209.68 C 640.16 220.79 622.86 223.26 612.17 214.87 C 606.39 209.67 603.78 201.61 603.98 193.98 C 604.03 178.98 603.98 163.99 604.00 149.00 Z" />
<path fill="#305a7c" opacity="1.00" d=" M 1082.83 165.13 C 1085.23 156.87 1093.34 151.21 1101.68 150.27 C 1110.87 149.36 1121.50 149.67 1128.48 156.60 C 1133.00 160.41 1134.20 166.46 1135.05 172.01 C 1130.71 172.10 1126.33 171.64 1122.05 172.50 C 1121.36 167.33 1117.92 162.54 1112.81 161.03 C 1108.50 159.09 1103.59 160.22 1099.56 162.26 C 1096.54 164.37 1094.91 168.37 1095.60 171.99 C 1096.35 174.61 1098.48 176.84 1101.11 177.65 C 1110.66 181.17 1121.55 181.75 1129.83 188.21 C 1135.66 192.70 1136.74 201.05 1134.65 207.72 C 1132.56 213.55 1127.30 217.55 1121.74 219.81 C 1113.76 222.67 1104.99 222.44 1096.86 220.40 C 1087.21 217.83 1079.67 208.63 1079.91 198.50 C 1084.02 198.49 1088.14 198.51 1092.26 198.48 C 1093.82 211.14 1111.70 215.61 1120.28 207.16 C 1123.22 204.28 1123.01 199.65 1120.77 196.42 C 1117.24 193.89 1113.25 192.07 1109.01 191.15 C 1101.03 189.39 1092.58 187.25 1086.39 181.62 C 1081.84 177.40 1082.00 170.77 1082.83 165.13 Z" />
<path fill="#305a7c" opacity="1.00" d=" M 1008.00 151.00 C 1012.66 151.00 1017.33 151.00 1022.00 151.00 C 1022.00 165.34 1022.01 179.68 1021.99 194.03 C 1021.81 198.72 1021.73 204.07 1025.29 207.66 C 1034.36 215.80 1052.54 208.74 1052.02 196.01 C 1051.97 181.01 1052.01 166.01 1052.00 151.00 C 1056.16 151.00 1060.33 151.00 1064.50 151.00 C 1064.50 174.17 1064.50 197.33 1064.50 220.50 C 1060.49 220.50 1056.50 220.50 1052.50 220.50 C 1052.49 217.75 1052.48 215.01 1052.51 212.28 C 1047.50 217.75 1040.57 221.92 1033.00 222.04 C 1025.76 222.08 1017.76 219.89 1013.58 213.51 C 1008.21 206.48 1008.39 197.38 1007.97 189.00 C 1008.03 176.33 1007.98 163.67 1008.00 151.00 Z" />
</g>
<g id="#4f6f95ff">
<path fill="#4f6f95" opacity="1.00" d=" M 703.51 283.53 C 715.01 283.52 726.52 283.55 738.02 283.51 C 746.86 283.70 756.23 285.09 763.46 290.59 C 777.86 300.98 779.20 324.99 765.82 336.74 C 757.84 343.42 746.97 344.56 736.96 344.50 C 732.28 344.75 727.59 343.33 722.98 344.57 C 722.98 355.38 722.99 366.18 722.99 376.99 C 716.49 376.98 710.00 376.99 703.51 376.99 C 703.51 345.84 703.51 314.68 703.51 283.53 M 723.00 299.99 C 722.97 309.50 722.97 319.01 723.01 328.52 C 731.06 328.17 739.36 329.54 747.19 327.07 C 749.48 326.38 751.37 324.76 752.75 322.85 C 758.10 315.21 753.84 302.46 744.40 300.61 C 737.34 299.35 730.13 300.25 723.00 299.99 Z" />
<path fill="#4f6f95" opacity="1.00" d=" M 858.53 290.51 C 865.02 290.50 871.51 290.49 878.00 290.52 C 878.01 296.19 877.95 301.87 878.02 307.54 C 881.84 307.53 885.66 307.53 889.49 307.53 C 889.51 312.34 889.49 317.16 889.51 321.97 C 885.66 321.98 881.83 321.98 877.99 322.00 C 878.03 333.74 877.91 345.48 878.05 357.22 C 877.91 359.81 880.03 362.18 882.60 362.42 C 885.05 362.66 887.52 362.49 890.00 362.50 C 890.00 367.29 889.99 372.09 890.01 376.89 C 881.71 379.12 871.89 379.77 864.66 374.33 C 859.41 369.85 858.81 362.44 858.54 356.01 C 858.59 349.68 858.25 343.32 858.96 337.01 C 859.39 331.99 858.33 327.01 858.52 321.99 C 855.14 321.97 851.73 322.24 848.41 321.51 C 849.29 316.90 848.94 312.19 849.00 307.53 C 852.17 307.53 855.35 307.53 858.53 307.53 C 858.53 301.86 858.53 296.19 858.53 290.51 Z" />
<path fill="#4f6f95" opacity="1.00" d=" M 608.43 312.18 C 616.15 304.30 628.62 302.18 638.77 306.11 C 646.11 309.13 649.55 317.46 649.98 324.93 C 650.03 341.62 649.98 358.31 650.00 375.00 C 643.67 375.00 637.34 375.00 631.01 375.00 C 630.96 359.93 631.11 344.85 630.94 329.78 C 631.20 324.38 626.36 319.76 621.02 319.98 C 616.28 320.08 610.07 322.55 609.50 327.91 C 609.44 343.60 609.50 359.30 609.48 375.00 C 602.99 375.08 596.48 374.69 590.03 375.56 C 589.97 352.21 590.01 328.87 590.00 305.52 C 596.16 305.52 602.32 305.52 608.48 305.52 C 608.48 307.74 608.46 309.95 608.43 312.18 Z" />
<path fill="#4f6f95" opacity="1.00" d=" M 537.13 305.28 C 546.01 303.91 555.77 303.54 563.83 308.19 C 571.83 312.33 576.96 320.54 579.00 329.14 C 580.24 336.99 580.36 345.07 578.66 352.87 C 576.60 361.34 571.14 369.30 563.06 372.99 C 556.37 376.62 548.54 377.01 541.12 376.28 C 531.73 374.78 522.51 369.39 518.20 360.67 C 512.24 348.64 511.94 333.89 517.64 321.71 C 521.28 313.73 528.48 307.25 537.13 305.28 M 542.46 320.77 C 536.70 322.90 534.22 329.40 533.53 335.03 C 533.60 340.90 532.61 347.16 535.26 352.65 C 537.05 356.97 541.11 360.31 545.77 360.98 C 551.75 361.29 557.79 357.11 559.12 351.18 C 561.31 342.49 561.76 332.31 556.38 324.65 C 553.21 320.54 547.30 318.83 542.46 320.77 Z" />
<path fill="#4f6f95" opacity="1.00" d=" M 789.88 314.82 C 797.88 306.75 810.20 305.26 820.97 306.84 C 829.66 308.05 838.33 313.66 840.66 322.51 C 842.10 329.93 842.13 337.54 841.93 345.07 C 840.85 355.75 841.57 366.67 844.63 376.98 C 838.04 376.99 831.46 377.03 824.88 376.96 C 824.50 375.45 824.11 373.94 823.76 372.45 C 819.02 375.54 813.79 378.23 808.01 378.47 C 799.23 379.18 789.80 375.42 785.15 367.69 C 781.16 360.37 781.51 350.48 786.86 343.92 C 791.99 337.58 800.44 335.42 808.21 334.61 C 812.99 334.51 817.75 333.79 822.54 334.04 C 822.90 329.46 822.38 323.55 817.40 321.64 C 811.46 318.35 803.85 322.61 802.49 328.98 C 796.29 329.01 790.10 329.01 783.91 328.98 C 783.92 323.70 785.94 318.41 789.88 314.82 M 809.47 346.71 C 805.03 347.74 802.04 351.70 801.27 356.05 C 802.22 358.17 802.73 360.82 805.02 361.96 C 810.82 365.46 818.57 362.71 822.57 357.70 C 822.50 353.86 822.49 350.02 822.60 346.18 C 818.32 344.76 813.74 345.85 809.47 346.71 Z" />
<path fill="#4f6f95" opacity="1.00" d=" M 918.02 313.71 C 921.78 308.98 927.46 306.12 933.53 306.15 C 935.17 306.46 936.83 306.59 938.50 306.86 C 938.47 313.09 938.53 319.33 938.46 325.56 C 932.68 324.50 926.01 324.41 921.15 328.20 C 917.88 330.73 918.06 335.27 917.99 339.00 C 918.04 346.33 917.77 353.67 918.51 360.98 C 918.03 366.46 917.86 371.96 918.00 377.47 C 911.87 376.50 905.65 377.22 899.48 376.96 C 899.51 367.96 899.49 358.96 899.50 349.96 C 898.16 335.83 899.93 321.69 899.53 307.53 C 905.31 307.53 911.09 307.54 916.87 307.52 C 917.10 309.60 917.42 311.69 918.02 313.71 Z" />
<path fill="#4f6f95" opacity="1.00" d=" M 951.06 318.08 C 960.99 304.82 981.79 302.50 995.15 311.79 C 1002.17 316.82 1005.85 325.36 1006.60 333.77 C 1007.06 338.65 1007.46 343.70 1006.37 348.52 C 991.90 348.42 977.43 348.52 962.96 348.46 C 963.74 353.28 966.33 357.97 970.81 360.24 C 979.13 365.29 990.58 362.79 996.31 354.99 C 999.70 358.35 1002.54 362.22 1006.14 365.39 C 996.13 379.37 975.22 382.09 960.55 374.34 C 951.53 369.73 945.13 360.32 944.38 350.19 C 943.23 339.21 944.15 327.16 951.06 318.08 M 963.25 334.83 C 968.38 336.14 973.74 335.23 978.98 335.50 C 982.26 335.23 985.89 336.30 988.86 334.49 C 987.99 330.99 987.15 327.22 984.22 324.82 C 981.57 321.59 977.00 321.59 973.23 322.16 C 967.76 324.02 964.60 329.50 963.25 334.83 Z" />
<path fill="#4f6f95" opacity="1.00" d=" M 1108.52 314.76 C 1114.97 307.06 1126.11 304.73 1135.58 307.17 C 1142.02 308.71 1146.91 314.25 1148.58 320.53 C 1150.76 326.79 1149.79 333.49 1150.00 339.98 C 1149.99 352.32 1150.00 364.65 1150.00 376.99 C 1143.67 376.99 1137.34 376.99 1131.02 376.99 C 1131.01 361.97 1131.04 346.96 1131.01 331.95 C 1130.96 328.90 1130.10 325.35 1127.23 323.75 C 1122.28 320.60 1115.71 321.73 1111.32 325.34 C 1110.38 327.10 1108.80 328.75 1108.98 330.88 C 1108.98 346.25 1108.98 361.62 1108.98 376.99 C 1102.66 377.07 1096.33 376.79 1090.02 377.19 C 1090.01 353.97 1090.02 330.75 1090.02 307.53 C 1095.98 307.69 1102.00 307.08 1107.93 308.08 C 1108.16 310.30 1108.43 312.52 1108.52 314.76 Z" />
<path fill="#4f6f95" opacity="1.00" d=" M 1036.49 307.58 C 1046.60 305.16 1058.10 306.09 1066.80 312.22 C 1072.43 315.90 1075.78 322.12 1077.85 328.35 C 1081.70 340.55 1080.70 354.64 1073.63 365.50 C 1069.14 372.73 1060.95 376.87 1052.74 378.16 C 1043.10 379.52 1032.61 377.50 1025.03 371.13 C 1019.68 366.85 1016.70 360.32 1015.08 353.83 C 1012.33 343.11 1013.62 331.45 1018.56 321.55 C 1022.23 314.62 1029.05 309.77 1036.49 307.58 M 1044.26 322.16 C 1039.51 322.92 1036.00 326.99 1034.60 331.40 C 1032.72 337.79 1032.34 344.68 1033.88 351.19 C 1034.84 355.19 1036.85 359.27 1040.62 361.31 C 1045.23 364.25 1051.62 363.18 1055.44 359.42 C 1058.63 356.68 1059.37 352.28 1060.20 348.39 C 1061.57 341.66 1060.92 334.38 1057.67 328.27 C 1055.29 323.48 1049.37 321.15 1044.26 322.16 Z" />
</g>
</svg>
