<?xml version="1.0" encoding="UTF-8" ?>
<!DOCTYPE svg PUBLIC "-//W3C//DTD SVG 1.1//EN" "http://www.w3.org/Graphics/SVG/1.1/DTD/svg11.dtd">
<svg width="1371pt" height="494pt" viewBox="0 0 1371 494" version="1.1" xmlns="http://www.w3.org/2000/svg">
<g id="#40729dff">
<path fill="#40729d" opacity="1.00" d=" M 1100.63 12.68 C 1113.46 11.96 1126.28 13.04 1139.11 13.13 C 1181.72 15.14 1223.94 28.52 1259.16 52.77 C 1293.82 76.31 1322.01 109.23 1339.77 147.20 C 1354.21 178.32 1361.99 212.69 1361.50 247.03 C 1362.18 290.49 1349.63 333.91 1326.89 370.89 C 1296.18 420.28 1246.69 457.98 1190.44 473.20 C 1169.39 478.47 1147.76 481.78 1126.02 481.66 C 830.80 481.62 535.58 481.74 240.37 481.60 C 225.49 481.42 210.68 479.42 196.03 476.97 C 154.41 468.25 114.88 448.42 84.08 418.94 C 80.44 415.90 77.07 412.54 74.00 408.93 C 42.19 375.31 20.09 332.26 12.82 286.45 C 3.47 231.86 14.04 173.98 42.65 126.49 C 72.35 76.62 121.33 38.50 177.13 22.40 C 195.25 16.87 214.11 14.02 233.00 12.99 C 520.68 13.01 808.36 12.99 1096.04 13.01 C 1097.55 12.98 1099.09 12.84 1100.63 12.68 M 225.25 43.17 C 179.37 46.12 135.30 66.58 102.20 98.26 C 83.21 116.42 67.99 138.45 57.36 162.46 C 45.74 188.67 39.89 217.31 39.48 245.94 C 39.51 273.31 44.57 300.75 54.98 326.10 C 66.19 353.57 83.48 378.57 105.21 398.76 C 125.35 417.30 149.22 431.87 175.17 440.65 C 197.20 448.32 220.62 451.90 243.93 451.49 C 537.60 451.50 831.27 451.49 1124.95 451.50 C 1157.67 452.48 1190.57 445.30 1219.83 430.60 C 1252.61 414.34 1280.42 388.60 1299.80 357.63 C 1324.57 318.29 1335.39 270.39 1330.11 224.22 C 1325.74 182.42 1308.18 142.07 1280.40 110.52 C 1252.31 78.19 1213.51 55.25 1171.46 46.85 C 1146.66 41.36 1121.15 42.64 1095.95 42.50 C 856.96 42.50 617.97 42.51 378.99 42.50 C 374.01 42.84 369.03 43.18 364.04 43.00 C 317.77 43.11 271.50 42.78 225.25 43.17 Z" />
<path fill="#40729d" opacity="1.00" d=" M 339.38 126.18 C 358.21 124.74 377.55 128.65 393.92 138.21 C 409.65 147.20 422.56 160.94 430.62 177.18 C 445.98 207.07 443.06 245.22 423.36 272.45 C 406.22 297.20 376.20 312.53 346.07 311.51 C 326.34 311.71 306.87 304.58 291.17 292.78 C 273.97 279.76 261.36 260.63 256.82 239.48 C 251.19 215.09 255.71 188.36 269.79 167.57 C 285.15 144.19 311.43 128.38 339.38 126.18 Z" />
<path fill="#40729d" opacity="1.00" d=" M 703.51 283.53 C 715.01 283.53 726.50 283.54 738.00 283.52 C 746.83 283.70 756.20 285.08 763.43 290.58 C 777.67 300.82 779.17 324.33 766.34 336.30 C 758.63 343.11 747.90 344.48 738.01 344.50 C 732.98 344.78 727.95 343.41 722.98 344.52 C 722.97 355.34 722.99 366.16 722.99 376.99 C 716.49 376.98 710.00 376.98 703.51 376.98 C 703.51 345.83 703.51 314.68 703.51 283.53 M 723.00 299.98 C 722.95 309.49 722.98 319.01 722.99 328.52 C 730.84 328.20 738.88 329.45 746.55 327.27 C 748.86 326.68 750.88 325.26 752.35 323.39 C 758.31 315.85 754.08 302.52 744.41 300.61 C 737.35 299.34 730.13 300.25 723.00 299.98 Z" />
<path fill="#40729d" opacity="1.00" d=" M 858.53 290.51 C 865.02 290.51 871.50 290.49 877.99 290.52 C 877.99 296.19 877.96 301.86 878.00 307.54 C 881.83 307.53 885.66 307.53 889.49 307.53 C 889.50 312.34 889.49 317.16 889.50 321.98 C 885.66 321.97 881.82 321.98 877.99 322.00 C 878.03 333.72 877.89 345.45 878.04 357.18 C 877.90 359.80 880.01 362.17 882.61 362.42 C 885.06 362.66 887.52 362.50 889.99 362.50 C 889.99 367.30 889.98 372.10 890.00 376.90 C 881.70 379.09 871.91 379.78 864.68 374.33 C 859.41 369.84 858.80 362.41 858.55 355.96 C 858.56 349.66 858.29 343.34 858.95 337.07 C 859.36 332.03 858.40 327.03 858.50 322.00 C 855.14 322.05 851.77 322.08 848.45 321.60 C 849.20 316.94 849.02 312.23 849.00 307.53 C 852.17 307.53 855.35 307.53 858.54 307.54 C 858.53 301.86 858.53 296.19 858.53 290.51 Z" />
<path fill="#40729d" opacity="1.00" d=" M 608.42 312.15 C 616.20 304.32 628.67 302.16 638.83 306.13 C 646.14 309.20 649.56 317.49 649.97 324.95 C 650.03 341.63 649.97 358.31 649.99 375.00 C 643.67 374.99 637.34 374.99 631.02 375.00 C 631.02 360.67 631.01 346.35 631.02 332.03 C 630.93 329.44 630.92 326.64 629.47 324.38 C 624.94 317.24 612.09 319.26 609.59 327.11 C 609.32 343.06 609.56 359.03 609.48 374.99 C 602.99 375.06 596.48 374.69 590.04 375.56 C 589.97 352.22 590.02 328.87 590.01 305.52 C 596.16 305.52 602.32 305.53 608.48 305.52 C 608.48 307.73 608.45 309.94 608.42 312.15 Z" />
<path fill="#40729d" opacity="1.00" d=" M 537.23 305.25 C 545.84 303.97 555.25 303.56 563.16 307.83 C 572.32 312.35 578.21 322.06 579.40 332.04 C 580.68 343.23 580.12 355.70 572.93 364.95 C 564.80 375.70 549.61 378.65 537.07 375.38 C 529.21 373.17 521.85 368.11 518.19 360.65 C 512.24 348.60 511.95 333.84 517.67 321.65 C 521.34 313.67 528.57 307.20 537.23 305.25 M 542.48 320.76 C 539.27 321.90 536.91 324.59 535.59 327.66 C 532.78 333.04 533.49 339.26 533.49 345.10 C 533.65 350.98 536.53 357.26 542.08 359.86 C 548.52 363.10 556.98 358.68 558.89 351.94 C 561.17 343.65 561.77 334.14 557.50 326.37 C 554.80 321.12 547.97 318.54 542.48 320.76 Z" />
<path fill="#40729d" opacity="1.00" d=" M 789.82 314.88 C 797.81 306.79 810.15 305.25 820.93 306.85 C 829.20 308.01 837.48 313.06 840.27 321.27 C 844.06 335.66 840.13 350.56 842.12 365.12 C 842.47 369.16 843.65 373.06 844.65 376.98 C 838.05 376.98 831.47 377.02 824.88 376.96 C 824.51 375.45 824.12 373.94 823.77 372.45 C 819.03 375.53 813.82 378.20 808.06 378.47 C 799.56 379.14 790.44 375.71 785.63 368.44 C 781.77 362.28 781.53 354.19 784.48 347.61 C 786.81 342.85 791.16 339.22 796.10 337.39 C 804.47 334.07 813.65 334.24 822.50 334.05 C 822.60 330.47 822.84 326.39 820.21 323.57 C 817.33 320.85 812.81 319.58 809.10 321.29 C 805.64 322.41 803.53 325.70 802.43 328.99 C 796.24 328.99 790.06 329.01 783.88 328.97 C 783.99 323.73 785.88 318.46 789.82 314.88 M 808.82 346.92 C 804.63 348.09 802.10 351.99 801.23 356.04 C 802.23 358.15 802.75 360.81 805.03 361.97 C 810.84 365.47 818.54 362.68 822.58 357.73 C 822.50 353.85 822.50 349.98 822.59 346.11 C 818.06 344.88 813.27 345.77 808.82 346.92 Z" />
<path fill="#40729d" opacity="1.00" d=" M 917.94 313.73 C 921.76 309.10 927.34 306.09 933.43 306.20 C 935.05 306.39 936.68 306.52 938.34 306.67 C 938.64 312.95 938.44 319.24 938.47 325.53 C 932.69 324.55 926.03 324.39 921.17 328.18 C 918.16 330.46 918.07 334.54 917.99 337.97 C 918.07 345.32 917.70 352.68 918.47 360.00 C 918.26 365.81 917.73 371.61 918.01 377.43 C 911.87 376.58 905.66 377.14 899.50 376.98 C 899.46 367.67 899.58 358.35 899.45 349.05 C 898.20 335.22 899.95 321.38 899.53 307.53 C 905.29 307.53 911.05 307.54 916.81 307.53 C 917.13 309.60 917.52 311.67 917.94 313.73 Z" />
<path fill="#40729d" opacity="1.00" d=" M 949.77 319.96 C 959.36 304.51 983.18 301.73 996.88 313.17 C 1006.71 321.82 1008.08 336.30 1006.44 348.52 C 991.94 348.42 977.43 348.51 962.93 348.47 C 963.81 355.54 969.57 361.28 976.57 362.41 C 983.97 364.29 991.72 360.84 996.33 354.99 C 999.67 358.39 1002.57 362.20 1006.14 365.40 C 996.78 378.53 977.77 381.62 963.41 375.72 C 953.31 371.67 945.57 362.00 944.49 351.09 C 943.31 340.57 943.81 329.09 949.77 319.96 M 963.21 334.79 C 966.72 335.85 970.41 335.46 974.03 335.50 C 978.89 335.45 983.78 335.69 988.64 335.24 C 988.32 331.41 987.29 327.39 984.22 324.82 C 981.59 321.61 977.07 321.61 973.32 322.13 C 967.78 323.95 964.67 329.47 963.21 334.79 Z" />
<path fill="#40729d" opacity="1.00" d=" M 1126.36 306.30 C 1132.82 305.97 1140.11 307.38 1144.40 312.67 C 1149.39 318.47 1150.34 326.58 1150.00 333.96 C 1149.98 348.30 1149.99 362.64 1150.00 376.98 C 1143.67 376.98 1137.34 376.98 1131.02 376.98 C 1131.03 362.32 1131.02 347.66 1131.03 332.99 C 1131.07 329.62 1130.44 325.55 1127.22 323.73 C 1122.25 320.59 1115.73 321.78 1111.30 325.31 C 1110.38 327.09 1108.83 328.76 1108.98 330.90 C 1108.96 346.26 1108.98 361.62 1108.98 376.98 C 1102.66 377.04 1096.33 376.82 1090.02 377.16 C 1090.01 353.95 1090.03 330.74 1090.02 307.53 C 1095.99 307.67 1102.00 307.13 1107.93 308.06 C 1108.16 310.28 1108.38 312.51 1108.54 314.75 C 1112.92 309.51 1119.63 306.69 1126.36 306.30 Z" />
<path fill="#40729d" opacity="1.00" d=" M 1036.40 307.61 C 1046.75 305.09 1058.58 306.13 1067.37 312.62 C 1072.00 315.80 1074.94 320.85 1077.00 325.96 C 1081.76 338.50 1081.16 353.41 1074.00 364.93 C 1070.65 370.58 1065.01 374.61 1058.83 376.63 C 1047.62 380.40 1034.23 378.76 1025.00 371.10 C 1019.67 366.81 1016.70 360.30 1015.07 353.80 C 1012.35 343.11 1013.60 331.45 1018.56 321.59 C 1022.17 314.66 1029.00 309.82 1036.40 307.61 M 1044.36 322.13 C 1039.78 322.84 1036.28 326.62 1034.79 330.84 C 1032.90 336.67 1032.43 342.97 1033.44 349.01 C 1034.21 354.03 1036.46 359.40 1041.31 361.70 C 1047.45 365.07 1055.90 361.60 1058.37 355.18 C 1061.50 346.61 1062.10 336.60 1057.71 328.34 C 1055.35 323.55 1049.48 321.16 1044.36 322.13 Z" />
</g>
<g id="#010204ff">
<path fill="#010204" opacity="1.00" d=" M 180.00 123.86 C 196.34 123.95 212.67 123.53 229.00 124.01 C 228.99 208.30 229.01 292.59 228.99 376.88 C 212.66 376.88 196.33 376.88 180.01 376.88 C 180.00 292.54 180.00 208.20 180.00 123.86 Z" />
<path fill="#010204" opacity="1.00" d=" M 543.42 125.54 C 554.01 122.52 566.03 123.49 575.43 129.49 C 580.06 132.57 584.22 136.78 586.15 142.10 C 587.39 145.42 587.89 148.95 588.50 152.43 C 584.36 152.45 580.22 152.47 576.09 152.48 C 575.46 144.58 570.32 136.20 561.97 134.94 C 555.17 134.18 547.47 133.50 541.54 137.62 C 535.66 141.42 534.14 150.25 537.89 156.01 C 543.27 162.50 551.88 164.51 559.64 166.63 C 568.62 168.96 577.89 172.69 583.73 180.25 C 589.57 187.49 590.45 198.50 585.32 206.37 C 581.29 212.99 573.89 216.62 566.59 218.38 C 556.84 220.58 546.36 219.70 537.13 215.85 C 527.58 211.78 519.66 202.44 520.18 191.61 C 524.16 191.59 528.14 191.57 532.12 191.56 C 532.73 196.69 535.07 201.72 539.41 204.73 C 547.76 210.67 559.50 211.13 568.58 206.59 C 575.85 203.04 578.16 192.33 572.75 186.23 C 567.68 180.09 559.41 178.68 552.17 176.60 C 542.96 174.07 533.23 170.53 527.20 162.69 C 521.07 154.93 521.81 143.29 527.58 135.54 C 531.30 130.26 537.38 127.32 543.42 125.54 Z" />
<path fill="#010204" opacity="1.00" d=" M 949.91 132.38 C 954.07 132.40 958.24 132.41 962.41 132.41 C 962.42 137.96 962.37 143.51 962.37 149.05 C 966.82 149.06 971.27 149.06 975.72 149.07 C 975.72 152.27 975.70 155.48 975.68 158.69 C 971.25 158.68 966.83 158.68 962.42 158.69 C 962.88 174.05 961.28 189.52 963.35 204.80 C 964.85 209.67 970.99 209.28 975.03 208.64 C 975.50 211.61 975.96 214.59 976.43 217.57 C 972.95 218.28 969.54 219.36 966.01 219.80 C 959.15 219.35 951.60 214.84 950.71 207.49 C 948.94 191.27 950.40 174.95 949.89 158.68 C 946.25 158.70 942.61 158.72 938.97 158.74 C 938.96 155.53 938.96 152.31 939.01 149.09 C 942.66 149.06 946.31 149.02 949.97 148.97 C 949.94 143.44 949.88 137.91 949.91 132.38 Z" />
<path fill="#010204" opacity="1.00" d=" M 689.55 157.57 C 698.37 145.99 717.82 144.35 727.79 155.27 C 736.12 164.67 737.55 178.00 736.83 190.05 C 736.57 200.14 732.29 210.92 723.38 216.34 C 713.14 221.91 699.16 220.38 690.95 211.86 C 691.09 222.89 691.01 233.93 691.03 244.96 C 686.86 244.97 682.70 244.97 678.54 244.97 C 678.52 213.01 678.53 181.05 678.54 149.10 C 681.75 149.08 684.97 149.06 688.20 149.04 C 688.67 151.88 689.13 154.72 689.55 157.57 M 702.44 158.56 C 697.93 159.80 693.37 162.70 691.42 167.05 C 690.45 177.01 691.31 187.05 690.98 197.04 C 691.08 198.54 690.61 200.22 691.42 201.59 C 696.73 210.12 709.99 212.30 717.52 205.48 C 722.90 200.21 724.58 192.30 724.46 185.02 C 724.24 178.10 723.09 170.85 719.14 165.00 C 715.62 159.68 708.61 157.01 702.44 158.56 Z" />
<path fill="#010204" opacity="1.00" d=" M 763.68 157.30 C 773.19 145.10 794.45 144.59 803.64 157.39 C 810.89 168.74 812.89 183.11 810.11 196.19 C 808.56 202.67 806.20 209.48 800.86 213.83 C 790.74 222.24 774.34 221.44 765.17 211.95 C 765.38 222.95 765.25 233.96 765.28 244.97 C 760.97 244.97 756.67 244.97 752.37 244.96 C 752.38 213.00 752.37 181.04 752.38 149.07 C 755.55 149.05 758.72 149.03 761.90 149.03 C 762.51 151.78 763.10 154.53 763.68 157.30 M 768.62 162.61 C 767.04 164.02 765.39 165.76 765.54 168.04 C 764.78 179.24 765.57 190.47 765.23 201.68 C 769.29 206.52 775.31 210.41 781.90 209.46 C 790.33 209.34 796.36 201.53 797.70 193.79 C 798.75 186.15 798.74 178.12 796.12 170.77 C 794.57 166.79 792.36 162.71 788.57 160.45 C 782.39 156.73 773.95 157.87 768.62 162.61 Z" />
<path fill="#010204" opacity="1.00" d=" M 849.21 148.28 C 856.25 147.63 863.87 148.08 870.03 151.91 C 878.91 157.37 884.32 167.61 884.74 177.92 C 885.31 187.62 885.02 198.11 879.43 206.47 C 869.64 222.86 842.70 224.29 831.27 209.02 C 821.69 196.76 820.41 178.98 827.08 165.08 C 831.22 156.44 839.33 149.08 849.21 148.28 M 849.33 158.54 C 841.77 160.90 837.63 168.86 836.62 176.26 C 835.50 185.45 835.66 195.80 841.59 203.45 C 847.31 211.45 860.96 211.59 866.82 203.69 C 870.90 198.41 872.21 191.56 872.42 185.03 C 872.67 177.73 871.31 170.08 867.01 164.02 C 863.08 158.66 855.57 156.76 849.33 158.54 Z" />
<path fill="#010204" opacity="1.00" d=" M 912.36 158.81 C 916.92 151.18 925.89 146.44 934.81 148.07 C 934.31 152.11 933.70 156.14 933.04 160.16 C 927.44 159.54 921.27 159.99 916.74 163.69 C 915.18 165.10 913.02 166.64 913.23 169.00 C 913.19 185.40 913.24 201.81 913.21 218.21 C 908.91 218.22 904.61 218.22 900.31 218.21 C 900.32 195.16 900.32 172.12 900.31 149.07 C 904.11 149.05 907.92 149.05 911.74 149.07 C 911.98 152.31 912.21 155.56 912.36 158.81 Z" />
<path fill="#010204" opacity="1.00" d=" M 604.06 149.06 C 608.22 149.05 612.37 149.05 616.53 149.10 C 616.58 163.40 616.34 177.71 616.64 192.01 C 617.00 197.45 617.59 204.07 622.64 207.32 C 631.24 212.03 644.00 207.93 647.40 198.50 C 648.36 182.05 647.52 165.54 647.82 149.06 C 651.97 149.05 656.12 149.05 660.28 149.09 C 660.31 172.15 660.24 195.21 660.25 218.28 C 656.35 218.25 652.46 218.25 648.57 218.23 C 648.40 215.22 648.26 212.21 648.17 209.20 C 643.35 215.34 635.94 219.55 628.04 219.63 C 621.61 219.56 614.62 217.74 610.41 212.55 C 605.36 206.66 603.86 198.64 604.09 191.08 C 603.94 177.07 604.09 163.07 604.06 149.06 Z" />
<path fill="#010204" opacity="1.00" d=" M 1091.44 154.38 C 1097.44 150.25 1105.05 149.83 1112.09 150.23 C 1119.33 150.70 1126.87 153.80 1131.01 160.01 C 1133.38 163.55 1134.14 167.81 1134.76 171.95 C 1130.59 172.01 1126.42 172.01 1122.26 172.00 C 1121.27 162.25 1109.54 157.07 1101.13 161.22 C 1094.72 163.29 1092.77 173.60 1099.02 177.00 C 1108.72 181.53 1120.31 181.40 1129.09 188.04 C 1137.30 193.95 1137.44 207.35 1130.11 214.04 C 1122.33 221.87 1110.22 222.66 1099.92 220.81 C 1089.29 219.25 1079.96 209.79 1080.21 198.73 C 1084.16 198.70 1088.12 198.73 1092.08 198.77 C 1092.81 201.70 1093.73 204.76 1096.05 206.86 C 1101.86 212.39 1111.37 213.11 1118.28 209.29 C 1122.53 206.96 1124.27 200.74 1121.22 196.80 C 1118.73 194.00 1115.04 192.67 1111.57 191.57 C 1104.44 189.64 1096.96 188.40 1090.59 184.43 C 1086.15 181.84 1082.57 177.28 1082.63 171.93 C 1081.63 164.92 1085.65 158.09 1091.44 154.38 Z" />
<path fill="#010204" opacity="1.00" d=" M 1008.27 151.16 C 1012.70 151.15 1017.13 151.15 1021.57 151.17 C 1021.60 166.77 1021.43 182.38 1021.62 197.99 C 1021.56 202.90 1023.75 208.46 1028.70 210.25 C 1037.58 213.78 1050.29 209.04 1052.07 198.98 C 1052.04 183.05 1051.97 167.09 1052.03 151.16 C 1056.18 151.16 1060.33 151.16 1064.49 151.15 C 1064.52 174.22 1064.45 197.28 1064.46 220.34 C 1060.57 220.35 1056.68 220.34 1052.80 220.30 C 1052.73 217.28 1052.67 214.26 1052.73 211.24 C 1047.96 217.18 1040.81 221.48 1033.09 221.77 C 1025.85 221.90 1017.96 219.50 1013.77 213.21 C 1008.49 206.31 1008.51 197.31 1008.34 189.04 C 1008.02 176.42 1008.43 163.79 1008.27 151.16 Z" />
</g>
</svg>
