<?xml version="1.0" encoding="UTF-8" ?>
<!DOCTYPE svg PUBLIC "-//W3C//DTD SVG 1.1//EN" "http://www.w3.org/Graphics/SVG/1.1/DTD/svg11.dtd">
<svg width="1371pt" height="494pt" viewBox="0 0 1371 494" version="1.1" xmlns="http://www.w3.org/2000/svg">
<g id="#3e739eff">
<path fill="#3e739e" opacity="1.00" d=" M 112.99 51.99 C 152.44 25.30 200.34 11.22 247.96 12.50 C 530.63 12.49 813.30 12.51 1095.96 12.49 C 1106.27 11.81 1116.65 11.68 1126.96 12.46 C 1174.76 12.07 1222.82 26.43 1261.88 54.17 C 1293.54 76.30 1319.58 106.36 1336.95 140.87 C 1351.90 170.64 1360.24 203.68 1361.52 236.95 C 1361.32 246.29 1361.93 255.66 1361.03 264.98 C 1357.76 309.93 1341.15 353.88 1313.58 389.57 C 1289.19 421.09 1256.89 446.54 1220.24 462.29 C 1209.18 467.25 1197.55 470.67 1185.96 474.11 C 1164.02 479.20 1141.52 481.90 1118.99 481.46 C 833.67 481.46 548.35 481.46 263.03 481.46 C 237.10 481.95 210.89 480.67 185.69 474.13 C 160.93 467.55 136.99 457.47 115.55 443.38 C 79.54 419.78 50.49 385.95 31.93 347.15 C 7.85 296.70 3.13 237.55 18.00 183.74 C 32.44 130.28 66.93 82.67 112.99 51.99 M 375.36 42.22 C 373.56 42.41 371.76 42.50 369.96 42.51 C 322.96 42.48 275.97 42.52 228.97 42.50 C 169.73 45.03 113.06 76.95 78.59 124.93 C 49.90 164.47 36.30 214.49 40.21 263.11 C 42.60 293.56 51.63 323.55 66.94 350.01 C 89.82 390.34 126.99 422.45 170.54 438.53 C 193.65 447.12 218.34 451.37 242.98 451.00 C 537.30 451.00 831.62 451.00 1125.93 451.00 C 1158.45 451.87 1191.10 444.58 1220.15 429.94 C 1252.47 413.83 1279.95 388.52 1299.23 358.04 C 1324.53 318.34 1335.53 269.78 1330.04 223.05 C 1326.10 186.58 1312.14 151.27 1290.11 121.96 C 1265.99 89.83 1232.18 64.78 1193.87 52.36 C 1171.43 44.68 1147.58 41.83 1123.95 42.00 C 895.31 42.00 666.68 42.00 438.04 42.00 C 417.15 42.14 396.24 41.71 375.36 42.22 Z" />
<path fill="#3e739e" opacity="1.00" d=" M 714.50 269.15 C 715.08 266.75 715.86 263.22 718.95 263.15 C 728.96 262.78 738.99 263.11 749.00 263.00 C 756.45 263.17 764.01 262.37 771.34 264.10 C 779.34 265.83 787.58 270.26 790.80 278.22 C 795.23 290.54 792.26 304.24 786.49 315.59 C 782.19 324.24 773.63 330.11 764.47 332.59 C 755.51 335.50 746.02 334.25 736.79 334.58 C 734.79 335.12 731.97 335.66 731.39 337.99 C 728.77 347.10 728.64 356.69 726.42 365.89 C 726.10 367.52 724.93 368.75 723.97 370.04 C 715.95 370.87 707.81 370.70 699.80 369.87 C 698.84 364.14 700.49 358.48 701.22 352.83 C 705.74 324.95 710.05 297.04 714.50 269.15 M 740.20 285.31 C 736.75 294.09 736.97 303.85 734.97 313.02 C 739.97 313.13 744.97 312.79 749.94 312.25 C 754.88 311.59 760.12 308.85 761.73 303.81 C 764.09 298.57 764.74 291.04 759.50 287.30 C 753.57 284.28 746.62 284.25 740.20 285.31 Z" />
<path fill="#3e739e" opacity="1.00" d=" M 991.90 263.75 C 995.52 262.76 999.29 262.98 1003.01 262.99 C 1015.01 263.04 1027.02 262.94 1039.02 263.03 C 1047.29 263.66 1056.24 265.63 1062.17 271.88 C 1068.08 278.17 1069.35 287.44 1068.18 295.70 C 1066.83 304.30 1064.72 313.21 1059.15 320.15 C 1052.30 329.15 1041.03 333.79 1029.96 334.48 C 1022.66 334.67 1015.21 333.85 1008.09 335.95 C 1003.21 346.56 1004.93 358.68 1000.92 369.53 C 992.35 371.34 983.57 370.33 974.93 369.91 C 974.91 363.43 976.20 357.05 977.16 350.67 C 981.03 326.81 984.74 302.93 988.53 279.06 C 989.41 273.91 989.76 268.58 991.90 263.75 M 1015.81 285.06 C 1012.47 294.04 1012.55 303.75 1010.53 313.03 C 1016.52 313.01 1022.59 312.88 1028.48 311.67 C 1038.07 309.22 1041.74 296.42 1036.84 288.35 C 1030.69 283.95 1022.92 284.62 1015.81 285.06 Z" />
<path fill="#3e739e" opacity="1.00" d=" M 1172.41 263.49 C 1180.29 262.79 1188.41 261.57 1196.14 264.02 C 1192.47 297.18 1185.90 329.93 1181.19 362.95 C 1181.09 365.66 1179.85 368.07 1177.97 369.96 C 1171.00 370.60 1163.90 371.01 1156.98 369.77 C 1155.02 368.70 1156.28 365.70 1156.12 363.88 C 1160.25 337.34 1164.57 310.83 1168.65 284.28 C 1169.91 277.35 1170.44 270.27 1172.41 263.49 Z" />
<path fill="#3e739e" opacity="1.00" d=" M 810.05 301.24 C 817.82 297.10 826.92 296.48 835.55 297.17 C 841.71 297.92 847.56 300.64 851.94 305.06 C 852.32 303.06 852.73 301.06 853.13 299.07 C 861.24 298.21 869.52 298.10 877.62 299.11 C 876.34 318.52 871.90 337.53 869.34 356.78 C 868.39 361.25 868.78 366.52 865.24 369.96 C 857.85 370.80 850.37 370.73 842.99 369.89 C 842.67 367.60 842.48 365.30 842.43 362.99 C 835.08 369.04 825.62 372.61 816.05 372.04 C 805.45 372.24 794.47 366.46 790.19 356.46 C 780.96 336.66 790.98 311.14 810.05 301.24 M 829.44 317.17 C 818.29 319.01 809.73 331.60 813.32 342.56 C 815.08 348.35 821.03 352.13 826.95 352.05 C 838.60 352.71 849.98 341.88 848.53 329.99 C 848.30 320.76 837.79 315.14 829.44 317.17 Z" />
<path fill="#3e739e" opacity="1.00" d=" M 1081.61 303.73 C 1089.14 298.13 1098.81 296.54 1107.99 296.97 C 1115.27 296.80 1122.26 300.00 1127.51 304.95 C 1128.04 302.77 1128.61 300.60 1129.21 298.45 C 1137.14 298.68 1145.11 298.06 1153.01 299.11 C 1153.54 307.98 1151.08 316.60 1149.86 325.31 C 1147.60 339.69 1145.83 354.17 1142.55 368.37 C 1135.21 372.47 1126.60 369.70 1118.68 369.94 C 1117.91 367.44 1117.82 364.81 1118.31 362.26 C 1111.62 369.27 1101.47 372.25 1091.97 372.05 C 1084.59 372.17 1076.94 369.76 1071.66 364.45 C 1065.43 358.80 1062.56 350.20 1062.46 341.96 C 1061.74 327.10 1069.38 312.12 1081.61 303.73 M 1105.27 317.18 C 1095.32 318.52 1087.91 328.34 1087.99 338.13 C 1088.34 343.37 1091.28 348.88 1096.46 350.72 C 1109.32 356.28 1126.00 344.16 1124.10 330.10 C 1124.01 320.93 1113.58 315.24 1105.27 317.18 Z" />
<path fill="#3e739e" opacity="1.00" d=" M 886.85 299.19 C 895.39 299.07 904.46 296.78 912.61 300.33 C 917.39 312.58 920.42 325.42 924.30 337.97 C 933.70 325.37 941.44 311.59 951.35 299.38 C 959.00 297.98 967.03 298.08 974.72 299.19 C 978.26 300.69 975.66 304.40 974.22 306.49 C 955.18 334.03 935.94 361.43 916.99 389.04 C 916.10 390.21 915.32 391.53 914.11 392.40 C 908.40 392.70 902.68 392.40 896.98 392.51 C 893.66 392.43 890.25 392.90 887.06 391.85 C 892.97 381.71 900.50 372.65 907.09 362.96 C 901.45 346.29 895.72 329.65 890.00 313.01 C 888.55 308.54 886.23 304.02 886.85 299.19 Z" />
<path fill="#3e739e" opacity="1.00" d=" M 539.43 301.60 C 547.87 299.54 557.06 300.30 564.92 304.03 C 574.88 309.08 580.74 320.11 581.46 331.01 C 581.61 337.88 581.91 344.94 579.60 351.53 C 576.89 360.44 569.65 367.64 560.88 370.64 C 549.81 374.25 536.70 372.90 527.45 365.50 C 522.18 361.48 519.10 355.27 517.35 349.01 C 514.33 337.34 515.20 324.05 521.94 313.79 C 525.78 307.53 532.37 303.30 539.43 301.60 M 547.19 316.16 C 543.48 316.78 539.89 318.83 538.16 322.27 C 534.79 327.93 535.51 334.73 535.50 341.03 C 535.50 346.95 538.26 353.56 544.00 356.00 C 548.66 358.20 554.48 356.60 557.90 352.91 C 560.83 350.08 561.42 345.80 562.17 341.99 C 563.00 335.47 562.75 328.47 559.58 322.57 C 557.36 318.09 552.01 315.70 547.19 316.16 Z" />
<path fill="#3e739e" opacity="1.00" d=" M 610.00 308.28 C 616.52 302.67 625.28 299.37 633.93 300.72 C 637.76 301.46 641.79 302.53 644.67 305.34 C 649.33 309.49 651.22 315.93 651.50 321.98 C 651.50 338.49 651.50 354.99 651.50 371.50 C 645.16 371.50 638.83 371.50 632.50 371.50 C 632.48 357.33 632.53 343.15 632.48 328.98 C 632.11 325.18 632.72 320.38 628.96 318.06 C 623.20 314.09 615.42 317.02 610.96 321.62 C 611.05 338.25 610.99 354.88 610.99 371.51 C 604.70 371.50 598.41 371.48 592.13 371.53 C 591.20 364.73 591.55 357.86 591.50 351.03 C 591.49 334.69 591.50 318.35 591.49 302.01 C 597.66 301.99 603.83 302.00 610.00 302.00 C 609.99 304.09 609.99 306.18 610.00 308.28 Z" />
</g>
<g id="#305a7cff">
<path fill="#305a7c" opacity="1.00" d=" M 533.67 126.63 C 544.28 120.87 557.42 119.93 568.67 124.37 C 575.94 127.42 582.59 133.07 585.17 140.71 C 586.30 143.85 586.73 147.19 587.18 150.49 C 582.87 150.51 578.57 150.48 574.27 150.53 C 573.64 143.09 569.10 135.37 561.51 133.41 C 554.60 132.26 546.78 131.68 540.61 135.62 C 533.72 139.71 532.19 151.12 538.85 156.12 C 548.03 163.76 560.78 163.49 571.03 168.97 C 576.91 171.70 581.97 176.25 585.02 182.00 C 589.13 190.16 588.19 201.01 581.66 207.67 C 575.05 215.12 564.65 217.48 555.09 217.92 C 544.54 217.68 533.18 215.23 525.58 207.37 C 520.72 202.79 518.37 196.12 518.34 189.52 C 522.46 189.48 526.59 189.52 530.72 189.47 C 531.63 194.35 533.67 199.30 537.83 202.29 C 546.58 208.68 559.22 209.12 568.42 203.42 C 571.08 201.87 572.48 198.90 573.51 196.13 C 575.27 190.79 572.61 184.88 568.19 181.72 C 561.99 177.12 554.14 176.08 546.95 173.85 C 538.38 171.27 529.58 167.22 524.46 159.54 C 517.35 148.69 522.10 132.33 533.67 126.63 Z" />
<path fill="#305a7c" opacity="1.00" d=" M 948.00 130.00 C 952.33 130.00 956.66 130.00 961.00 130.00 C 961.00 135.67 961.00 141.33 961.00 147.00 C 965.50 147.00 970.00 147.00 974.50 147.00 C 974.50 150.33 974.50 153.67 974.50 157.00 C 970.00 157.00 965.50 157.00 961.00 157.00 C 961.35 171.99 960.13 187.08 961.99 202.00 C 963.07 207.27 969.62 207.27 973.80 206.41 C 974.25 209.52 974.79 212.63 975.14 215.76 C 971.01 216.59 966.94 218.29 962.68 217.91 C 956.48 216.87 949.93 212.67 949.06 205.98 C 947.55 192.39 947.74 178.64 948.45 165.00 C 948.39 162.33 948.01 159.67 947.89 157.00 C 944.24 157.00 940.60 157.00 936.97 157.00 C 936.93 153.66 937.01 150.32 937.48 147.01 C 940.95 147.00 944.43 147.02 947.90 146.91 C 948.07 141.27 947.97 135.64 948.00 130.00 Z" />
<path fill="#305a7c" opacity="1.00" d=" M 688.07 154.84 C 697.14 143.98 715.45 142.23 725.80 152.22 C 734.15 160.85 736.07 173.52 735.52 185.06 C 736.22 196.33 731.83 208.83 721.75 214.81 C 711.45 220.12 697.78 218.56 689.38 210.38 C 690.32 221.23 689.93 232.12 690.00 243.00 C 685.66 243.00 681.33 243.00 677.00 243.00 C 677.00 211.00 677.00 179.00 677.00 147.00 C 680.33 147.00 683.66 147.00 687.00 146.99 C 687.41 149.60 687.78 152.22 688.07 154.84 M 690.02 164.75 C 690.16 169.17 689.45 173.56 689.47 177.97 C 689.31 183.38 690.46 188.77 689.85 194.18 C 689.82 195.94 689.09 197.94 690.27 199.50 C 693.36 204.59 699.34 206.83 705.00 207.53 C 708.72 206.91 712.71 206.19 715.54 203.45 C 720.71 198.49 722.76 191.02 722.55 184.03 C 722.84 177.36 721.52 170.59 718.36 164.69 C 715.74 159.87 710.56 156.36 704.98 156.44 C 698.89 156.21 693.45 159.98 690.02 164.75 Z" />
<path fill="#305a7c" opacity="1.00" d=" M 775.78 146.48 C 785.16 144.15 796.26 146.92 802.21 154.87 C 809.75 166.68 811.72 181.61 808.70 195.19 C 807.10 201.55 804.63 208.14 799.31 212.32 C 789.16 220.32 773.52 219.63 763.99 210.91 C 764.01 221.61 763.99 232.30 764.00 243.00 C 759.49 243.00 754.99 243.00 750.49 242.99 C 750.50 211.00 750.50 179.00 750.49 147.01 C 753.89 147.00 757.29 146.99 760.70 147.02 C 761.21 149.43 761.71 151.85 762.19 154.27 C 766.07 150.71 770.49 147.49 775.78 146.48 M 772.76 157.69 C 768.59 159.22 764.11 162.45 764.16 167.36 C 763.73 177.98 764.19 188.63 763.94 199.26 C 768.07 204.72 775.11 208.62 782.08 206.99 C 790.16 205.79 795.35 197.67 796.19 190.03 C 797.21 180.35 796.60 169.57 790.29 161.65 C 786.15 156.68 778.64 155.14 772.76 157.69 Z" />
<path fill="#305a7c" opacity="1.00" d=" M 846.19 146.20 C 850.24 145.82 854.33 145.88 858.39 146.15 C 868.01 147.08 876.29 154.03 880.19 162.69 C 884.19 170.19 883.57 178.88 883.49 187.08 C 883.14 195.72 879.92 204.55 873.37 210.40 C 864.89 218.16 851.91 219.77 841.31 215.89 C 835.20 214.04 830.76 209.02 827.20 203.99 C 820.04 192.27 819.31 177.05 824.59 164.46 C 828.45 155.55 836.23 147.59 846.19 146.20 M 848.45 156.62 C 840.37 158.88 836.22 167.46 835.27 175.21 C 834.77 181.50 834.48 188.05 836.60 194.11 C 838.42 199.66 842.26 205.05 848.16 206.65 C 853.31 207.61 859.39 207.33 863.34 203.41 C 868.92 197.89 870.73 189.67 870.54 182.06 C 870.85 174.37 869.09 166.03 863.64 160.31 C 859.55 156.86 853.69 155.09 848.45 156.62 Z" />
<path fill="#305a7c" opacity="1.00" d=" M 911.05 156.07 C 915.59 148.59 925.00 143.70 933.69 146.17 C 932.96 150.29 932.36 154.44 931.83 158.59 C 924.76 157.10 915.50 159.08 912.14 166.03 C 911.80 182.84 912.10 199.68 912.00 216.50 C 907.50 216.50 903.00 216.50 898.50 216.50 C 898.50 193.33 898.50 170.17 898.50 147.00 C 902.47 147.00 906.44 147.00 910.42 147.00 C 910.72 150.01 911.00 153.03 911.05 156.07 Z" />
<path fill="#305a7c" opacity="1.00" d=" M 602.49 147.01 C 606.82 147.00 611.16 147.00 615.49 147.00 C 615.73 158.99 614.18 170.99 615.43 182.97 C 615.60 190.12 614.63 198.46 619.96 204.13 C 628.56 210.69 643.38 205.60 645.92 195.06 C 646.12 179.05 645.94 163.02 646.00 147.00 C 650.33 147.00 654.66 147.00 659.00 147.00 C 659.00 170.17 659.00 193.33 659.00 216.50 C 654.98 216.50 650.96 216.50 646.94 216.53 C 646.51 213.63 646.43 210.71 646.53 207.80 C 638.55 218.68 621.70 221.21 610.93 213.09 C 605.43 208.41 602.82 201.04 602.50 193.98 C 602.49 178.32 602.51 162.66 602.49 147.01 Z" />
<path fill="#305a7c" opacity="1.00" d=" M 1100.15 148.27 C 1109.44 147.32 1120.19 147.71 1127.19 154.77 C 1131.52 158.63 1132.70 164.55 1133.59 170.01 C 1129.26 169.98 1124.93 169.81 1120.65 170.42 C 1119.75 166.03 1117.43 161.69 1113.17 159.79 C 1108.51 157.22 1102.78 157.66 1098.23 160.21 C 1095.11 162.28 1093.39 166.29 1094.10 169.97 C 1094.79 172.59 1096.89 174.79 1099.49 175.59 C 1109.17 179.21 1120.27 179.77 1128.62 186.43 C 1136.40 193.04 1135.82 206.59 1128.10 213.05 C 1120.24 219.98 1108.93 220.95 1099.00 219.17 C 1091.54 218.26 1084.59 213.68 1080.99 207.08 C 1079.14 203.87 1078.75 200.12 1078.28 196.53 C 1082.41 196.48 1086.55 196.52 1090.69 196.46 C 1091.61 199.77 1092.81 203.22 1095.64 205.41 C 1101.99 210.53 1112.19 211.07 1118.46 205.50 C 1121.81 202.52 1121.94 196.59 1118.28 193.82 C 1111.59 188.72 1102.75 188.88 1095.24 185.72 C 1089.76 183.53 1083.82 180.46 1081.63 174.60 C 1080.62 170.87 1080.76 166.84 1081.36 163.06 C 1083.79 154.87 1091.85 149.23 1100.15 148.27 Z" />
<path fill="#305a7c" opacity="1.00" d=" M 1006.49 149.01 C 1011.16 149.00 1015.82 149.00 1020.50 149.00 C 1020.51 165.02 1020.48 181.05 1020.51 197.07 C 1020.46 201.63 1023.01 206.34 1027.42 207.98 C 1036.39 211.62 1049.18 206.23 1050.45 196.02 C 1050.58 180.35 1050.46 164.68 1050.49 149.01 C 1054.66 149.00 1058.83 149.00 1063.00 149.00 C 1063.00 172.17 1063.00 195.33 1063.00 218.50 C 1058.99 218.50 1054.99 218.50 1051.00 218.50 C 1050.99 215.79 1050.99 213.07 1051.01 210.36 C 1046.04 215.54 1039.49 219.74 1032.12 220.01 C 1025.06 220.17 1017.19 218.34 1012.75 212.38 C 1006.83 205.33 1006.77 195.75 1006.49 187.03 C 1006.49 174.36 1006.51 161.68 1006.49 149.01 Z" />
</g>
<g id="#356287ff">
<path fill="#356287" opacity="1.00" d=" M 233.50 137.86 C 234.17 133.15 237.75 128.44 242.76 128.06 C 253.84 127.72 264.95 128.49 276.01 127.52 C 284.02 127.54 292.05 127.21 300.03 127.96 C 318.81 128.38 337.99 126.46 356.31 131.71 C 370.45 135.23 383.79 144.27 389.97 157.78 C 394.94 168.44 394.58 180.58 393.26 191.99 L 392.88 191.84 C 376.49 185.05 358.55 183.20 340.95 183.68 C 325.96 183.67 310.96 183.73 295.97 183.63 C 291.48 183.65 286.04 184.28 283.32 188.33 C 280.19 194.40 280.04 201.41 278.90 208.02 C 276.12 228.79 271.83 249.34 269.57 270.18 C 264.27 297.01 261.29 324.25 255.91 351.07 C 241.29 350.24 226.64 351.78 212.03 350.58 C 208.86 350.22 204.76 351.52 202.62 348.38 C 200.02 345.48 201.38 341.47 201.86 338.07 C 212.37 271.33 222.93 204.59 233.50 137.86 Z" />
</g>
<g id="#000000ff">
<path fill="#000000" opacity="1.00" d=" M 283.32 188.33 C 286.04 184.28 291.48 183.65 295.97 183.63 C 310.96 183.73 325.96 183.67 340.95 183.68 C 358.55 183.20 376.49 185.05 392.88 191.84 C 389.83 211.59 382.35 231.62 367.39 245.45 C 355.44 256.97 339.34 263.23 323.12 265.67 C 310.53 267.81 297.71 267.24 284.99 267.24 C 279.70 267.16 274.55 268.52 269.57 270.18 C 271.83 249.34 276.12 228.79 278.90 208.02 C 280.04 201.41 280.19 194.40 283.32 188.33 Z" />
</g>
<g id="#4c88b9ff">
<path fill="#4c88b9" opacity="1.00" d=" M 392.88 191.84 L 393.26 191.99 C 403.10 195.94 409.65 205.52 412.37 215.48 C 414.02 220.82 414.15 226.44 414.02 231.98 C 413.15 253.32 406.05 275.37 390.29 290.40 C 375.77 303.89 355.30 308.54 336.00 309.02 C 330.83 309.27 324.63 307.80 320.49 311.78 C 317.41 314.59 317.41 319.02 316.62 322.82 C 314.80 334.01 313.13 345.22 311.37 356.42 C 310.51 361.01 309.90 365.64 309.02 370.23 C 308.36 374.95 303.75 378.71 299.00 378.51 C 285.67 378.50 272.34 378.50 259.01 378.51 C 256.97 378.62 255.22 377.44 253.52 376.51 C 253.18 375.37 252.83 374.24 252.48 373.12 C 253.42 365.74 254.33 358.35 255.91 351.07 C 261.29 324.25 264.27 297.01 269.57 270.18 C 274.55 268.52 279.70 267.16 284.99 267.24 C 297.71 267.24 310.53 267.81 323.12 265.67 C 339.34 263.23 355.44 256.97 367.39 245.45 C 382.35 231.62 389.83 211.59 392.88 191.84 Z" />
</g>
</svg>
