<?xml version="1.0" encoding="UTF-8" ?>
<!DOCTYPE svg PUBLIC "-//W3C//DTD SVG 1.1//EN" "http://www.w3.org/Graphics/SVG/1.1/DTD/svg11.dtd">
<svg width="1371pt" height="494pt" viewBox="0 0 1371 494" version="1.1" xmlns="http://www.w3.org/2000/svg">
<g id="#3e739eff">
<path fill="#3e739e" opacity="1.00" d=" M 78.35 80.38 C 119.79 38.88 177.34 13.94 235.99 12.49 C 513.64 12.51 791.29 12.49 1068.94 12.50 C 1080.64 12.30 1092.36 12.98 1104.03 11.99 C 1110.05 12.06 1116.09 11.89 1122.12 12.07 C 1128.35 13.02 1134.67 12.04 1140.92 12.78 C 1184.25 14.99 1227.07 29.28 1262.43 54.56 C 1293.85 76.66 1319.70 106.58 1336.97 140.90 C 1351.79 170.37 1360.02 203.04 1361.52 235.97 C 1361.33 246.71 1361.99 257.47 1360.78 268.17 C 1356.96 312.01 1340.50 354.73 1313.58 389.57 C 1283.79 428.13 1242.00 457.58 1195.16 471.36 C 1192.11 472.31 1188.92 472.84 1186.02 474.17 C 1165.03 478.83 1143.59 481.77 1122.06 481.46 C 830.03 481.46 538.01 481.46 245.98 481.46 C 231.94 481.58 217.98 479.92 204.08 478.07 C 159.10 470.17 116.15 449.40 83.15 417.63 C 52.03 388.10 28.85 350.02 17.66 308.53 C 5.37 262.84 7.00 213.50 22.65 168.81 C 34.12 135.59 53.41 105.12 78.35 80.38 M 375.12 42.25 C 374.10 42.38 373.08 42.47 372.06 42.50 C 324.37 42.49 276.69 42.53 229.01 42.48 C 182.20 44.50 136.82 64.85 103.00 97.08 C 100.28 99.32 97.73 101.77 95.55 104.54 C 72.76 128.39 56.22 158.09 47.40 189.84 C 35.80 230.91 37.08 275.46 51.25 315.73 C 64.50 353.67 89.09 387.69 121.38 411.67 C 155.24 437.22 197.61 451.10 239.98 451.00 C 531.65 451.00 823.31 451.00 1114.97 451.00 C 1125.64 450.93 1136.32 451.31 1146.97 450.39 C 1188.21 447.28 1228.23 430.55 1259.68 403.74 C 1291.53 376.52 1314.62 339.24 1324.85 298.62 C 1336.16 254.86 1332.76 207.44 1315.20 165.77 C 1301.79 133.59 1279.94 104.98 1252.40 83.61 C 1219.33 57.58 1177.56 43.20 1135.58 42.20 C 1106.38 41.74 1077.15 42.13 1047.95 42.00 C 826.64 42.00 605.34 42.00 384.03 42.00 C 381.06 42.00 378.07 41.85 375.12 42.25 Z" />
<path fill="#3e739e" opacity="1.00" d=" M 714.49 269.15 C 715.07 266.73 715.88 263.22 718.98 263.13 C 729.65 262.82 740.35 263.09 751.03 263.00 C 757.37 263.14 763.78 262.50 770.04 263.86 C 778.51 265.35 787.38 269.85 790.81 278.22 C 795.22 290.54 792.26 304.23 786.49 315.58 C 782.20 324.24 773.62 330.11 764.45 332.59 C 755.50 335.51 746.00 334.26 736.78 334.56 C 734.78 335.14 731.95 335.67 731.37 338.03 C 728.74 347.34 728.61 357.13 726.27 366.50 C 725.77 369.00 723.21 370.51 720.78 370.46 C 713.87 370.55 706.94 370.69 700.05 369.96 C 698.88 366.61 699.66 363.03 700.15 359.64 C 704.98 329.48 709.73 299.31 714.49 269.15 M 740.30 285.29 C 739.34 286.30 739.19 287.76 738.85 289.06 C 737.03 296.95 736.54 305.06 734.95 313.00 C 739.94 313.25 744.90 312.64 749.87 312.30 C 754.79 311.57 760.11 308.92 761.71 303.85 C 764.10 298.61 764.74 291.06 759.50 287.31 C 753.61 284.30 746.70 284.24 740.30 285.29 Z" />
<path fill="#3e739e" opacity="1.00" d=" M 991.99 263.84 C 995.18 262.59 998.63 263.05 1001.98 263.00 C 1013.00 262.99 1024.01 263.02 1035.03 262.99 C 1041.38 262.80 1047.78 263.89 1053.72 266.18 C 1060.05 268.68 1065.26 274.02 1067.18 280.61 C 1070.18 290.20 1067.80 300.39 1064.87 309.68 C 1060.85 321.78 1049.93 330.90 1037.51 333.36 C 1027.88 336.00 1017.64 332.85 1008.11 336.02 C 1003.10 346.56 1005.05 358.75 1000.86 369.52 C 992.34 371.41 983.58 370.24 974.98 369.97 C 974.82 363.45 976.25 357.06 977.17 350.65 C 981.54 323.76 985.68 296.83 989.99 269.93 C 990.24 267.78 991.05 265.77 991.99 263.84 M 1015.92 284.99 C 1012.31 293.92 1012.72 303.76 1010.46 313.02 C 1016.18 313.12 1021.92 312.75 1027.57 311.90 C 1037.69 310.06 1042.04 296.66 1036.79 288.37 C 1030.74 283.83 1022.97 284.75 1015.92 284.99 Z" />
<path fill="#3e739e" opacity="1.00" d=" M 1172.46 263.63 C 1180.25 262.65 1188.47 261.52 1196.11 264.11 C 1192.43 297.62 1185.74 330.70 1181.02 364.06 C 1180.92 366.45 1179.54 368.43 1177.82 369.96 C 1170.93 370.66 1163.92 370.94 1157.08 369.82 C 1154.94 368.77 1156.28 365.62 1156.14 363.73 C 1160.28 337.25 1164.57 310.79 1168.65 284.30 C 1169.98 277.42 1170.30 270.32 1172.46 263.63 Z" />
<path fill="#3e739e" opacity="1.00" d=" M 809.43 301.58 C 815.95 297.91 823.60 296.75 831.00 296.97 C 838.65 296.79 846.61 299.43 851.89 305.13 C 852.31 303.12 852.74 301.11 853.11 299.10 C 861.20 298.18 869.49 298.08 877.56 299.12 C 876.39 318.94 871.70 338.34 869.16 358.00 C 868.22 362.07 868.72 367.09 865.09 369.95 C 857.79 370.85 850.38 370.71 843.08 369.92 C 842.53 367.64 842.40 365.29 842.55 362.97 C 835.36 368.71 826.34 372.46 817.03 372.04 C 806.16 372.54 794.65 366.82 790.23 356.54 C 781.02 336.96 790.74 311.69 809.43 301.58 M 829.44 317.17 C 818.52 318.99 810.16 330.99 813.07 341.82 C 814.64 347.96 820.77 352.21 827.02 352.04 C 833.80 352.45 840.36 348.85 844.52 343.64 C 849.32 337.62 850.52 327.92 845.17 321.89 C 841.25 317.69 835.01 315.98 829.44 317.17 Z" />
<path fill="#3e739e" opacity="1.00" d=" M 1072.98 311.59 C 1080.63 302.06 1092.77 296.39 1105.03 296.97 C 1113.20 296.33 1121.59 299.06 1127.40 304.95 C 1128.02 302.77 1128.63 300.59 1129.25 298.42 C 1137.17 298.71 1145.11 298.07 1153.00 299.09 C 1153.54 308.36 1150.90 317.37 1149.66 326.49 C 1147.52 340.47 1145.74 354.53 1142.55 368.32 C 1135.33 372.57 1126.73 369.60 1118.89 370.01 C 1117.65 367.53 1117.78 364.70 1118.43 362.08 C 1113.56 367.66 1106.18 370.29 1099.09 371.67 C 1089.77 372.91 1079.21 371.74 1072.15 364.91 C 1065.11 358.81 1062.12 349.11 1062.47 340.02 C 1062.19 329.64 1066.54 319.56 1072.98 311.59 M 1088.54 341.36 C 1089.63 345.45 1092.37 349.35 1096.52 350.73 C 1108.69 355.92 1123.99 345.51 1124.35 332.44 C 1125.23 323.52 1116.59 315.99 1107.95 316.96 C 1095.85 316.78 1085.77 329.73 1088.54 341.36 Z" />
<path fill="#3e739e" opacity="1.00" d=" M 887.21 299.07 C 895.64 299.22 904.63 296.65 912.61 300.39 C 917.40 312.63 920.48 325.45 924.26 338.03 C 933.76 325.28 941.57 311.32 951.67 299.02 C 959.35 298.29 967.13 298.15 974.80 299.02 C 978.44 301.39 975.12 305.04 973.50 307.55 C 954.40 335.10 935.18 362.57 916.18 390.18 C 915.36 391.23 914.56 392.83 912.96 392.49 C 904.73 392.40 896.46 392.74 888.26 392.32 L 887.17 391.40 C 893.31 381.57 900.51 372.48 907.10 362.96 C 902.23 348.57 897.27 334.22 892.37 319.86 C 890.51 313.62 887.49 307.69 886.60 301.21 C 886.75 300.67 887.06 299.60 887.21 299.07 Z" />
<path fill="#3e739e" opacity="1.00" d=" M 539.46 301.60 C 547.88 299.52 557.03 300.31 564.89 304.01 C 574.87 309.05 580.69 320.06 581.48 330.95 C 581.57 337.84 581.95 344.90 579.61 351.52 C 576.43 362.06 566.87 370.12 556.06 371.86 C 546.03 373.80 534.91 371.77 526.98 365.11 C 522.17 361.31 519.38 355.60 517.58 349.87 C 514.35 338.21 515.02 324.93 521.49 314.47 C 525.34 307.89 532.10 303.32 539.46 301.60 M 547.49 316.09 C 543.68 316.69 539.93 318.74 538.14 322.28 C 534.62 328.27 535.58 335.42 535.53 342.05 C 535.79 347.69 538.65 353.83 544.15 356.07 C 550.70 359.02 559.14 354.63 560.85 347.74 C 563.18 339.80 563.51 330.81 559.91 323.19 C 557.87 318.41 552.49 315.86 547.49 316.09 Z" />
<path fill="#3e739e" opacity="1.00" d=" M 610.00 308.26 C 617.80 301.45 629.17 298.24 639.08 302.06 C 647.35 304.69 651.31 313.87 651.51 321.96 C 651.49 338.47 651.51 354.99 651.50 371.50 C 645.16 371.50 638.83 371.50 632.50 371.50 C 632.46 356.98 632.56 342.47 632.46 327.96 C 631.99 324.67 632.59 320.63 629.47 318.46 C 623.80 313.95 615.37 316.79 610.96 321.73 C 611.05 338.32 610.97 354.91 611.01 371.50 C 604.70 371.51 598.40 371.49 592.10 371.51 C 591.91 368.67 591.44 365.86 591.48 363.02 C 591.56 342.66 591.41 322.31 591.56 301.96 C 597.70 302.05 603.85 301.98 610.00 302.00 C 609.99 304.09 609.99 306.17 610.00 308.26 Z" />
</g>
<g id="#000000ff">
<path fill="#000000" opacity="1.00" d=" M 535.68 129.64 C 550.06 122.04 569.97 123.17 581.40 135.53 C 586.18 140.23 587.56 147.05 588.51 153.43 C 584.35 153.44 580.21 153.47 576.06 153.50 C 575.48 146.21 571.24 138.64 563.94 136.38 C 559.42 135.30 554.69 135.25 550.09 135.58 C 544.53 136.08 538.68 139.20 536.76 144.72 C 535.02 149.59 535.65 155.94 540.04 159.24 C 548.84 166.81 561.23 166.66 571.29 171.71 C 579.86 175.54 587.61 183.18 588.52 192.94 C 589.74 201.30 585.41 209.89 578.41 214.44 C 570.40 219.59 560.52 221.26 551.14 220.32 C 542.09 219.49 532.86 216.26 526.61 209.40 C 522.34 204.93 520.00 198.80 520.21 192.61 C 524.19 192.59 528.18 192.57 532.16 192.55 C 532.66 197.94 535.36 203.13 539.96 206.12 C 548.29 211.66 559.68 212.04 568.57 207.59 C 575.36 204.26 577.94 194.63 573.62 188.39 C 570.27 183.40 564.43 180.99 558.85 179.44 C 550.09 176.99 540.92 174.94 533.38 169.58 C 528.46 166.14 524.37 161.06 523.31 155.04 C 521.35 145.10 526.55 134.15 535.68 129.64 Z" />
<path fill="#000000" opacity="1.00" d=" M 949.91 133.38 C 954.07 133.40 958.24 133.41 962.41 133.42 C 962.42 138.96 962.37 144.50 962.38 150.05 C 966.82 150.07 971.27 150.05 975.72 150.07 C 975.72 153.27 975.70 156.48 975.68 159.69 C 971.25 159.69 966.83 159.69 962.42 159.68 C 962.87 175.04 961.30 190.52 963.34 205.80 C 964.85 210.64 970.99 210.35 975.02 209.60 C 975.48 212.58 975.96 215.57 976.44 218.56 C 972.95 219.28 969.53 220.34 966.01 220.82 C 959.16 220.32 951.61 215.86 950.71 208.51 C 948.94 192.28 950.40 175.95 949.89 159.68 C 946.25 159.70 942.61 159.72 938.97 159.74 C 938.95 156.52 938.96 153.31 939.01 150.10 C 942.66 150.06 946.31 150.02 949.97 149.98 C 949.94 144.44 949.88 138.91 949.91 133.38 Z" />
<path fill="#000000" opacity="1.00" d=" M 689.56 158.47 C 698.36 147.24 717.14 145.39 727.30 155.74 C 735.81 164.84 737.49 178.08 736.88 190.02 C 736.80 197.75 734.59 205.62 729.74 211.73 C 720.64 223.52 700.98 223.35 690.95 212.84 C 691.10 223.88 691.01 234.92 691.03 245.96 C 686.86 245.97 682.70 245.97 678.54 245.97 C 678.52 214.01 678.53 182.04 678.53 150.08 C 681.75 150.08 684.97 150.06 688.19 150.03 C 688.66 152.84 689.12 155.65 689.56 158.47 M 694.20 164.19 C 692.95 165.53 691.29 166.91 691.29 168.90 C 690.53 179.90 691.37 190.94 690.90 201.95 C 695.34 209.29 705.24 212.58 713.16 209.22 C 718.56 207.13 721.74 201.70 723.25 196.36 C 725.20 188.90 724.69 180.92 722.63 173.53 C 721.01 167.90 717.55 162.16 711.71 160.20 C 705.75 157.70 698.67 159.74 694.20 164.19 Z" />
<path fill="#000000" opacity="1.00" d=" M 763.70 158.28 C 773.21 146.08 794.48 145.61 803.66 158.42 C 811.03 170.02 812.99 184.73 809.91 198.04 C 808.33 204.23 805.97 210.70 800.84 214.85 C 790.72 223.23 774.32 222.45 765.17 212.93 C 765.37 223.94 765.25 234.95 765.28 245.96 C 760.97 245.97 756.66 245.98 752.36 245.95 C 752.40 213.99 752.36 182.04 752.38 150.08 C 755.55 150.05 758.72 150.03 761.90 150.03 C 762.50 152.78 763.11 155.52 763.70 158.28 M 769.12 163.19 C 767.38 164.69 765.37 166.49 765.54 169.01 C 764.78 180.21 765.57 191.44 765.23 202.65 C 769.27 207.55 775.35 211.43 781.96 210.45 C 790.38 210.31 796.38 202.47 797.71 194.74 C 799.08 184.40 798.71 172.65 791.83 164.19 C 786.19 157.70 775.48 157.85 769.12 163.19 Z" />
<path fill="#000000" opacity="1.00" d=" M 849.20 149.28 C 856.22 148.64 863.81 149.07 869.97 152.87 C 878.89 158.32 884.32 168.58 884.74 178.92 C 885.31 188.61 885.02 199.10 879.44 207.45 C 869.65 223.90 842.59 225.30 831.19 209.92 C 821.67 197.65 820.42 179.89 827.11 166.02 C 831.25 157.41 839.35 150.08 849.20 149.28 M 849.35 159.54 C 841.82 161.86 837.67 169.78 836.64 177.14 C 835.50 186.38 835.63 196.80 841.62 204.49 C 847.32 212.42 860.85 212.58 866.74 204.79 C 870.89 199.48 872.22 192.57 872.42 185.98 C 872.66 178.71 871.30 171.11 867.05 165.07 C 863.14 159.68 855.61 157.76 849.35 159.54 Z" />
<path fill="#000000" opacity="1.00" d=" M 912.39 159.82 C 916.89 152.16 925.92 147.43 934.81 149.09 C 934.31 153.13 933.70 157.16 933.03 161.18 C 925.87 160.10 917.39 161.86 913.37 168.42 C 913.01 185.34 913.33 202.29 913.22 219.21 C 908.93 219.22 904.64 219.21 900.37 219.24 C 900.24 196.18 900.36 173.13 900.31 150.07 C 904.11 150.05 907.92 150.05 911.74 150.07 C 911.97 153.32 912.21 156.56 912.39 159.82 Z" />
<path fill="#000000" opacity="1.00" d=" M 604.06 150.07 C 608.22 150.05 612.38 150.04 616.54 150.11 C 616.57 164.37 616.35 178.64 616.63 192.90 C 616.99 198.38 617.56 205.06 622.66 208.34 C 630.89 212.78 642.56 209.31 646.87 200.94 C 647.55 199.76 647.58 198.36 647.65 197.04 C 648.08 181.39 647.64 165.73 647.82 150.07 C 651.97 150.05 656.12 150.04 660.28 150.10 C 660.30 173.16 660.25 196.22 660.25 219.29 C 656.36 219.24 652.48 219.24 648.60 219.27 C 648.39 216.22 648.24 213.16 648.19 210.11 C 641.07 220.01 626.89 223.49 615.99 218.01 C 606.06 212.75 603.45 200.37 604.07 190.03 C 603.96 176.71 604.09 163.39 604.06 150.07 Z" />
<path fill="#000000" opacity="1.00" d=" M 1095.98 153.01 C 1101.42 150.99 1107.39 150.87 1113.12 151.32 C 1120.24 152.00 1127.59 155.33 1131.40 161.64 C 1133.49 165.06 1134.20 169.06 1134.74 172.97 C 1130.56 173.01 1126.40 173.00 1122.23 173.01 C 1121.63 170.22 1120.74 167.34 1118.63 165.31 C 1113.55 159.98 1104.59 159.43 1098.66 163.62 C 1094.27 167.03 1093.73 175.09 1098.97 177.97 C 1108.66 182.52 1120.25 182.39 1129.04 189.00 C 1137.09 194.75 1137.48 207.79 1130.56 214.58 C 1122.84 222.82 1110.40 223.71 1099.91 221.81 C 1089.30 220.24 1079.92 210.78 1080.24 199.73 C 1084.19 199.71 1088.15 199.73 1092.11 199.76 C 1092.77 202.73 1093.75 205.79 1096.09 207.89 C 1102.07 213.54 1112.00 214.18 1118.91 209.89 C 1123.42 207.00 1124.30 199.43 1119.62 196.28 C 1111.50 190.74 1100.95 191.36 1092.48 186.50 C 1087.27 183.96 1082.54 179.11 1082.64 172.95 C 1081.34 164.07 1087.99 155.99 1095.98 153.01 Z" />
<path fill="#000000" opacity="1.00" d=" M 1008.27 152.17 C 1012.70 152.15 1017.13 152.15 1021.56 152.17 C 1021.60 167.74 1021.44 183.32 1021.62 198.90 C 1021.58 203.60 1023.46 208.95 1028.05 210.97 C 1036.99 215.03 1050.20 210.27 1052.08 200.00 C 1052.02 184.06 1051.98 168.10 1052.03 152.16 C 1056.18 152.16 1060.34 152.16 1064.50 152.14 C 1064.52 175.21 1064.44 198.27 1064.47 221.34 C 1060.57 221.36 1056.69 221.34 1052.80 221.30 C 1052.74 218.34 1052.69 215.38 1052.69 212.42 C 1047.99 217.91 1041.44 222.13 1034.11 222.71 C 1026.31 223.19 1017.63 220.56 1013.33 213.59 C 1008.23 206.46 1008.56 197.39 1008.31 189.04 C 1008.04 176.75 1008.43 164.46 1008.27 152.17 Z" />
<path fill="#000000" opacity="1.00" d=" M 284.14 187.11 C 287.12 184.61 291.12 183.54 294.98 183.65 C 313.98 183.75 332.98 183.64 351.99 183.69 C 365.96 184.28 380.16 186.25 392.98 192.12 C 389.67 211.01 382.95 230.25 368.94 243.93 C 357.07 256.14 340.64 262.93 324.02 265.52 C 311.45 267.74 298.65 267.31 285.95 267.23 C 280.39 267.06 274.93 268.28 269.75 270.18 C 269.85 267.90 269.94 265.61 270.30 263.36 C 273.21 242.85 277.01 222.48 279.78 201.95 C 280.58 196.89 281.10 191.41 284.14 187.11 Z" />
</g>
<g id="#356287ff">
<path fill="#356287" opacity="1.00" d=" M 237.98 129.95 C 241.97 126.80 247.32 128.35 251.98 128.00 C 267.99 128.47 283.99 126.53 299.97 127.98 C 318.00 128.37 336.35 126.56 354.01 131.13 C 366.92 134.00 379.38 140.92 386.79 152.14 C 394.62 163.61 395.21 178.40 393.08 191.68 L 392.98 192.12 C 380.16 186.25 365.96 184.28 351.99 183.69 C 332.98 183.64 313.98 183.75 294.98 183.65 C 291.12 183.54 287.12 184.61 284.14 187.11 C 281.10 191.41 280.58 196.89 279.78 201.95 C 277.01 222.48 273.21 242.85 270.30 263.36 C 269.94 265.61 269.85 267.90 269.75 270.18 C 264.05 296.91 261.42 324.22 255.92 351.00 C 252.60 351.10 249.29 350.99 245.99 350.60 C 233.36 351.38 220.65 351.04 208.01 350.52 C 203.71 351.38 200.23 346.61 201.14 342.65 C 211.61 276.19 222.11 209.74 232.65 143.30 C 233.29 138.56 233.77 133.01 237.98 129.95 Z" />
</g>
<g id="#4c88b9ff">
<path fill="#4c88b9" opacity="1.00" d=" M 392.98 192.12 L 393.08 191.68 C 402.29 195.80 408.99 204.31 411.89 213.86 C 414.76 222.39 414.29 231.58 413.38 240.41 C 411.10 259.17 403.76 278.01 389.61 291.00 C 376.89 302.55 359.56 307.33 342.78 308.69 C 337.03 309.49 331.19 308.50 325.44 309.31 C 321.11 309.87 317.85 313.88 317.46 318.11 C 314.35 335.69 312.07 353.41 308.87 370.97 C 307.89 375.32 303.51 378.69 299.05 378.52 C 285.44 378.47 271.84 378.54 258.23 378.48 C 255.19 378.40 252.89 376.07 252.41 373.15 C 253.50 365.75 254.31 358.31 255.92 351.00 C 261.42 324.22 264.05 296.91 269.75 270.18 C 274.93 268.28 280.39 267.06 285.95 267.23 C 298.65 267.31 311.45 267.74 324.02 265.52 C 340.64 262.93 357.07 256.14 368.94 243.93 C 382.95 230.25 389.67 211.01 392.98 192.12 Z" />
</g>
</svg>
