<?xml version="1.0" encoding="UTF-8" ?>
<!DOCTYPE svg PUBLIC "-//W3C//DTD SVG 1.1//EN" "http://www.w3.org/Graphics/SVG/1.1/DTD/svg11.dtd">
<svg width="1389pt" height="695pt" viewBox="0 0 1389 695" version="1.1" xmlns="http://www.w3.org/2000/svg">
<g id="#d4abd2ff">
<path fill="#d4abd2" opacity="1.00" d=" M 35.49 39.14 C 38.23 40.36 40.75 42.02 43.07 43.92 C 47.18 47.29 51.98 49.65 56.53 52.35 C 75.26 62.91 94.47 72.62 113.85 81.92 C 119.25 84.83 125.35 86.87 129.64 91.46 C 133.10 95.18 135.90 99.47 138.72 103.68 C 139.20 106.31 141.06 110.25 138.06 112.00 C 132.42 116.30 125.09 117.28 119.17 121.10 C 117.05 122.41 114.66 123.25 112.16 123.39 C 115.26 118.97 120.54 115.95 121.31 110.15 C 118.59 109.66 115.12 110.40 113.16 107.97 C 110.20 104.70 106.83 100.92 107.54 96.15 C 105.62 94.02 103.76 91.84 101.98 89.59 C 103.43 89.16 104.92 88.76 106.26 88.02 C 96.96 82.86 86.85 79.35 77.32 74.65 C 68.30 70.01 59.43 64.92 51.56 58.46 C 47.54 55.25 44.24 50.98 39.29 49.11 C 37.00 46.26 35.82 42.75 35.49 39.14 Z" />
<path fill="#d4abd2" opacity="1.00" d=" M 136.62 67.92 C 139.68 65.09 143.90 64.23 147.88 63.56 C 154.22 62.66 160.90 61.87 167.07 64.07 C 173.64 66.42 178.66 72.24 180.43 78.94 C 178.92 81.06 177.45 83.27 176.83 85.83 C 176.73 86.18 176.53 86.88 176.43 87.22 C 175.13 88.91 172.14 90.09 172.36 92.51 C 173.64 94.45 175.31 96.08 176.83 97.82 C 174.08 100.41 171.30 103.27 167.56 104.37 C 166.11 104.71 164.64 104.94 163.17 105.16 C 160.16 105.35 157.07 105.58 154.11 104.91 C 150.89 103.82 148.16 101.69 145.11 100.24 C 141.03 98.16 139.19 93.42 138.26 89.18 C 137.56 84.16 136.53 78.42 139.90 74.10 C 138.41 73.25 136.90 72.41 135.40 71.57 C 136.95 70.51 138.49 69.46 140.07 68.45 C 139.20 68.32 137.48 68.05 136.62 67.92 M 161.20 74.05 C 159.02 75.29 159.32 78.52 161.15 79.93 C 162.95 81.65 166.45 80.36 166.67 77.88 C 167.32 75.02 163.71 71.99 161.20 74.05 Z" />
<path fill="#d4abd2" opacity="1.00" d=" M 1209.32 349.39 C 1211.87 348.92 1214.48 349.28 1217.06 349.38 C 1216.17 352.93 1214.77 356.49 1212.32 359.24 C 1210.06 360.51 1206.97 359.11 1204.76 360.74 C 1200.70 363.37 1197.40 367.59 1192.23 368.02 C 1192.32 364.69 1190.14 361.97 1186.69 361.92 C 1189.47 357.46 1195.31 357.05 1199.93 355.75 C 1203.88 355.00 1205.70 350.73 1209.32 349.39 Z" />
<path fill="#d4abd2" opacity="1.00" d=" M 1224.28 355.21 C 1228.70 357.58 1233.69 360.44 1235.53 365.37 C 1236.64 372.34 1227.45 375.27 1227.27 382.02 C 1227.69 386.50 1224.30 390.82 1219.96 391.63 C 1214.14 390.10 1208.16 388.06 1202.07 389.08 C 1196.11 390.65 1192.93 396.37 1188.39 400.02 C 1187.83 396.70 1186.91 393.37 1187.09 389.98 C 1188.73 387.72 1190.74 384.66 1193.97 385.14 C 1197.37 385.39 1200.53 384.06 1203.59 382.75 C 1203.79 381.54 1204.00 380.33 1204.24 379.12 C 1206.37 378.95 1209.35 380.04 1210.57 377.60 C 1213.24 372.98 1217.38 369.50 1220.32 365.07 C 1219.17 364.00 1218.06 362.93 1216.94 361.86 C 1219.89 360.26 1222.57 358.15 1224.28 355.21 Z" />
<path fill="#d4abd2" opacity="1.00" d=" M 1208.48 397.42 C 1209.08 394.05 1213.34 392.06 1216.33 393.73 C 1235.08 405.13 1251.11 420.71 1264.22 438.24 C 1258.85 441.46 1252.05 440.15 1246.33 438.62 C 1238.43 435.91 1231.10 431.62 1224.45 426.60 C 1217.94 421.29 1211.42 414.86 1209.54 406.36 C 1208.94 403.42 1208.31 400.43 1208.48 397.42 Z" />
<path fill="#d4abd2" opacity="1.00" d=" M 357.47 435.63 C 369.06 435.46 379.74 442.49 386.13 451.84 C 392.75 461.68 397.26 473.34 396.82 485.35 C 395.93 491.68 393.88 497.77 391.76 503.77 C 390.27 499.66 391.01 495.26 390.94 491.00 C 390.86 479.07 387.93 466.86 380.98 457.01 C 378.32 453.40 375.07 450.28 371.84 447.19 C 367.38 442.92 361.81 440.03 357.47 435.63 Z" />
<path fill="#d4abd2" opacity="1.00" d=" M 58.95 438.41 C 64.47 436.82 70.29 438.09 75.72 439.45 C 85.49 441.98 94.14 447.71 101.16 454.85 C 108.49 463.13 114.61 472.40 120.00 482.04 C 125.37 491.24 131.09 500.78 140.12 506.85 C 143.83 509.49 148.30 510.62 152.23 512.85 C 148.08 513.21 144.21 511.36 140.63 509.51 C 133.37 505.38 126.71 500.07 121.58 493.46 C 114.81 485.42 109.63 476.20 102.78 468.21 C 95.06 458.53 85.26 450.53 74.37 444.66 C 69.49 441.95 64.02 440.66 58.95 438.41 Z" />
<path fill="#d4abd2" opacity="1.00" d=" M 470.83 448.79 C 472.54 448.18 474.21 447.47 475.93 446.86 C 480.44 446.11 485.38 446.99 488.89 450.08 C 492.61 453.22 493.97 458.11 495.78 462.44 C 496.58 462.47 497.39 462.51 498.21 462.55 C 498.87 463.30 500.19 464.78 500.85 465.52 C 494.70 466.82 491.78 460.43 488.35 456.68 C 483.59 451.01 475.61 451.12 469.02 449.34 C 469.48 449.21 470.38 448.93 470.83 448.79 Z" />
<path fill="#d4abd2" opacity="1.00" d=" M 1310.96 460.01 C 1317.46 461.62 1323.35 465.03 1329.57 467.46 C 1337.12 471.00 1345.05 473.81 1352.28 477.99 C 1344.35 476.23 1337.13 472.22 1329.65 469.15 C 1323.43 466.08 1316.95 463.50 1310.96 460.01 Z" />
<path fill="#d4abd2" opacity="1.00" d=" M 1053.01 468.09 C 1061.30 461.69 1073.32 461.79 1082.25 466.83 C 1088.69 470.37 1093.57 476.18 1097.17 482.50 C 1098.61 486.19 1099.67 490.02 1100.99 493.76 C 1102.39 500.71 1102.83 508.59 1098.93 514.85 C 1094.82 519.37 1088.67 521.07 1083.22 523.37 C 1071.12 527.99 1058.50 531.01 1045.98 534.22 C 1044.39 532.88 1042.94 531.32 1042.70 529.17 C 1040.73 519.91 1037.06 511.18 1034.05 502.25 C 1035.73 500.89 1037.93 499.92 1039.09 498.05 C 1039.84 493.45 1040.17 488.74 1041.81 484.33 C 1044.63 478.40 1047.56 472.09 1053.01 468.09 M 1077.52 481.41 C 1074.30 484.28 1079.45 489.89 1082.39 486.39 C 1085.51 483.57 1080.46 478.10 1077.52 481.41 M 1087.58 507.57 C 1090.76 509.15 1095.73 509.21 1098.17 506.91 C 1094.85 505.51 1090.97 506.90 1087.58 507.57 Z" />
<path fill="#d4abd2" opacity="1.00" d=" M 449.12 480.99 C 448.22 476.75 448.68 471.19 453.02 468.99 C 453.25 472.49 453.44 475.99 453.62 479.50 C 459.54 479.63 465.66 477.60 471.41 479.74 C 465.49 480.19 459.72 481.62 453.90 482.65 C 452.23 482.83 449.43 483.30 449.12 480.99 Z" />
<path fill="#d4abd2" opacity="1.00" d=" M 205.92 492.22 C 209.10 492.40 212.26 492.84 215.35 493.59 C 224.13 495.70 233.11 498.08 240.60 503.34 C 245.65 506.95 250.94 510.60 254.40 515.88 C 253.74 517.25 253.17 518.67 252.68 520.13 C 245.92 513.59 239.83 505.93 231.06 501.93 C 223.07 497.67 213.48 497.38 205.92 492.22 Z" />
<path fill="#d4abd2" opacity="1.00" d=" M 423.56 512.12 C 427.57 508.02 432.94 503.99 438.99 504.72 C 444.02 506.19 445.23 511.91 446.52 516.29 C 445.90 517.46 445.28 518.62 444.67 519.80 C 442.05 516.31 441.70 510.47 436.71 509.38 C 432.15 508.74 427.91 511.16 423.56 512.12 Z" />
<path fill="#d4abd2" opacity="1.00" d=" M 206.18 509.87 C 211.10 512.58 216.62 515.72 218.80 521.19 C 219.32 526.57 213.22 529.04 210.04 532.36 L 209.80 532.56 C 209.44 532.36 208.73 531.96 208.37 531.75 C 209.52 528.64 211.50 525.66 211.49 522.26 C 210.82 517.74 208.09 513.91 206.18 509.87 Z" />
<path fill="#d4abd2" opacity="1.00" d=" M 921.35 519.46 C 925.47 519.30 929.98 521.10 931.94 524.94 C 935.40 531.01 933.84 538.19 934.45 544.80 C 935.33 545.98 936.88 546.38 938.15 547.04 C 936.93 547.03 935.73 547.04 934.54 547.08 C 934.38 548.16 934.23 549.23 934.08 550.32 C 933.04 556.38 932.27 562.89 928.11 567.75 C 926.74 565.57 925.33 563.41 923.84 561.31 C 922.14 563.84 920.88 566.61 919.93 569.50 C 919.22 569.45 917.80 569.36 917.09 569.31 C 916.43 566.48 915.69 563.68 914.82 560.91 C 912.20 562.66 910.48 565.32 909.00 568.04 C 908.12 567.81 907.27 567.56 906.43 567.30 C 906.42 564.39 906.27 561.47 905.97 558.58 C 903.45 559.42 901.14 560.74 898.99 562.28 C 898.74 558.79 899.19 555.30 900.13 551.95 C 901.17 548.06 902.58 544.28 903.34 540.33 L 901.88 539.88 C 902.79 539.43 903.70 539.00 904.62 538.57 C 906.07 534.26 907.18 529.66 910.08 526.05 C 912.76 522.48 916.79 519.71 921.35 519.46 Z" />
<path fill="#d4abd2" opacity="1.00" d=" M 994.61 520.60 C 999.97 517.77 1006.68 520.19 1010.55 524.45 C 1015.28 529.22 1016.20 536.14 1018.80 542.07 C 1019.88 544.98 1020.78 547.97 1021.56 550.99 C 1022.56 554.67 1023.30 558.45 1023.18 562.29 C 1020.83 560.87 1018.49 559.46 1016.12 558.09 C 1015.90 561.14 1015.79 564.19 1015.82 567.25 C 1015.04 567.51 1014.27 567.76 1013.51 568.00 C 1011.76 565.22 1009.60 562.74 1007.04 560.69 C 1006.17 563.55 1005.45 566.46 1004.90 569.40 C 1004.22 569.42 1002.88 569.46 1002.21 569.48 C 1001.10 566.58 999.68 563.82 997.90 561.30 C 996.51 563.47 995.18 565.68 993.88 567.92 C 989.62 562.76 989.01 555.96 987.72 549.67 C 987.53 548.76 987.39 547.84 987.28 546.93 C 986.97 540.82 987.20 534.61 988.65 528.65 C 989.43 525.31 991.33 522.00 994.61 520.60 Z" />
</g>
<g id="#c48cc1ff">
<path fill="#c48cc1" opacity="1.00" d=" M 39.29 49.11 C 44.24 50.98 47.54 55.25 51.56 58.46 C 59.43 64.92 68.30 70.01 77.32 74.65 C 86.85 79.35 96.96 82.86 106.26 88.02 C 104.92 88.76 103.43 89.16 101.98 89.59 C 103.76 91.84 105.62 94.02 107.54 96.15 C 106.83 100.92 110.20 104.70 113.16 107.97 C 115.12 110.40 118.59 109.66 121.31 110.15 C 120.54 115.95 115.26 118.97 112.16 123.39 C 105.49 128.33 97.26 131.11 88.95 131.04 C 87.81 131.04 84.74 131.03 85.74 129.08 C 87.45 125.69 91.37 124.07 94.01 121.44 C 88.70 121.72 83.49 123.00 78.17 123.22 C 76.01 123.00 74.94 121.06 74.28 119.25 C 76.84 118.53 79.44 117.90 82.04 117.31 C 73.43 114.99 64.62 111.84 58.28 105.27 C 63.35 105.18 68.22 106.65 73.09 107.83 C 67.28 103.32 60.71 99.93 54.05 96.87 C 52.18 96.07 50.74 94.62 49.35 93.20 C 54.83 91.89 60.51 91.68 66.10 92.40 C 57.70 86.46 47.23 80.77 44.76 69.87 C 52.13 70.23 58.65 73.95 64.95 77.43 C 55.41 69.02 45.41 60.44 39.29 49.11 Z" />
<path fill="#c48cc1" opacity="1.00" d=" M 172.36 92.51 C 172.14 90.09 175.13 88.91 176.43 87.22 C 177.70 88.52 178.99 89.79 180.30 91.05 C 179.17 93.32 178.04 95.59 176.83 97.82 C 175.31 96.08 173.64 94.45 172.36 92.51 Z" />
<path fill="#c48cc1" opacity="1.00" d=" M 145.11 100.24 C 148.16 101.69 150.89 103.82 154.11 104.91 C 157.07 105.58 160.16 105.35 163.17 105.16 C 159.48 116.73 154.05 127.68 148.24 138.31 C 145.53 143.55 141.18 147.75 138.78 153.16 L 138.58 153.58 C 134.27 156.20 131.02 160.44 126.14 162.10 C 120.59 164.24 114.61 164.83 108.95 166.60 C 94.95 170.82 81.53 177.07 69.49 185.38 C 65.09 188.64 60.34 192.15 58.41 197.51 C 57.19 201.29 54.18 204.19 50.66 205.89 C 47.14 197.15 48.96 186.42 55.55 179.60 C 66.91 167.84 84.01 165.23 99.51 163.41 C 100.21 162.23 100.28 160.80 100.66 159.51 C 103.65 145.46 110.41 132.40 119.17 121.10 C 125.09 117.28 132.42 116.30 138.06 112.00 C 141.06 110.25 139.20 106.31 138.72 103.68 C 140.59 102.21 142.46 99.90 145.11 100.24 Z" />
<path fill="#c48cc1" opacity="1.00" d=" M 1187.92 351.06 C 1196.42 345.43 1207.04 345.60 1216.33 341.99 C 1218.84 343.99 1221.50 345.80 1223.85 348.01 C 1229.41 353.61 1235.46 358.75 1240.55 364.81 C 1247.02 372.87 1251.36 382.35 1256.97 391.00 C 1260.55 396.60 1265.95 400.65 1270.16 405.73 C 1274.90 411.39 1279.65 417.09 1283.51 423.40 C 1286.25 427.91 1286.54 433.34 1286.18 438.48 C 1282.90 437.09 1279.61 435.45 1276.04 435.05 C 1272.18 435.34 1269.00 437.85 1265.86 439.84 C 1270.86 445.43 1275.35 451.48 1278.95 458.07 C 1280.59 460.70 1281.81 463.78 1284.29 465.77 C 1287.47 467.24 1291.03 467.61 1294.45 468.30 C 1291.70 469.25 1289.05 470.46 1286.41 471.64 C 1290.40 478.11 1294.85 484.49 1296.66 492.00 C 1297.36 494.28 1297.78 496.64 1297.93 499.03 C 1297.96 501.78 1298.08 504.54 1298.29 507.30 C 1292.74 503.29 1288.98 497.50 1284.41 492.51 C 1282.70 490.70 1280.92 488.96 1279.23 487.14 C 1276.38 484.27 1274.17 480.73 1270.94 478.26 C 1267.11 477.91 1263.10 478.62 1259.45 477.12 C 1255.71 474.89 1251.90 472.77 1247.94 470.96 C 1248.09 472.69 1248.25 474.42 1248.43 476.16 C 1247.26 476.38 1246.10 476.58 1244.95 476.77 C 1243.65 476.87 1242.36 476.93 1241.08 476.94 C 1239.10 476.81 1237.14 476.60 1235.17 476.55 C 1234.71 474.13 1234.48 471.64 1233.56 469.35 C 1232.61 467.77 1231.11 466.57 1230.30 464.94 C 1230.65 459.39 1233.78 453.10 1229.92 448.08 C 1222.88 439.00 1215.81 429.84 1210.38 419.68 C 1208.04 415.47 1208.17 410.30 1205.81 406.17 C 1199.71 401.33 1191.14 401.67 1184.08 403.98 C 1184.20 401.57 1184.51 399.17 1184.71 396.77 C 1185.46 392.20 1182.62 388.40 1180.19 384.88 C 1178.84 382.87 1177.39 380.93 1175.92 379.01 C 1176.34 378.96 1177.19 378.86 1177.61 378.82 C 1178.13 376.40 1178.52 373.97 1178.90 371.54 C 1176.81 370.87 1174.73 370.19 1172.67 369.52 C 1172.97 368.71 1173.29 367.91 1173.62 367.12 C 1178.47 361.85 1181.69 354.98 1187.92 351.06 M 1209.32 349.39 C 1205.70 350.73 1203.88 355.00 1199.93 355.75 C 1195.31 357.05 1189.47 357.46 1186.69 361.92 C 1184.67 363.59 1183.62 367.28 1186.22 368.94 C 1188.10 370.44 1190.36 368.70 1192.23 368.02 C 1197.40 367.59 1200.70 363.37 1204.76 360.74 C 1206.97 359.11 1210.06 360.51 1212.32 359.24 C 1214.77 356.49 1216.17 352.93 1217.06 349.38 C 1214.48 349.28 1211.87 348.92 1209.32 349.39 M 1224.28 355.21 C 1222.57 358.15 1219.89 360.26 1216.94 361.86 C 1218.06 362.93 1219.17 364.00 1220.32 365.07 C 1217.38 369.50 1213.24 372.98 1210.57 377.60 C 1209.35 380.04 1206.37 378.95 1204.24 379.12 C 1204.00 380.33 1203.79 381.54 1203.59 382.75 C 1200.53 384.06 1197.37 385.39 1193.97 385.14 C 1190.74 384.66 1188.73 387.72 1187.09 389.98 C 1186.91 393.37 1187.83 396.70 1188.39 400.02 C 1192.93 396.37 1196.11 390.65 1202.07 389.08 C 1208.16 388.06 1214.14 390.10 1219.96 391.63 C 1224.30 390.82 1227.69 386.50 1227.27 382.02 C 1227.45 375.27 1236.64 372.34 1235.53 365.37 C 1233.69 360.44 1228.70 357.58 1224.28 355.21 M 1208.48 397.42 C 1208.31 400.43 1208.94 403.42 1209.54 406.36 C 1211.42 414.86 1217.94 421.29 1224.45 426.60 C 1231.10 431.62 1238.43 435.91 1246.33 438.62 C 1252.05 440.15 1258.85 441.46 1264.22 438.24 C 1251.11 420.71 1235.08 405.13 1216.33 393.73 C 1213.34 392.06 1209.08 394.05 1208.48 397.42 Z" />
<path fill="#c48cc1" opacity="1.00" d=" M 33.03 442.89 C 49.25 433.11 70.54 430.85 87.77 439.38 C 100.69 445.85 110.08 457.43 117.51 469.53 C 124.36 480.45 130.00 492.56 139.83 501.23 C 146.49 507.00 155.52 511.04 164.46 509.32 C 170.64 507.06 173.65 500.63 178.67 496.77 C 185.76 490.40 195.53 487.61 204.95 488.44 C 224.43 489.48 242.65 499.19 256.36 512.74 C 255.69 513.77 255.02 514.81 254.40 515.88 C 250.94 510.60 245.65 506.95 240.60 503.34 C 233.11 498.08 224.13 495.70 215.35 493.59 C 212.26 492.84 209.10 492.40 205.92 492.22 C 213.48 497.38 223.07 497.67 231.06 501.93 C 239.83 505.93 245.92 513.59 252.68 520.13 C 250.62 527.38 248.60 536.19 254.18 542.47 C 255.51 551.04 260.23 558.81 266.25 564.93 C 270.66 570.68 278.12 572.68 282.75 578.14 C 282.23 578.25 281.19 578.47 280.67 578.57 C 276.59 578.23 272.44 577.87 268.58 576.41 C 263.20 574.42 258.56 570.97 254.00 567.57 C 252.29 562.21 246.53 559.74 244.40 554.64 C 241.44 548.14 241.24 540.88 240.85 533.88 C 237.86 534.00 234.87 534.25 231.89 534.53 C 224.57 534.89 217.00 535.04 210.04 532.36 C 213.22 529.04 219.32 526.57 218.80 521.19 C 216.62 515.72 211.10 512.58 206.18 509.87 C 208.09 513.91 210.82 517.74 211.49 522.26 C 211.50 525.66 209.52 528.64 208.37 531.75 C 208.73 531.96 209.44 532.36 209.80 532.56 C 207.82 534.25 206.09 536.22 204.37 538.17 C 209.02 544.67 211.62 552.62 210.62 560.65 C 210.08 561.69 209.48 562.70 208.83 563.69 C 207.35 562.74 206.00 561.59 204.75 560.36 C 199.22 554.29 194.68 547.39 190.75 540.21 C 193.63 536.79 196.48 533.35 199.46 530.03 C 197.02 530.22 194.57 530.38 192.12 530.38 C 185.83 530.33 179.52 529.15 173.78 526.51 C 169.97 524.09 167.07 520.55 164.86 516.67 C 160.04 517.13 155.18 517.72 150.62 519.46 C 140.77 513.52 128.88 516.00 118.05 514.80 C 111.46 513.76 110.06 506.20 105.58 502.41 C 100.34 498.86 93.45 501.74 87.96 499.07 C 84.33 496.48 83.01 491.93 80.78 488.27 C 75.39 477.89 65.82 469.45 54.35 466.64 C 45.90 464.62 36.88 466.88 29.83 471.78 C 18.89 479.29 11.86 491.16 7.25 503.36 C 6.15 505.95 6.21 508.80 6.39 511.56 C 6.07 512.14 5.44 513.31 5.12 513.89 C 2.55 512.18 0.61 509.69 0.00 506.64 L 0.00 497.70 C 2.78 476.00 13.92 454.43 33.03 442.89 M 58.95 438.41 C 64.02 440.66 69.49 441.95 74.37 444.66 C 85.26 450.53 95.06 458.53 102.78 468.21 C 109.63 476.20 114.81 485.42 121.58 493.46 C 126.71 500.07 133.37 505.38 140.63 509.51 C 144.21 511.36 148.08 513.21 152.23 512.85 C 148.30 510.62 143.83 509.49 140.12 506.85 C 131.09 500.78 125.37 491.24 120.00 482.04 C 114.61 472.40 108.49 463.13 101.16 454.85 C 94.14 447.71 85.49 441.98 75.72 439.45 C 70.29 438.09 64.47 436.82 58.95 438.41 Z" />
<path fill="#c48cc1" opacity="1.00" d=" M 323.18 447.14 C 331.95 438.04 345.19 434.88 357.47 435.63 C 361.81 440.03 367.38 442.92 371.84 447.19 C 375.07 450.28 378.32 453.40 380.98 457.01 C 387.93 466.86 390.86 479.07 390.94 491.00 C 391.01 495.26 390.27 499.66 391.76 503.77 C 388.42 513.37 384.28 522.73 382.27 532.74 C 382.79 534.31 383.12 536.52 385.03 537.00 C 389.67 538.27 394.66 535.79 397.44 532.07 C 394.59 515.37 400.55 498.24 410.44 484.87 C 417.59 475.68 426.93 468.16 437.64 463.54 C 445.99 459.81 455.07 458.36 463.89 456.18 C 462.08 452.19 460.36 448.02 460.67 443.54 C 463.98 444.65 466.38 447.21 469.02 449.34 C 475.61 451.12 483.59 451.01 488.35 456.68 C 491.78 460.43 494.70 466.82 500.85 465.52 C 501.21 465.56 501.95 465.65 502.32 465.69 C 501.36 468.31 500.05 471.03 497.42 472.33 C 491.58 475.53 484.60 476.60 478.03 475.85 C 471.78 474.72 468.68 468.75 465.05 464.27 C 460.90 465.43 457.02 467.39 453.02 468.99 C 448.68 471.19 448.22 476.75 449.12 480.99 C 449.43 483.30 452.23 482.83 453.90 482.65 C 459.72 481.62 465.49 480.19 471.41 479.74 C 472.43 480.07 473.45 480.42 474.47 480.78 C 473.13 484.42 471.97 488.13 470.46 491.71 C 469.24 489.78 468.05 487.84 466.87 485.90 C 460.97 488.91 454.89 492.18 448.07 492.18 C 445.77 489.70 444.19 486.64 443.70 483.28 C 443.20 480.54 442.73 477.79 442.13 475.07 C 440.36 477.48 438.80 480.07 437.99 482.96 C 437.91 483.35 437.76 484.11 437.68 484.49 C 433.42 487.46 431.14 492.24 428.68 496.63 C 425.92 501.96 423.05 507.26 420.88 512.87 C 421.77 512.62 422.66 512.37 423.56 512.12 C 427.91 511.16 432.15 508.74 436.71 509.38 C 441.70 510.47 442.05 516.31 444.67 519.80 C 443.70 521.56 442.67 523.28 441.67 525.01 C 436.32 527.75 432.53 532.54 427.75 536.04 C 424.48 537.85 421.44 540.06 418.74 542.64 C 421.87 542.92 425.01 543.17 428.16 543.32 C 429.20 545.88 430.24 548.45 431.25 551.03 C 422.75 550.90 414.22 551.01 405.77 549.98 C 406.46 547.81 407.98 545.64 407.83 543.35 C 405.10 541.19 401.99 539.59 399.15 537.59 C 390.67 546.42 378.69 552.73 366.16 551.32 C 364.34 548.19 361.17 544.99 362.29 541.05 C 364.70 532.89 371.37 526.67 373.43 518.35 C 374.74 514.05 369.91 511.75 367.52 509.07 C 371.39 504.44 376.32 500.78 379.82 495.84 C 382.70 491.85 383.60 485.77 380.15 481.83 C 377.12 478.22 372.30 477.38 368.09 475.86 C 362.93 474.22 363.53 466.10 357.89 465.25 C 350.29 464.71 343.40 469.10 337.83 473.84 C 326.68 483.69 317.66 496.81 303.29 502.30 C 292.18 507.15 278.22 500.87 273.60 489.90 C 278.93 493.46 285.56 494.21 291.80 493.52 C 295.68 492.55 298.36 489.27 300.74 486.26 C 309.47 473.94 312.19 457.96 323.18 447.14 M 476.40 455.39 C 473.84 455.83 472.57 459.56 474.57 461.35 C 476.13 463.36 479.98 462.53 480.50 460.01 C 481.49 457.46 478.87 455.07 476.40 455.39 Z" />
<path fill="#c48cc1" opacity="1.00" d=" M 973.25 452.01 C 982.23 452.90 990.94 455.99 998.71 460.53 C 994.88 465.99 991.90 472.26 991.17 478.95 C 990.41 486.00 993.90 493.34 999.99 497.03 C 1005.09 500.34 1011.75 500.43 1017.33 498.31 C 1021.48 496.72 1024.67 493.51 1027.82 490.50 C 1030.04 494.33 1032.02 498.30 1034.05 502.25 C 1037.06 511.18 1040.73 519.91 1042.70 529.17 C 1042.94 531.32 1044.39 532.88 1045.98 534.22 C 1036.88 536.71 1028.11 540.39 1018.80 542.07 C 1016.20 536.14 1015.28 529.22 1010.55 524.45 C 1006.68 520.19 999.97 517.77 994.61 520.60 C 991.33 522.00 989.43 525.31 988.65 528.65 C 987.20 534.61 986.97 540.82 987.28 546.93 C 970.94 548.32 954.45 549.19 938.15 547.04 C 936.88 546.38 935.33 545.98 934.45 544.80 C 933.84 538.19 935.40 531.01 931.94 524.94 C 929.98 521.10 925.47 519.30 921.35 519.46 C 916.79 519.71 912.76 522.48 910.08 526.05 C 907.18 529.66 906.07 534.26 904.62 538.57 C 903.70 539.00 902.79 539.43 901.88 539.88 C 894.29 537.76 886.90 534.69 880.36 530.26 C 881.44 525.99 882.41 521.69 883.25 517.37 C 885.62 511.39 887.95 505.39 890.93 499.69 C 892.77 505.60 898.69 508.93 904.12 511.03 C 915.23 515.06 928.95 506.02 928.99 494.06 C 929.45 483.74 922.90 475.14 917.61 466.89 C 921.44 463.94 925.53 461.31 929.89 459.20 C 933.56 465.61 936.61 472.69 942.32 477.62 C 946.25 480.63 950.93 483.21 956.02 483.24 C 964.56 483.52 972.72 477.00 974.53 468.69 C 975.57 463.12 974.61 457.43 973.25 452.01 Z" />
<path fill="#c48cc1" opacity="1.00" d=" M 262.18 508.53 C 266.05 510.06 267.18 514.02 268.22 517.65 C 271.15 517.96 274.30 517.66 277.02 518.98 C 281.03 521.93 282.54 527.14 282.17 531.95 C 282.16 536.30 281.66 542.65 286.92 544.22 C 287.96 544.49 289.01 544.73 290.07 544.94 C 290.75 547.27 291.76 549.49 293.13 551.51 C 284.71 554.32 274.83 555.01 266.99 550.17 C 260.68 546.74 257.06 540.04 255.44 533.27 C 256.40 528.61 257.66 523.73 261.22 520.32 C 262.34 519.25 263.49 518.24 264.65 517.21 C 263.69 514.35 262.78 511.48 262.18 508.53 M 269.33 525.50 C 267.13 527.09 267.98 530.65 270.26 531.72 C 272.55 532.92 275.65 530.54 275.00 528.00 C 274.70 525.43 271.42 523.68 269.33 525.50 Z" />
</g>
<g id="#000000ff">
<path fill="#000000" opacity="1.00" d=" M 161.20 74.05 C 163.71 71.99 167.32 75.02 166.67 77.88 C 166.45 80.36 162.95 81.65 161.15 79.93 C 159.32 78.52 159.02 75.29 161.20 74.05 Z" />
<path fill="#000000" opacity="1.00" d=" M 1186.22 368.94 C 1183.62 367.28 1184.67 363.59 1186.69 361.92 C 1190.14 361.97 1192.32 364.69 1192.23 368.02 C 1190.36 368.70 1188.10 370.44 1186.22 368.94 Z" />
<path fill="#000000" opacity="1.00" d=" M 476.40 455.39 C 478.87 455.07 481.49 457.46 480.50 460.01 C 479.98 462.53 476.13 463.36 474.57 461.35 C 472.57 459.56 473.84 455.83 476.40 455.39 Z" />
<path fill="#000000" opacity="1.00" d=" M 1077.52 481.41 C 1080.46 478.10 1085.51 483.57 1082.39 486.39 C 1079.45 489.89 1074.30 484.28 1077.52 481.41 Z" />
<path fill="#000000" opacity="1.00" d=" M 269.33 525.50 C 271.42 523.68 274.70 525.43 275.00 528.00 C 275.65 530.54 272.55 532.92 270.26 531.72 C 267.98 530.65 267.13 527.09 269.33 525.50 Z" />
</g>
<g id="#b26aafff">
<path fill="#b26aaf" opacity="1.00" d=" M 180.43 78.94 C 194.56 78.64 208.97 77.85 222.84 81.19 C 227.16 82.17 231.72 84.42 233.19 88.92 C 218.19 83.03 201.97 86.92 186.59 88.78 C 183.24 89.44 177.74 90.39 176.83 85.83 C 177.45 83.27 178.92 81.06 180.43 78.94 Z" />
<path fill="#b26aaf" opacity="1.00" d=" M 163.17 105.16 C 164.64 104.94 166.11 104.71 167.56 104.37 C 169.13 108.84 170.90 113.74 169.35 118.47 C 167.18 125.52 160.74 129.83 156.76 135.74 C 151.65 142.36 145.46 148.15 138.78 153.16 C 141.18 147.75 145.53 143.55 148.24 138.31 C 154.05 127.68 159.48 116.73 163.17 105.16 Z" />
<path fill="#b26aaf" opacity="1.00" d=" M 1191.03 342.10 C 1199.28 338.39 1206.76 333.29 1214.50 328.65 C 1214.16 331.10 1213.61 333.53 1213.60 336.01 C 1213.86 338.22 1215.20 340.12 1216.33 341.99 C 1207.04 345.60 1196.42 345.43 1187.92 351.06 C 1181.69 354.98 1178.47 361.85 1173.62 367.12 C 1175.67 357.61 1180.89 348.42 1189.21 343.08 C 1189.66 342.84 1190.57 342.35 1191.03 342.10 Z" />
<path fill="#b26aaf" opacity="1.00" d=" M 1184.08 403.98 C 1191.14 401.67 1199.71 401.33 1205.81 406.17 C 1208.17 410.30 1208.04 415.47 1210.38 419.68 C 1215.81 429.84 1222.88 439.00 1229.92 448.08 C 1233.78 453.10 1230.65 459.39 1230.30 464.94 C 1231.11 466.57 1232.61 467.77 1233.56 469.35 C 1234.48 471.64 1234.71 474.13 1235.17 476.55 C 1234.22 476.67 1233.29 476.82 1232.38 476.98 C 1231.19 476.49 1230.02 476.00 1228.87 475.52 C 1228.94 472.34 1228.82 469.17 1228.78 466.00 C 1227.61 465.59 1226.44 465.19 1225.31 464.77 C 1224.76 464.54 1223.66 464.07 1223.11 463.83 C 1215.43 458.72 1207.25 453.83 1201.67 446.29 C 1192.58 433.94 1184.39 419.71 1184.08 403.98 Z" />
<path fill="#b26aaf" opacity="1.00" d=" M 1265.86 439.84 C 1269.00 437.85 1272.18 435.34 1276.04 435.05 C 1279.61 435.45 1282.90 437.09 1286.18 438.48 C 1296.28 443.60 1306.64 448.18 1316.84 453.11 C 1335.94 462.05 1355.95 469.72 1372.91 482.54 C 1372.19 482.80 1370.76 483.32 1370.04 483.59 C 1373.09 486.76 1376.55 489.66 1378.58 493.65 C 1377.35 493.65 1376.13 493.64 1374.94 493.62 C 1371.13 491.20 1366.72 490.13 1362.64 488.33 C 1356.83 485.84 1351.01 483.38 1345.10 481.19 C 1345.35 480.14 1345.62 479.09 1345.90 478.05 C 1343.19 477.14 1340.46 476.32 1337.75 475.49 C 1328.58 472.30 1319.67 468.40 1310.97 464.12 C 1306.57 462.08 1302.51 459.30 1297.87 457.81 C 1303.64 462.41 1311.12 464.24 1316.71 469.01 C 1309.30 470.25 1301.84 468.90 1294.45 468.30 C 1291.03 467.61 1287.47 467.24 1284.29 465.77 C 1281.81 463.78 1280.59 460.70 1278.95 458.07 C 1275.35 451.48 1270.86 445.43 1265.86 439.84 M 1283.91 455.50 C 1288.05 456.10 1292.25 456.16 1296.40 456.74 C 1293.08 453.36 1288.02 455.17 1283.91 455.50 M 1310.96 460.01 C 1316.95 463.50 1323.43 466.08 1329.65 469.15 C 1337.13 472.22 1344.35 476.23 1352.28 477.99 C 1345.05 473.81 1337.12 471.00 1329.57 467.46 C 1323.35 465.03 1317.46 461.62 1310.96 460.01 M 1330.54 462.79 C 1333.89 465.62 1338.06 467.13 1341.90 469.16 C 1346.04 471.08 1350.06 473.47 1354.62 474.32 C 1351.60 471.36 1347.41 470.21 1343.77 468.24 C 1339.38 466.36 1335.34 463.50 1330.54 462.79 Z" />
<path fill="#b26aaf" opacity="1.00" d=" M 469.24 443.89 C 468.86 442.36 470.00 439.78 471.91 440.92 C 473.65 442.59 474.69 444.81 475.93 446.86 C 474.21 447.47 472.54 448.18 470.83 448.79 C 470.24 447.17 469.57 445.57 469.24 443.89 Z" />
<path fill="#b26aaf" opacity="1.00" d=" M 948.13 453.13 C 956.46 452.12 964.86 451.15 973.25 452.01 C 974.61 457.43 975.57 463.12 974.53 468.69 C 972.72 477.00 964.56 483.52 956.02 483.24 C 950.93 483.21 946.25 480.63 942.32 477.62 C 936.61 472.69 933.56 465.61 929.89 459.20 C 935.69 456.44 941.88 454.54 948.13 453.13 Z" />
<path fill="#b26aaf" opacity="1.00" d=" M 991.17 478.95 C 991.90 472.26 994.88 465.99 998.71 460.53 C 1007.27 465.73 1014.39 472.92 1020.83 480.52 C 1023.45 483.63 1025.67 487.05 1027.82 490.50 C 1024.67 493.51 1021.48 496.72 1017.33 498.31 C 1011.75 500.43 1005.09 500.34 999.99 497.03 C 993.90 493.34 990.41 486.00 991.17 478.95 Z" />
<path fill="#b26aaf" opacity="1.00" d=" M 337.83 473.84 C 343.40 469.10 350.29 464.71 357.89 465.25 C 363.53 466.10 362.93 474.22 368.09 475.86 C 372.30 477.38 377.12 478.22 380.15 481.83 C 383.60 485.77 382.70 491.85 379.82 495.84 C 376.32 500.78 371.39 504.44 367.52 509.07 C 369.91 511.75 374.74 514.05 373.43 518.35 C 371.37 526.67 364.70 532.89 362.29 541.05 C 361.17 544.99 364.34 548.19 366.16 551.32 C 361.99 550.64 357.40 549.83 354.36 546.62 C 352.27 544.21 351.33 541.06 350.35 538.09 C 350.11 523.05 356.41 508.94 357.62 494.07 C 357.90 491.33 357.44 488.60 356.56 486.01 C 352.24 481.69 345.34 483.32 340.60 486.03 C 333.16 489.80 328.30 496.87 321.54 501.56 C 315.54 505.94 308.35 508.58 300.99 509.44 C 293.84 510.28 286.04 509.76 280.17 505.11 C 280.99 508.44 280.55 511.86 279.82 515.17 C 282.27 517.74 284.85 520.40 285.95 523.88 C 288.70 530.47 284.26 537.56 286.92 544.22 C 281.66 542.65 282.16 536.30 282.17 531.95 C 282.54 527.14 281.03 521.93 277.02 518.98 C 274.30 517.66 271.15 517.96 268.22 517.65 C 267.18 514.02 266.05 510.06 262.18 508.53 C 262.38 505.34 265.01 501.54 268.59 503.40 C 271.35 506.38 270.10 510.71 269.98 514.33 C 270.74 514.33 272.26 514.33 273.02 514.33 C 272.85 511.59 272.38 508.81 272.88 506.09 C 273.63 503.95 276.33 504.27 278.08 503.54 C 273.27 498.84 269.91 492.80 268.18 486.32 C 267.77 484.51 267.44 482.68 267.12 480.86 C 268.64 482.77 270.13 484.70 271.54 486.70 C 272.25 487.74 272.93 488.81 273.60 489.90 C 278.22 500.87 292.18 507.15 303.29 502.30 C 317.66 496.81 326.68 483.69 337.83 473.84 Z" />
<path fill="#b26aaf" opacity="1.00" d=" M 29.83 471.78 C 36.88 466.88 45.90 464.62 54.35 466.64 C 65.82 469.45 75.39 477.89 80.78 488.27 C 83.01 491.93 84.33 496.48 87.96 499.07 C 93.45 501.74 100.34 498.86 105.58 502.41 C 110.06 506.20 111.46 513.76 118.05 514.80 C 128.88 516.00 140.77 513.52 150.62 519.46 C 138.93 524.45 128.72 532.36 116.84 536.94 C 103.14 542.01 87.29 541.49 74.22 534.80 C 67.00 531.00 60.70 525.08 57.19 517.65 C 52.91 508.08 55.80 497.14 52.39 487.36 C 50.69 482.69 47.08 478.33 42.09 477.13 C 35.05 475.38 27.68 478.82 22.90 483.93 C 15.55 491.93 11.83 502.32 6.39 511.56 C 6.21 508.80 6.15 505.95 7.25 503.36 C 11.86 491.16 18.89 479.29 29.83 471.78 Z" />
<path fill="#b26aaf" opacity="1.00" d=" M 890.93 499.69 C 897.58 487.18 906.26 475.52 917.61 466.89 C 922.90 475.14 929.45 483.74 928.99 494.06 C 928.95 506.02 915.23 515.06 904.12 511.03 C 898.69 508.93 892.77 505.60 890.93 499.69 Z" />
<path fill="#b26aaf" opacity="1.00" d=" M 428.68 496.63 C 431.14 492.24 433.42 487.46 437.68 484.49 C 437.43 489.76 436.67 495.05 437.30 500.33 C 441.72 499.79 448.44 498.01 450.81 503.19 C 451.09 507.88 448.50 512.19 446.52 516.29 C 445.23 511.91 444.02 506.19 438.99 504.72 C 432.94 503.99 427.57 508.02 423.56 512.12 C 422.66 512.37 421.77 512.62 420.88 512.87 C 423.05 507.26 425.92 501.96 428.68 496.63 Z" />
<path fill="#b26aaf" opacity="1.00" d=" M 860.29 512.31 C 868.03 513.62 875.49 516.17 883.25 517.37 C 882.41 521.69 881.44 525.99 880.36 530.26 C 872.91 525.20 866.03 519.27 860.29 512.31 Z" />
<path fill="#b26aaf" opacity="1.00" d=" M 256.36 512.74 C 258.45 514.94 259.82 517.66 261.22 520.32 C 257.66 523.73 256.40 528.61 255.44 533.27 C 254.68 536.27 254.22 539.35 254.18 542.47 C 248.60 536.19 250.62 527.38 252.68 520.13 C 253.17 518.67 253.74 517.25 254.40 515.88 C 255.02 514.81 255.69 513.77 256.36 512.74 Z" />
<path fill="#b26aaf" opacity="1.00" d=" M 427.75 536.04 C 432.53 532.54 436.32 527.75 441.67 525.01 C 440.37 527.26 439.06 529.50 437.76 531.76 C 443.83 531.65 451.09 529.56 455.99 534.32 C 451.69 534.71 447.38 534.99 443.10 535.48 C 437.98 535.62 432.86 535.71 427.75 536.04 Z" />
<path fill="#b26aaf" opacity="1.00" d=" M 162.07 532.60 C 165.92 530.47 169.77 528.32 173.78 526.51 C 179.52 529.15 185.83 530.33 192.12 530.38 C 188.14 535.90 181.70 539.13 174.94 539.53 C 176.00 542.94 177.31 546.39 177.25 550.02 C 176.96 552.71 174.08 553.72 172.19 555.14 C 167.71 548.13 166.43 539.67 162.07 532.60 Z" />
<path fill="#b26aaf" opacity="1.00" d=" M 231.89 534.53 C 234.87 534.25 237.86 534.00 240.85 533.88 C 241.24 540.88 241.44 548.14 244.40 554.64 C 246.53 559.74 252.29 562.21 254.00 567.57 C 251.60 565.90 249.13 564.34 246.66 562.80 C 243.05 559.90 238.95 557.16 236.95 552.83 C 234.28 547.04 233.24 540.70 231.89 534.53 Z" />
<path fill="#b26aaf" opacity="1.00" d=" M 428.16 543.32 C 431.84 543.61 435.74 543.26 439.22 544.72 C 441.26 545.61 442.13 548.68 440.04 550.02 C 437.35 551.40 434.17 550.89 431.25 551.03 C 430.24 548.45 429.20 545.88 428.16 543.32 Z" />
<path fill="#b26aaf" opacity="1.00" d=" M 1016.12 558.09 C 1018.49 559.46 1020.83 560.87 1023.18 562.29 C 1021.30 564.68 1018.68 566.32 1015.82 567.25 C 1015.79 564.19 1015.90 561.14 1016.12 558.09 Z" />
<path fill="#b26aaf" opacity="1.00" d=" M 898.99 562.28 C 901.14 560.74 903.45 559.42 905.97 558.58 C 906.27 561.47 906.42 564.39 906.43 567.30 C 903.52 566.36 900.98 564.57 898.99 562.28 Z" />
<path fill="#b26aaf" opacity="1.00" d=" M 909.00 568.04 C 910.48 565.32 912.20 562.66 914.82 560.91 C 915.69 563.68 916.43 566.48 917.09 569.31 C 914.36 569.03 911.65 568.67 909.00 568.04 Z" />
<path fill="#b26aaf" opacity="1.00" d=" M 1007.04 560.69 C 1009.60 562.74 1011.76 565.22 1013.51 568.00 C 1010.69 568.78 1007.79 569.20 1004.90 569.40 C 1005.45 566.46 1006.17 563.55 1007.04 560.69 Z" />
<path fill="#b26aaf" opacity="1.00" d=" M 919.93 569.50 C 920.88 566.61 922.14 563.84 923.84 561.31 C 925.33 563.41 926.74 565.57 928.11 567.75 C 925.59 569.05 922.74 569.50 919.93 569.50 Z" />
<path fill="#b26aaf" opacity="1.00" d=" M 993.88 567.92 C 995.18 565.68 996.51 563.47 997.90 561.30 C 999.68 563.82 1001.10 566.58 1002.21 569.48 C 999.36 569.46 996.49 569.07 993.88 567.92 Z" />
</g>
<g id="#85b4e0ff">
<path fill="#85b4e0" opacity="1.00" d=" M 491.56 86.70 C 492.41 94.13 493.07 101.61 494.81 108.91 C 499.59 131.49 506.43 153.56 513.55 175.49 C 520.79 197.14 528.24 218.73 536.67 239.95 C 543.76 220.22 550.52 200.30 554.58 179.69 C 558.21 191.12 560.86 202.84 563.72 214.48 C 574.28 256.46 584.44 298.53 594.77 340.56 C 578.13 346.73 561.80 353.76 546.10 362.05 C 527.03 372.13 508.21 382.68 489.77 393.86 C 475.15 402.91 460.47 412.10 447.64 423.61 C 444.14 427.02 439.75 430.73 439.67 436.03 C 439.59 439.44 443.14 441.20 446.03 441.74 C 452.39 442.66 458.82 441.48 465.08 440.34 C 481.91 436.80 498.24 431.25 514.40 425.44 C 545.94 414.21 575.12 397.60 605.06 382.85 C 610.27 404.64 615.73 426.38 620.85 448.20 C 614.92 452.26 608.52 455.56 602.31 459.17 C 593.33 464.07 584.63 469.46 575.61 474.30 C 547.41 476.38 519.21 478.47 490.99 480.33 C 485.49 480.51 479.95 481.65 474.47 480.78 C 473.45 480.42 472.43 480.07 471.41 479.74 C 465.66 477.60 459.54 479.63 453.62 479.50 C 453.44 475.99 453.25 472.49 453.02 468.99 C 457.02 467.39 460.90 465.43 465.05 464.27 C 468.68 468.75 471.78 474.72 478.03 475.85 C 484.60 476.60 491.58 475.53 497.42 472.33 C 500.05 471.03 501.36 468.31 502.32 465.69 C 503.21 464.76 504.12 463.84 505.04 462.92 C 503.02 460.96 500.45 460.97 498.21 462.55 C 497.39 462.51 496.58 462.47 495.78 462.44 C 493.97 458.11 492.61 453.22 488.89 450.08 C 485.38 446.99 480.44 446.11 475.93 446.86 C 474.69 444.81 473.65 442.59 471.91 440.92 C 470.00 439.78 468.86 442.36 469.24 443.89 C 469.57 445.57 470.24 447.17 470.83 448.79 C 470.38 448.93 469.48 449.21 469.02 449.34 C 466.38 447.21 463.98 444.65 460.67 443.54 C 460.36 448.02 462.08 452.19 463.89 456.18 C 455.07 458.36 445.99 459.81 437.64 463.54 C 426.93 468.16 417.59 475.68 410.44 484.87 C 405.90 485.13 401.37 485.43 396.82 485.35 C 397.26 473.34 392.75 461.68 386.13 451.84 C 379.74 442.49 369.06 435.46 357.47 435.63 C 345.19 434.88 331.95 438.04 323.18 447.14 C 312.19 457.96 309.47 473.94 300.74 486.26 C 291.01 487.16 281.26 485.66 271.54 486.70 C 270.13 484.70 268.64 482.77 267.12 480.86 C 267.44 482.68 267.77 484.51 268.18 486.32 C 236.75 486.28 205.32 485.77 173.94 483.85 C 164.18 483.03 154.34 482.49 144.79 480.21 C 140.66 479.29 137.36 476.42 134.72 473.26 C 126.35 463.43 120.80 451.64 115.53 439.97 C 124.85 421.78 133.26 403.13 143.15 385.25 C 143.81 394.16 144.34 403.09 145.51 411.96 C 151.53 396.78 158.24 381.88 164.92 366.98 C 166.78 372.52 167.97 378.24 169.44 383.89 C 172.72 373.87 175.25 363.61 178.89 353.71 C 182.16 367.53 185.77 381.28 188.82 395.15 C 195.00 374.46 199.30 353.26 205.26 332.50 C 209.82 349.67 213.27 367.11 217.51 384.36 C 223.46 374.72 228.32 364.46 234.04 354.68 C 228.03 357.53 221.91 360.26 215.40 361.74 C 222.51 346.17 231.80 331.75 240.27 316.90 C 232.79 320.37 225.40 324.34 217.21 325.89 C 225.88 311.13 238.26 298.61 244.81 282.62 C 252.49 262.38 256.55 241.04 262.55 220.30 C 267.57 236.58 272.98 252.77 279.64 268.46 C 282.68 275.29 285.46 282.48 290.53 288.11 C 290.77 287.98 291.24 287.73 291.47 287.61 C 295.83 275.59 299.88 263.43 304.66 251.56 C 297.72 255.55 290.80 259.58 283.80 263.46 C 294.66 234.31 305.05 204.99 314.66 175.40 C 317.54 166.23 319.48 156.80 321.81 147.47 C 325.04 151.43 325.97 156.58 327.86 161.21 C 331.02 169.34 332.31 178.00 334.32 186.45 C 339.01 207.55 343.94 229.13 355.15 247.89 C 357.36 252.06 362.23 255.44 361.08 260.73 C 355.27 261.29 349.98 258.70 344.92 256.25 C 353.15 276.53 361.72 296.68 369.50 317.14 C 377.35 298.87 384.70 280.38 391.69 261.76 C 396.65 275.97 400.43 290.56 405.22 304.82 C 411.15 286.86 417.89 269.18 423.93 251.26 C 416.41 257.72 409.32 264.68 401.86 271.21 C 412.17 249.72 422.25 227.69 426.11 203.98 C 429.94 178.06 432.67 151.99 435.84 125.99 C 445.14 148.73 454.43 171.48 463.62 194.26 C 473.64 158.60 483.76 122.92 491.56 86.70 Z" />
<path fill="#85b4e0" opacity="1.00" d=" M 955.92 189.94 C 961.45 191.46 966.80 193.53 972.13 195.64 C 963.68 205.66 955.88 216.28 946.57 225.53 C 946.17 221.20 947.59 217.01 948.91 212.95 C 951.41 205.33 953.45 197.57 955.92 189.94 Z" />
<path fill="#85b4e0" opacity="1.00" d=" M 918.95 212.98 C 921.74 208.12 924.03 202.93 927.55 198.53 C 932.22 207.15 936.08 216.19 940.72 224.82 C 930.43 224.73 920.51 227.74 910.71 230.50 C 912.65 224.31 916.03 218.73 918.95 212.98 Z" />
<path fill="#85b4e0" opacity="1.00" d=" M 958.60 235.02 C 967.34 224.70 976.21 214.48 985.30 204.47 C 989.31 210.79 993.61 216.92 997.58 223.26 C 991.56 231.02 985.98 239.12 979.72 246.68 C 974.55 251.46 967.67 253.76 961.47 256.86 C 962.22 249.52 962.35 241.64 958.60 235.02 Z" />
<path fill="#85b4e0" opacity="1.00" d=" M 831.51 265.24 C 844.90 247.12 857.53 228.45 871.33 210.64 C 868.39 222.96 860.52 233.27 855.99 244.96 C 866.46 234.52 874.20 221.66 884.85 211.40 C 885.06 217.73 884.81 224.07 885.07 230.40 C 893.00 224.49 899.40 216.78 907.59 211.20 C 907.62 215.48 907.11 219.74 906.92 224.01 C 906.92 226.48 906.65 229.34 908.49 231.29 C 897.85 234.77 887.27 238.49 877.09 243.18 C 861.62 249.97 846.97 258.47 831.51 265.24 Z" />
<path fill="#85b4e0" opacity="1.00" d=" M 1022.41 248.74 C 1030.74 239.27 1039.59 230.26 1047.49 220.42 C 1048.42 223.15 1048.05 226.00 1047.15 228.68 C 1049.24 226.80 1051.52 225.14 1053.90 223.62 C 1056.07 235.34 1057.21 247.33 1061.13 258.66 C 1069.10 251.31 1072.59 240.71 1078.97 232.17 C 1085.12 238.36 1089.14 246.61 1096.40 251.66 C 1097.57 252.71 1098.78 251.55 1099.73 250.82 C 1102.93 248.12 1105.22 244.56 1107.82 241.32 C 1115.81 245.17 1124.83 245.29 1133.51 244.96 C 1129.00 238.04 1122.29 232.97 1117.57 226.23 C 1119.52 226.08 1121.49 225.94 1123.47 225.80 C 1133.88 238.01 1144.67 249.89 1155.32 261.89 C 1141.68 263.82 1127.80 263.84 1114.22 266.20 C 1112.70 269.18 1112.80 272.65 1112.37 275.90 C 1109.33 309.21 1107.16 342.59 1105.40 375.99 C 1105.25 379.25 1105.31 382.51 1105.43 385.77 C 1122.23 387.99 1138.97 390.68 1155.75 393.10 C 1152.30 419.33 1148.94 445.58 1145.36 471.79 C 1145.05 474.61 1144.70 477.48 1143.35 480.03 C 1141.86 476.47 1140.37 472.90 1138.45 469.56 C 1138.30 477.63 1139.99 485.67 1139.13 493.74 C 1137.23 493.59 1135.33 493.44 1133.46 493.28 C 1129.48 484.02 1126.85 473.93 1120.47 465.92 C 1121.75 474.97 1123.95 483.88 1125.00 492.98 C 1121.86 492.71 1118.70 492.66 1115.59 492.31 C 1109.83 488.38 1103.87 484.60 1097.17 482.50 C 1093.57 476.18 1088.69 470.37 1082.25 466.83 C 1073.32 461.79 1061.30 461.69 1053.01 468.09 C 1047.56 472.09 1044.63 478.40 1041.81 484.33 C 1034.81 483.06 1027.80 481.93 1020.83 480.52 C 1014.39 472.92 1007.27 465.73 998.71 460.53 C 990.94 455.99 982.23 452.90 973.25 452.01 C 964.86 451.15 956.46 452.12 948.13 453.13 C 946.69 450.61 944.90 447.44 946.59 444.60 C 948.90 441.03 952.17 438.16 955.57 435.65 C 965.72 428.87 976.80 423.64 987.88 418.58 C 1010.41 408.50 1033.65 400.14 1056.83 391.70 C 1065.19 388.49 1073.38 384.78 1081.21 380.43 C 1091.65 374.31 1096.91 361.77 1096.65 350.01 C 1096.18 343.35 1095.58 336.47 1092.69 330.36 C 1087.07 327.77 1080.54 328.26 1074.52 327.34 C 1077.90 336.46 1078.43 347.48 1072.78 355.83 C 1067.13 364.04 1057.73 368.38 1048.56 371.42 C 1020.64 380.79 992.34 388.95 964.03 397.04 C 901.91 414.37 839.55 430.88 776.69 445.33 C 774.07 441.10 772.22 436.48 769.98 432.07 C 769.21 430.32 768.15 428.50 768.49 426.53 C 769.07 422.51 769.74 417.72 774.07 416.07 C 776.53 422.61 782.73 427.79 789.90 427.76 C 790.91 426.91 791.66 425.82 792.50 424.81 C 802.28 411.94 812.94 399.76 823.31 387.36 C 847.38 358.95 872.25 331.24 896.45 302.95 C 909.26 305.78 922.78 302.58 933.84 295.81 C 943.04 290.30 950.17 282.01 955.85 273.03 C 969.92 266.90 984.53 260.66 995.69 249.81 C 1001.41 243.71 1005.34 236.27 1009.60 229.15 C 1013.75 235.76 1018.20 242.17 1022.41 248.74 Z" />
<path fill="#85b4e0" opacity="1.00" d=" M 827.61 310.18 C 845.00 303.32 862.31 296.16 879.10 287.91 C 880.98 290.87 882.77 293.90 884.90 296.70 C 873.20 309.39 860.97 321.58 849.02 334.03 C 835.39 348.10 821.32 361.72 807.04 375.13 C 802.81 379.03 798.48 382.81 793.94 386.34 C 796.36 372.58 794.09 357.15 784.41 346.53 C 778.80 340.06 770.81 336.32 762.63 334.33 C 765.30 331.04 768.03 327.78 770.63 324.43 C 780.08 322.72 789.67 321.68 798.94 319.07 C 801.17 318.67 803.51 317.53 805.77 318.15 C 810.74 322.52 813.33 328.82 817.31 333.98 C 818.04 334.07 819.48 334.24 820.21 334.33 C 818.36 327.52 813.48 322.30 809.48 316.72 C 813.76 314.74 818.20 312.90 822.87 312.10 C 827.97 314.59 831.70 319.07 835.99 322.67 C 836.53 322.21 837.60 321.27 838.14 320.81 C 835.13 316.78 831.04 313.80 827.61 310.18 Z" />
<path fill="#85b4e0" opacity="1.00" d=" M 1240.55 364.81 C 1243.64 347.29 1245.91 329.64 1249.03 312.13 C 1295.95 372.11 1341.94 432.83 1389.00 492.71 L 1389.00 493.67 C 1385.52 493.66 1382.04 493.67 1378.58 493.65 C 1376.55 489.66 1373.09 486.76 1370.04 483.59 C 1370.76 483.32 1372.19 482.80 1372.91 482.54 C 1355.95 469.72 1335.94 462.05 1316.84 453.11 C 1306.64 448.18 1296.28 443.60 1286.18 438.48 C 1286.54 433.34 1286.25 427.91 1283.51 423.40 C 1279.65 417.09 1274.90 411.39 1270.16 405.73 C 1265.95 400.65 1260.55 396.60 1256.97 391.00 C 1251.36 382.35 1247.02 372.87 1240.55 364.81 Z" />
<path fill="#85b4e0" opacity="1.00" d=" M 1176.26 396.40 C 1179.07 396.54 1181.89 396.67 1184.71 396.77 C 1184.51 399.17 1184.20 401.57 1184.08 403.98 C 1184.39 419.71 1192.58 433.94 1201.67 446.29 C 1207.25 453.83 1215.43 458.72 1223.11 463.83 C 1221.95 467.73 1220.74 471.62 1219.78 475.57 C 1214.21 466.82 1209.12 457.64 1201.89 450.11 C 1200.52 448.80 1198.92 447.41 1196.93 447.38 C 1193.79 448.94 1193.67 452.97 1193.81 456.02 C 1194.63 466.64 1199.48 476.48 1205.40 485.17 C 1202.73 486.97 1199.94 488.58 1197.04 489.97 C 1195.87 489.12 1194.42 488.81 1193.14 488.29 C 1193.86 481.97 1194.00 475.55 1192.96 469.25 C 1188.52 475.68 1185.87 483.22 1180.93 489.31 C 1180.41 489.29 1179.37 489.24 1178.85 489.22 C 1178.53 485.49 1178.28 481.75 1178.31 478.00 C 1177.72 450.80 1177.09 423.60 1176.26 396.40 Z" />
<path fill="#85b4e0" opacity="1.00" d=" M 1297.87 457.81 C 1302.51 459.30 1306.57 462.08 1310.97 464.12 C 1319.67 468.40 1328.58 472.30 1337.75 475.49 C 1338.17 479.40 1342.02 480.12 1345.10 481.19 C 1351.01 483.38 1356.83 485.84 1362.64 488.33 C 1366.72 490.13 1371.13 491.20 1374.94 493.62 C 1348.85 493.03 1322.77 492.06 1296.66 492.00 C 1294.85 484.49 1290.40 478.11 1286.41 471.64 C 1289.05 470.46 1291.70 469.25 1294.45 468.30 C 1301.84 468.90 1309.30 470.25 1316.71 469.01 C 1311.12 464.24 1303.64 462.41 1297.87 457.81 Z" />
<path fill="#85b4e0" opacity="1.00" d=" M 1225.31 464.77 C 1226.44 465.19 1227.61 465.59 1228.78 466.00 C 1228.82 469.17 1228.94 472.34 1228.87 475.52 C 1227.84 477.99 1227.02 480.92 1224.52 482.32 C 1223.77 482.10 1222.27 481.67 1221.52 481.45 C 1222.43 475.82 1223.79 470.27 1225.31 464.77 Z" />
<path fill="#85b4e0" opacity="1.00" d=" M 1259.45 477.12 C 1263.10 478.62 1267.11 477.91 1270.94 478.26 C 1274.17 480.73 1276.38 484.27 1279.23 487.14 C 1270.57 485.68 1262.25 482.77 1253.68 480.94 C 1255.56 479.61 1257.49 478.34 1259.45 477.12 Z" />
<path fill="#85b4e0" opacity="1.00" d=" M 644.64 519.35 C 656.74 518.59 668.88 519.19 681.00 518.99 C 703.90 519.24 726.80 520.48 749.61 522.68 C 755.01 531.67 762.66 541.39 773.96 542.26 C 786.27 542.43 797.88 537.68 809.26 533.57 C 813.56 535.70 818.64 537.29 821.39 541.53 C 822.91 543.82 821.55 546.88 819.56 548.42 C 814.42 552.63 807.89 554.49 801.64 556.33 C 782.51 561.54 762.73 563.77 743.04 565.65 C 694.46 569.78 645.53 569.76 596.93 565.94 C 574.02 563.76 550.84 561.44 528.85 554.35 C 523.54 552.18 516.32 550.26 514.66 544.00 C 515.27 539.80 519.23 537.48 522.72 535.82 C 532.61 531.27 543.38 529.20 554.01 527.17 C 558.45 536.40 565.33 544.55 574.30 549.65 C 588.08 557.49 604.47 558.73 620.01 558.33 C 632.35 558.08 644.88 553.58 653.36 544.38 C 654.91 542.73 655.77 539.82 654.09 537.98 C 652.23 536.91 649.94 537.08 647.90 536.69 C 647.58 530.79 646.59 524.93 644.64 519.35 Z" />
<path fill="#85b4e0" opacity="1.00" d=" M 382.27 532.74 C 387.29 532.06 392.37 531.85 397.44 532.07 C 394.66 535.79 389.67 538.27 385.03 537.00 C 383.12 536.52 382.79 534.31 382.27 532.74 Z" />
<path fill="#85b4e0" opacity="1.00" d=" M 418.74 542.64 C 421.44 540.06 424.48 537.85 427.75 536.04 C 432.86 535.71 437.98 535.62 443.10 535.48 C 448.36 537.11 454.15 537.92 458.58 541.43 C 459.83 542.57 461.60 543.95 460.93 545.89 C 460.11 548.54 457.53 549.98 455.18 551.10 C 448.17 554.26 440.47 555.42 432.92 556.56 C 411.05 559.51 388.76 559.29 366.93 556.07 C 359.77 554.83 352.38 553.54 345.99 549.91 C 344.18 548.77 341.79 546.95 342.43 544.51 C 343.62 541.02 347.48 539.82 350.35 538.09 C 351.33 541.06 352.27 544.21 354.36 546.62 C 357.40 549.83 361.99 550.64 366.16 551.32 C 378.69 552.73 390.67 546.42 399.15 537.59 C 401.99 539.59 405.10 541.19 407.83 543.35 C 407.98 545.64 406.46 547.81 405.77 549.98 C 414.22 551.01 422.75 550.90 431.25 551.03 C 434.17 550.89 437.35 551.40 440.04 550.02 C 442.13 548.68 441.26 545.61 439.22 544.72 C 435.74 543.26 431.84 543.61 428.16 543.32 C 425.01 543.17 421.87 542.92 418.74 542.64 Z" />
<path fill="#85b4e0" opacity="1.00" d=" M 934.08 550.32 C 951.95 549.82 969.85 550.19 987.72 549.67 C 989.01 555.96 989.62 562.76 993.88 567.92 C 996.49 569.07 999.36 569.46 1002.21 569.48 C 1002.88 569.46 1004.22 569.42 1004.90 569.40 C 1007.79 569.20 1010.69 568.78 1013.51 568.00 C 1014.27 567.76 1015.04 567.51 1015.82 567.25 C 1018.68 566.32 1021.30 564.68 1023.18 562.29 C 1023.30 558.45 1022.56 554.67 1021.56 550.99 C 1035.34 550.87 1049.29 551.00 1062.78 554.17 C 1072.38 555.98 1083.03 555.92 1091.02 562.36 C 1088.12 564.59 1084.86 566.38 1081.28 567.20 C 1071.65 569.55 1061.77 570.53 1051.99 572.02 C 1026.62 576.61 1000.71 576.35 975.02 576.33 C 942.93 576.51 910.80 575.58 878.85 572.45 C 867.65 571.09 856.23 570.25 845.51 566.50 C 843.53 565.97 842.26 564.33 841.05 562.82 C 843.47 560.53 846.52 559.09 849.77 558.41 C 866.27 554.44 883.28 553.49 900.13 551.95 C 899.19 555.30 898.74 558.79 898.99 562.28 C 900.98 564.57 903.52 566.36 906.43 567.30 C 907.27 567.56 908.12 567.81 909.00 568.04 C 911.65 568.67 914.36 569.03 917.09 569.31 C 917.80 569.36 919.22 569.45 919.93 569.50 C 922.74 569.50 925.59 569.05 928.11 567.75 C 932.27 562.89 933.04 556.38 934.08 550.32 Z" />
<path fill="#85b4e0" opacity="1.00" d=" M 82.87 561.82 C 123.44 559.22 164.13 559.15 204.75 560.36 C 206.00 561.59 207.35 562.74 208.83 563.69 C 209.48 562.70 210.08 561.69 210.62 560.65 C 222.65 560.96 234.68 561.61 246.66 562.80 C 249.13 564.34 251.60 565.90 254.00 567.57 C 258.56 570.97 263.20 574.42 268.58 576.41 C 272.44 577.87 276.59 578.23 280.67 578.57 C 273.21 580.16 265.64 581.12 258.06 581.93 C 236.15 584.15 214.13 585.28 192.12 585.81 C 182.76 586.33 173.38 585.62 164.03 586.32 C 143.00 585.83 121.94 586.04 100.92 584.93 C 79.50 583.75 57.96 582.70 36.88 578.48 C 32.38 577.38 27.22 576.80 24.31 572.73 C 27.39 569.14 32.21 568.30 36.58 567.31 C 51.82 564.13 67.38 563.01 82.87 561.82 Z" />
<path fill="#85b4e0" opacity="1.00" d=" M 266.25 564.93 C 274.52 565.93 283.00 566.87 290.70 570.25 C 292.28 570.76 292.68 572.49 293.42 573.77 C 290.20 575.95 286.54 577.35 282.75 578.14 C 278.12 572.68 270.66 570.68 266.25 564.93 Z" />
</g>
<g id="#ffffffff">
<path fill="#ffffff" opacity="1.00" d=" M 934.86 110.85 C 944.47 129.72 953.91 148.69 963.49 167.58 C 967.52 175.44 971.15 183.53 975.93 190.98 C 974.65 192.52 973.38 194.07 972.13 195.64 C 966.80 193.53 961.45 191.46 955.92 189.94 C 953.45 197.57 951.41 205.33 948.91 212.95 C 947.59 217.01 946.17 221.20 946.57 225.53 L 946.59 225.72 C 944.66 225.26 942.68 224.99 940.72 224.82 C 936.08 216.19 932.22 207.15 927.55 198.53 C 924.03 202.93 921.74 208.12 918.95 212.98 C 916.03 218.73 912.65 224.31 910.71 230.50 C 910.15 230.70 909.04 231.09 908.49 231.29 C 906.65 229.34 906.92 226.48 906.92 224.01 C 907.11 219.74 907.62 215.48 907.59 211.20 C 899.40 216.78 893.00 224.49 885.07 230.40 C 884.81 224.07 885.06 217.73 884.85 211.40 C 874.20 221.66 866.46 234.52 855.99 244.96 C 860.52 233.27 868.39 222.96 871.33 210.64 C 873.82 207.01 876.25 203.34 878.63 199.64 C 897.29 169.98 916.41 140.63 934.86 110.85 Z" />
<path fill="#ffffff" opacity="1.00" d=" M 1047.49 220.42 C 1058.55 204.88 1071.82 191.13 1083.80 176.33 C 1097.14 192.72 1110.25 209.30 1123.47 225.80 C 1121.49 225.94 1119.52 226.08 1117.57 226.23 C 1122.29 232.97 1129.00 238.04 1133.51 244.96 C 1124.83 245.29 1115.81 245.17 1107.82 241.32 C 1105.22 244.56 1102.93 248.12 1099.73 250.82 C 1098.78 251.55 1097.57 252.71 1096.40 251.66 C 1089.14 246.61 1085.12 238.36 1078.97 232.17 C 1072.59 240.71 1069.10 251.31 1061.13 258.66 C 1057.21 247.33 1056.07 235.34 1053.90 223.62 C 1051.52 225.14 1049.24 226.80 1047.15 228.68 C 1048.05 226.00 1048.42 223.15 1047.49 220.42 Z" />
</g>
<g id="#498fd0ff">
<path fill="#498fd0" opacity="1.00" d=" M 686.24 123.11 C 710.47 113.02 738.79 113.39 762.76 124.07 C 780.96 131.67 798.03 143.62 808.66 160.53 C 810.81 160.69 812.96 160.82 815.12 161.10 C 818.93 161.29 821.32 164.74 823.50 167.44 C 830.33 177.14 830.46 189.70 829.01 201.02 C 828.50 206.09 826.62 211.04 827.25 216.19 C 828.76 234.64 828.12 253.93 820.46 271.09 C 824.15 269.15 827.82 267.18 831.51 265.24 C 846.97 258.47 861.62 249.97 877.09 243.18 C 887.27 238.49 897.85 234.77 908.49 231.29 C 909.04 231.09 910.15 230.70 910.71 230.50 C 920.51 227.74 930.43 224.73 940.72 224.82 C 942.68 224.99 944.66 225.26 946.59 225.72 C 949.35 227.12 952.13 228.52 954.65 230.34 C 956.06 231.81 957.38 233.38 958.60 235.02 C 962.35 241.64 962.22 249.52 961.47 256.86 C 960.28 262.44 958.75 268.07 955.85 273.03 C 950.17 282.01 943.04 290.30 933.84 295.81 C 922.78 302.58 909.26 305.78 896.45 302.95 C 895.04 302.57 893.66 302.14 892.32 301.64 C 889.66 300.28 887.16 298.62 884.90 296.70 C 882.77 293.90 880.98 290.87 879.10 287.91 C 862.31 296.16 845.00 303.32 827.61 310.18 C 831.04 313.80 835.13 316.78 838.14 320.81 C 837.60 321.27 836.53 322.21 835.99 322.67 C 831.70 319.07 827.97 314.59 822.87 312.10 C 818.20 312.90 813.76 314.74 809.48 316.72 C 813.48 322.30 818.36 327.52 820.21 334.33 C 819.48 334.24 818.04 334.07 817.31 333.98 C 813.33 328.82 810.74 322.52 805.77 318.15 C 803.51 317.53 801.17 318.67 798.94 319.07 C 789.67 321.68 780.08 322.72 770.63 324.43 C 754.59 326.21 738.29 326.33 722.27 324.21 C 725.38 328.97 728.60 333.66 731.67 338.44 C 741.75 335.87 752.12 332.85 762.63 334.33 C 770.81 336.32 778.80 340.06 784.41 346.53 C 794.09 357.15 796.36 372.58 793.94 386.34 C 791.59 398.33 784.71 409.74 774.07 416.07 C 769.74 417.72 769.07 422.51 768.49 426.53 C 768.15 428.50 769.21 430.32 769.98 432.07 C 772.22 436.48 774.07 441.10 776.69 445.33 C 783.65 458.55 789.76 472.21 797.06 485.26 C 806.69 476.54 820.42 474.39 832.94 475.73 C 836.61 476.23 840.27 475.61 843.91 475.12 C 847.54 474.49 850.92 477.38 852.27 480.55 C 853.57 485.44 851.91 490.50 849.94 494.97 C 845.43 504.97 839.32 514.58 830.51 521.33 C 824.03 526.34 816.87 530.52 809.26 533.57 C 797.88 537.68 786.27 542.43 773.96 542.26 C 762.66 541.39 755.01 531.67 749.61 522.68 C 742.86 501.97 736.97 480.98 730.95 460.05 C 726.95 443.52 721.45 427.38 716.85 411.00 C 715.32 411.02 713.80 411.05 712.28 411.09 C 706.26 427.60 698.84 443.63 689.77 458.69 C 688.81 460.31 687.96 461.98 687.11 463.66 C 675.57 483.04 658.52 498.84 639.40 510.63 C 641.33 513.42 643.28 516.23 644.64 519.35 C 646.59 524.93 647.58 530.79 647.90 536.69 C 649.94 537.08 652.23 536.91 654.09 537.98 C 655.77 539.82 654.91 542.73 653.36 544.38 C 644.88 553.58 632.35 558.08 620.01 558.33 C 604.47 558.73 588.08 557.49 574.30 549.65 C 565.33 544.55 558.45 536.40 554.01 527.17 C 549.99 517.16 549.57 505.76 552.59 495.43 C 553.44 492.62 554.39 489.68 556.55 487.57 C 561.94 481.89 569.21 478.64 575.61 474.30 C 584.63 469.46 593.33 464.07 602.31 459.17 C 608.52 455.56 614.92 452.26 620.85 448.20 C 637.09 436.57 650.02 421.17 662.90 406.09 C 651.71 402.35 640.40 396.31 634.16 385.88 C 630.88 380.77 631.45 374.42 632.14 368.68 C 623.25 373.65 614.15 378.25 605.06 382.85 C 575.12 397.60 545.94 414.21 514.40 425.44 C 498.24 431.25 481.91 436.80 465.08 440.34 C 458.82 441.48 452.39 442.66 446.03 441.74 C 443.14 441.20 439.59 439.44 439.67 436.03 C 439.75 430.73 444.14 427.02 447.64 423.61 C 460.47 412.10 475.15 402.91 489.77 393.86 C 508.21 382.68 527.03 372.13 546.10 362.05 C 561.80 353.76 578.13 346.73 594.77 340.56 C 620.98 330.88 647.70 322.62 674.49 314.72 C 655.35 305.79 638.45 291.13 628.87 272.11 C 625.00 263.83 623.76 254.45 624.71 245.40 C 617.49 237.68 607.20 233.95 596.97 232.36 C 597.30 231.17 596.81 229.48 598.04 228.72 C 608.71 228.76 618.10 234.53 626.69 240.27 C 625.79 237.99 624.75 235.75 623.23 233.82 C 617.61 226.50 611.28 219.43 603.18 214.80 C 600.55 213.13 596.48 212.10 596.87 208.21 C 601.88 208.13 606.07 211.22 609.98 213.96 C 616.75 219.12 622.36 225.61 627.68 232.20 C 627.59 220.84 626.22 209.51 626.78 198.14 C 627.64 183.64 633.76 170.06 641.41 157.92 C 639.21 148.59 635.91 139.54 634.30 130.07 C 638.62 124.90 645.01 122.00 651.53 120.77 C 661.26 118.94 671.32 120.23 680.69 123.22 C 682.51 123.90 684.48 124.09 686.24 123.11 M 683.99 128.36 C 680.29 127.70 676.84 126.05 673.14 125.38 C 662.92 123.05 651.31 122.90 642.24 128.85 C 654.86 134.00 664.75 145.12 668.31 158.29 C 666.65 158.86 664.22 159.50 663.93 157.00 C 659.91 145.30 650.43 135.62 638.66 131.69 C 640.70 140.63 643.48 149.39 645.74 158.26 C 642.54 164.51 638.48 170.38 635.92 176.98 C 640.71 175.05 646.54 174.91 650.74 178.28 C 663.15 187.53 667.62 203.65 679.49 213.43 C 683.46 216.89 689.04 217.27 694.06 216.95 C 713.39 215.59 732.53 211.56 751.98 212.00 C 760.17 212.23 768.59 213.18 776.04 216.84 C 789.26 223.80 797.46 239.69 794.33 254.49 C 791.34 268.34 782.53 279.77 775.58 291.80 C 778.15 296.08 779.14 301.27 777.33 306.06 C 782.32 303.08 787.84 300.76 791.92 296.50 C 790.03 296.20 788.14 295.91 786.26 295.62 C 786.36 294.27 786.48 292.93 786.60 291.59 C 789.73 292.29 792.75 293.45 795.93 293.99 C 803.17 288.31 809.75 281.52 814.47 273.57 C 823.28 258.01 824.59 239.54 823.82 222.04 C 822.69 223.43 821.64 224.89 820.67 226.39 C 819.65 225.62 818.65 224.85 817.66 224.09 C 821.79 216.01 824.56 207.20 825.45 198.15 C 826.10 188.99 825.84 179.15 820.99 171.04 C 819.16 167.73 816.02 164.55 811.97 164.67 C 796.96 164.82 783.33 172.58 771.94 181.75 C 771.01 180.82 770.09 179.89 769.18 178.97 C 779.33 170.64 791.13 163.92 804.16 161.50 C 796.96 150.00 786.21 141.13 774.54 134.43 C 761.45 127.13 747.14 121.44 732.08 120.19 C 715.67 118.55 699.02 121.73 683.99 128.36 M 639.86 179.75 C 634.87 182.65 633.14 188.60 631.84 193.85 C 628.48 208.11 633.40 222.73 630.93 237.06 C 630.32 240.77 628.96 244.34 628.64 248.11 C 627.62 257.92 630.40 267.97 635.85 276.16 C 646.69 293.60 663.86 306.64 683.07 313.61 C 688.64 311.24 694.94 308.60 701.00 310.80 C 705.54 312.19 708.39 316.19 711.33 319.65 C 728.57 320.50 746.25 318.76 762.34 312.19 C 767.09 310.15 772.14 307.32 774.29 302.35 C 775.73 298.54 772.58 295.24 770.61 292.33 C 775.45 284.84 780.07 277.19 784.43 269.40 C 787.79 263.45 790.57 256.94 791.00 250.04 C 792.49 234.24 779.60 218.91 763.98 216.99 C 740.59 213.09 717.29 219.46 693.97 220.65 C 688.47 220.90 682.47 220.58 677.93 217.09 C 665.92 208.03 661.28 192.69 650.21 182.76 C 647.47 180.30 643.55 178.32 639.86 179.75 M 908.14 235.17 C 889.99 240.40 873.07 248.96 856.13 257.15 C 843.31 263.50 830.48 269.86 818.19 277.19 C 814.56 279.60 812.89 283.86 809.75 286.77 C 806.85 290.00 803.09 292.54 800.98 296.41 C 809.37 295.97 817.85 294.45 826.22 295.87 C 827.91 296.29 830.30 297.79 829.89 299.78 C 827.77 303.25 822.59 303.84 821.39 308.04 C 830.46 305.69 839.46 302.45 847.64 297.84 C 843.32 297.49 837.94 298.98 834.59 295.47 C 832.30 293.22 834.78 290.19 836.54 288.52 C 846.73 280.44 858.16 272.77 871.45 271.44 C 876.98 263.64 884.41 257.26 892.87 252.83 C 904.08 246.98 916.54 243.80 929.05 242.36 C 929.55 242.90 930.56 244.00 931.06 244.54 C 930.72 244.93 930.03 245.71 929.68 246.10 C 919.01 246.66 908.46 249.37 898.69 253.65 C 887.35 258.76 876.82 267.08 871.50 278.54 C 870.52 280.92 874.46 281.13 875.94 280.68 C 877.89 280.58 880.50 278.05 882.03 280.02 C 882.53 284.99 884.30 289.69 887.12 293.82 C 889.42 295.63 891.89 297.20 894.47 298.60 L 894.24 298.75 C 896.06 299.10 897.88 299.52 899.67 300.05 C 918.86 303.23 938.06 292.41 949.23 277.25 C 951.79 272.38 953.98 267.30 955.81 262.11 C 958.93 254.61 959.04 245.94 956.47 238.27 C 955.03 236.52 953.64 234.75 952.29 232.94 C 949.78 231.40 947.14 230.10 944.47 228.87 C 931.99 227.20 919.91 231.73 908.14 235.17 M 838.20 293.29 C 843.03 294.17 847.93 293.32 852.72 292.54 C 860.77 290.99 869.09 289.27 875.92 284.45 C 873.62 284.18 870.85 284.63 869.02 282.92 C 867.83 280.44 868.51 277.61 868.72 275.01 C 857.23 278.30 845.87 283.86 838.20 293.29 M 810.15 298.99 C 809.96 299.40 809.58 300.21 809.39 300.61 C 812.30 300.73 814.11 303.57 816.99 303.66 C 820.29 303.98 822.68 301.16 824.84 299.09 C 820.02 298.10 814.95 297.93 810.15 298.99 M 793.48 301.11 C 796.35 304.33 799.60 307.25 803.07 309.82 C 806.38 309.05 809.44 307.49 812.39 305.82 C 806.91 302.13 800.15 299.38 793.48 301.11 M 773.40 312.38 C 766.52 315.41 759.44 318.09 752.09 319.76 C 750.53 320.10 748.93 320.47 747.71 321.54 C 755.48 322.09 763.20 320.74 770.94 320.26 C 773.33 320.11 775.79 320.13 778.09 319.34 C 785.20 317.01 792.12 314.14 799.22 311.75 C 796.40 308.25 792.70 305.66 789.05 303.10 C 784.63 307.40 778.90 309.80 773.40 312.38 M 806.73 312.76 C 810.78 312.42 815.91 312.01 818.18 308.12 C 814.11 308.93 810.28 310.64 806.73 312.76 M 677.40 321.36 C 661.00 331.95 646.73 346.49 638.38 364.29 C 635.63 370.16 634.03 377.52 637.51 383.43 C 642.07 390.85 649.39 396.28 657.38 399.57 C 668.71 404.15 680.85 406.42 693.00 407.42 C 712.41 409.54 731.74 405.53 751.06 404.12 C 753.36 404.08 755.14 406.15 756.05 408.07 C 757.70 413.55 753.56 419.11 755.53 424.59 C 756.74 428.44 762.36 428.51 764.82 425.89 C 766.78 423.34 766.44 419.90 766.72 416.89 C 775.08 411.87 783.13 405.41 787.14 396.26 C 792.22 384.28 793.05 370.15 787.91 358.05 C 782.53 345.03 768.12 336.15 754.03 338.05 C 740.71 339.50 727.89 343.73 714.88 346.72 C 700.09 350.13 684.79 353.96 669.56 351.39 C 670.14 350.24 669.76 347.42 671.87 347.96 C 676.85 348.26 681.84 348.49 686.83 348.28 C 689.05 339.51 693.70 331.39 699.70 324.67 C 700.26 325.82 702.95 327.04 701.57 328.50 C 696.85 334.19 692.97 340.66 690.91 347.80 C 698.61 346.37 706.31 344.90 713.92 343.00 C 713.15 338.68 712.16 334.40 711.61 330.04 C 712.50 329.97 714.28 329.82 715.16 329.75 C 716.03 333.77 716.90 337.78 717.61 341.83 C 720.87 341.32 724.09 340.60 727.30 339.85 C 724.22 333.99 720.25 328.68 716.52 323.23 C 713.80 323.03 711.65 324.71 709.54 326.14 C 707.44 320.49 703.43 314.39 696.89 313.73 C 689.73 313.92 683.35 317.73 677.40 321.36 M 658.73 323.81 C 663.34 323.21 668.78 323.41 672.33 319.93 C 667.64 320.54 663.10 322.05 658.73 323.81 M 635.01 336.14 C 631.73 337.67 628.21 338.86 625.42 341.24 C 633.47 340.66 640.96 337.35 648.45 334.62 C 653.48 332.43 659.25 331.25 663.09 327.03 C 653.39 328.79 644.10 332.38 635.01 336.14 M 574.73 352.63 C 559.27 358.83 544.83 367.22 530.24 375.18 C 523.24 378.32 516.77 382.47 510.02 386.07 C 507.19 387.89 503.67 388.97 501.75 391.90 C 507.01 389.89 511.97 387.13 517.38 385.49 C 520.14 384.64 523.34 383.57 526.12 384.90 C 528.53 386.24 527.48 389.34 526.12 391.07 C 523.05 395.03 518.95 398.02 515.02 401.06 C 504.53 408.74 493.06 415.08 481.09 420.15 C 476.93 421.82 472.56 423.47 468.00 423.33 C 465.76 423.26 464.02 420.25 465.44 418.35 C 467.41 414.80 471.19 412.72 473.13 409.16 C 467.97 411.70 463.57 415.48 459.05 418.98 C 453.61 423.55 447.45 427.67 443.75 433.91 C 443.09 434.96 443.05 436.80 444.38 437.35 C 447.39 438.48 450.70 438.52 453.86 438.18 C 471.90 436.21 489.16 430.21 506.25 424.39 C 526.48 417.52 545.96 408.63 564.99 398.95 C 581.06 390.77 597.17 382.65 613.09 374.17 C 619.93 370.71 626.81 367.29 633.41 363.37 C 635.36 362.25 636.02 359.92 637.17 358.11 C 641.07 350.77 646.35 344.33 651.36 337.75 C 641.36 340.68 631.63 345.24 621.05 345.64 C 618.68 345.81 617.27 342.62 619.04 341.07 C 625.17 335.16 634.24 333.96 641.04 329.16 C 618.57 335.85 596.50 343.90 574.73 352.63 M 486.06 405.13 C 479.83 409.51 472.74 413.39 468.70 420.09 C 484.79 416.50 499.08 407.70 512.49 398.45 C 516.56 395.27 521.38 392.52 523.72 387.69 C 509.98 390.42 497.80 397.84 486.06 405.13 M 622.78 451.80 C 613.02 457.83 602.82 463.11 592.95 468.95 C 585.33 473.73 577.22 477.67 569.78 482.77 C 565.57 485.77 560.34 488.04 557.79 492.79 C 555.20 499.11 554.25 506.09 554.82 512.89 C 555.72 520.74 557.62 528.91 562.85 535.08 C 572.04 546.73 587.06 554.00 601.93 553.24 C 616.55 550.52 630.26 544.43 643.87 538.63 C 645.45 526.45 639.73 513.09 628.28 507.76 C 614.96 502.20 600.05 502.65 586.02 504.70 C 585.54 503.89 584.56 502.28 584.08 501.47 C 601.37 498.13 620.90 497.81 636.12 507.95 C 654.01 496.83 670.17 482.44 681.69 464.68 C 693.01 448.39 701.50 430.30 708.31 411.72 C 702.82 411.37 697.32 411.78 691.85 411.19 C 683.53 410.50 675.38 408.62 667.13 407.45 C 653.54 423.31 640.11 439.82 622.78 451.80 M 731.08 409.96 C 739.55 422.06 741.96 437.86 738.07 452.04 C 736.62 452.75 735.16 453.43 733.69 454.07 C 733.53 459.01 736.39 463.25 737.34 467.98 C 737.70 470.94 741.15 471.25 743.11 472.87 C 750.54 478.23 754.07 487.25 756.30 495.82 C 758.51 504.31 760.57 513.09 759.43 521.91 C 759.12 523.85 757.76 525.37 756.97 527.12 C 757.10 528.61 758.47 529.54 759.38 530.62 C 763.56 534.78 768.76 538.92 775.00 538.72 C 786.99 538.45 798.43 534.12 809.26 529.31 C 821.86 523.53 834.12 515.35 841.11 503.04 C 844.55 496.85 848.85 490.48 848.63 483.11 C 848.58 480.38 845.49 478.34 842.95 479.19 C 840.70 479.61 838.47 480.55 836.16 480.14 C 830.16 479.35 824.05 478.90 818.06 479.95 C 810.91 480.97 803.49 483.94 799.16 489.96 C 800.46 492.52 802.20 494.82 803.77 497.23 C 802.72 498.02 801.68 498.82 800.65 499.62 C 787.14 477.46 776.72 453.60 765.34 430.31 C 761.47 431.16 756.49 431.82 753.65 428.36 C 750.10 423.18 752.24 416.70 752.95 411.01 C 753.52 409.26 751.90 407.21 750.03 407.81 C 743.69 408.33 737.31 408.66 731.08 409.96 M 720.42 410.64 C 723.63 422.15 727.17 433.55 730.45 445.03 C 731.05 447.53 732.87 449.49 735.19 450.55 C 737.43 437.49 736.29 422.82 727.98 411.98 C 726.43 409.15 722.94 410.51 720.42 410.64 M 739.74 475.23 C 743.30 488.70 747.59 501.97 751.39 515.37 C 752.12 518.15 753.12 520.86 754.41 523.44 C 754.69 523.09 755.25 522.38 755.53 522.03 C 756.99 514.26 754.86 506.43 753.15 498.88 C 750.92 490.08 747.82 480.39 739.74 475.23 M 617.97 552.57 C 616.35 552.99 614.83 553.70 613.63 554.88 C 627.14 554.97 642.99 552.13 651.24 540.29 C 639.88 543.66 629.32 549.21 617.97 552.57 Z" />
<path fill="#498fd0" opacity="1.00" d=" M 786.88 177.06 C 792.94 173.05 799.73 169.74 807.05 169.07 C 811.19 169.61 812.79 174.30 813.11 177.90 C 814.33 189.40 813.62 201.01 812.19 212.45 C 811.29 212.39 809.51 212.28 808.61 212.22 C 809.46 201.20 810.87 190.10 809.47 179.07 C 809.19 176.74 808.28 174.56 807.26 172.48 C 800.47 173.79 794.42 177.14 788.30 180.17 C 787.82 179.13 787.35 178.10 786.88 177.06 Z" />
<path fill="#498fd0" opacity="1.00" d=" M 666.18 277.21 C 669.78 275.79 673.76 277.13 677.01 278.86 C 680.13 280.61 683.33 282.72 685.06 285.96 C 685.90 287.71 686.33 290.36 684.60 291.71 C 682.64 293.42 679.79 293.04 677.49 292.40 C 672.55 291.09 667.95 288.14 665.04 283.91 C 663.59 281.87 663.57 278.31 666.18 277.21 M 667.85 280.05 C 669.80 286.02 676.58 288.87 682.43 289.17 C 679.63 283.71 673.70 280.87 667.85 280.05 Z" />
<path fill="#498fd0" opacity="1.00" d=" M 565.99 357.91 C 575.30 353.26 584.91 349.08 594.95 346.30 C 598.28 345.27 602.23 345.16 604.66 348.07 C 602.40 350.99 599.84 353.75 596.64 355.65 C 584.54 363.29 571.44 369.33 557.92 374.00 C 554.16 375.35 550.19 376.03 546.20 376.00 C 545.51 374.66 544.83 373.31 544.15 371.99 C 550.35 365.78 558.29 361.88 565.99 357.91 M 563.24 363.18 C 558.56 365.83 553.53 368.11 549.72 372.02 C 551.53 371.93 553.34 371.64 555.08 371.12 C 570.60 366.59 584.94 358.86 598.69 350.51 C 598.73 350.18 598.81 349.52 598.85 349.20 L 598.00 348.59 C 586.11 352.58 574.28 357.13 563.24 363.18 Z" />
</g>
<g id="#333333ff">
<path fill="#333333" opacity="1.00" d=" M 683.99 128.36 C 699.02 121.73 715.67 118.55 732.08 120.19 C 747.14 121.44 761.45 127.13 774.54 134.43 C 786.21 141.13 796.96 150.00 804.16 161.50 C 791.13 163.92 779.33 170.64 769.18 178.97 C 770.09 179.89 771.01 180.82 771.94 181.75 C 783.33 172.58 796.96 164.82 811.97 164.67 C 816.02 164.55 819.16 167.73 820.99 171.04 C 825.84 179.15 826.10 188.99 825.45 198.15 C 824.56 207.20 821.79 216.01 817.66 224.09 C 818.65 224.85 819.65 225.62 820.67 226.39 C 821.64 224.89 822.69 223.43 823.82 222.04 C 824.59 239.54 823.28 258.01 814.47 273.57 C 809.75 281.52 803.17 288.31 795.93 293.99 C 792.75 293.45 789.73 292.29 786.60 291.59 C 786.48 292.93 786.36 294.27 786.26 295.62 C 788.14 295.91 790.03 296.20 791.92 296.50 C 787.84 300.76 782.32 303.08 777.33 306.06 C 779.14 301.27 778.15 296.08 775.58 291.80 C 782.53 279.77 791.34 268.34 794.33 254.49 C 797.46 239.69 789.26 223.80 776.04 216.84 C 768.59 213.18 760.17 212.23 751.98 212.00 C 732.53 211.56 713.39 215.59 694.06 216.95 C 689.04 217.27 683.46 216.89 679.49 213.43 C 667.62 203.65 663.15 187.53 650.74 178.28 C 646.54 174.91 640.71 175.05 635.92 176.98 C 638.48 170.38 642.54 164.51 645.74 158.26 C 643.48 149.39 640.70 140.63 638.66 131.69 C 650.43 135.62 659.91 145.30 663.93 157.00 C 664.22 159.50 666.65 158.86 668.31 158.29 C 664.75 145.12 654.86 134.00 642.24 128.85 C 651.31 122.90 662.92 123.05 673.14 125.38 C 676.84 126.05 680.29 127.70 683.99 128.36 M 786.88 177.06 C 787.35 178.10 787.82 179.13 788.30 180.17 C 794.42 177.14 800.47 173.79 807.26 172.48 C 808.28 174.56 809.19 176.74 809.47 179.07 C 810.87 190.10 809.46 201.20 808.61 212.22 C 809.51 212.28 811.29 212.39 812.19 212.45 C 813.62 201.01 814.33 189.40 813.11 177.90 C 812.79 174.30 811.19 169.61 807.05 169.07 C 799.73 169.74 792.94 173.05 786.88 177.06 Z" />
<path fill="#333333" opacity="1.00" d=" M 639.86 179.75 C 643.55 178.32 647.47 180.30 650.21 182.76 C 661.28 192.69 665.92 208.03 677.93 217.09 C 682.47 220.58 688.47 220.90 693.97 220.65 C 717.29 219.46 740.59 213.09 763.98 216.99 C 779.60 218.91 792.49 234.24 791.00 250.04 C 790.57 256.94 787.79 263.45 784.43 269.40 C 780.07 277.19 775.45 284.84 770.61 292.33 C 772.58 295.24 775.73 298.54 774.29 302.35 C 772.14 307.32 767.09 310.15 762.34 312.19 C 746.25 318.76 728.57 320.50 711.33 319.65 C 708.39 316.19 705.54 312.19 701.00 310.80 C 694.94 308.60 688.64 311.24 683.07 313.61 C 663.86 306.64 646.69 293.60 635.85 276.16 C 630.40 267.97 627.62 257.92 628.64 248.11 C 628.96 244.34 630.32 240.77 630.93 237.06 C 633.40 222.73 628.48 208.11 631.84 193.85 C 633.14 188.60 634.87 182.65 639.86 179.75 M 666.18 277.21 C 663.57 278.31 663.59 281.87 665.04 283.91 C 667.95 288.14 672.55 291.09 677.49 292.40 C 679.79 293.04 682.64 293.42 684.60 291.71 C 686.33 290.36 685.90 287.71 685.06 285.96 C 683.33 282.72 680.13 280.61 677.01 278.86 C 673.76 277.13 669.78 275.79 666.18 277.21 Z" />
<path fill="#333333" opacity="1.00" d=" M 908.14 235.17 C 919.91 231.73 931.99 227.20 944.47 228.87 C 940.32 234.36 935.97 239.72 931.06 244.54 C 930.56 244.00 929.55 242.90 929.05 242.36 C 916.54 243.80 904.08 246.98 892.87 252.83 C 884.41 257.26 876.98 263.64 871.45 271.44 C 858.16 272.77 846.73 280.44 836.54 288.52 C 834.78 290.19 832.30 293.22 834.59 295.47 C 837.94 298.98 843.32 297.49 847.64 297.84 C 839.46 302.45 830.46 305.69 821.39 308.04 C 822.59 303.84 827.77 303.25 829.89 299.78 C 830.30 297.79 827.91 296.29 826.22 295.87 C 817.85 294.45 809.37 295.97 800.98 296.41 C 803.09 292.54 806.85 290.00 809.75 286.77 C 812.89 283.86 814.56 279.60 818.19 277.19 C 830.48 269.86 843.31 263.50 856.13 257.15 C 873.07 248.96 889.99 240.40 908.14 235.17 Z" />
<path fill="#333333" opacity="1.00" d=" M 945.95 249.02 C 949.32 245.31 952.34 241.21 956.47 238.27 C 959.04 245.94 958.93 254.61 955.81 262.11 C 953.98 267.30 951.79 272.38 949.23 277.25 C 938.06 292.41 918.86 303.23 899.67 300.05 C 905.73 292.69 912.40 285.86 918.84 278.84 C 928.42 269.41 936.99 259.03 945.95 249.02 Z" />
<path fill="#333333" opacity="1.00" d=" M 898.69 253.65 C 908.46 249.37 919.01 246.66 929.68 246.10 C 921.12 257.30 911.65 267.76 902.22 278.21 C 896.89 283.14 892.90 289.39 887.12 293.82 C 884.30 289.69 882.53 284.99 882.03 280.02 C 880.50 278.05 877.89 280.58 875.94 280.68 C 874.46 281.13 870.52 280.92 871.50 278.54 C 876.82 267.08 887.35 258.76 898.69 253.65 Z" />
<path fill="#333333" opacity="1.00" d=" M 838.20 293.29 C 845.87 283.86 857.23 278.30 868.72 275.01 C 868.51 277.61 867.83 280.44 869.02 282.92 C 870.85 284.63 873.62 284.18 875.92 284.45 C 869.09 289.27 860.77 290.99 852.72 292.54 C 847.93 293.32 843.03 294.17 838.20 293.29 Z" />
<path fill="#333333" opacity="1.00" d=" M 667.85 280.05 C 673.70 280.87 679.63 283.71 682.43 289.17 C 676.58 288.87 669.80 286.02 667.85 280.05 Z" />
<path fill="#333333" opacity="1.00" d=" M 810.15 298.99 C 814.95 297.93 820.02 298.10 824.84 299.09 C 822.68 301.16 820.29 303.98 816.99 303.66 C 814.11 303.57 812.30 300.73 809.39 300.61 C 809.58 300.21 809.96 299.40 810.15 298.99 Z" />
<path fill="#333333" opacity="1.00" d=" M 793.48 301.11 C 800.15 299.38 806.91 302.13 812.39 305.82 C 809.44 307.49 806.38 309.05 803.07 309.82 C 799.60 307.25 796.35 304.33 793.48 301.11 Z" />
<path fill="#333333" opacity="1.00" d=" M 773.40 312.38 C 778.90 309.80 784.63 307.40 789.05 303.10 C 792.70 305.66 796.40 308.25 799.22 311.75 C 792.12 314.14 785.20 317.01 778.09 319.34 C 775.79 320.13 773.33 320.11 770.94 320.26 C 763.20 320.74 755.48 322.09 747.71 321.54 C 748.93 320.47 750.53 320.10 752.09 319.76 C 759.44 318.09 766.52 315.41 773.40 312.38 Z" />
<path fill="#333333" opacity="1.00" d=" M 806.73 312.76 C 810.28 310.64 814.11 308.93 818.18 308.12 C 815.91 312.01 810.78 312.42 806.73 312.76 Z" />
<path fill="#333333" opacity="1.00" d=" M 677.40 321.36 C 683.35 317.73 689.73 313.92 696.89 313.73 C 703.43 314.39 707.44 320.49 709.54 326.14 C 711.65 324.71 713.80 323.03 716.52 323.23 C 720.25 328.68 724.22 333.99 727.30 339.85 C 724.09 340.60 720.87 341.32 717.61 341.83 C 716.90 337.78 716.03 333.77 715.16 329.75 C 714.28 329.82 712.50 329.97 711.61 330.04 C 712.16 334.40 713.15 338.68 713.92 343.00 C 706.31 344.90 698.61 346.37 690.91 347.80 C 692.97 340.66 696.85 334.19 701.57 328.50 C 702.95 327.04 700.26 325.82 699.70 324.67 C 693.70 331.39 689.05 339.51 686.83 348.28 C 681.84 348.49 676.85 348.26 671.87 347.96 C 669.76 347.42 670.14 350.24 669.56 351.39 C 684.79 353.96 700.09 350.13 714.88 346.72 C 727.89 343.73 740.71 339.50 754.03 338.05 C 768.12 336.15 782.53 345.03 787.91 358.05 C 793.05 370.15 792.22 384.28 787.14 396.26 C 783.13 405.41 775.08 411.87 766.72 416.89 C 766.44 419.90 766.78 423.34 764.82 425.89 C 762.36 428.51 756.74 428.44 755.53 424.59 C 753.56 419.11 757.70 413.55 756.05 408.07 C 755.14 406.15 753.36 404.08 751.06 404.12 C 731.74 405.53 712.41 409.54 693.00 407.42 C 680.85 406.42 668.71 404.15 657.38 399.57 C 649.39 396.28 642.07 390.85 637.51 383.43 C 634.03 377.52 635.63 370.16 638.38 364.29 C 646.73 346.49 661.00 331.95 677.40 321.36 Z" />
<path fill="#333333" opacity="1.00" d=" M 658.73 323.81 C 663.10 322.05 667.64 320.54 672.33 319.93 C 668.78 323.41 663.34 323.21 658.73 323.81 Z" />
<path fill="#333333" opacity="1.00" d=" M 574.73 352.63 C 596.50 343.90 618.57 335.85 641.04 329.16 C 634.24 333.96 625.17 335.16 619.04 341.07 C 617.27 342.62 618.68 345.81 621.05 345.64 C 631.63 345.24 641.36 340.68 651.36 337.75 C 646.35 344.33 641.07 350.77 637.17 358.11 C 636.02 359.92 635.36 362.25 633.41 363.37 C 626.81 367.29 619.93 370.71 613.09 374.17 C 597.17 382.65 581.06 390.77 564.99 398.95 C 545.96 408.63 526.48 417.52 506.25 424.39 C 489.16 430.21 471.90 436.21 453.86 438.18 C 450.70 438.52 447.39 438.48 444.38 437.35 C 443.05 436.80 443.09 434.96 443.75 433.91 C 447.45 427.67 453.61 423.55 459.05 418.98 C 463.57 415.48 467.97 411.70 473.13 409.16 C 471.19 412.72 467.41 414.80 465.44 418.35 C 464.02 420.25 465.76 423.26 468.00 423.33 C 472.56 423.47 476.93 421.82 481.09 420.15 C 493.06 415.08 504.53 408.74 515.02 401.06 C 518.95 398.02 523.05 395.03 526.12 391.07 C 527.48 389.34 528.53 386.24 526.12 384.90 C 523.34 383.57 520.14 384.64 517.38 385.49 C 511.97 387.13 507.01 389.89 501.75 391.90 C 503.67 388.97 507.19 387.89 510.02 386.07 C 516.77 382.47 523.24 378.32 530.24 375.18 C 544.83 367.22 559.27 358.83 574.73 352.63 M 565.99 357.91 C 558.29 361.88 550.35 365.78 544.15 371.99 C 544.83 373.31 545.51 374.66 546.20 376.00 C 550.19 376.03 554.16 375.35 557.92 374.00 C 571.44 369.33 584.54 363.29 596.64 355.65 C 599.84 353.75 602.40 350.99 604.66 348.07 C 602.23 345.16 598.28 345.27 594.95 346.30 C 584.91 349.08 575.30 353.26 565.99 357.91 Z" />
<path fill="#333333" opacity="1.00" d=" M 622.78 451.80 C 640.11 439.82 653.54 423.31 667.13 407.45 C 675.38 408.62 683.53 410.50 691.85 411.19 C 697.32 411.78 702.82 411.37 708.31 411.72 C 701.50 430.30 693.01 448.39 681.69 464.68 C 670.17 482.44 654.01 496.83 636.12 507.95 C 620.90 497.81 601.37 498.13 584.08 501.47 C 584.56 502.28 585.54 503.89 586.02 504.70 C 600.05 502.65 614.96 502.20 628.28 507.76 C 639.73 513.09 645.45 526.45 643.87 538.63 C 630.26 544.43 616.55 550.52 601.93 553.24 C 587.06 554.00 572.04 546.73 562.85 535.08 C 557.62 528.91 555.72 520.74 554.82 512.89 C 554.25 506.09 555.20 499.11 557.79 492.79 C 560.34 488.04 565.57 485.77 569.78 482.77 C 577.22 477.67 585.33 473.73 592.95 468.95 C 602.82 463.11 613.02 457.83 622.78 451.80 Z" />
<path fill="#333333" opacity="1.00" d=" M 731.08 409.96 C 737.31 408.66 743.69 408.33 750.03 407.81 C 751.90 407.21 753.52 409.26 752.95 411.01 C 752.24 416.70 750.10 423.18 753.65 428.36 C 756.49 431.82 761.47 431.16 765.34 430.31 C 776.72 453.60 787.14 477.46 800.65 499.62 C 801.68 498.82 802.72 498.02 803.77 497.23 C 802.20 494.82 800.46 492.52 799.16 489.96 C 803.49 483.94 810.91 480.97 818.06 479.95 C 824.05 478.90 830.16 479.35 836.16 480.14 C 838.47 480.55 840.70 479.61 842.95 479.19 C 845.49 478.34 848.58 480.38 848.63 483.11 C 848.85 490.48 844.55 496.85 841.11 503.04 C 834.12 515.35 821.86 523.53 809.26 529.31 C 798.43 534.12 786.99 538.45 775.00 538.72 C 768.76 538.92 763.56 534.78 759.38 530.62 C 758.47 529.54 757.10 528.61 756.97 527.12 C 757.76 525.37 759.12 523.85 759.43 521.91 C 760.57 513.09 758.51 504.31 756.30 495.82 C 754.07 487.25 750.54 478.23 743.11 472.87 C 741.15 471.25 737.70 470.94 737.34 467.98 C 736.39 463.25 733.53 459.01 733.69 454.07 C 735.16 453.43 736.62 452.75 738.07 452.04 C 741.96 437.86 739.55 422.06 731.08 409.96 Z" />
<path fill="#333333" opacity="1.00" d=" M 720.42 410.64 C 722.94 410.51 726.43 409.15 727.98 411.98 C 736.29 422.82 737.43 437.49 735.19 450.55 C 732.87 449.49 731.05 447.53 730.45 445.03 C 727.17 433.55 723.63 422.15 720.42 410.64 Z" />
<path fill="#333333" opacity="1.00" d=" M 712.28 411.09 C 713.80 411.05 715.32 411.02 716.85 411.00 C 721.45 427.38 726.95 443.52 730.95 460.05 C 730.80 459.64 730.48 458.81 730.33 458.39 C 727.54 458.64 724.77 459.02 722.01 459.39 C 721.58 458.91 720.72 457.94 720.28 457.45 C 709.30 459.90 698.19 461.70 687.11 463.66 C 687.96 461.98 688.81 460.31 689.77 458.69 C 698.84 443.63 706.26 427.60 712.28 411.09 Z" />
<path fill="#333333" opacity="1.00" d=" M 1120.47 465.92 C 1126.85 473.93 1129.48 484.02 1133.46 493.28 C 1134.69 496.36 1136.12 499.36 1137.75 502.25 C 1138.30 499.43 1138.78 496.59 1139.13 493.74 C 1139.99 485.67 1138.30 477.63 1138.45 469.56 C 1140.37 472.90 1141.86 476.47 1143.35 480.03 C 1145.15 484.38 1147.30 488.58 1149.01 492.97 C 1150.29 496.09 1151.17 499.41 1153.02 502.27 C 1156.75 494.18 1157.81 485.13 1161.52 477.01 C 1161.59 483.55 1161.57 490.09 1161.79 496.63 C 1161.64 501.60 1161.36 506.61 1162.31 511.53 C 1157.93 523.51 1154.89 535.93 1151.10 548.10 C 1143.50 546.71 1134.98 548.21 1128.26 543.71 C 1122.47 539.42 1116.77 535.02 1110.97 530.75 C 1113.02 524.97 1115.31 518.69 1113.63 512.53 C 1111.38 505.12 1105.48 499.79 1100.99 493.76 C 1099.67 490.02 1098.61 486.19 1097.17 482.50 C 1103.87 484.60 1109.83 488.38 1115.59 492.31 C 1119.52 494.92 1123.08 498.05 1126.64 501.15 C 1126.01 498.44 1125.41 495.72 1125.00 492.98 C 1123.95 483.88 1121.75 474.97 1120.47 465.92 Z" />
<path fill="#333333" opacity="1.00" d=" M 1180.93 489.31 C 1185.87 483.22 1188.52 475.68 1192.96 469.25 C 1194.00 475.55 1193.86 481.97 1193.14 488.29 C 1194.42 488.81 1195.87 489.12 1197.04 489.97 C 1196.87 490.12 1196.53 490.41 1196.37 490.56 C 1195.41 489.96 1194.39 489.73 1193.30 489.85 C 1193.22 490.32 1193.05 491.27 1192.97 491.74 C 1186.97 495.96 1180.53 499.50 1174.39 503.50 C 1175.15 499.41 1177.82 496.08 1179.62 492.42 C 1180.21 491.45 1180.65 490.41 1180.93 489.31 Z" />
<path fill="#333333" opacity="1.00" d=" M 739.74 475.23 C 747.82 480.39 750.92 490.08 753.15 498.88 C 754.86 506.43 756.99 514.26 755.53 522.03 C 755.25 522.38 754.69 523.09 754.41 523.44 C 753.12 520.86 752.12 518.15 751.39 515.37 C 747.59 501.97 743.30 488.70 739.74 475.23 Z" />
<path fill="#333333" opacity="1.00" d=" M 617.97 552.57 C 629.32 549.21 639.88 543.66 651.24 540.29 C 642.99 552.13 627.14 554.97 613.63 554.88 C 614.83 553.70 616.35 552.99 617.97 552.57 Z" />
</g>
<g id="#494949ff">
<path fill="#494949" opacity="1.00" d=" M 1015.83 140.86 C 1016.98 139.51 1018.15 137.78 1020.09 137.59 C 1025.20 136.75 1029.85 139.95 1033.10 143.58 C 1022.99 154.96 1012.55 166.04 1001.63 176.64 C 991.74 186.13 983.13 196.80 974.08 207.07 C 967.40 214.66 960.76 222.29 954.65 230.34 C 952.13 228.52 949.35 227.12 946.59 225.72 L 946.57 225.53 C 955.88 216.28 963.68 205.66 972.13 195.64 C 973.38 194.07 974.65 192.52 975.93 190.98 C 989.41 174.42 1003.29 158.15 1015.83 140.86 Z" />
<path fill="#494949" opacity="1.00" d=" M 1177.70 222.84 C 1183.88 225.71 1189.19 230.36 1193.01 235.99 C 1194.13 237.36 1193.48 239.20 1193.41 240.80 C 1192.56 246.67 1191.77 252.54 1191.02 258.43 C 1188.10 258.68 1185.19 259.05 1182.29 259.38 C 1180.49 259.31 1178.73 259.18 1176.96 259.06 C 1177.05 246.99 1176.10 234.84 1177.70 222.84 Z" />
<path fill="#494949" opacity="1.00" d=" M 944.47 228.87 C 947.14 230.10 949.78 231.40 952.29 232.94 C 935.46 253.49 917.30 272.90 900.26 293.27 C 898.62 295.34 896.74 297.23 894.47 298.60 C 891.89 297.20 889.42 295.63 887.12 293.82 C 892.90 289.39 896.89 283.14 902.22 278.21 C 911.65 267.76 921.12 257.30 929.68 246.10 C 930.03 245.71 930.72 244.93 931.06 244.54 C 935.97 239.72 940.32 234.36 944.47 228.87 Z" />
<path fill="#494949" opacity="1.00" d=" M 1154.05 307.91 C 1153.92 303.87 1152.17 298.06 1156.82 295.92 C 1157.01 299.58 1156.98 303.24 1156.86 306.90 C 1155.91 307.23 1154.97 307.57 1154.05 307.91 Z" />
<path fill="#494949" opacity="1.00" d=" M 849.02 334.03 C 860.97 321.58 873.20 309.39 884.90 296.70 C 887.16 298.62 889.66 300.28 892.32 301.64 C 881.12 314.99 869.44 327.93 857.92 340.99 C 842.97 357.70 828.37 374.73 812.61 390.69 C 805.92 397.32 799.40 404.12 793.02 411.06 C 791.04 413.22 788.68 415.10 787.22 417.68 C 788.79 420.19 790.75 422.42 792.50 424.81 C 791.66 425.82 790.91 426.91 789.90 427.76 C 782.73 427.79 776.53 422.61 774.07 416.07 C 784.71 409.74 791.59 398.33 793.94 386.34 C 798.48 382.81 802.81 379.03 807.04 375.13 C 821.32 361.72 835.39 348.10 849.02 334.03 Z" />
<path fill="#494949" opacity="1.00" d=" M 1191.57 308.12 C 1193.04 308.14 1194.52 308.17 1196.01 308.20 C 1194.54 319.53 1192.44 330.76 1191.03 342.10 C 1190.57 342.35 1189.66 342.84 1189.21 343.08 C 1183.25 340.94 1177.28 338.86 1171.36 336.64 C 1165.24 334.63 1159.40 331.52 1152.98 330.62 C 1150.85 335.12 1151.38 340.41 1150.04 345.19 C 1148.61 343.43 1147.23 341.63 1145.97 339.76 C 1148.15 335.20 1148.69 330.14 1149.44 325.21 C 1161.82 329.13 1173.74 334.56 1186.37 337.66 C 1188.29 327.85 1188.61 317.69 1191.57 308.12 Z" />
<path fill="#494949" opacity="1.00" d=" M 1105.40 375.99 C 1121.27 377.89 1137.18 379.54 1153.07 381.28 C 1162.10 382.48 1171.30 382.69 1180.19 384.88 C 1182.62 388.40 1185.46 392.20 1184.71 396.77 C 1181.89 396.67 1179.07 396.54 1176.26 396.40 C 1177.09 423.60 1177.72 450.80 1178.31 478.00 C 1178.28 481.75 1178.53 485.49 1178.85 489.22 C 1178.33 490.49 1178.59 491.56 1179.62 492.42 C 1177.82 496.08 1175.15 499.41 1174.39 503.50 C 1171.25 505.41 1168.32 507.62 1165.32 509.73 C 1164.31 510.34 1163.31 510.94 1162.31 511.53 C 1161.36 506.61 1161.64 501.60 1161.79 496.63 C 1162.63 495.19 1163.63 493.76 1163.88 492.06 C 1165.95 479.46 1167.95 466.78 1168.28 453.99 C 1168.59 441.66 1168.46 429.30 1167.28 417.02 C 1166.67 409.71 1167.35 402.38 1166.87 395.07 C 1163.20 394.20 1159.47 393.60 1155.75 393.10 C 1138.97 390.68 1122.23 387.99 1105.43 385.77 C 1105.31 382.51 1105.25 379.25 1105.40 375.99 Z" />
</g>
<g id="#6f6f6fff">
<path fill="#6f6f6f" opacity="1.00" d=" M 1001.63 176.64 C 1012.55 166.04 1022.99 154.96 1033.10 143.58 C 1033.81 146.44 1035.05 150.15 1032.38 152.40 C 1015.95 169.07 1000.94 187.07 985.30 204.47 C 976.21 214.48 967.34 224.70 958.60 235.02 C 957.38 233.38 956.06 231.81 954.65 230.34 C 960.76 222.29 967.40 214.66 974.08 207.07 C 983.13 196.80 991.74 186.13 1001.63 176.64 Z" />
<path fill="#6f6f6f" opacity="1.00" d=" M 952.29 232.94 C 953.64 234.75 955.03 236.52 956.47 238.27 C 952.34 241.21 949.32 245.31 945.95 249.02 C 936.99 259.03 928.42 269.41 918.84 278.84 C 912.40 285.86 905.73 292.69 899.67 300.05 C 897.88 299.52 896.06 299.10 894.24 298.75 L 894.47 298.60 C 896.74 297.23 898.62 295.34 900.26 293.27 C 917.30 272.90 935.46 253.49 952.29 232.94 Z" />
<path fill="#6f6f6f" opacity="1.00" d=" M 1191.02 258.43 C 1203.97 257.16 1216.94 256.18 1229.87 254.74 L 1230.36 255.52 C 1228.66 267.19 1228.54 279.03 1227.45 290.77 C 1226.22 309.84 1224.17 328.89 1223.85 348.01 C 1221.50 345.80 1218.84 343.99 1216.33 341.99 C 1215.20 340.12 1213.86 338.22 1213.60 336.01 C 1213.61 333.53 1214.16 331.10 1214.50 328.65 C 1206.76 333.29 1199.28 338.39 1191.03 342.10 C 1192.44 330.76 1194.54 319.53 1196.01 308.20 C 1194.52 308.17 1193.04 308.14 1191.57 308.12 C 1191.30 307.93 1190.76 307.54 1190.49 307.35 C 1190.53 306.76 1190.60 305.57 1190.63 304.98 C 1179.70 305.21 1168.86 306.79 1157.98 307.66 C 1157.83 303.60 1157.76 299.53 1157.77 295.47 C 1156.70 295.43 1155.67 295.41 1154.63 295.38 C 1153.84 294.76 1153.10 294.10 1152.28 293.56 C 1148.30 295.72 1144.81 298.66 1140.95 301.02 C 1136.24 304.26 1130.91 306.67 1126.83 310.75 C 1132.43 320.92 1139.37 330.24 1145.97 339.76 C 1147.23 341.63 1148.61 343.43 1150.04 345.19 C 1151.38 340.41 1150.85 335.12 1152.98 330.62 C 1159.40 331.52 1165.24 334.63 1171.36 336.64 C 1177.28 338.86 1183.25 340.94 1189.21 343.08 C 1180.89 348.42 1175.67 357.61 1173.62 367.12 C 1173.29 367.91 1172.97 368.71 1172.67 369.52 C 1169.72 371.78 1166.98 374.34 1164.89 377.43 C 1168.54 378.09 1172.20 378.81 1175.92 379.01 C 1177.39 380.93 1178.84 382.87 1180.19 384.88 C 1171.30 382.69 1162.10 382.48 1153.07 381.28 C 1137.18 379.54 1121.27 377.89 1105.40 375.99 C 1107.16 342.59 1109.33 309.21 1112.37 275.90 C 1112.80 272.65 1112.70 269.18 1114.22 266.20 C 1127.80 263.84 1141.68 263.82 1155.32 261.89 C 1157.08 261.64 1158.86 261.41 1160.65 261.18 C 1167.80 259.83 1175.09 260.27 1182.29 259.38 C 1185.19 259.05 1188.10 258.68 1191.02 258.43 Z" />
<path fill="#6f6f6f" opacity="1.00" d=" M 892.32 301.64 C 893.66 302.14 895.04 302.57 896.45 302.95 C 872.25 331.24 847.38 358.95 823.31 387.36 C 812.94 399.76 802.28 411.94 792.50 424.81 C 790.75 422.42 788.79 420.19 787.22 417.68 C 788.68 415.10 791.04 413.22 793.02 411.06 C 799.40 404.12 805.92 397.32 812.61 390.69 C 828.37 374.73 842.97 357.70 857.92 340.99 C 869.44 327.93 881.12 314.99 892.32 301.64 Z" />
</g>
<g id="#5e5e5eff">
<path fill="#5e5e5e" opacity="1.00" d=" M 1162.07 221.39 C 1167.30 220.72 1172.76 220.78 1177.70 222.84 C 1176.10 234.84 1177.05 246.99 1176.96 259.06 C 1178.73 259.18 1180.49 259.31 1182.29 259.38 C 1175.09 260.27 1167.80 259.83 1160.65 261.18 C 1161.32 247.93 1161.70 234.66 1162.07 221.39 Z" />
<path fill="#5e5e5e" opacity="1.00" d=" M 1230.36 255.52 C 1237.84 265.69 1245.79 275.56 1252.95 285.95 C 1252.04 294.72 1250.35 303.41 1249.03 312.13 C 1245.91 329.64 1243.64 347.29 1240.55 364.81 C 1235.46 358.75 1229.41 353.61 1223.85 348.01 C 1224.17 328.89 1226.22 309.84 1227.45 290.77 C 1228.54 279.03 1228.66 267.19 1230.36 255.52 Z" />
<path fill="#5e5e5e" opacity="1.00" d=" M 1152.28 293.56 C 1153.10 294.10 1153.84 294.76 1154.63 295.38 C 1155.67 295.41 1156.70 295.43 1157.77 295.47 C 1157.76 299.53 1157.83 303.60 1157.98 307.66 C 1168.86 306.79 1179.70 305.21 1190.63 304.98 C 1190.60 305.57 1190.53 306.76 1190.49 307.35 C 1190.76 307.54 1191.30 307.93 1191.57 308.12 C 1188.61 317.69 1188.29 327.85 1186.37 337.66 C 1173.74 334.56 1161.82 329.13 1149.44 325.21 C 1148.69 330.14 1148.15 335.20 1145.97 339.76 C 1139.37 330.24 1132.43 320.92 1126.83 310.75 C 1130.91 306.67 1136.24 304.26 1140.95 301.02 C 1144.81 298.66 1148.30 295.72 1152.28 293.56 M 1154.05 307.91 C 1154.97 307.57 1155.91 307.23 1156.86 306.90 C 1156.98 303.24 1157.01 299.58 1156.82 295.92 C 1152.17 298.06 1153.92 303.87 1154.05 307.91 Z" />
<path fill="#5e5e5e" opacity="1.00" d=" M 1155.75 393.10 C 1159.47 393.60 1163.20 394.20 1166.87 395.07 C 1167.35 402.38 1166.67 409.71 1167.28 417.02 C 1168.46 429.30 1168.59 441.66 1168.28 453.99 C 1167.95 466.78 1165.95 479.46 1163.88 492.06 C 1163.63 493.76 1162.63 495.19 1161.79 496.63 C 1161.57 490.09 1161.59 483.55 1161.52 477.01 C 1157.81 485.13 1156.75 494.18 1153.02 502.27 C 1151.17 499.41 1150.29 496.09 1149.01 492.97 C 1147.30 488.58 1145.15 484.38 1143.35 480.03 C 1144.70 477.48 1145.05 474.61 1145.36 471.79 C 1148.94 445.58 1152.30 419.33 1155.75 393.10 Z" />
</g>
<g id="#444444ff">
<path fill="#444444" opacity="1.00" d=" M 635.01 336.14 C 644.10 332.38 653.39 328.79 663.09 327.03 C 659.25 331.25 653.48 332.43 648.45 334.62 C 640.96 337.35 633.47 340.66 625.42 341.24 C 628.21 338.86 631.73 337.67 635.01 336.14 Z" />
<path fill="#444444" opacity="1.00" d=" M 563.24 363.18 C 574.28 357.13 586.11 352.58 598.00 348.59 L 598.85 349.20 C 598.81 349.52 598.73 350.18 598.69 350.51 C 584.94 358.86 570.60 366.59 555.08 371.12 C 553.34 371.64 551.53 371.93 549.72 372.02 C 553.53 368.11 558.56 365.83 563.24 363.18 Z" />
<path fill="#444444" opacity="1.00" d=" M 486.06 405.13 C 497.80 397.84 509.98 390.42 523.72 387.69 C 521.38 392.52 516.56 395.27 512.49 398.45 C 499.08 407.70 484.79 416.50 468.70 420.09 C 472.74 413.39 479.83 409.51 486.06 405.13 Z" />
</g>
<g id="#4c5054ff">
<path fill="#4c5054" opacity="1.00" d=" M 1164.89 377.43 C 1166.98 374.34 1169.72 371.78 1172.67 369.52 C 1174.73 370.19 1176.81 370.87 1178.90 371.54 C 1178.52 373.97 1178.13 376.40 1177.61 378.82 C 1177.19 378.86 1176.34 378.96 1175.92 379.01 C 1172.20 378.81 1168.54 378.09 1164.89 377.43 Z" />
<path fill="#4c5054" opacity="1.00" d=" M 498.21 462.55 C 500.45 460.97 503.02 460.96 505.04 462.92 C 504.12 463.84 503.21 464.76 502.32 465.69 C 501.95 465.65 501.21 465.56 500.85 465.52 C 500.19 464.78 498.87 463.30 498.21 462.55 Z" />
<path fill="#4c5054" opacity="1.00" d=" M 290.07 544.94 C 291.72 545.25 293.42 545.42 295.02 545.99 C 295.30 548.04 294.90 550.21 293.13 551.51 C 291.76 549.49 290.75 547.27 290.07 544.94 Z" />
</g>
<g id="#555555ff">
<path fill="#555555" opacity="1.00" d=" M 1193.81 456.02 C 1193.67 452.97 1193.79 448.94 1196.93 447.38 C 1198.92 447.41 1200.52 448.80 1201.89 450.11 C 1209.12 457.64 1214.21 466.82 1219.78 475.57 C 1219.36 477.47 1219.01 479.38 1218.66 481.30 C 1219.38 481.34 1220.81 481.42 1221.52 481.45 C 1222.27 481.67 1223.77 482.10 1224.52 482.32 C 1224.61 482.76 1224.78 483.63 1224.86 484.07 C 1223.84 485.93 1223.00 487.96 1221.51 489.50 C 1215.54 491.29 1208.64 490.71 1203.57 494.89 C 1211.48 494.84 1219.12 492.30 1227.04 492.29 C 1222.66 494.45 1218.01 496.08 1213.94 498.82 C 1223.16 497.62 1232.17 495.13 1241.12 492.68 C 1239.85 491.72 1238.57 490.75 1237.32 489.81 C 1239.52 485.26 1242.50 481.17 1244.95 476.77 C 1246.10 476.58 1247.26 476.38 1248.43 476.16 C 1248.25 474.42 1248.09 472.69 1247.94 470.96 C 1251.90 472.77 1255.71 474.89 1259.45 477.12 C 1257.49 478.34 1255.56 479.61 1253.68 480.94 C 1262.25 482.77 1270.57 485.68 1279.23 487.14 C 1280.92 488.96 1282.70 490.70 1284.41 492.51 C 1273.95 500.26 1264.82 509.68 1254.57 517.68 C 1248.04 521.21 1240.20 516.44 1233.54 519.55 C 1224.48 524.21 1217.41 531.81 1209.17 537.59 C 1194.30 528.78 1178.26 521.42 1165.32 509.73 C 1168.32 507.62 1171.25 505.41 1174.39 503.50 C 1180.53 499.50 1186.97 495.96 1192.97 491.74 C 1193.76 491.56 1195.34 491.18 1196.13 491.00 L 1196.37 490.56 C 1196.53 490.41 1196.87 490.12 1197.04 489.97 C 1199.94 488.58 1202.73 486.97 1205.40 485.17 C 1199.48 476.48 1194.63 466.64 1193.81 456.02 Z" />
<path fill="#555555" opacity="1.00" d=" M 1232.38 476.98 C 1233.29 476.82 1234.22 476.67 1235.17 476.55 C 1237.14 476.60 1239.10 476.81 1241.08 476.94 C 1238.36 481.91 1235.65 486.88 1232.92 491.84 C 1230.27 490.99 1227.67 490.05 1225.11 489.02 C 1227.41 484.93 1229.99 481.02 1232.38 476.98 Z" />
</g>
<g id="#91a0d2ff">
<path fill="#91a0d2" opacity="1.00" d=" M 1283.91 455.50 C 1288.02 455.17 1293.08 453.36 1296.40 456.74 C 1292.25 456.16 1288.05 456.10 1283.91 455.50 Z" />
</g>
<g id="#cda0ccff">
<path fill="#cda0cc" opacity="1.00" d=" M 1330.54 462.79 C 1335.34 463.50 1339.38 466.36 1343.77 468.24 C 1347.41 470.21 1351.60 471.36 1354.62 474.32 C 1350.06 473.47 1346.04 471.08 1341.90 469.16 C 1338.06 467.13 1333.89 465.62 1330.54 462.79 Z" />
</g>
<g id="#88929cff">
<path fill="#88929c" opacity="1.00" d=" M 1223.11 463.83 C 1223.66 464.07 1224.76 464.54 1225.31 464.77 C 1223.79 470.27 1222.43 475.82 1221.52 481.45 C 1220.81 481.42 1219.38 481.34 1218.66 481.30 C 1219.01 479.38 1219.36 477.47 1219.78 475.57 C 1220.74 471.62 1221.95 467.73 1223.11 463.83 Z" />
</g>
<g id="#dadcd7fa">
<path fill="#dadcd7" opacity="0.98" d=" M 437.99 482.96 C 438.80 480.07 440.36 477.48 442.13 475.07 C 442.73 477.79 443.20 480.54 443.70 483.28 C 441.80 483.16 439.89 483.06 437.99 482.96 Z" />
</g>
<g id="#7f7974ff">
<path fill="#7f7974" opacity="1.00" d=" M 1228.87 475.52 C 1230.02 476.00 1231.19 476.49 1232.38 476.98 C 1229.99 481.02 1227.41 484.93 1225.11 489.02 C 1227.67 490.05 1230.27 490.99 1232.92 491.84 C 1235.65 486.88 1238.36 481.91 1241.08 476.94 C 1242.36 476.93 1243.65 476.87 1244.95 476.77 C 1242.50 481.17 1239.52 485.26 1237.32 489.81 C 1238.57 490.75 1239.85 491.72 1241.12 492.68 C 1232.17 495.13 1223.16 497.62 1213.94 498.82 C 1218.01 496.08 1222.66 494.45 1227.04 492.29 C 1219.12 492.30 1211.48 494.84 1203.57 494.89 C 1208.64 490.71 1215.54 491.29 1221.51 489.50 C 1223.00 487.96 1223.84 485.93 1224.86 484.07 C 1224.78 483.63 1224.61 482.76 1224.52 482.32 C 1227.02 480.92 1227.84 477.99 1228.87 475.52 Z" />
</g>
<g id="#74adc1ff">
<path fill="#74adc1" opacity="1.00" d=" M 1337.75 475.49 C 1340.46 476.32 1343.19 477.14 1345.90 478.05 C 1345.62 479.09 1345.35 480.14 1345.10 481.19 C 1342.02 480.12 1338.17 479.40 1337.75 475.49 Z" />
</g>
<g id="#dbeaf4ff">
<path fill="#dbeaf4" opacity="1.00" d=" M 340.60 486.03 C 345.34 483.32 352.24 481.69 356.56 486.01 C 351.25 486.37 345.92 486.29 340.60 486.03 Z" />
</g>
<g id="#0d111428">
<path fill="#0d1114" opacity="0.16" d=" M 1178.85 489.22 C 1179.37 489.24 1180.41 489.29 1180.93 489.31 C 1180.65 490.41 1180.21 491.45 1179.62 492.42 C 1178.59 491.56 1178.33 490.49 1178.85 489.22 Z" />
</g>
<g id="#13131348">
<path fill="#131313" opacity="0.28" d=" M 1193.30 489.85 C 1194.39 489.73 1195.41 489.96 1196.37 490.56 L 1196.13 491.00 C 1195.34 491.18 1193.76 491.56 1192.97 491.74 C 1193.05 491.27 1193.22 490.32 1193.30 489.85 Z" />
</g>
<g id="#111111ff">
<path fill="#111111" opacity="1.00" d=" M 1254.57 517.68 C 1264.82 509.68 1273.95 500.26 1284.41 492.51 C 1288.98 497.50 1292.74 503.29 1298.29 507.30 C 1298.08 504.54 1297.96 501.78 1297.93 499.03 C 1301.23 505.80 1305.78 511.85 1309.74 518.24 C 1313.69 524.75 1313.67 532.63 1313.86 540.00 C 1314.13 542.40 1311.91 543.93 1310.65 545.67 C 1302.62 554.56 1294.43 563.36 1286.02 571.85 C 1275.66 572.46 1265.23 571.41 1254.90 572.37 C 1245.78 574.13 1237.37 579.11 1227.96 579.39 C 1220.31 578.44 1213.08 575.57 1205.85 573.05 C 1199.24 570.87 1194.07 565.88 1187.59 563.41 C 1175.36 558.61 1162.63 555.23 1149.96 551.81 C 1150.33 550.57 1150.70 549.33 1151.10 548.10 C 1154.89 535.93 1157.93 523.51 1162.31 511.53 C 1163.31 510.94 1164.31 510.34 1165.32 509.73 C 1178.26 521.42 1194.30 528.78 1209.17 537.59 C 1217.41 531.81 1224.48 524.21 1233.54 519.55 C 1240.20 516.44 1248.04 521.21 1254.57 517.68 Z" />
</g>
<g id="#3b5237ff">
<path fill="#3b5237" opacity="1.00" d=" M 1087.58 507.57 C 1090.97 506.90 1094.85 505.51 1098.17 506.91 C 1095.73 509.21 1090.76 509.15 1087.58 507.57 Z" />
</g>
</svg>
