<?xml version="1.0" encoding="UTF-8" ?>
<!DOCTYPE svg PUBLIC "-//W3C//DTD SVG 1.1//EN" "http://www.w3.org/Graphics/SVG/1.1/DTD/svg11.dtd">
<svg width="1389pt" height="695pt" viewBox="0 0 1389 695" version="1.1" xmlns="http://www.w3.org/2000/svg">
<g id="#d4abd2ff">
<path fill="#d4abd2" opacity="1.00" d=" M 35.50 39.23 C 40.17 40.93 43.54 44.75 47.75 47.26 C 71.78 61.52 96.96 73.70 122.03 86.00 C 129.74 89.47 134.17 97.01 138.73 103.70 C 139.17 106.32 141.14 110.30 138.05 112.00 C 132.40 116.33 125.04 117.26 119.13 121.12 C 117.07 122.38 114.76 123.26 112.33 123.35 C 115.06 118.72 120.90 116.05 121.22 110.05 C 118.51 109.66 115.01 110.49 113.15 107.94 C 110.33 104.62 106.56 100.94 107.66 96.15 C 105.59 94.05 103.59 91.88 101.96 89.42 C 103.10 88.73 106.53 89.55 105.73 87.46 C 97.85 83.89 90.01 80.21 82.02 76.89 C 68.95 70.70 56.15 63.39 45.73 53.24 C 43.93 51.42 41.72 50.11 39.35 49.19 C 37.03 46.36 35.84 42.84 35.50 39.23 Z" />
<path fill="#d4abd2" opacity="1.00" d=" M 146.60 63.78 C 153.03 62.77 159.77 61.85 166.13 63.75 C 173.12 65.88 178.60 71.91 180.42 78.95 C 178.86 81.08 177.44 83.36 176.78 85.94 C 176.70 86.28 176.53 86.96 176.45 87.30 C 174.92 88.78 172.97 89.98 172.07 91.99 C 173.29 94.19 175.32 95.83 176.81 97.86 C 174.06 100.41 171.30 103.29 167.57 104.35 C 166.09 104.70 164.58 104.94 163.08 105.16 C 159.84 105.31 156.47 105.68 153.32 104.70 C 150.46 103.43 147.95 101.49 145.07 100.24 C 140.72 97.93 138.88 92.73 138.07 88.13 C 137.52 83.40 136.72 78.12 139.89 74.09 C 138.39 73.24 136.89 72.41 135.43 71.51 C 136.97 70.49 138.51 69.44 140.05 68.41 C 139.23 68.30 137.58 68.07 136.76 67.96 C 139.27 65.21 143.14 64.53 146.60 63.78 M 161.17 74.06 C 159.04 75.34 159.32 78.51 161.14 79.93 C 162.93 81.64 166.39 80.39 166.67 77.92 C 167.34 75.03 163.71 71.97 161.17 74.06 Z" />
<path fill="#d4abd2" opacity="1.00" d=" M 1209.32 349.39 C 1211.83 348.88 1214.42 349.30 1216.98 349.38 C 1216.50 352.58 1214.91 355.49 1213.23 358.20 C 1211.66 361.24 1207.82 358.82 1205.41 360.39 C 1200.90 362.85 1197.66 367.78 1192.09 368.01 C 1192.45 364.75 1190.18 361.92 1186.81 362.03 C 1189.19 357.40 1195.42 357.04 1199.96 355.77 C 1203.94 355.07 1205.65 350.67 1209.32 349.39 Z" />
<path fill="#d4abd2" opacity="1.00" d=" M 1224.22 355.19 C 1228.57 357.40 1233.12 360.25 1235.36 364.76 C 1237.16 370.39 1230.95 373.45 1228.76 377.79 C 1225.98 380.75 1228.42 385.54 1225.32 388.29 C 1223.58 389.97 1221.27 392.41 1218.63 391.37 C 1213.33 389.59 1207.66 388.29 1202.07 389.07 C 1196.08 390.62 1192.98 396.41 1188.37 399.98 C 1187.89 396.65 1186.87 393.33 1187.07 389.95 C 1188.23 388.22 1189.69 386.69 1191.34 385.42 C 1193.07 384.73 1195.06 385.37 1196.91 385.08 C 1199.23 384.60 1201.40 383.59 1203.62 382.74 C 1203.80 381.51 1203.99 380.28 1204.21 379.06 C 1206.36 378.95 1209.36 380.11 1210.58 377.63 C 1213.11 372.88 1217.52 369.59 1220.29 365.03 C 1219.44 363.90 1217.06 362.95 1217.42 361.46 C 1220.26 360.04 1222.74 358.07 1224.22 355.19 Z" />
<path fill="#d4abd2" opacity="1.00" d=" M 1208.44 398.94 C 1207.76 394.89 1212.87 391.75 1216.33 393.70 C 1235.02 405.13 1251.03 420.64 1264.15 438.13 C 1261.97 440.22 1258.73 439.98 1255.95 440.17 C 1246.30 440.14 1237.64 435.23 1229.66 430.31 C 1222.94 425.90 1216.68 420.47 1212.42 413.59 C 1209.64 409.23 1208.92 403.98 1208.44 398.94 Z" />
<path fill="#d4abd2" opacity="1.00" d=" M 357.53 435.67 C 368.86 435.41 379.33 442.27 385.73 451.27 C 392.58 461.22 397.26 473.10 396.83 485.33 C 395.93 491.62 393.91 497.68 391.80 503.65 C 390.19 500.65 390.98 497.18 390.92 493.94 C 391.31 480.39 388.21 466.21 379.73 455.36 C 375.48 450.59 371.00 445.92 365.73 442.26 C 362.86 440.24 359.97 438.22 357.53 435.67 Z" />
<path fill="#d4abd2" opacity="1.00" d=" M 59.03 438.46 C 64.22 436.77 69.84 438.07 75.02 439.27 C 84.85 441.63 93.53 447.31 100.69 454.32 C 108.55 463.11 115.04 473.03 120.73 483.34 C 126.25 492.71 132.38 502.38 141.99 508.04 C 145.15 510.17 149.08 510.69 152.18 512.90 C 148.30 513.06 144.56 511.60 141.17 509.86 C 135.81 506.71 130.62 503.16 126.24 498.72 C 116.86 489.20 110.64 477.17 101.87 467.15 C 94.53 458.08 85.22 450.66 75.03 445.01 C 70.01 442.10 64.31 440.77 59.03 438.46 Z" />
<path fill="#d4abd2" opacity="1.00" d=" M 470.89 448.78 C 472.57 448.17 474.22 447.47 475.91 446.87 C 480.65 446.05 485.92 447.13 489.43 450.58 C 492.80 453.72 494.03 458.32 495.76 462.44 C 496.60 462.51 497.44 462.59 498.29 462.66 C 498.91 463.31 500.15 464.60 500.77 465.25 C 495.32 467.29 492.17 461.10 489.22 457.69 C 484.60 451.19 475.98 451.06 468.94 449.39 C 469.43 449.24 470.40 448.93 470.89 448.78 Z" />
<path fill="#d4abd2" opacity="1.00" d=" M 1311.05 460.08 C 1316.85 461.33 1322.06 464.52 1327.62 466.59 C 1335.79 470.41 1344.34 473.50 1352.19 477.93 C 1344.04 476.21 1336.64 471.93 1328.93 468.85 C 1323.02 465.81 1316.78 463.43 1311.05 460.08 Z" />
<path fill="#d4abd2" opacity="1.00" d=" M 1051.90 468.96 C 1058.37 463.29 1067.78 461.92 1075.91 464.24 C 1085.35 466.74 1092.56 474.26 1097.21 482.56 C 1098.62 486.24 1099.66 490.05 1101.00 493.77 C 1102.38 500.58 1102.74 508.13 1099.26 514.40 C 1096.04 518.55 1090.78 520.20 1086.14 522.24 C 1073.18 527.46 1059.57 530.76 1046.07 534.19 C 1044.28 532.99 1042.98 531.28 1042.72 529.10 C 1040.71 519.86 1037.01 511.14 1034.05 502.21 C 1035.75 500.86 1038.00 499.93 1039.14 498.02 C 1039.79 493.42 1040.19 488.73 1041.81 484.33 C 1044.51 478.84 1047.05 472.94 1051.90 468.96 M 1077.52 481.41 C 1074.30 484.28 1079.46 489.90 1082.39 486.38 C 1085.51 483.56 1080.46 478.11 1077.52 481.41 M 1087.84 507.30 C 1090.75 509.88 1094.83 508.26 1098.19 507.70 C 1098.02 507.37 1097.69 506.73 1097.52 506.41 C 1094.27 506.16 1091.03 506.77 1087.84 507.30 Z" />
<path fill="#d4abd2" opacity="1.00" d=" M 449.10 481.00 C 448.30 476.77 448.63 471.13 453.04 468.98 C 453.24 472.48 453.40 475.98 453.56 479.48 C 459.50 479.73 465.63 477.50 471.39 479.71 C 465.75 480.31 460.18 481.34 454.65 482.56 C 452.78 482.75 449.62 483.59 449.10 481.00 Z" />
<path fill="#d4abd2" opacity="1.00" d=" M 205.99 492.24 C 212.96 492.53 219.70 494.63 226.36 496.58 C 233.30 498.59 239.64 502.26 245.29 506.72 C 248.61 509.47 252.24 512.09 254.37 515.94 C 253.73 517.29 253.20 518.69 252.75 520.12 C 248.24 515.99 244.32 511.24 239.56 507.39 C 234.58 503.19 228.54 500.46 222.35 498.55 C 216.79 496.77 210.80 495.78 205.99 492.24 Z" />
<path fill="#d4abd2" opacity="1.00" d=" M 423.56 512.08 C 427.63 508.08 432.94 503.99 438.99 504.74 C 444.04 506.15 445.28 511.92 446.48 516.32 C 445.88 517.46 445.29 518.60 444.71 519.75 C 441.84 516.60 442.04 510.98 437.34 509.51 C 432.62 508.45 428.10 511.17 423.56 512.08 Z" />
<path fill="#d4abd2" opacity="1.00" d=" M 206.20 509.90 C 211.31 512.68 217.25 516.05 219.04 521.96 C 218.39 526.92 213.24 529.03 210.14 532.29 L 209.86 532.53 C 209.44 532.27 208.60 531.75 208.19 531.49 C 209.68 528.60 211.67 525.62 211.48 522.23 C 210.79 517.73 208.08 513.94 206.20 509.90 Z" />
<path fill="#d4abd2" opacity="1.00" d=" M 915.35 521.34 C 920.66 517.88 928.99 519.18 932.00 525.07 C 935.33 531.32 933.87 538.59 934.43 545.35 C 935.69 545.89 936.96 546.45 938.25 546.97 C 936.98 547.01 935.71 547.07 934.46 547.17 C 934.35 548.21 934.24 549.26 934.11 550.31 C 933.00 556.36 932.35 562.93 928.06 567.72 C 926.79 565.51 925.44 563.35 923.92 561.31 C 921.96 563.67 920.97 566.59 920.00 569.44 C 919.25 569.40 917.76 569.32 917.01 569.27 C 916.44 566.45 915.72 563.67 914.80 560.95 C 912.07 562.55 910.55 565.37 908.99 568.01 C 908.08 567.76 907.19 567.50 906.31 567.23 C 906.46 564.41 906.32 561.60 905.91 558.82 C 903.30 559.27 901.17 560.85 899.06 562.32 C 898.58 558.81 899.31 555.32 900.16 551.94 C 901.13 548.03 902.66 544.26 903.31 540.28 L 901.85 539.85 C 902.75 539.42 903.66 539.00 904.59 538.58 C 906.60 532.08 908.96 524.83 915.35 521.34 Z" />
<path fill="#d4abd2" opacity="1.00" d=" M 994.63 520.61 C 1000.42 517.60 1007.70 520.55 1011.44 525.48 C 1015.50 530.18 1016.24 536.58 1018.78 542.07 C 1019.91 544.96 1020.78 547.96 1021.52 550.98 C 1022.45 554.67 1023.49 558.42 1023.10 562.27 C 1020.79 560.86 1018.48 559.47 1016.16 558.12 C 1015.83 561.14 1015.71 564.19 1015.84 567.23 C 1015.03 567.51 1014.23 567.77 1013.44 568.02 C 1011.83 565.18 1009.72 562.65 1007.01 560.81 C 1006.13 563.61 1005.43 566.46 1004.97 569.36 C 1004.26 569.37 1002.83 569.41 1002.12 569.43 C 1001.16 566.53 999.79 563.78 997.86 561.41 C 996.43 563.46 995.12 565.61 993.91 567.80 C 989.44 562.80 989.13 555.90 987.74 549.68 C 987.54 548.76 987.38 547.85 987.26 546.93 C 987.00 541.06 987.23 535.13 988.43 529.38 C 989.23 525.81 991.13 522.15 994.63 520.61 Z" />
</g>
<g id="#c48cc1ff">
<path fill="#c48cc1" opacity="1.00" d=" M 39.35 49.19 C 41.72 50.11 43.93 51.42 45.73 53.24 C 56.15 63.39 68.95 70.70 82.02 76.89 C 90.01 80.21 97.85 83.89 105.73 87.46 C 106.53 89.55 103.10 88.73 101.96 89.42 C 103.59 91.88 105.59 94.05 107.66 96.15 C 106.56 100.94 110.33 104.62 113.15 107.94 C 115.01 110.49 118.51 109.66 121.22 110.05 C 120.90 116.05 115.06 118.72 112.33 123.35 C 105.56 128.22 97.35 131.15 88.96 131.04 C 87.73 131.04 84.99 131.10 85.68 129.06 C 87.49 125.71 91.36 124.14 93.94 121.42 C 88.92 121.75 83.98 122.83 78.97 123.21 C 76.59 123.47 74.71 121.38 74.40 119.17 C 76.91 118.51 79.44 117.91 81.98 117.37 C 73.44 114.90 64.63 111.86 58.28 105.30 C 63.33 105.12 68.17 106.67 73.02 107.81 C 67.26 103.26 60.66 99.92 54.02 96.86 C 52.17 96.08 50.71 94.69 49.44 93.18 C 54.84 91.95 60.47 91.57 65.95 92.48 C 64.42 90.47 61.89 89.67 59.93 88.18 C 53.36 83.72 46.56 78.05 44.81 69.90 C 52.06 70.32 58.75 73.71 64.75 77.56 C 64.65 77.33 64.44 76.88 64.33 76.65 C 56.73 70.65 49.77 63.80 43.81 56.16 C 42.10 54.00 40.39 51.78 39.35 49.19 Z" />
<path fill="#c48cc1" opacity="1.00" d=" M 172.07 91.99 C 172.97 89.98 174.92 88.78 176.45 87.30 C 177.73 88.55 179.00 89.81 180.30 91.05 C 179.17 93.34 178.04 95.62 176.81 97.86 C 175.32 95.83 173.29 94.19 172.07 91.99 Z" />
<path fill="#c48cc1" opacity="1.00" d=" M 145.07 100.24 C 147.95 101.49 150.46 103.43 153.32 104.70 C 156.47 105.68 159.84 105.31 163.08 105.16 C 162.10 110.00 159.60 114.33 157.93 118.95 C 154.14 127.00 150.44 135.14 145.59 142.63 C 143.37 146.14 140.33 149.16 138.81 153.09 L 138.58 153.59 C 134.47 156.01 131.43 160.01 126.93 161.78 C 121.19 164.18 114.92 164.73 109.01 166.58 C 94.99 170.80 81.54 177.07 69.47 185.39 C 65.09 188.66 60.32 192.15 58.40 197.51 C 57.18 201.25 54.23 204.31 50.61 205.81 C 46.96 196.62 49.23 185.30 56.57 178.57 C 68.00 167.66 84.45 165.17 99.51 163.42 C 100.59 161.10 100.72 158.41 101.51 155.97 C 104.79 143.25 111.17 131.49 119.13 121.12 C 125.04 117.26 132.40 116.33 138.05 112.00 C 141.14 110.30 139.17 106.32 138.73 103.70 C 140.57 102.18 142.44 99.94 145.07 100.24 Z" />
<path fill="#c48cc1" opacity="1.00" d=" M 1188.60 350.64 C 1196.98 345.38 1207.28 345.59 1216.29 341.97 C 1218.80 343.99 1221.52 345.75 1223.86 348.00 C 1229.40 353.65 1235.49 358.76 1240.58 364.85 C 1249.60 375.71 1253.84 389.98 1264.40 399.63 C 1271.14 406.27 1276.98 413.79 1282.39 421.55 C 1285.85 426.40 1286.86 432.58 1286.09 438.42 C 1282.80 437.14 1279.57 435.40 1276.03 435.02 C 1272.18 435.38 1268.95 437.82 1265.84 439.90 C 1272.40 446.72 1277.22 454.89 1281.90 463.05 C 1284.24 467.67 1290.14 467.04 1294.42 468.30 C 1291.70 469.29 1289.04 470.43 1286.44 471.68 C 1290.39 478.15 1294.89 484.49 1296.64 492.01 C 1297.38 494.28 1297.83 496.63 1297.89 499.03 C 1297.85 501.71 1297.97 504.37 1298.17 507.05 C 1292.62 503.22 1289.08 497.38 1284.52 492.55 C 1282.72 490.74 1280.89 488.96 1279.17 487.09 C 1276.34 484.21 1274.11 480.76 1270.97 478.20 C 1267.12 477.91 1263.08 478.74 1259.43 477.13 C 1255.76 474.86 1251.96 472.81 1248.04 471.01 C 1248.12 472.71 1248.21 474.41 1248.33 476.12 C 1247.18 476.35 1246.04 476.58 1244.91 476.79 C 1243.61 476.91 1242.33 476.98 1241.06 477.00 C 1239.07 476.78 1237.08 476.51 1235.10 476.43 C 1234.65 472.37 1233.92 468.10 1230.39 465.55 C 1230.12 460.23 1233.65 454.50 1230.70 449.36 C 1227.19 443.95 1222.70 439.24 1219.21 433.81 C 1214.80 426.96 1209.39 420.33 1207.86 412.12 C 1207.08 409.74 1207.19 406.55 1204.65 405.27 C 1198.50 401.45 1190.76 401.75 1184.11 404.00 C 1184.20 401.58 1184.48 399.18 1184.69 396.77 C 1185.55 392.18 1182.60 388.40 1180.14 384.90 C 1178.85 382.86 1177.46 380.90 1175.93 379.05 C 1176.35 378.97 1177.18 378.81 1177.60 378.73 C 1177.96 376.40 1179.08 373.94 1178.51 371.60 C 1176.64 370.72 1174.65 370.15 1172.72 369.49 C 1173.02 368.68 1173.34 367.87 1173.68 367.06 C 1178.69 361.63 1181.97 354.44 1188.60 350.64 M 1209.32 349.39 C 1205.65 350.67 1203.94 355.07 1199.96 355.77 C 1195.42 357.04 1189.19 357.40 1186.81 362.03 C 1184.53 363.40 1183.70 367.31 1186.18 368.93 C 1188.06 370.42 1190.29 368.83 1192.09 368.01 C 1197.66 367.78 1200.90 362.85 1205.41 360.39 C 1207.82 358.82 1211.66 361.24 1213.23 358.20 C 1214.91 355.49 1216.50 352.58 1216.98 349.38 C 1214.42 349.30 1211.83 348.88 1209.32 349.39 M 1224.22 355.19 C 1222.74 358.07 1220.26 360.04 1217.42 361.46 C 1217.06 362.95 1219.44 363.90 1220.29 365.03 C 1217.52 369.59 1213.11 372.88 1210.58 377.63 C 1209.36 380.11 1206.36 378.95 1204.21 379.06 C 1203.99 380.28 1203.80 381.51 1203.62 382.74 C 1201.40 383.59 1199.23 384.60 1196.91 385.08 C 1195.06 385.37 1193.07 384.73 1191.34 385.42 C 1189.69 386.69 1188.23 388.22 1187.07 389.95 C 1186.87 393.33 1187.89 396.65 1188.37 399.98 C 1192.98 396.41 1196.08 390.62 1202.07 389.07 C 1207.66 388.29 1213.33 389.59 1218.63 391.37 C 1221.27 392.41 1223.58 389.97 1225.32 388.29 C 1228.42 385.54 1225.98 380.75 1228.76 377.79 C 1230.95 373.45 1237.16 370.39 1235.36 364.76 C 1233.12 360.25 1228.57 357.40 1224.22 355.19 M 1208.44 398.94 C 1208.92 403.98 1209.64 409.23 1212.42 413.59 C 1216.68 420.47 1222.94 425.90 1229.66 430.31 C 1237.64 435.23 1246.30 440.14 1255.95 440.17 C 1258.73 439.98 1261.97 440.22 1264.15 438.13 C 1251.03 420.64 1235.02 405.13 1216.33 393.70 C 1212.87 391.75 1207.76 394.89 1208.44 398.94 Z" />
<path fill="#c48cc1" opacity="1.00" d=" M 21.23 452.23 C 34.91 438.18 55.76 431.38 75.05 435.12 C 87.97 437.42 99.23 445.49 107.45 455.47 C 117.46 467.01 123.43 481.32 132.59 493.47 C 138.41 501.12 146.49 507.67 156.17 509.39 C 160.01 509.88 164.42 510.27 167.65 507.69 C 172.20 504.24 175.21 499.16 179.86 495.81 C 187.04 489.81 196.74 487.57 205.94 488.51 C 225.08 489.80 242.93 499.44 256.40 512.79 C 255.71 513.82 255.01 514.86 254.37 515.94 C 252.24 512.09 248.61 509.47 245.29 506.72 C 239.64 502.26 233.30 498.59 226.36 496.58 C 219.70 494.63 212.96 492.53 205.99 492.24 C 210.80 495.78 216.79 496.77 222.35 498.55 C 228.54 500.46 234.58 503.19 239.56 507.39 C 244.32 511.24 248.24 515.99 252.75 520.12 C 250.70 527.30 248.46 536.23 254.19 542.37 C 255.45 551.02 260.25 558.84 266.32 564.98 C 270.53 570.79 278.36 572.41 282.46 578.20 C 282.00 578.30 281.08 578.49 280.62 578.58 C 270.58 578.65 261.47 573.76 253.95 567.49 C 252.40 562.37 246.95 560.02 244.72 555.31 C 241.54 548.64 241.21 541.11 240.89 533.86 C 237.88 533.94 234.89 534.24 231.90 534.56 C 224.62 534.78 217.00 535.19 210.14 532.29 C 213.24 529.03 218.39 526.92 219.04 521.96 C 217.25 516.05 211.31 512.68 206.20 509.90 C 208.08 513.94 210.79 517.73 211.48 522.23 C 211.67 525.62 209.68 528.60 208.19 531.49 C 208.60 531.75 209.44 532.27 209.86 532.53 C 207.85 534.24 206.07 536.18 204.37 538.20 C 209.06 544.67 211.61 552.64 210.62 560.66 C 209.89 561.52 209.87 563.38 208.51 563.57 C 207.11 562.61 205.85 561.46 204.66 560.26 C 199.19 554.19 194.60 547.36 190.77 540.16 C 193.65 536.79 196.49 533.39 199.38 530.04 C 196.96 530.24 194.54 530.38 192.11 530.36 C 185.82 530.32 179.51 529.18 173.80 526.50 C 169.97 524.11 167.06 520.58 164.89 516.67 C 160.01 517.12 155.09 517.73 150.49 519.51 C 140.80 513.42 128.87 516.01 118.11 514.84 C 111.14 513.83 110.10 505.57 105.02 502.00 C 100.39 499.58 94.99 500.87 90.05 499.91 C 87.88 499.44 86.13 497.86 85.04 495.98 C 82.00 490.98 79.75 485.48 76.01 480.93 C 70.07 473.47 61.54 467.75 52.03 466.20 C 42.28 464.69 32.46 468.80 25.32 475.30 C 16.67 482.97 10.91 493.34 7.01 504.11 C 6.05 506.47 6.19 509.04 6.41 511.53 C 6.10 512.11 5.47 513.26 5.16 513.84 C 2.52 512.26 0.64 509.71 0.00 506.70 L 0.00 497.52 C 2.32 480.77 9.18 464.31 21.23 452.23 M 59.03 438.46 C 64.31 440.77 70.01 442.10 75.03 445.01 C 85.22 450.66 94.53 458.08 101.87 467.15 C 110.64 477.17 116.86 489.20 126.24 498.72 C 130.62 503.16 135.81 506.71 141.17 509.86 C 144.56 511.60 148.30 513.06 152.18 512.90 C 149.08 510.69 145.15 510.17 141.99 508.04 C 132.38 502.38 126.25 492.71 120.73 483.34 C 115.04 473.03 108.55 463.11 100.69 454.32 C 93.53 447.31 84.85 441.63 75.02 439.27 C 69.84 438.07 64.22 436.77 59.03 438.46 Z" />
<path fill="#c48cc1" opacity="1.00" d=" M 323.17 447.15 C 331.94 438.01 345.24 434.87 357.53 435.67 C 359.97 438.22 362.86 440.24 365.73 442.26 C 371.00 445.92 375.48 450.59 379.73 455.36 C 388.21 466.21 391.31 480.39 390.92 493.94 C 390.98 497.18 390.19 500.65 391.80 503.65 C 388.46 513.29 384.27 522.69 382.28 532.76 C 382.70 534.35 383.10 536.56 385.00 537.01 C 389.64 538.18 394.70 535.86 397.44 532.06 C 394.58 515.38 400.56 498.29 410.39 484.91 C 418.47 474.48 429.42 466.27 441.89 461.85 C 449.02 459.23 456.56 458.10 463.88 456.14 C 462.21 452.19 460.17 448.14 460.78 443.72 C 464.21 444.46 466.36 447.28 468.94 449.39 C 475.98 451.06 484.60 451.19 489.22 457.69 C 492.17 461.10 495.32 467.29 500.77 465.25 C 501.14 465.43 501.86 465.79 502.23 465.97 C 501.34 468.00 500.59 470.28 498.62 471.54 C 493.21 475.19 486.41 476.17 480.01 476.09 C 473.09 475.85 468.53 469.72 465.46 464.20 C 461.17 465.37 457.16 467.35 453.04 468.98 C 448.63 471.13 448.30 476.77 449.10 481.00 C 449.62 483.59 452.78 482.75 454.65 482.56 C 460.18 481.34 465.75 480.31 471.39 479.71 C 472.41 480.06 473.43 480.43 474.45 480.81 C 473.08 484.42 472.09 488.18 470.38 491.66 C 469.20 489.74 468.04 487.81 466.87 485.89 C 460.96 488.86 454.90 492.26 448.07 492.12 C 445.69 489.71 444.21 486.60 443.68 483.27 C 443.24 480.57 442.81 477.86 442.15 475.22 C 440.22 477.47 438.79 480.11 437.99 482.97 C 437.91 483.39 437.74 484.24 437.66 484.66 C 433.61 487.02 431.70 491.51 429.37 495.35 C 426.46 501.11 423.15 506.72 421.04 512.85 C 421.87 512.59 422.71 512.34 423.56 512.08 C 428.10 511.17 432.62 508.45 437.34 509.51 C 442.04 510.98 441.84 516.60 444.71 519.75 C 443.75 521.55 442.69 523.31 441.61 525.04 C 436.37 527.86 432.45 532.44 427.77 536.01 C 424.57 537.90 421.38 539.90 418.84 542.67 C 421.90 542.87 424.95 543.19 428.02 543.42 C 429.12 545.94 430.23 548.46 431.27 551.01 C 422.78 550.87 414.23 551.11 405.80 549.93 C 406.69 547.73 407.48 545.50 408.16 543.23 C 405.02 541.52 402.06 539.53 399.10 537.54 C 390.74 546.47 378.67 552.77 366.17 551.27 C 364.37 548.17 361.20 545.02 362.31 541.11 C 364.80 532.45 372.15 525.89 373.70 516.87 C 373.60 513.29 369.54 511.65 367.57 509.07 C 371.51 504.17 376.83 500.51 380.25 495.19 C 382.80 491.26 383.39 485.55 380.15 481.83 C 377.11 478.24 372.33 477.31 368.10 475.90 C 362.88 474.28 363.61 466.09 357.91 465.25 C 350.54 464.71 343.83 468.86 338.35 473.38 C 326.96 483.31 317.87 496.71 303.28 502.31 C 292.23 507.13 278.20 500.90 273.67 489.94 C 278.99 493.49 285.63 494.19 291.86 493.52 C 295.71 492.51 298.38 489.25 300.75 486.26 C 309.47 473.94 312.19 457.96 323.17 447.15 M 476.40 455.38 C 473.85 455.85 472.56 459.55 474.57 461.34 C 476.44 463.74 480.97 462.06 480.66 458.94 C 480.83 456.68 478.43 455.19 476.40 455.38 Z" />
<path fill="#c48cc1" opacity="1.00" d=" M 973.22 452.02 C 982.22 452.86 990.95 456.02 998.75 460.55 C 994.32 466.77 990.90 474.26 991.10 482.04 C 991.47 492.01 1000.87 500.81 1010.95 499.66 C 1017.75 499.59 1023.34 495.17 1027.81 490.47 C 1030.06 494.29 1031.96 498.30 1034.05 502.21 C 1037.01 511.14 1040.71 519.86 1042.72 529.10 C 1042.98 531.28 1044.28 532.99 1046.07 534.19 C 1036.93 536.69 1028.14 540.39 1018.78 542.07 C 1016.24 536.58 1015.50 530.18 1011.44 525.48 C 1007.70 520.55 1000.42 517.60 994.63 520.61 C 991.13 522.15 989.23 525.81 988.43 529.38 C 987.23 535.13 987.00 541.06 987.26 546.93 C 970.97 548.27 954.50 549.29 938.25 546.97 C 936.96 546.45 935.69 545.89 934.43 545.35 C 933.87 538.59 935.33 531.32 932.00 525.07 C 928.99 519.18 920.66 517.88 915.35 521.34 C 908.96 524.83 906.60 532.08 904.59 538.58 C 903.66 539.00 902.75 539.42 901.85 539.85 C 894.26 537.78 886.90 534.67 880.37 530.27 C 881.28 525.95 882.54 521.71 883.22 517.34 C 885.69 511.38 887.94 505.31 890.98 499.60 C 892.56 505.61 898.72 508.89 904.11 510.99 C 915.58 515.31 929.75 505.36 929.00 493.00 C 929.01 483.07 922.69 474.88 917.62 466.89 C 921.45 463.94 925.54 461.31 929.89 459.19 C 933.69 465.79 936.79 473.18 942.87 478.07 C 946.73 480.76 951.15 483.30 956.02 483.23 C 964.81 483.55 973.20 476.60 974.68 467.95 C 975.43 462.61 974.64 457.18 973.22 452.02 Z" />
<path fill="#c48cc1" opacity="1.00" d=" M 262.20 508.65 C 266.33 509.89 267.19 514.08 268.07 517.74 C 271.05 517.98 274.34 517.46 277.04 519.01 C 280.95 522.04 282.70 527.13 282.19 531.98 C 282.07 536.28 281.69 542.76 286.95 544.18 C 287.99 544.49 289.03 544.78 290.09 545.04 C 290.70 547.36 291.71 549.55 293.18 551.46 C 284.75 554.36 274.83 555.01 266.98 550.16 C 260.69 546.74 257.07 540.07 255.46 533.32 C 256.43 528.65 257.59 523.68 261.26 520.33 C 262.37 519.25 263.52 518.22 264.66 517.18 C 263.70 514.38 262.80 511.55 262.20 508.65 M 269.34 525.49 C 267.14 527.06 267.97 530.63 270.24 531.71 C 272.55 532.93 275.68 530.52 274.99 527.96 C 274.66 525.41 271.44 523.70 269.34 525.49 Z" />
</g>
<g id="#000000ff">
<path fill="#000000" opacity="1.00" d=" M 161.17 74.06 C 163.71 71.97 167.34 75.03 166.67 77.92 C 166.39 80.39 162.93 81.64 161.14 79.93 C 159.32 78.51 159.04 75.34 161.17 74.06 Z" />
<path fill="#000000" opacity="1.00" d=" M 1186.18 368.93 C 1183.70 367.31 1184.53 363.40 1186.81 362.03 C 1190.18 361.92 1192.45 364.75 1192.09 368.01 C 1190.29 368.83 1188.06 370.42 1186.18 368.93 Z" />
<path fill="#000000" opacity="1.00" d=" M 476.40 455.38 C 478.43 455.19 480.83 456.68 480.66 458.94 C 480.97 462.06 476.44 463.74 474.57 461.34 C 472.56 459.55 473.85 455.85 476.40 455.38 Z" />
<path fill="#000000" opacity="1.00" d=" M 1077.52 481.41 C 1080.46 478.11 1085.51 483.56 1082.39 486.38 C 1079.46 489.90 1074.30 484.28 1077.52 481.41 Z" />
<path fill="#000000" opacity="1.00" d=" M 269.34 525.49 C 271.44 523.70 274.66 525.41 274.99 527.96 C 275.68 530.52 272.55 532.93 270.24 531.71 C 267.97 530.63 267.14 527.06 269.34 525.49 Z" />
</g>
<g id="#b26aafff">
<path fill="#b26aaf" opacity="1.00" d=" M 180.42 78.95 C 194.57 78.63 209.00 77.84 222.89 81.20 C 227.11 82.22 231.85 84.36 233.08 88.93 C 218.29 83.01 202.24 86.93 187.04 88.70 C 183.53 89.39 178.06 90.52 176.78 85.94 C 177.44 83.36 178.86 81.08 180.42 78.95 Z" />
<path fill="#b26aaf" opacity="1.00" d=" M 163.08 105.16 C 164.58 104.94 166.09 104.70 167.57 104.35 C 169.12 108.83 170.91 113.74 169.35 118.47 C 167.57 124.32 162.74 128.36 158.93 132.88 C 153.37 140.62 146.50 147.47 138.81 153.09 C 140.33 149.16 143.37 146.14 145.59 142.63 C 150.44 135.14 154.14 127.00 157.93 118.95 C 159.60 114.33 162.10 110.00 163.08 105.16 Z" />
<path fill="#b26aaf" opacity="1.00" d=" M 1191.06 342.06 C 1199.30 338.43 1206.68 333.26 1214.44 328.76 C 1214.22 331.36 1213.48 333.93 1213.57 336.54 C 1214.19 338.48 1215.23 340.24 1216.29 341.97 C 1207.28 345.59 1196.98 345.38 1188.60 350.64 C 1181.97 354.44 1178.69 361.63 1173.68 367.06 C 1175.58 357.54 1180.99 348.48 1189.17 343.07 C 1189.64 342.82 1190.59 342.31 1191.06 342.06 Z" />
<path fill="#b26aaf" opacity="1.00" d=" M 1184.11 404.00 C 1190.76 401.75 1198.50 401.45 1204.65 405.27 C 1207.19 406.55 1207.08 409.74 1207.86 412.12 C 1209.39 420.33 1214.80 426.96 1219.21 433.81 C 1222.70 439.24 1227.19 443.95 1230.70 449.36 C 1233.65 454.50 1230.12 460.23 1230.39 465.55 C 1233.92 468.10 1234.65 472.37 1235.10 476.43 C 1234.16 476.61 1233.24 476.81 1232.35 477.03 C 1231.18 476.54 1230.02 476.04 1228.89 475.56 C 1228.91 472.35 1228.78 469.16 1228.79 465.96 C 1227.62 465.58 1226.44 465.19 1225.31 464.79 C 1224.75 464.56 1223.65 464.11 1223.09 463.88 C 1215.48 458.66 1207.22 453.87 1201.67 446.29 C 1192.63 433.94 1184.34 419.73 1184.11 404.00 Z" />
<path fill="#b26aaf" opacity="1.00" d=" M 1265.84 439.90 C 1268.95 437.82 1272.18 435.38 1276.03 435.02 C 1279.57 435.40 1282.80 437.14 1286.09 438.42 C 1296.44 443.71 1307.09 448.39 1317.56 453.44 C 1336.42 462.25 1356.18 469.85 1372.89 482.56 C 1372.19 482.81 1370.80 483.30 1370.10 483.55 C 1372.91 486.89 1376.77 489.45 1378.41 493.66 C 1377.16 493.66 1375.94 493.65 1374.73 493.62 C 1371.86 491.31 1368.16 490.72 1364.89 489.25 C 1358.31 486.46 1351.72 483.72 1345.07 481.12 C 1345.33 480.10 1345.60 479.09 1345.87 478.07 C 1343.24 477.11 1340.56 476.31 1337.88 475.55 C 1327.24 471.81 1316.93 467.22 1306.90 462.10 C 1303.96 460.59 1301.24 458.53 1297.94 457.90 C 1301.82 460.47 1305.84 462.84 1310.07 464.81 C 1312.38 465.94 1314.98 466.82 1316.54 469.03 C 1309.16 470.20 1301.77 468.84 1294.42 468.30 C 1290.14 467.04 1284.24 467.67 1281.90 463.05 C 1277.22 454.89 1272.40 446.72 1265.84 439.90 M 1284.01 455.48 C 1288.05 456.27 1292.23 456.01 1296.29 456.79 C 1293.22 453.16 1288.02 455.25 1284.01 455.48 M 1311.05 460.08 C 1316.78 463.43 1323.02 465.81 1328.93 468.85 C 1336.64 471.93 1344.04 476.21 1352.19 477.93 C 1344.34 473.50 1335.79 470.41 1327.62 466.59 C 1322.06 464.52 1316.85 461.33 1311.05 460.08 M 1330.64 462.87 C 1333.92 465.72 1338.16 467.08 1341.92 469.17 C 1346.04 471.00 1349.96 473.55 1354.49 474.27 C 1351.62 471.25 1347.34 470.27 1343.80 468.25 C 1339.41 466.47 1335.44 463.39 1330.64 462.87 Z" />
<path fill="#b26aaf" opacity="1.00" d=" M 470.89 448.78 C 469.97 446.33 467.48 441.94 471.10 440.61 C 473.65 441.75 474.48 444.69 475.91 446.87 C 474.22 447.47 472.57 448.17 470.89 448.78 Z" />
<path fill="#b26aaf" opacity="1.00" d=" M 948.15 453.12 C 956.46 452.10 964.84 451.13 973.22 452.02 C 974.64 457.18 975.43 462.61 974.68 467.95 C 973.20 476.60 964.81 483.55 956.02 483.23 C 951.15 483.30 946.73 480.76 942.87 478.07 C 936.79 473.18 933.69 465.79 929.89 459.19 C 935.69 456.43 941.90 454.55 948.15 453.12 Z" />
<path fill="#b26aaf" opacity="1.00" d=" M 991.10 482.04 C 990.90 474.26 994.32 466.77 998.75 460.55 C 1007.30 465.74 1014.39 472.94 1020.83 480.51 C 1023.45 483.60 1025.64 487.04 1027.81 490.47 C 1023.34 495.17 1017.75 499.59 1010.95 499.66 C 1000.87 500.81 991.47 492.01 991.10 482.04 Z" />
<path fill="#b26aaf" opacity="1.00" d=" M 338.35 473.38 C 343.83 468.86 350.54 464.71 357.91 465.25 C 363.61 466.09 362.88 474.28 368.10 475.90 C 372.33 477.31 377.11 478.24 380.15 481.83 C 383.39 485.55 382.80 491.26 380.25 495.19 C 376.83 500.51 371.51 504.17 367.57 509.07 C 369.54 511.65 373.60 513.29 373.70 516.87 C 372.15 525.89 364.80 532.45 362.31 541.11 C 361.20 545.02 364.37 548.17 366.17 551.27 C 361.79 550.62 356.94 549.68 353.92 546.14 C 352.14 543.78 351.28 540.88 350.35 538.12 C 350.08 522.71 356.74 508.27 357.68 493.00 C 357.87 490.60 357.31 488.23 356.49 486.00 C 352.29 481.71 345.28 483.30 340.63 486.01 C 333.17 489.78 328.31 496.86 321.55 501.56 C 314.73 506.52 306.39 509.29 297.99 509.66 C 291.76 510.18 285.20 509.05 280.18 505.11 C 281.04 508.43 280.56 511.85 279.78 515.14 C 282.27 517.73 284.89 520.41 285.96 523.94 C 288.75 530.50 284.17 537.57 286.95 544.18 C 281.69 542.76 282.07 536.28 282.19 531.98 C 282.70 527.13 280.95 522.04 277.04 519.01 C 274.34 517.46 271.05 517.98 268.07 517.74 C 267.19 514.08 266.33 509.89 262.20 508.65 C 262.25 505.42 265.02 501.48 268.60 503.42 C 271.36 506.40 270.11 510.71 269.96 514.33 C 270.73 514.33 272.27 514.33 273.04 514.33 C 272.85 511.59 272.35 508.80 272.88 506.07 C 273.63 503.90 276.35 504.27 278.11 503.57 C 273.26 498.87 269.95 492.79 268.15 486.32 C 267.75 484.53 267.44 482.73 267.16 480.93 C 268.70 482.80 270.19 484.72 271.58 486.72 C 272.30 487.77 272.99 488.85 273.67 489.94 C 278.20 500.90 292.23 507.13 303.28 502.31 C 317.87 496.71 326.96 483.31 338.35 473.38 Z" />
<path fill="#b26aaf" opacity="1.00" d=" M 25.32 475.30 C 32.46 468.80 42.28 464.69 52.03 466.20 C 61.54 467.75 70.07 473.47 76.01 480.93 C 79.75 485.48 82.00 490.98 85.04 495.98 C 86.13 497.86 87.88 499.44 90.05 499.91 C 94.99 500.87 100.39 499.58 105.02 502.00 C 110.10 505.57 111.14 513.83 118.11 514.84 C 128.87 516.01 140.80 513.42 150.49 519.51 C 138.85 524.52 128.67 532.38 116.82 536.95 C 103.38 541.92 87.88 541.50 74.95 535.18 C 67.43 531.40 60.85 525.36 57.22 517.70 C 52.89 508.11 55.81 497.15 52.39 487.36 C 50.70 482.71 47.11 478.35 42.14 477.14 C 35.08 475.36 27.69 478.81 22.89 483.92 C 15.56 491.92 11.83 502.29 6.41 511.53 C 6.19 509.04 6.05 506.47 7.01 504.11 C 10.91 493.34 16.67 482.97 25.32 475.30 Z" />
<path fill="#b26aaf" opacity="1.00" d=" M 890.98 499.60 C 897.63 487.12 906.29 475.49 917.62 466.89 C 922.69 474.88 929.01 483.07 929.00 493.00 C 929.75 505.36 915.58 515.31 904.11 510.99 C 898.72 508.89 892.56 505.61 890.98 499.60 Z" />
<path fill="#b26aaf" opacity="1.00" d=" M 429.37 495.35 C 431.70 491.51 433.61 487.02 437.66 484.66 C 437.57 489.89 436.44 495.16 437.42 500.37 C 441.78 499.71 448.42 498.07 450.78 503.14 C 451.14 507.84 448.49 512.21 446.48 516.32 C 445.28 511.92 444.04 506.15 438.99 504.74 C 432.94 503.99 427.63 508.08 423.56 512.08 C 422.71 512.34 421.87 512.59 421.04 512.85 C 423.15 506.72 426.46 501.11 429.37 495.35 Z" />
<path fill="#b26aaf" opacity="1.00" d=" M 860.30 512.30 C 868.02 513.61 875.47 516.19 883.22 517.34 C 882.54 521.71 881.28 525.95 880.37 530.27 C 872.93 525.20 866.01 519.29 860.30 512.30 Z" />
<path fill="#b26aaf" opacity="1.00" d=" M 256.40 512.79 C 258.52 514.95 259.80 517.72 261.26 520.33 C 257.59 523.68 256.43 528.65 255.46 533.32 C 254.66 536.27 254.20 539.31 254.19 542.37 C 248.46 536.23 250.70 527.30 252.75 520.12 C 253.20 518.69 253.73 517.29 254.37 515.94 C 255.01 514.86 255.71 513.82 256.40 512.79 Z" />
<path fill="#b26aaf" opacity="1.00" d=" M 427.77 536.01 C 432.45 532.44 436.37 527.86 441.61 525.04 C 440.32 527.26 439.06 529.51 437.85 531.78 C 443.84 531.65 451.16 529.50 455.92 534.33 C 451.70 534.73 447.47 534.91 443.28 535.53 C 438.11 535.62 432.94 535.73 427.77 536.01 Z" />
<path fill="#b26aaf" opacity="1.00" d=" M 162.08 532.55 C 165.97 530.50 169.78 528.29 173.80 526.50 C 179.51 529.18 185.82 530.32 192.11 530.36 C 188.17 535.90 181.70 539.17 174.95 539.48 C 175.98 542.91 177.30 546.37 177.26 550.01 C 176.98 552.74 174.11 553.78 172.10 555.04 C 167.72 548.01 166.36 539.63 162.08 532.55 Z" />
<path fill="#b26aaf" opacity="1.00" d=" M 231.90 534.56 C 234.89 534.24 237.88 533.94 240.89 533.86 C 241.21 541.11 241.54 548.64 244.72 555.31 C 246.95 560.02 252.40 562.37 253.95 567.49 C 251.54 565.85 249.05 564.31 246.57 562.78 C 243.06 559.84 238.95 557.19 236.98 552.88 C 234.30 547.09 233.24 540.74 231.90 534.56 Z" />
<path fill="#b26aaf" opacity="1.00" d=" M 428.02 543.42 C 431.55 543.67 435.24 543.25 438.64 544.46 C 440.68 545.21 442.21 547.68 440.60 549.61 C 437.99 551.66 434.35 550.80 431.27 551.01 C 430.23 548.46 429.12 545.94 428.02 543.42 Z" />
<path fill="#b26aaf" opacity="1.00" d=" M 1016.16 558.12 C 1018.48 559.47 1020.79 560.86 1023.10 562.27 C 1021.40 564.80 1018.65 566.28 1015.84 567.23 C 1015.71 564.19 1015.83 561.14 1016.16 558.12 Z" />
<path fill="#b26aaf" opacity="1.00" d=" M 899.06 562.32 C 901.17 560.85 903.30 559.27 905.91 558.82 C 906.32 561.60 906.46 564.41 906.31 567.23 C 903.45 566.35 900.95 564.61 899.06 562.32 Z" />
<path fill="#b26aaf" opacity="1.00" d=" M 908.99 568.01 C 910.55 565.37 912.07 562.55 914.80 560.95 C 915.72 563.67 916.44 566.45 917.01 569.27 C 914.30 569.03 911.62 568.66 908.99 568.01 Z" />
<path fill="#b26aaf" opacity="1.00" d=" M 1007.01 560.81 C 1009.72 562.65 1011.83 565.18 1013.44 568.02 C 1010.69 568.83 1007.82 569.20 1004.97 569.36 C 1005.43 566.46 1006.13 563.61 1007.01 560.81 Z" />
<path fill="#b26aaf" opacity="1.00" d=" M 920.00 569.44 C 920.97 566.59 921.96 563.67 923.92 561.31 C 925.44 563.35 926.79 565.51 928.06 567.72 C 925.67 569.25 922.75 569.38 920.00 569.44 Z" />
<path fill="#b26aaf" opacity="1.00" d=" M 993.91 567.80 C 995.12 565.61 996.43 563.46 997.86 561.41 C 999.79 563.78 1001.16 566.53 1002.12 569.43 C 999.31 569.38 996.38 569.26 993.91 567.80 Z" />
</g>
<g id="#85b4e0ff">
<path fill="#85b4e0" opacity="1.00" d=" M 491.52 86.80 C 492.55 97.38 494.29 107.88 496.89 118.20 C 502.20 140.42 509.12 162.22 516.35 183.89 C 522.75 202.66 529.30 221.39 536.60 239.84 C 543.93 220.25 550.38 200.28 554.61 179.78 C 556.89 186.80 558.66 193.97 560.45 201.12 C 572.00 247.57 583.40 294.06 594.76 340.56 C 577.66 346.93 560.88 354.16 544.76 362.74 C 526.18 372.66 507.77 382.93 489.76 393.85 C 475.17 402.94 460.45 412.08 447.64 423.62 C 444.15 427.03 439.72 430.71 439.67 436.01 C 439.60 439.79 443.78 441.45 446.92 441.89 C 454.46 442.58 461.97 440.98 469.31 439.43 C 485.92 435.51 502.09 429.95 518.10 424.09 C 548.24 412.90 576.29 397.01 605.06 382.85 C 610.28 404.65 615.73 426.39 620.85 448.21 C 611.55 454.34 601.59 459.39 591.98 465.02 C 586.46 468.06 581.16 471.51 575.51 474.31 C 548.04 476.32 520.57 478.38 493.09 480.19 C 486.88 480.37 480.64 481.65 474.45 480.81 C 473.43 480.43 472.41 480.06 471.39 479.71 C 465.63 477.50 459.50 479.73 453.56 479.48 C 453.40 475.98 453.24 472.48 453.04 468.98 C 457.16 467.35 461.17 465.37 465.46 464.20 C 468.53 469.72 473.09 475.85 480.01 476.09 C 486.41 476.17 493.21 475.19 498.62 471.54 C 500.59 470.28 501.34 468.00 502.23 465.97 C 503.05 464.92 503.98 463.96 504.91 463.01 C 503.13 460.78 500.35 460.88 498.29 462.66 C 497.44 462.59 496.60 462.51 495.76 462.44 C 494.03 458.32 492.80 453.72 489.43 450.58 C 485.92 447.13 480.65 446.05 475.91 446.87 C 474.48 444.69 473.65 441.75 471.10 440.61 C 467.48 441.94 469.97 446.33 470.89 448.78 C 470.40 448.93 469.43 449.24 468.94 449.39 C 466.36 447.28 464.21 444.46 460.78 443.72 C 460.17 448.14 462.21 452.19 463.88 456.14 C 456.56 458.10 449.02 459.23 441.89 461.85 C 429.42 466.27 418.47 474.48 410.39 484.91 C 405.87 485.09 401.36 485.47 396.83 485.33 C 397.26 473.10 392.58 461.22 385.73 451.27 C 379.33 442.27 368.86 435.41 357.53 435.67 C 345.24 434.87 331.94 438.01 323.17 447.15 C 312.19 457.96 309.47 473.94 300.75 486.26 C 291.03 487.18 281.29 485.63 271.58 486.72 C 270.19 484.72 268.70 482.80 267.16 480.93 C 267.44 482.73 267.75 484.53 268.15 486.32 C 240.78 486.32 213.43 485.84 186.09 484.54 C 172.71 483.74 159.23 483.21 146.07 480.52 C 141.96 479.83 138.35 477.45 135.66 474.32 C 126.75 464.33 121.00 452.06 115.53 439.97 C 124.86 421.87 133.10 403.21 143.11 385.48 C 143.88 394.30 144.32 403.16 145.50 411.95 C 151.51 396.79 158.26 381.93 164.86 367.02 C 166.88 372.51 167.92 378.27 169.45 383.90 C 172.68 373.90 175.27 363.69 178.84 353.80 C 182.23 367.53 185.78 381.25 188.75 395.09 C 195.10 374.51 199.22 353.32 205.24 332.65 C 209.91 349.70 213.25 367.11 217.47 384.29 C 223.52 374.78 228.29 364.51 233.96 354.77 C 227.95 357.48 221.92 360.36 215.41 361.67 C 222.53 346.14 231.82 331.76 240.23 316.92 C 232.76 320.31 225.44 324.45 217.23 325.78 C 225.83 311.34 237.85 298.99 244.49 283.38 C 252.45 262.98 256.35 241.32 262.60 220.41 C 268.23 238.76 274.40 256.98 282.30 274.50 C 284.52 279.26 286.86 284.08 290.44 287.99 C 290.70 287.91 291.24 287.75 291.51 287.67 C 295.75 275.57 299.92 263.42 304.69 251.51 C 297.78 255.54 290.86 259.56 283.84 263.40 C 294.72 234.05 305.24 204.55 314.86 174.75 C 317.60 165.84 319.55 156.71 321.73 147.65 C 323.03 148.89 323.99 150.42 324.57 152.13 C 327.40 159.98 330.55 167.77 332.02 176.02 C 337.60 200.76 342.20 226.48 355.52 248.49 C 357.64 252.40 362.48 255.72 360.91 260.74 C 355.18 261.28 349.98 258.67 344.98 256.28 C 353.08 276.56 361.74 296.64 369.46 317.08 C 377.41 298.89 384.69 280.40 391.65 261.81 C 396.75 275.96 400.34 290.60 405.27 304.82 C 411.10 286.83 417.94 269.19 423.92 251.25 C 416.42 257.69 409.40 264.67 401.91 271.11 C 412.65 248.72 423.16 225.67 426.58 200.84 C 430.10 175.97 432.89 151.00 435.76 126.05 C 445.27 148.68 454.34 171.50 463.63 194.22 C 473.64 158.61 483.76 122.98 491.52 86.80 Z" />
<path fill="#85b4e0" opacity="1.00" d=" M 955.94 190.04 C 961.53 191.31 966.80 193.62 972.14 195.65 C 963.67 205.59 955.99 216.29 946.60 225.41 C 946.20 221.39 947.40 217.48 948.67 213.72 C 951.27 205.88 953.34 197.88 955.94 190.04 Z" />
<path fill="#85b4e0" opacity="1.00" d=" M 921.78 207.81 C 923.63 204.70 924.99 201.22 927.63 198.65 C 932.30 207.22 936.04 216.27 940.75 224.82 C 930.49 224.65 920.66 227.84 910.84 230.36 C 913.37 222.37 917.94 215.21 921.78 207.81 Z" />
<path fill="#85b4e0" opacity="1.00" d=" M 958.61 235.05 C 967.33 224.72 976.18 214.49 985.30 204.52 C 989.34 210.78 993.57 216.92 997.57 223.22 C 991.43 231.20 985.74 239.55 979.22 247.21 C 974.01 251.50 967.56 253.94 961.51 256.79 C 962.14 249.48 962.39 241.63 958.61 235.05 Z" />
<path fill="#85b4e0" opacity="1.00" d=" M 831.60 265.17 C 844.87 247.07 857.52 228.50 871.26 210.75 C 868.43 223.02 860.44 233.20 856.06 244.88 C 866.55 234.57 874.05 221.55 884.86 211.57 C 885.10 217.82 884.74 224.07 885.11 230.31 C 893.04 224.58 899.25 216.74 907.48 211.39 C 907.88 217.27 906.26 223.15 907.20 229.01 C 907.33 229.97 907.82 230.72 908.68 231.26 C 894.87 235.61 881.34 240.86 868.34 247.27 C 855.99 253.02 844.15 259.87 831.60 265.17 Z" />
<path fill="#85b4e0" opacity="1.00" d=" M 1022.36 248.72 C 1030.74 239.37 1039.48 230.32 1047.39 220.55 C 1048.60 223.22 1047.98 226.05 1047.15 228.73 C 1049.21 226.80 1051.43 225.03 1053.94 223.70 C 1056.02 235.34 1057.17 247.24 1061.10 258.46 C 1069.29 251.43 1072.44 240.58 1079.00 232.26 C 1085.38 238.48 1089.31 247.21 1097.05 252.00 C 1102.08 250.62 1104.46 244.96 1107.84 241.32 C 1115.77 245.21 1124.77 245.29 1133.41 244.95 C 1129.10 237.94 1122.18 233.07 1117.66 226.24 C 1119.58 226.07 1121.50 225.91 1123.44 225.76 C 1133.84 238.00 1144.67 249.86 1155.30 261.89 C 1141.96 263.74 1128.41 263.88 1115.10 265.99 C 1113.18 266.12 1113.44 268.62 1113.05 269.95 C 1109.91 297.52 1108.76 325.27 1106.55 352.92 C 1106.27 360.60 1105.85 368.28 1105.43 375.96 C 1105.24 379.24 1105.28 382.53 1105.51 385.81 C 1122.26 387.98 1138.93 390.66 1155.64 393.09 C 1152.38 419.77 1148.78 446.42 1145.21 473.06 C 1144.87 475.43 1144.70 477.94 1143.28 479.97 C 1141.77 476.48 1140.53 472.86 1138.42 469.68 C 1138.31 477.71 1140.00 485.71 1139.13 493.73 C 1137.23 493.61 1135.35 493.42 1133.48 493.30 C 1129.45 484.21 1127.06 474.09 1120.62 466.30 C 1121.69 475.23 1124.04 484.01 1124.99 492.99 C 1121.87 492.68 1118.73 492.66 1115.63 492.34 C 1109.87 488.43 1103.93 484.57 1097.21 482.56 C 1092.56 474.26 1085.35 466.74 1075.91 464.24 C 1067.78 461.92 1058.37 463.29 1051.90 468.96 C 1047.05 472.94 1044.51 478.84 1041.81 484.33 C 1034.81 483.06 1027.79 481.94 1020.83 480.51 C 1014.39 472.94 1007.30 465.74 998.75 460.55 C 990.95 456.02 982.22 452.86 973.22 452.02 C 964.84 451.13 956.46 452.10 948.15 453.12 C 946.64 450.62 944.91 447.43 946.59 444.58 C 951.59 437.06 959.85 432.84 967.48 428.49 C 992.06 415.56 1018.15 405.90 1044.15 396.30 C 1055.48 392.32 1066.77 388.12 1077.41 382.48 C 1083.57 379.73 1088.83 375.04 1092.07 369.09 C 1098.14 358.15 1097.48 344.84 1093.87 333.22 C 1093.28 331.98 1093.18 330.11 1091.62 329.74 C 1086.05 328.09 1080.20 328.05 1074.49 327.33 C 1077.93 336.44 1078.42 347.48 1072.78 355.83 C 1067.28 363.81 1058.21 368.17 1049.27 371.17 C 1026.09 379.03 1002.58 385.89 979.09 392.74 C 912.03 411.81 844.61 429.64 776.68 445.34 C 774.27 441.82 772.93 437.75 770.96 434.01 C 770.00 432.00 768.78 430.04 768.40 427.83 C 768.59 424.64 769.41 421.47 770.57 418.50 C 771.63 417.55 772.88 416.85 774.09 416.08 C 776.50 422.60 782.77 427.87 789.92 427.71 C 791.08 427.10 791.62 425.77 792.48 424.83 C 802.69 411.39 813.87 398.69 824.70 385.73 C 848.29 357.87 872.75 330.76 896.37 302.93 C 910.16 306.01 924.71 302.08 936.24 294.27 C 944.34 288.81 950.66 281.17 955.86 272.99 C 968.76 267.53 981.77 261.68 992.65 252.68 C 1000.15 246.34 1004.53 237.36 1009.67 229.19 C 1013.71 235.82 1018.25 242.13 1022.36 248.72 Z" />
<path fill="#85b4e0" opacity="1.00" d=" M 827.69 310.17 C 845.05 303.39 862.18 295.97 879.07 288.13 C 881.30 290.78 882.67 294.06 884.93 296.70 C 859.07 323.92 833.06 351.04 805.50 376.55 C 801.76 379.93 797.96 383.24 793.96 386.30 C 796.36 372.55 794.09 357.12 784.38 346.54 C 778.80 340.05 770.82 336.34 762.64 334.34 C 765.26 331.04 768.03 327.86 770.54 324.48 C 780.60 322.60 790.81 321.49 800.68 318.64 C 802.53 318.44 804.84 316.97 806.37 318.67 C 810.64 322.95 813.42 328.40 816.77 333.38 C 817.56 334.54 818.61 334.71 819.92 333.91 C 818.43 327.20 813.28 322.29 809.54 316.79 C 813.68 314.39 818.42 313.36 822.93 311.85 C 827.72 314.88 831.77 318.87 835.99 322.62 C 836.51 322.16 837.55 321.25 838.07 320.80 C 835.20 316.68 830.95 313.91 827.69 310.17 Z" />
<path fill="#85b4e0" opacity="1.00" d=" M 1240.58 364.85 C 1243.64 347.33 1245.87 329.67 1249.03 312.18 C 1296.00 372.08 1341.86 432.86 1389.00 492.63 L 1389.00 493.67 C 1385.46 493.66 1381.93 493.66 1378.41 493.66 C 1376.77 489.45 1372.91 486.89 1370.10 483.55 C 1370.80 483.30 1372.19 482.81 1372.89 482.56 C 1356.18 469.85 1336.42 462.25 1317.56 453.44 C 1307.09 448.39 1296.44 443.71 1286.09 438.42 C 1286.86 432.58 1285.85 426.40 1282.39 421.55 C 1276.98 413.79 1271.14 406.27 1264.40 399.63 C 1253.84 389.98 1249.60 375.71 1240.58 364.85 Z" />
<path fill="#85b4e0" opacity="1.00" d=" M 1176.31 396.42 C 1179.09 396.56 1181.89 396.68 1184.69 396.77 C 1184.48 399.18 1184.20 401.58 1184.11 404.00 C 1184.34 419.73 1192.63 433.94 1201.67 446.29 C 1207.22 453.87 1215.48 458.66 1223.09 463.88 C 1221.94 467.73 1220.76 471.58 1219.78 475.49 C 1214.77 467.83 1210.36 459.73 1204.32 452.79 C 1202.28 450.59 1200.22 447.54 1196.94 447.45 C 1194.06 448.66 1193.76 452.31 1193.77 455.02 C 1194.26 466.00 1199.33 476.15 1205.34 485.14 C 1202.90 486.83 1200.34 488.33 1197.80 489.83 C 1196.31 489.14 1194.69 489.01 1193.12 488.86 C 1193.78 482.42 1194.08 475.87 1192.97 469.46 C 1188.34 475.69 1185.88 483.31 1180.96 489.34 C 1180.44 489.31 1179.38 489.23 1178.85 489.19 C 1178.50 485.47 1178.26 481.74 1178.33 478.00 C 1177.71 450.81 1177.04 423.61 1176.31 396.42 Z" />
<path fill="#85b4e0" opacity="1.00" d=" M 1297.94 457.90 C 1301.24 458.53 1303.96 460.59 1306.90 462.10 C 1316.93 467.22 1327.24 471.81 1337.88 475.55 C 1337.95 479.57 1342.11 480.04 1345.07 481.12 C 1351.72 483.72 1358.31 486.46 1364.89 489.25 C 1368.16 490.72 1371.86 491.31 1374.73 493.62 C 1348.70 493.01 1322.68 492.06 1296.64 492.01 C 1294.89 484.49 1290.39 478.15 1286.44 471.68 C 1289.04 470.43 1291.70 469.29 1294.42 468.30 C 1301.77 468.84 1309.16 470.20 1316.54 469.03 C 1314.98 466.82 1312.38 465.94 1310.07 464.81 C 1305.84 462.84 1301.82 460.47 1297.94 457.90 Z" />
<path fill="#85b4e0" opacity="1.00" d=" M 1225.31 464.79 C 1226.44 465.19 1227.62 465.58 1228.79 465.96 C 1228.78 469.16 1228.91 472.35 1228.89 475.56 C 1227.74 477.87 1227.19 481.08 1224.60 482.22 C 1223.84 482.01 1222.31 481.59 1221.55 481.39 C 1222.41 475.77 1223.81 470.27 1225.31 464.79 Z" />
<path fill="#85b4e0" opacity="1.00" d=" M 1259.43 477.13 C 1263.08 478.74 1267.12 477.91 1270.97 478.20 C 1274.11 480.76 1276.34 484.21 1279.17 487.09 C 1270.55 485.73 1262.31 482.74 1253.78 480.96 C 1255.55 479.53 1257.45 478.26 1259.43 477.13 Z" />
<path fill="#85b4e0" opacity="1.00" d=" M 644.65 519.37 C 652.43 518.66 660.25 519.13 668.05 519.00 C 695.27 518.74 722.49 520.13 749.59 522.63 C 754.99 531.68 762.73 541.40 774.04 542.31 C 786.32 542.28 797.91 537.71 809.28 533.58 C 813.40 535.62 818.14 537.13 821.02 540.97 C 822.09 542.21 822.33 544.02 821.70 545.53 C 820.30 548.80 816.81 550.40 813.88 552.00 C 805.02 556.00 795.44 558.03 785.97 559.97 C 764.52 563.97 742.76 565.93 721.01 567.30 C 677.10 569.65 633.01 569.30 589.21 565.24 C 570.18 563.26 551.06 560.92 532.64 555.59 C 526.78 553.56 520.22 551.86 515.98 547.03 C 512.97 543.64 516.33 539.26 519.55 537.55 C 530.09 531.58 542.26 529.49 554.01 527.19 C 558.60 536.61 565.65 544.95 574.93 550.02 C 589.21 557.80 606.01 558.89 621.94 558.21 C 633.88 557.62 645.82 552.85 653.86 543.82 C 655.17 542.20 655.52 539.54 653.98 537.94 C 652.15 536.88 649.90 537.10 647.89 536.77 C 647.69 530.84 646.55 524.98 644.65 519.37 Z" />
<path fill="#85b4e0" opacity="1.00" d=" M 382.28 532.76 C 387.30 532.04 392.38 531.86 397.44 532.06 C 394.70 535.86 389.64 538.18 385.00 537.01 C 383.10 536.56 382.70 534.35 382.28 532.76 Z" />
<path fill="#85b4e0" opacity="1.00" d=" M 418.84 542.67 C 421.38 539.90 424.57 537.90 427.77 536.01 C 432.94 535.73 438.11 535.62 443.28 535.53 C 449.08 537.36 455.82 538.13 460.10 542.91 C 462.10 544.69 460.51 547.64 458.78 548.97 C 454.68 551.93 449.68 553.27 444.84 554.45 C 430.45 557.58 415.68 558.53 400.99 558.69 C 386.88 558.32 372.67 557.62 358.85 554.53 C 354.03 553.31 349.04 552.09 344.92 549.19 C 343.47 548.13 341.78 546.38 342.46 544.41 C 343.69 540.99 347.49 539.80 350.35 538.12 C 351.28 540.88 352.14 543.78 353.92 546.14 C 356.94 549.68 361.79 550.62 366.17 551.27 C 378.67 552.77 390.74 546.47 399.10 537.54 C 402.06 539.53 405.02 541.52 408.16 543.23 C 407.48 545.50 406.69 547.73 405.80 549.93 C 414.23 551.11 422.78 550.87 431.27 551.01 C 434.35 550.80 437.99 551.66 440.60 549.61 C 442.21 547.68 440.68 545.21 438.64 544.46 C 435.24 543.25 431.55 543.67 428.02 543.42 C 424.95 543.19 421.90 542.87 418.84 542.67 Z" />
<path fill="#85b4e0" opacity="1.00" d=" M 934.11 550.31 C 951.98 549.84 969.87 550.16 987.74 549.68 C 989.13 555.90 989.44 562.80 993.91 567.80 C 996.38 569.26 999.31 569.38 1002.12 569.43 C 1002.83 569.41 1004.26 569.37 1004.97 569.36 C 1007.82 569.20 1010.69 568.83 1013.44 568.02 C 1014.23 567.77 1015.03 567.51 1015.84 567.23 C 1018.65 566.28 1021.40 564.80 1023.10 562.27 C 1023.49 558.42 1022.45 554.67 1021.52 550.98 C 1035.33 550.89 1049.30 550.98 1062.82 554.18 C 1072.36 556.07 1083.22 555.74 1090.96 562.53 C 1087.82 564.77 1084.36 566.59 1080.57 567.38 C 1070.81 569.65 1060.82 570.66 1050.94 572.17 C 1025.23 576.77 998.98 576.31 972.97 576.33 C 945.96 576.50 918.96 575.70 892.03 573.63 C 878.68 572.46 865.26 571.39 852.16 568.47 C 848.21 567.31 843.31 566.83 841.14 562.82 C 844.01 559.75 848.17 558.72 852.13 557.84 C 867.92 554.38 884.10 553.40 900.16 551.94 C 899.31 555.32 898.58 558.81 899.06 562.32 C 900.95 564.61 903.45 566.35 906.31 567.23 C 907.19 567.50 908.08 567.76 908.99 568.01 C 911.62 568.66 914.30 569.03 917.01 569.27 C 917.76 569.32 919.25 569.40 920.00 569.44 C 922.75 569.38 925.67 569.25 928.06 567.72 C 932.35 562.93 933.00 556.36 934.11 550.31 Z" />
<path fill="#85b4e0" opacity="1.00" d=" M 40.91 566.46 C 71.33 561.36 102.27 560.74 133.03 559.71 C 156.91 559.53 180.80 559.63 204.66 560.26 C 205.85 561.46 207.11 562.61 208.51 563.57 C 209.87 563.38 209.89 561.52 210.62 560.66 C 222.62 560.93 234.62 561.64 246.57 562.78 C 249.05 564.31 251.54 565.85 253.95 567.49 C 261.47 573.76 270.58 578.65 280.62 578.58 C 273.19 580.17 265.64 581.11 258.10 581.93 C 233.82 584.41 209.41 585.45 185.02 586.02 C 177.02 585.89 169.02 586.04 161.02 586.35 C 149.68 585.55 138.30 586.44 126.95 585.69 C 120.04 585.78 113.13 585.29 106.22 585.24 C 81.78 583.74 57.08 583.09 33.12 577.59 C 30.06 576.73 25.09 575.90 24.96 572.06 C 29.17 568.00 35.49 567.76 40.91 566.46 Z" />
<path fill="#85b4e0" opacity="1.00" d=" M 266.32 564.98 C 274.60 565.87 283.06 566.92 290.75 570.27 C 292.34 570.75 292.74 572.47 293.32 573.81 C 290.08 576.08 286.31 577.40 282.46 578.20 C 278.36 572.41 270.53 570.79 266.32 564.98 Z" />
</g>
<g id="#ffffffff">
<path fill="#ffffff" opacity="1.00" d=" M 934.74 111.07 C 936.37 112.94 937.13 115.37 938.29 117.54 C 944.75 130.44 951.24 143.33 957.76 156.21 C 963.84 167.76 968.99 179.82 975.91 190.91 C 974.65 192.49 973.39 194.06 972.14 195.65 C 966.80 193.62 961.53 191.31 955.94 190.04 C 953.34 197.88 951.27 205.88 948.67 213.72 C 947.40 217.48 946.20 221.39 946.60 225.41 L 946.65 225.76 C 944.72 225.26 942.73 224.99 940.75 224.82 C 936.04 216.27 932.30 207.22 927.63 198.65 C 924.99 201.22 923.63 204.70 921.78 207.81 C 917.94 215.21 913.37 222.37 910.84 230.36 C 910.30 230.58 909.22 231.03 908.68 231.26 C 907.82 230.72 907.33 229.97 907.20 229.01 C 906.26 223.15 907.88 217.27 907.48 211.39 C 899.25 216.74 893.04 224.58 885.11 230.31 C 884.74 224.07 885.10 217.82 884.86 211.57 C 874.05 221.55 866.55 234.57 856.06 244.88 C 860.44 233.20 868.43 223.02 871.26 210.75 C 881.34 195.91 890.60 180.52 900.33 165.44 C 911.84 147.35 923.47 129.33 934.74 111.07 Z" />
<path fill="#ffffff" opacity="1.00" d=" M 1047.39 220.55 C 1058.48 204.97 1071.78 191.17 1083.80 176.33 C 1097.13 192.71 1110.24 209.28 1123.44 225.76 C 1121.50 225.91 1119.58 226.07 1117.66 226.24 C 1122.18 233.07 1129.10 237.94 1133.41 244.95 C 1124.77 245.29 1115.77 245.21 1107.84 241.32 C 1104.46 244.96 1102.08 250.62 1097.05 252.00 C 1089.31 247.21 1085.38 238.48 1079.00 232.26 C 1072.44 240.58 1069.29 251.43 1061.10 258.46 C 1057.17 247.24 1056.02 235.34 1053.94 223.70 C 1051.43 225.03 1049.21 226.80 1047.15 228.73 C 1047.98 226.05 1048.60 223.22 1047.39 220.55 Z" />
</g>
<g id="#498fd0ff">
<path fill="#498fd0" opacity="1.00" d=" M 685.54 123.38 C 696.11 118.92 707.47 116.38 718.93 115.92 C 739.53 114.67 759.93 121.10 777.56 131.44 C 789.84 138.71 801.08 148.28 808.61 160.52 C 811.58 160.83 814.65 160.76 817.54 161.62 C 823.15 165.23 826.53 171.50 828.25 177.80 C 831.00 188.41 829.55 199.56 827.44 210.15 C 826.63 214.06 827.62 218.03 827.63 221.97 C 828.56 238.50 827.35 255.65 820.50 270.94 C 824.29 269.20 827.90 267.11 831.60 265.17 C 844.15 259.87 855.99 253.02 868.34 247.27 C 881.34 240.86 894.87 235.61 908.68 231.26 C 909.22 231.03 910.30 230.58 910.84 230.36 C 920.66 227.84 930.49 224.65 940.75 224.82 C 942.73 224.99 944.72 225.26 946.65 225.76 C 949.38 227.17 952.15 228.53 954.68 230.30 C 956.07 231.81 957.38 233.39 958.61 235.05 C 962.39 241.63 962.14 249.48 961.51 256.79 C 960.26 262.37 958.79 268.03 955.86 272.99 C 950.66 281.17 944.34 288.81 936.24 294.27 C 924.71 302.08 910.16 306.01 896.37 302.93 C 894.99 302.56 893.63 302.14 892.31 301.65 C 889.67 300.27 887.19 298.62 884.93 296.70 C 882.67 294.06 881.30 290.78 879.07 288.13 C 862.18 295.97 845.05 303.39 827.69 310.17 C 830.95 313.91 835.20 316.68 838.07 320.80 C 837.55 321.25 836.51 322.16 835.99 322.62 C 831.77 318.87 827.72 314.88 822.93 311.85 C 818.42 313.36 813.68 314.39 809.54 316.79 C 813.28 322.29 818.43 327.20 819.92 333.91 C 818.61 334.71 817.56 334.54 816.77 333.38 C 813.42 328.40 810.64 322.95 806.37 318.67 C 804.84 316.97 802.53 318.44 800.68 318.64 C 790.81 321.49 780.60 322.60 770.54 324.48 C 754.53 326.17 738.28 326.32 722.30 324.23 C 725.40 329.00 728.60 333.70 731.72 338.46 C 741.77 335.84 752.15 332.85 762.64 334.34 C 770.82 336.34 778.80 340.05 784.38 346.54 C 794.09 357.12 796.36 372.55 793.96 386.30 C 791.57 398.30 784.74 409.71 774.09 416.08 C 772.88 416.85 771.63 417.55 770.57 418.50 C 769.41 421.47 768.59 424.64 768.40 427.83 C 768.78 430.04 770.00 432.00 770.96 434.01 C 772.93 437.75 774.27 441.82 776.68 445.34 C 783.66 458.54 789.74 472.21 797.07 485.24 C 806.71 476.56 820.42 474.38 832.95 475.73 C 836.24 476.17 839.55 475.80 842.80 475.24 C 847.94 473.82 853.27 478.87 852.72 484.04 C 852.46 492.07 847.99 499.16 844.12 505.95 C 836.34 519.06 823.08 527.82 809.28 533.58 C 797.91 537.71 786.32 542.28 774.04 542.31 C 762.73 541.40 754.99 531.68 749.59 522.63 C 742.85 501.94 736.96 480.98 730.96 460.06 C 730.15 454.89 728.27 449.99 726.88 444.97 C 723.58 433.64 720.16 422.34 716.86 411.01 C 715.31 411.04 713.78 411.07 712.25 411.11 C 706.18 427.87 698.60 444.12 689.35 459.37 C 688.52 460.77 687.79 462.22 687.09 463.68 C 675.58 483.11 658.43 498.80 639.38 510.72 C 641.37 513.44 643.31 516.25 644.65 519.37 C 646.55 524.98 647.69 530.84 647.89 536.77 C 649.90 537.10 652.15 536.88 653.98 537.94 C 655.52 539.54 655.17 542.20 653.86 543.82 C 645.82 552.85 633.88 557.62 621.94 558.21 C 606.01 558.89 589.21 557.80 574.93 550.02 C 565.65 544.95 558.60 536.61 554.01 527.19 C 549.83 516.71 549.51 504.72 553.04 494.00 C 553.75 491.91 554.51 489.73 556.06 488.10 C 561.44 482.09 569.00 478.85 575.51 474.31 C 581.16 471.51 586.46 468.06 591.98 465.02 C 601.59 459.39 611.55 454.34 620.85 448.21 C 637.04 436.54 650.08 421.23 662.86 406.05 C 651.67 402.35 640.40 396.28 634.17 385.88 C 630.88 380.79 631.44 374.46 632.14 368.73 C 623.21 373.62 614.15 378.27 605.06 382.85 C 576.29 397.01 548.24 412.90 518.10 424.09 C 502.09 429.95 485.92 435.51 469.31 439.43 C 461.97 440.98 454.46 442.58 446.92 441.89 C 443.78 441.45 439.60 439.79 439.67 436.01 C 439.72 430.71 444.15 427.03 447.64 423.62 C 460.45 412.08 475.17 402.94 489.76 393.85 C 507.77 382.93 526.18 372.66 544.76 362.74 C 560.88 354.16 577.66 346.93 594.76 340.56 C 620.96 330.88 647.68 322.65 674.45 314.71 C 655.32 305.76 638.43 291.12 628.86 272.10 C 625.00 263.81 623.77 254.44 624.70 245.39 C 617.53 237.76 607.36 233.92 597.18 232.45 C 597.23 231.22 596.62 229.47 598.04 228.77 C 608.70 228.67 618.01 234.61 626.66 240.17 C 624.86 234.88 620.81 230.86 617.33 226.66 C 612.17 220.64 605.72 215.89 598.72 212.23 C 596.99 211.61 597.05 209.74 597.04 208.23 C 601.51 208.07 605.28 210.79 608.83 213.14 C 616.11 218.35 622.03 225.20 627.61 232.15 C 627.69 220.47 626.06 208.80 626.86 197.12 C 627.93 183.00 633.92 169.79 641.41 157.95 C 639.25 148.60 635.87 139.56 634.33 130.07 C 638.44 125.05 644.58 122.22 650.82 120.91 C 660.46 118.95 670.53 120.05 679.86 122.98 C 681.70 123.46 683.70 124.42 685.54 123.38 M 685.76 127.73 C 682.86 129.34 679.89 126.84 677.00 126.35 C 665.79 123.24 652.43 121.99 642.40 128.94 C 654.90 134.06 664.79 145.13 668.23 158.22 C 667.01 158.59 664.80 159.69 664.28 157.83 C 660.28 145.88 650.82 135.67 638.72 131.77 C 640.56 139.96 642.97 148.02 645.23 156.11 C 645.42 157.15 646.10 158.38 645.34 159.37 C 641.89 165.04 638.42 170.75 635.99 176.95 C 640.76 175.06 646.57 174.91 650.74 178.28 C 662.98 187.40 667.49 203.17 678.97 213.01 C 682.47 216.28 687.43 217.23 692.08 217.03 C 714.41 215.81 736.56 210.39 759.01 212.42 C 768.15 213.24 777.75 215.95 784.16 222.91 C 793.30 231.54 797.32 245.39 793.60 257.48 C 790.06 270.10 781.96 280.62 775.59 291.86 C 778.12 296.05 779.09 301.13 777.45 305.84 C 782.48 303.10 787.93 300.73 791.90 296.46 C 790.01 296.17 788.13 295.91 786.25 295.65 C 786.35 294.31 786.46 292.99 786.59 291.66 C 789.79 292.15 792.78 293.53 795.98 293.98 C 803.17 288.26 809.76 281.53 814.46 273.58 C 823.22 258.09 824.58 239.70 823.84 222.26 C 822.64 223.44 821.63 224.78 820.77 226.21 C 819.59 225.71 818.60 224.91 817.69 224.07 C 821.58 216.40 824.27 208.09 825.32 199.54 C 826.16 189.94 826.07 179.56 820.99 171.04 C 819.17 167.73 816.02 164.54 811.97 164.67 C 796.96 164.81 783.34 172.58 771.95 181.74 C 771.04 180.82 770.13 179.91 769.24 178.99 C 779.29 170.62 791.10 163.93 804.09 161.54 C 798.89 152.80 791.24 145.74 783.04 139.84 C 771.55 131.89 758.66 125.87 745.13 122.36 C 725.47 117.58 704.25 119.51 685.76 127.73 M 639.87 179.71 C 634.88 182.67 633.13 188.62 631.82 193.90 C 628.77 207.13 632.71 220.64 631.34 233.98 C 630.87 240.08 628.15 245.82 628.43 252.01 C 628.26 263.34 633.44 273.90 640.32 282.62 C 651.12 296.78 666.22 307.63 683.03 313.46 C 688.50 311.57 694.30 308.70 700.22 310.55 C 705.15 311.75 708.25 315.98 711.34 319.66 C 728.58 320.51 746.21 318.73 762.31 312.21 C 767.10 310.18 772.12 307.30 774.30 302.33 C 775.77 298.48 772.52 295.25 770.64 292.27 C 774.57 286.28 778.22 280.12 781.86 273.95 C 786.16 266.57 790.47 258.76 791.00 250.04 C 792.48 234.25 779.61 218.89 763.97 216.98 C 741.63 213.25 719.32 218.93 697.07 220.48 C 690.60 220.89 683.38 221.26 677.93 217.11 C 665.93 208.03 661.28 192.69 650.21 182.75 C 647.46 180.29 643.57 178.34 639.87 179.71 M 919.87 231.69 C 907.75 235.25 895.54 238.71 884.04 244.02 C 862.07 253.93 840.37 264.51 819.41 276.41 C 814.64 278.93 812.79 284.37 808.78 287.74 C 806.34 290.66 802.52 292.74 801.24 296.42 C 809.32 295.85 817.45 294.67 825.54 295.69 C 827.49 296.02 830.23 297.49 829.89 299.81 C 827.91 303.31 822.38 303.71 821.62 308.00 C 829.37 306.23 836.68 303.02 843.98 299.94 C 845.22 299.46 846.36 298.76 847.37 297.87 C 843.13 297.46 837.86 298.99 834.60 295.46 C 832.27 293.22 834.81 290.20 836.53 288.50 C 846.74 280.48 858.14 272.72 871.45 271.47 C 884.33 252.80 907.38 244.83 929.02 242.35 C 929.51 242.89 930.50 243.97 930.99 244.51 C 930.64 244.93 929.92 245.75 929.57 246.16 C 920.72 246.49 911.99 248.64 903.68 251.60 C 890.56 256.40 878.21 265.11 871.78 277.80 C 870.82 278.88 871.41 280.64 872.94 280.66 C 876.01 281.77 878.68 278.93 881.69 279.34 C 882.72 284.35 883.92 289.47 887.06 293.71 C 889.30 295.63 891.82 297.17 894.42 298.54 L 894.15 298.69 C 896.01 299.04 897.89 299.46 899.70 300.07 C 917.64 303.09 935.66 293.62 947.02 280.11 C 950.21 276.86 951.38 272.35 953.42 268.40 C 955.37 263.07 958.07 257.81 958.13 252.01 C 958.48 247.40 958.05 242.71 956.53 238.33 C 955.08 236.55 953.64 234.76 952.24 232.95 C 949.80 231.31 947.13 230.08 944.44 228.93 C 936.17 227.63 927.83 229.51 919.87 231.69 M 838.37 293.25 C 842.87 294.25 847.52 293.35 852.01 292.67 C 860.26 291.04 868.94 289.51 875.87 284.41 C 873.61 284.20 870.80 284.67 869.07 282.90 C 867.75 280.55 868.54 277.68 868.67 275.15 C 857.24 278.24 845.85 283.81 838.37 293.25 M 810.12 298.91 C 809.97 299.37 809.66 300.28 809.50 300.73 C 812.19 300.48 813.58 303.17 816.04 303.54 C 819.59 304.46 822.60 301.59 824.65 299.07 C 819.91 298.00 814.88 298.03 810.12 298.91 M 793.66 301.11 C 796.27 304.49 799.72 307.24 803.07 309.81 C 806.33 309.02 809.40 307.57 812.27 305.86 C 806.99 302.08 800.20 299.42 793.66 301.11 M 774.07 312.08 C 766.99 315.26 759.69 318.01 752.12 319.77 C 750.62 320.18 748.85 320.23 747.88 321.62 C 757.28 322.05 766.59 320.28 775.96 319.90 C 783.86 317.75 791.33 314.28 799.14 311.83 C 796.52 308.17 792.66 305.66 789.02 303.15 C 784.78 307.25 779.30 309.56 774.07 312.08 M 806.85 312.70 C 810.71 312.44 816.17 312.11 817.98 308.13 C 814.01 308.91 810.31 310.67 806.85 312.70 M 676.14 322.17 C 660.08 332.84 646.14 347.31 638.07 364.97 C 635.53 370.68 634.15 377.78 637.52 383.45 C 642.62 391.75 651.13 397.48 660.22 400.67 C 674.51 405.91 689.81 407.60 704.93 408.14 C 718.71 407.77 732.37 405.84 746.09 404.59 C 749.05 404.31 752.78 403.16 754.81 406.15 C 759.36 411.76 752.77 419.05 755.76 425.17 C 757.26 428.32 761.81 428.30 764.31 426.41 C 766.85 423.97 766.47 420.12 766.70 416.91 C 772.33 413.32 778.03 409.54 782.19 404.21 C 788.45 396.64 790.98 386.65 791.34 377.00 C 791.71 366.04 788.27 354.50 780.14 346.84 C 773.15 340.48 763.54 336.72 754.04 338.05 C 740.92 339.47 728.27 343.60 715.45 346.58 C 700.52 350.03 685.04 354.02 669.65 351.37 C 670.14 350.17 669.72 347.37 671.88 347.96 C 676.87 348.28 681.87 348.53 686.87 348.23 C 688.78 339.82 693.47 332.38 698.65 325.61 C 699.49 324.22 700.76 325.89 701.44 326.55 C 702.85 327.51 701.28 328.80 700.68 329.67 C 696.36 334.97 692.76 341.05 691.07 347.72 C 698.72 346.37 706.37 344.95 713.89 342.96 C 713.21 338.62 712.00 334.37 711.68 329.98 C 712.55 329.99 714.28 330.00 715.14 330.00 C 716.23 333.86 716.85 337.83 717.55 341.77 C 720.83 341.45 724.02 340.51 727.25 339.87 C 724.30 333.97 720.24 328.74 716.56 323.30 C 713.75 322.77 711.72 324.83 709.50 326.12 C 707.41 320.21 702.92 313.77 695.99 313.70 C 688.67 314.41 682.22 318.33 676.14 322.17 M 658.84 323.78 C 663.30 323.18 668.93 323.51 672.19 319.93 C 667.60 320.60 663.10 321.99 658.84 323.78 M 653.63 329.37 C 644.89 331.92 636.40 335.27 628.24 339.27 C 627.26 339.75 626.40 340.39 625.66 341.19 C 633.63 340.64 641.03 337.28 648.45 334.60 C 653.44 332.43 659.22 331.31 663.01 327.10 C 659.76 327.25 656.71 328.46 653.63 329.37 M 566.95 355.96 C 552.24 362.49 538.58 371.10 524.15 378.15 C 518.02 381.73 511.72 385.01 505.59 388.59 C 504.27 389.47 502.46 389.98 502.03 391.74 C 508.61 389.27 514.82 385.57 521.83 384.37 C 523.98 384.03 527.15 384.31 527.55 387.01 C 527.58 390.31 524.86 392.65 522.70 394.78 C 512.08 404.32 499.57 411.50 486.76 417.67 C 481.08 420.17 475.31 423.01 469.01 423.37 C 466.37 423.91 463.79 420.67 465.44 418.34 C 467.28 414.74 471.36 412.85 472.97 409.18 C 465.43 413.25 459.09 419.14 452.38 424.39 C 448.98 427.33 445.57 430.49 443.44 434.50 C 442.40 438.31 447.53 438.12 449.98 438.36 C 460.53 437.97 470.87 435.40 481.00 432.53 C 496.52 428.03 511.80 422.69 526.79 416.67 C 548.49 407.82 569.19 396.78 590.05 386.17 C 602.42 379.85 614.70 373.34 627.04 366.96 C 630.23 364.87 634.64 363.87 636.14 359.98 C 640.20 351.97 645.83 344.95 651.26 337.88 C 641.25 340.57 631.61 345.29 621.07 345.63 C 618.72 345.88 617.27 342.61 619.00 341.09 C 623.12 337.07 628.80 335.32 633.89 332.87 C 636.22 331.64 639.16 331.29 640.91 329.16 C 615.83 336.85 591.06 345.64 566.95 355.96 M 505.08 394.25 C 495.15 399.24 485.61 405.02 476.70 411.66 C 473.70 414.04 470.58 416.56 468.82 420.05 C 485.05 416.35 499.50 407.50 512.99 398.08 C 516.78 395.00 521.57 392.51 523.54 387.78 C 517.04 388.76 511.00 391.55 505.08 394.25 M 650.60 426.48 C 640.19 437.86 629.00 448.98 615.25 456.27 C 605.50 461.86 595.60 467.20 586.04 473.12 C 578.30 477.12 570.99 481.90 563.76 486.75 C 560.74 488.75 557.80 491.34 556.92 495.01 C 552.21 509.78 554.79 527.73 566.14 538.88 C 574.31 547.13 585.49 552.27 597.03 553.32 C 602.92 553.87 608.56 551.78 614.13 550.18 C 624.31 547.09 634.08 542.83 643.84 538.64 C 645.47 526.47 639.74 513.12 628.32 507.76 C 614.98 502.16 600.06 502.69 586.01 504.65 C 585.54 503.87 584.59 502.31 584.12 501.53 C 601.33 498.10 620.87 497.80 636.03 507.92 C 653.39 497.30 669.07 483.44 680.45 466.47 C 692.31 449.72 701.30 431.05 708.23 411.77 C 702.79 411.28 697.31 411.85 691.88 411.20 C 683.53 410.55 675.38 408.53 667.08 407.50 C 661.78 413.99 656.16 420.21 650.60 426.48 M 731.12 410.00 C 739.51 422.09 742.05 437.87 738.03 452.01 C 736.67 452.79 735.26 453.49 733.79 454.02 C 733.19 458.29 735.88 461.89 736.76 465.89 C 737.42 467.50 737.22 470.01 739.23 470.65 C 747.85 474.40 752.52 483.34 755.21 491.88 C 757.94 501.82 760.82 512.12 759.36 522.52 C 759.16 524.67 755.83 526.47 757.54 528.60 C 762.22 533.87 768.41 539.31 775.97 538.71 C 787.60 538.20 798.67 534.01 809.21 529.34 C 822.02 523.46 834.49 515.09 841.44 502.47 C 844.76 496.46 848.89 490.23 848.63 483.08 C 848.57 480.71 846.28 478.99 844.05 478.96 C 841.40 479.25 838.87 480.72 836.16 480.14 C 827.19 478.85 817.71 478.87 809.20 482.32 C 805.35 484.03 801.53 486.46 799.16 490.00 C 800.47 492.53 802.22 494.80 803.74 497.21 C 802.74 497.99 801.74 498.77 800.75 499.56 C 798.23 496.48 796.68 492.76 794.65 489.37 C 783.94 470.14 775.00 450.01 765.26 430.31 C 761.23 431.30 755.74 431.79 753.21 427.73 C 750.28 422.54 752.27 416.51 752.97 411.02 C 753.59 409.28 751.85 407.22 750.02 407.79 C 743.71 408.43 737.31 408.50 731.12 410.00 M 720.37 410.60 C 723.81 422.46 727.30 434.31 730.83 446.14 C 731.54 447.75 733.51 451.04 735.43 449.55 C 737.31 436.54 736.06 421.98 727.52 411.39 C 725.82 409.18 722.68 410.64 720.37 410.60 M 739.84 475.41 C 743.68 490.05 748.30 504.48 752.50 519.02 C 753.24 520.21 753.42 523.87 755.50 522.57 C 757.04 514.02 754.70 505.44 752.72 497.17 C 750.46 489.06 747.43 480.03 739.84 475.41 M 618.02 552.57 C 616.46 553.05 614.70 553.42 613.78 554.92 C 619.88 555.00 626.02 554.35 631.93 552.76 C 639.29 550.66 647.00 547.05 651.14 540.31 C 639.85 543.70 629.31 549.18 618.02 552.57 Z" />
<path fill="#498fd0" opacity="1.00" d=" M 786.92 177.06 C 792.62 173.18 799.06 170.17 805.93 169.16 C 808.34 168.59 810.47 170.42 811.56 172.39 C 813.31 175.62 813.26 179.43 813.57 183.00 C 813.92 192.74 813.67 202.54 812.11 212.17 C 811.25 212.18 809.52 212.19 808.66 212.20 C 809.03 204.77 810.20 197.39 810.02 189.94 C 809.89 184.10 810.34 177.76 807.22 172.55 C 800.37 173.65 794.45 177.31 788.25 180.10 C 787.80 179.08 787.35 178.07 786.92 177.06 Z" />
<path fill="#498fd0" opacity="1.00" d=" M 666.17 277.23 C 670.82 275.45 675.72 277.90 679.59 280.42 C 682.48 282.41 685.81 285.13 685.74 288.98 C 686.06 291.55 683.19 293.04 680.97 292.98 C 674.71 292.46 668.67 289.08 665.05 283.94 C 663.68 281.88 663.48 278.30 666.17 277.23 M 667.99 280.08 C 669.63 286.04 676.59 288.81 682.28 289.13 C 679.72 283.66 673.70 280.90 667.99 280.08 Z" />
<path fill="#498fd0" opacity="1.00" d=" M 594.26 346.46 C 597.68 345.46 602.09 344.79 604.55 348.06 C 602.60 350.88 600.16 353.39 597.27 355.24 C 587.42 361.59 576.82 366.73 565.94 371.06 C 559.56 373.39 553.10 376.37 546.15 375.94 C 545.51 374.61 544.82 373.30 544.19 371.98 C 550.14 365.93 557.83 362.15 565.26 358.27 C 574.58 353.55 584.22 349.38 594.26 346.46 M 561.24 364.27 C 557.27 366.54 553.03 368.56 549.83 371.92 C 552.30 372.12 554.65 371.22 556.99 370.55 C 571.79 365.98 585.47 358.49 598.69 350.55 C 598.72 350.22 598.79 349.56 598.82 349.22 L 598.01 348.62 C 585.39 352.72 572.87 357.73 561.24 364.27 Z" />
</g>
<g id="#333333ff">
<path fill="#333333" opacity="1.00" d=" M 685.76 127.73 C 704.25 119.51 725.47 117.58 745.13 122.36 C 758.66 125.87 771.55 131.89 783.04 139.84 C 791.24 145.74 798.89 152.80 804.09 161.54 C 791.10 163.93 779.29 170.62 769.24 178.99 C 770.13 179.91 771.04 180.82 771.95 181.74 C 783.34 172.58 796.96 164.81 811.97 164.67 C 816.02 164.54 819.17 167.73 820.99 171.04 C 826.07 179.56 826.16 189.94 825.32 199.54 C 824.27 208.09 821.58 216.40 817.69 224.07 C 818.60 224.91 819.59 225.71 820.77 226.21 C 821.63 224.78 822.64 223.44 823.84 222.26 C 824.58 239.70 823.22 258.09 814.46 273.58 C 809.76 281.53 803.17 288.26 795.98 293.98 C 792.78 293.53 789.79 292.15 786.59 291.66 C 786.46 292.99 786.35 294.31 786.25 295.65 C 788.13 295.91 790.01 296.17 791.90 296.46 C 787.93 300.73 782.48 303.10 777.45 305.84 C 779.09 301.13 778.12 296.05 775.59 291.86 C 781.96 280.62 790.06 270.10 793.60 257.48 C 797.32 245.39 793.30 231.54 784.16 222.91 C 777.75 215.95 768.15 213.24 759.01 212.42 C 736.56 210.39 714.41 215.81 692.08 217.03 C 687.43 217.23 682.47 216.28 678.97 213.01 C 667.49 203.17 662.98 187.40 650.74 178.28 C 646.57 174.91 640.76 175.06 635.99 176.95 C 638.42 170.75 641.89 165.04 645.34 159.37 C 646.10 158.38 645.42 157.15 645.23 156.11 C 642.97 148.02 640.56 139.96 638.72 131.77 C 650.82 135.67 660.28 145.88 664.28 157.83 C 664.80 159.69 667.01 158.59 668.23 158.22 C 664.79 145.13 654.90 134.06 642.40 128.94 C 652.43 121.99 665.79 123.24 677.00 126.35 C 679.89 126.84 682.86 129.34 685.76 127.73 M 786.92 177.06 C 787.35 178.07 787.80 179.08 788.25 180.10 C 794.45 177.31 800.37 173.65 807.22 172.55 C 810.34 177.76 809.89 184.10 810.02 189.94 C 810.20 197.39 809.03 204.77 808.66 212.20 C 809.52 212.19 811.25 212.18 812.11 212.17 C 813.67 202.54 813.92 192.74 813.57 183.00 C 813.26 179.43 813.31 175.62 811.56 172.39 C 810.47 170.42 808.34 168.59 805.93 169.16 C 799.06 170.17 792.62 173.18 786.92 177.06 Z" />
<path fill="#333333" opacity="1.00" d=" M 639.87 179.71 C 643.57 178.34 647.46 180.29 650.21 182.75 C 661.28 192.69 665.93 208.03 677.93 217.11 C 683.38 221.26 690.60 220.89 697.07 220.48 C 719.32 218.93 741.63 213.25 763.97 216.98 C 779.61 218.89 792.48 234.25 791.00 250.04 C 790.47 258.76 786.16 266.57 781.86 273.95 C 778.22 280.12 774.57 286.28 770.64 292.27 C 772.52 295.25 775.77 298.48 774.30 302.33 C 772.12 307.30 767.10 310.18 762.31 312.21 C 746.21 318.73 728.58 320.51 711.34 319.66 C 708.25 315.98 705.15 311.75 700.22 310.55 C 694.30 308.70 688.50 311.57 683.03 313.46 C 666.22 307.63 651.12 296.78 640.32 282.62 C 633.44 273.90 628.26 263.34 628.43 252.01 C 628.15 245.82 630.87 240.08 631.34 233.98 C 632.71 220.64 628.77 207.13 631.82 193.90 C 633.13 188.62 634.88 182.67 639.87 179.71 M 666.17 277.23 C 663.48 278.30 663.68 281.88 665.05 283.94 C 668.67 289.08 674.71 292.46 680.97 292.98 C 683.19 293.04 686.06 291.55 685.74 288.98 C 685.81 285.13 682.48 282.41 679.59 280.42 C 675.72 277.90 670.82 275.45 666.17 277.23 Z" />
<path fill="#333333" opacity="1.00" d=" M 919.87 231.69 C 927.83 229.51 936.17 227.63 944.44 228.93 C 940.24 234.35 936.03 239.84 930.99 244.51 C 930.50 243.97 929.51 242.89 929.02 242.35 C 907.38 244.83 884.33 252.80 871.45 271.47 C 858.14 272.72 846.74 280.48 836.53 288.50 C 834.81 290.20 832.27 293.22 834.60 295.46 C 837.86 298.99 843.13 297.46 847.37 297.87 C 846.36 298.76 845.22 299.46 843.98 299.94 C 836.68 303.02 829.37 306.23 821.62 308.00 C 822.38 303.71 827.91 303.31 829.89 299.81 C 830.23 297.49 827.49 296.02 825.54 295.69 C 817.45 294.67 809.32 295.85 801.24 296.42 C 802.52 292.74 806.34 290.66 808.78 287.74 C 812.79 284.37 814.64 278.93 819.41 276.41 C 840.37 264.51 862.07 253.93 884.04 244.02 C 895.54 238.71 907.75 235.25 919.87 231.69 Z" />
<path fill="#333333" opacity="1.00" d=" M 952.57 241.56 C 953.72 240.29 955.12 239.30 956.53 238.33 C 958.05 242.71 958.48 247.40 958.13 252.01 C 958.07 257.81 955.37 263.07 953.42 268.40 C 951.38 272.35 950.21 276.86 947.02 280.11 C 935.66 293.62 917.64 303.09 899.70 300.07 C 908.21 289.85 917.47 280.29 926.70 270.73 C 935.45 261.12 943.88 251.22 952.57 241.56 Z" />
<path fill="#333333" opacity="1.00" d=" M 903.68 251.60 C 911.99 248.64 920.72 246.49 929.57 246.16 C 921.14 257.41 911.59 267.77 902.22 278.22 C 896.79 283.03 893.06 289.55 887.06 293.71 C 883.92 289.47 882.72 284.35 881.69 279.34 C 878.68 278.93 876.01 281.77 872.94 280.66 C 871.41 280.64 870.82 278.88 871.78 277.80 C 878.21 265.11 890.56 256.40 903.68 251.60 Z" />
<path fill="#333333" opacity="1.00" d=" M 838.37 293.25 C 845.85 283.81 857.24 278.24 868.67 275.15 C 868.54 277.68 867.75 280.55 869.07 282.90 C 870.80 284.67 873.61 284.20 875.87 284.41 C 868.94 289.51 860.26 291.04 852.01 292.67 C 847.52 293.35 842.87 294.25 838.37 293.25 Z" />
<path fill="#333333" opacity="1.00" d=" M 667.99 280.08 C 673.70 280.90 679.72 283.66 682.28 289.13 C 676.59 288.81 669.63 286.04 667.99 280.08 Z" />
<path fill="#333333" opacity="1.00" d=" M 810.12 298.91 C 814.88 298.03 819.91 298.00 824.65 299.07 C 822.60 301.59 819.59 304.46 816.04 303.54 C 813.58 303.17 812.19 300.48 809.50 300.73 C 809.66 300.28 809.97 299.37 810.12 298.91 Z" />
<path fill="#333333" opacity="1.00" d=" M 793.66 301.11 C 800.20 299.42 806.99 302.08 812.27 305.86 C 809.40 307.57 806.33 309.02 803.07 309.81 C 799.72 307.24 796.27 304.49 793.66 301.11 Z" />
<path fill="#333333" opacity="1.00" d=" M 774.07 312.08 C 779.30 309.56 784.78 307.25 789.02 303.15 C 792.66 305.66 796.52 308.17 799.14 311.83 C 791.33 314.28 783.86 317.75 775.96 319.90 C 766.59 320.28 757.28 322.05 747.88 321.62 C 748.85 320.23 750.62 320.18 752.12 319.77 C 759.69 318.01 766.99 315.26 774.07 312.08 Z" />
<path fill="#333333" opacity="1.00" d=" M 806.85 312.70 C 810.31 310.67 814.01 308.91 817.98 308.13 C 816.17 312.11 810.71 312.44 806.85 312.70 Z" />
<path fill="#333333" opacity="1.00" d=" M 676.14 322.17 C 682.22 318.33 688.67 314.41 695.99 313.70 C 702.92 313.77 707.41 320.21 709.50 326.12 C 711.72 324.83 713.75 322.77 716.56 323.30 C 720.24 328.74 724.30 333.97 727.25 339.87 C 724.02 340.51 720.83 341.45 717.55 341.77 C 716.85 337.83 716.23 333.86 715.14 330.00 C 714.28 330.00 712.55 329.99 711.68 329.98 C 712.00 334.37 713.21 338.62 713.89 342.96 C 706.37 344.95 698.72 346.37 691.07 347.72 C 692.76 341.05 696.36 334.97 700.68 329.67 C 701.28 328.80 702.85 327.51 701.44 326.55 C 700.76 325.89 699.49 324.22 698.65 325.61 C 693.47 332.38 688.78 339.82 686.87 348.23 C 681.87 348.53 676.87 348.28 671.88 347.96 C 669.72 347.37 670.14 350.17 669.65 351.37 C 685.04 354.02 700.52 350.03 715.45 346.58 C 728.27 343.60 740.92 339.47 754.04 338.05 C 763.54 336.72 773.15 340.48 780.14 346.84 C 788.27 354.50 791.71 366.04 791.34 377.00 C 790.98 386.65 788.45 396.64 782.19 404.21 C 778.03 409.54 772.33 413.32 766.70 416.91 C 766.47 420.12 766.85 423.97 764.31 426.41 C 761.81 428.30 757.26 428.32 755.76 425.17 C 752.77 419.05 759.36 411.76 754.81 406.15 C 752.78 403.16 749.05 404.31 746.09 404.59 C 732.37 405.84 718.71 407.77 704.93 408.14 C 689.81 407.60 674.51 405.91 660.22 400.67 C 651.13 397.48 642.62 391.75 637.52 383.45 C 634.15 377.78 635.53 370.68 638.07 364.97 C 646.14 347.31 660.08 332.84 676.14 322.17 Z" />
<path fill="#333333" opacity="1.00" d=" M 658.84 323.78 C 663.10 321.99 667.60 320.60 672.19 319.93 C 668.93 323.51 663.30 323.18 658.84 323.78 Z" />
<path fill="#333333" opacity="1.00" d=" M 566.95 355.96 C 591.06 345.64 615.83 336.85 640.91 329.16 C 639.16 331.29 636.22 331.64 633.89 332.87 C 628.80 335.32 623.12 337.07 619.00 341.09 C 617.27 342.61 618.72 345.88 621.07 345.63 C 631.61 345.29 641.25 340.57 651.26 337.88 C 645.83 344.95 640.20 351.97 636.14 359.98 C 634.64 363.87 630.23 364.87 627.04 366.96 C 614.70 373.34 602.42 379.85 590.05 386.17 C 569.19 396.78 548.49 407.82 526.79 416.67 C 511.80 422.69 496.52 428.03 481.00 432.53 C 470.87 435.40 460.53 437.97 449.98 438.36 C 447.53 438.12 442.40 438.31 443.44 434.50 C 445.57 430.49 448.98 427.33 452.38 424.39 C 459.09 419.14 465.43 413.25 472.97 409.18 C 471.36 412.85 467.28 414.74 465.44 418.34 C 463.79 420.67 466.37 423.91 469.01 423.37 C 475.31 423.01 481.08 420.17 486.76 417.67 C 499.57 411.50 512.08 404.32 522.70 394.78 C 524.86 392.65 527.58 390.31 527.55 387.01 C 527.15 384.31 523.98 384.03 521.83 384.37 C 514.82 385.57 508.61 389.27 502.03 391.74 C 502.46 389.98 504.27 389.47 505.59 388.59 C 511.72 385.01 518.02 381.73 524.15 378.15 C 538.58 371.10 552.24 362.49 566.95 355.96 M 594.26 346.46 C 584.22 349.38 574.58 353.55 565.26 358.27 C 557.83 362.15 550.14 365.93 544.19 371.98 C 544.82 373.30 545.51 374.61 546.15 375.94 C 553.10 376.37 559.56 373.39 565.94 371.06 C 576.82 366.73 587.42 361.59 597.27 355.24 C 600.16 353.39 602.60 350.88 604.55 348.06 C 602.09 344.79 597.68 345.46 594.26 346.46 Z" />
<path fill="#333333" opacity="1.00" d=" M 650.60 426.48 C 656.16 420.21 661.78 413.99 667.08 407.50 C 675.38 408.53 683.53 410.55 691.88 411.20 C 697.31 411.85 702.79 411.28 708.23 411.77 C 701.30 431.05 692.31 449.72 680.45 466.47 C 669.07 483.44 653.39 497.30 636.03 507.92 C 620.87 497.80 601.33 498.10 584.12 501.53 C 584.59 502.31 585.54 503.87 586.01 504.65 C 600.06 502.69 614.98 502.16 628.32 507.76 C 639.74 513.12 645.47 526.47 643.84 538.64 C 634.08 542.83 624.31 547.09 614.13 550.18 C 608.56 551.78 602.92 553.87 597.03 553.32 C 585.49 552.27 574.31 547.13 566.14 538.88 C 554.79 527.73 552.21 509.78 556.92 495.01 C 557.80 491.34 560.74 488.75 563.76 486.75 C 570.99 481.90 578.30 477.12 586.04 473.12 C 595.60 467.20 605.50 461.86 615.25 456.27 C 629.00 448.98 640.19 437.86 650.60 426.48 Z" />
<path fill="#333333" opacity="1.00" d=" M 731.12 410.00 C 737.31 408.50 743.71 408.43 750.02 407.79 C 751.85 407.22 753.59 409.28 752.97 411.02 C 752.27 416.51 750.28 422.54 753.21 427.73 C 755.74 431.79 761.23 431.30 765.26 430.31 C 775.00 450.01 783.94 470.14 794.65 489.37 C 796.68 492.76 798.23 496.48 800.75 499.56 C 801.74 498.77 802.74 497.99 803.74 497.21 C 802.22 494.80 800.47 492.53 799.16 490.00 C 801.53 486.46 805.35 484.03 809.20 482.32 C 817.71 478.87 827.19 478.85 836.16 480.14 C 838.87 480.72 841.40 479.25 844.05 478.96 C 846.28 478.99 848.57 480.71 848.63 483.08 C 848.89 490.23 844.76 496.46 841.44 502.47 C 834.49 515.09 822.02 523.46 809.21 529.34 C 798.67 534.01 787.60 538.20 775.97 538.71 C 768.41 539.31 762.22 533.87 757.54 528.60 C 755.83 526.47 759.16 524.67 759.36 522.52 C 760.82 512.12 757.94 501.82 755.21 491.88 C 752.52 483.34 747.85 474.40 739.23 470.65 C 737.22 470.01 737.42 467.50 736.76 465.89 C 735.88 461.89 733.19 458.29 733.79 454.02 C 735.26 453.49 736.67 452.79 738.03 452.01 C 742.05 437.87 739.51 422.09 731.12 410.00 Z" />
<path fill="#333333" opacity="1.00" d=" M 720.37 410.60 C 722.68 410.64 725.82 409.18 727.52 411.39 C 736.06 421.98 737.31 436.54 735.43 449.55 C 733.51 451.04 731.54 447.75 730.83 446.14 C 727.30 434.31 723.81 422.46 720.37 410.60 Z" />
<path fill="#333333" opacity="1.00" d=" M 712.25 411.11 C 713.78 411.07 715.31 411.04 716.86 411.01 C 720.16 422.34 723.58 433.64 726.88 444.97 C 728.27 449.99 730.15 454.89 730.96 460.06 C 730.78 459.65 730.44 458.82 730.27 458.40 C 727.51 458.64 724.77 459.02 722.04 459.37 C 721.58 458.89 720.67 457.94 720.22 457.46 C 709.25 459.93 698.15 461.68 687.09 463.68 C 687.79 462.22 688.52 460.77 689.35 459.37 C 698.60 444.12 706.18 427.87 712.25 411.11 Z" />
<path fill="#333333" opacity="1.00" d=" M 1120.62 466.30 C 1127.06 474.09 1129.45 484.21 1133.48 493.30 C 1134.69 496.34 1136.04 499.33 1137.73 502.15 C 1138.33 499.36 1138.79 496.55 1139.13 493.73 C 1140.00 485.71 1138.31 477.71 1138.42 469.68 C 1140.53 472.86 1141.77 476.48 1143.28 479.97 C 1146.68 487.27 1149.82 494.69 1152.62 502.24 C 1154.22 500.66 1154.71 498.41 1155.34 496.33 C 1157.22 489.86 1158.80 483.26 1161.53 477.08 C 1161.67 483.55 1161.55 490.03 1161.79 496.51 C 1161.58 501.36 1161.76 506.22 1161.76 511.07 C 1158.34 523.45 1154.05 535.59 1151.01 548.07 C 1145.03 547.12 1138.87 547.53 1133.00 545.96 C 1129.63 545.13 1127.00 542.79 1124.32 540.76 C 1119.89 537.39 1115.42 534.07 1110.96 530.74 C 1113.04 524.96 1115.32 518.66 1113.63 512.48 C 1111.35 505.11 1105.49 499.78 1101.00 493.77 C 1099.66 490.05 1098.62 486.24 1097.21 482.56 C 1103.93 484.57 1109.87 488.43 1115.63 492.34 C 1119.57 494.89 1123.00 498.11 1126.64 501.06 C 1126.00 498.38 1125.39 495.70 1124.99 492.99 C 1124.04 484.01 1121.69 475.23 1120.62 466.30 Z" />
<path fill="#333333" opacity="1.00" d=" M 1180.96 489.34 C 1185.88 483.31 1188.34 475.69 1192.97 469.46 C 1194.08 475.87 1193.78 482.42 1193.12 488.86 C 1194.69 489.01 1196.31 489.14 1197.80 489.83 L 1197.05 490.30 L 1196.50 490.14 C 1195.42 489.74 1194.33 489.69 1193.24 490.00 C 1193.18 490.45 1193.07 491.37 1193.01 491.82 C 1186.95 495.89 1180.58 499.45 1174.51 503.51 C 1174.83 499.33 1178.07 496.13 1179.64 492.37 C 1180.21 491.42 1180.65 490.41 1180.96 489.34 Z" />
<path fill="#333333" opacity="1.00" d=" M 739.84 475.41 C 747.43 480.03 750.46 489.06 752.72 497.17 C 754.70 505.44 757.04 514.02 755.50 522.57 C 753.42 523.87 753.24 520.21 752.50 519.02 C 748.30 504.48 743.68 490.05 739.84 475.41 Z" />
<path fill="#333333" opacity="1.00" d=" M 618.02 552.57 C 629.31 549.18 639.85 543.70 651.14 540.31 C 647.00 547.05 639.29 550.66 631.93 552.76 C 626.02 554.35 619.88 555.00 613.78 554.92 C 614.70 553.42 616.46 553.05 618.02 552.57 Z" />
</g>
<g id="#494949ff">
<path fill="#494949" opacity="1.00" d=" M 1016.26 140.31 C 1017.27 139.13 1018.39 137.71 1020.09 137.59 C 1025.20 136.76 1029.89 139.93 1033.09 143.62 C 1024.45 153.11 1015.88 162.68 1006.67 171.64 C 998.54 179.56 990.59 187.67 983.34 196.41 C 973.72 207.66 963.62 218.50 954.68 230.30 C 952.15 228.53 949.38 227.17 946.65 225.76 L 946.60 225.41 C 955.99 216.29 963.67 205.59 972.14 195.65 C 973.39 194.06 974.65 192.49 975.91 190.91 C 989.64 174.28 1003.54 157.75 1016.26 140.31 Z" />
<path fill="#494949" opacity="1.00" d=" M 1177.74 222.86 C 1184.23 225.91 1189.91 230.88 1193.61 237.05 C 1193.30 244.21 1191.74 251.30 1191.02 258.44 C 1188.09 258.70 1185.17 259.00 1182.27 259.38 C 1180.48 259.29 1178.72 259.16 1176.97 259.04 C 1177.10 246.99 1176.04 234.83 1177.74 222.86 Z" />
<path fill="#494949" opacity="1.00" d=" M 944.44 228.93 C 947.13 230.08 949.80 231.31 952.24 232.95 C 935.61 253.35 917.61 272.58 900.68 292.72 C 898.81 294.87 897.12 297.36 894.42 298.54 C 891.82 297.17 889.30 295.63 887.06 293.71 C 893.06 289.55 896.79 283.03 902.22 278.22 C 911.59 267.77 921.14 257.41 929.57 246.16 C 929.92 245.75 930.64 244.93 930.99 244.51 C 936.03 239.84 940.24 234.35 944.44 228.93 Z" />
<path fill="#494949" opacity="1.00" d=" M 1154.09 307.90 C 1153.93 303.92 1152.11 297.97 1156.83 296.00 C 1156.98 299.63 1156.98 303.26 1156.85 306.88 C 1155.92 307.22 1155.00 307.56 1154.09 307.90 Z" />
<path fill="#494949" opacity="1.00" d=" M 805.50 376.55 C 833.06 351.04 859.07 323.92 884.93 296.70 C 887.19 298.62 889.67 300.27 892.31 301.65 C 880.70 315.56 868.50 328.95 856.56 342.57 C 846.52 353.57 836.93 364.98 826.72 375.82 C 813.77 390.08 799.62 403.20 786.96 417.72 C 788.92 419.99 790.76 422.36 792.48 424.83 C 791.62 425.77 791.08 427.10 789.92 427.71 C 782.77 427.87 776.50 422.60 774.09 416.08 C 784.74 409.71 791.57 398.30 793.96 386.30 C 797.96 383.24 801.76 379.93 805.50 376.55 Z" />
<path fill="#494949" opacity="1.00" d=" M 1191.70 308.05 C 1193.12 308.14 1194.55 308.20 1195.99 308.24 C 1194.58 319.55 1192.39 330.74 1191.06 342.06 C 1190.59 342.31 1189.64 342.82 1189.17 343.07 C 1181.77 340.42 1174.37 337.81 1167.02 335.03 C 1162.39 333.55 1157.93 331.00 1153.04 330.75 C 1150.62 334.96 1151.67 340.48 1149.99 345.09 C 1148.48 343.40 1147.14 341.57 1145.93 339.67 C 1148.32 335.26 1148.68 330.19 1149.25 325.30 C 1161.81 328.88 1173.67 334.70 1186.41 337.62 C 1187.17 332.06 1188.12 326.54 1188.95 321.00 C 1189.66 316.64 1189.74 312.09 1191.70 308.05 Z" />
<path fill="#494949" opacity="1.00" d=" M 1105.43 375.96 C 1121.88 377.99 1138.38 379.66 1154.87 381.46 C 1163.28 382.65 1171.88 382.71 1180.14 384.90 C 1182.60 388.40 1185.55 392.18 1184.69 396.77 C 1181.89 396.68 1179.09 396.56 1176.31 396.42 C 1177.04 423.61 1177.71 450.81 1178.33 478.00 C 1178.26 481.74 1178.50 485.47 1178.85 489.19 C 1178.32 490.48 1178.59 491.54 1179.64 492.37 C 1178.07 496.13 1174.83 499.33 1174.51 503.51 C 1171.35 505.32 1168.37 507.41 1165.53 509.68 C 1164.28 510.19 1163.01 510.62 1161.76 511.07 C 1161.76 506.22 1161.58 501.36 1161.79 496.51 C 1162.48 495.38 1163.51 494.36 1163.72 492.99 C 1165.80 480.39 1167.84 467.73 1168.26 454.94 C 1168.58 441.97 1168.48 428.95 1167.20 416.03 C 1166.69 409.06 1167.38 402.07 1166.85 395.11 C 1163.18 394.06 1159.39 393.65 1155.64 393.09 C 1138.93 390.66 1122.26 387.98 1105.51 385.81 C 1105.28 382.53 1105.24 379.24 1105.43 375.96 Z" />
</g>
<g id="#6f6f6fff">
<path fill="#6f6f6f" opacity="1.00" d=" M 1006.67 171.64 C 1015.88 162.68 1024.45 153.11 1033.09 143.62 C 1033.83 146.46 1035.06 150.19 1032.38 152.42 C 1015.94 169.09 1000.90 187.07 985.30 204.52 C 976.18 214.49 967.33 224.72 958.61 235.05 C 957.38 233.39 956.07 231.81 954.68 230.30 C 963.62 218.50 973.72 207.66 983.34 196.41 C 990.59 187.67 998.54 179.56 1006.67 171.64 Z" />
<path fill="#6f6f6f" opacity="1.00" d=" M 952.24 232.95 C 953.64 234.76 955.08 236.55 956.53 238.33 C 955.12 239.30 953.72 240.29 952.57 241.56 C 943.88 251.22 935.45 261.12 926.70 270.73 C 917.47 280.29 908.21 289.85 899.70 300.07 C 897.89 299.46 896.01 299.04 894.15 298.69 L 894.42 298.54 C 897.12 297.36 898.81 294.87 900.68 292.72 C 917.61 272.58 935.61 253.35 952.24 232.95 Z" />
<path fill="#6f6f6f" opacity="1.00" d=" M 1191.02 258.44 C 1203.97 257.15 1216.95 256.17 1229.90 254.75 L 1230.41 255.59 C 1228.53 267.41 1228.59 279.43 1227.38 291.33 C 1226.23 310.22 1224.13 329.07 1223.86 348.00 C 1221.52 345.75 1218.80 343.99 1216.29 341.97 C 1215.23 340.24 1214.19 338.48 1213.57 336.54 C 1213.48 333.93 1214.22 331.36 1214.44 328.76 C 1206.68 333.26 1199.30 338.43 1191.06 342.06 C 1192.39 330.74 1194.58 319.55 1195.99 308.24 C 1194.55 308.20 1193.12 308.14 1191.70 308.05 C 1191.43 307.96 1190.88 307.77 1190.61 307.68 C 1190.57 306.79 1190.56 305.90 1190.59 305.01 C 1179.68 305.17 1168.87 306.81 1158.01 307.65 C 1157.75 303.56 1157.82 299.46 1157.78 295.36 C 1156.64 295.41 1155.54 295.47 1154.44 295.54 C 1153.72 294.77 1153.04 294.01 1152.34 293.26 C 1144.60 299.04 1136.12 303.73 1128.24 309.29 C 1126.56 310.08 1127.44 311.82 1128.12 313.00 C 1133.39 322.32 1139.85 330.88 1145.93 339.67 C 1147.14 341.57 1148.48 343.40 1149.99 345.09 C 1151.67 340.48 1150.62 334.96 1153.04 330.75 C 1157.93 331.00 1162.39 333.55 1167.02 335.03 C 1174.37 337.81 1181.77 340.42 1189.17 343.07 C 1180.99 348.48 1175.58 357.54 1173.68 367.06 C 1173.34 367.87 1173.02 368.68 1172.72 369.49 C 1169.81 371.81 1166.83 374.19 1164.98 377.48 C 1168.61 378.08 1172.25 378.78 1175.93 379.05 C 1177.46 380.90 1178.85 382.86 1180.14 384.90 C 1171.88 382.71 1163.28 382.65 1154.87 381.46 C 1138.38 379.66 1121.88 377.99 1105.43 375.96 C 1105.85 368.28 1106.27 360.60 1106.55 352.92 C 1108.76 325.27 1109.91 297.52 1113.05 269.95 C 1113.44 268.62 1113.18 266.12 1115.10 265.99 C 1128.41 263.88 1141.96 263.74 1155.30 261.89 C 1157.06 261.63 1158.86 261.40 1160.65 261.18 C 1167.79 259.73 1175.10 260.37 1182.27 259.38 C 1185.17 259.00 1188.09 258.70 1191.02 258.44 Z" />
<path fill="#6f6f6f" opacity="1.00" d=" M 892.31 301.65 C 893.63 302.14 894.99 302.56 896.37 302.93 C 872.75 330.76 848.29 357.87 824.70 385.73 C 813.87 398.69 802.69 411.39 792.48 424.83 C 790.76 422.36 788.92 419.99 786.96 417.72 C 799.62 403.20 813.77 390.08 826.72 375.82 C 836.93 364.98 846.52 353.57 856.56 342.57 C 868.50 328.95 880.70 315.56 892.31 301.65 Z" />
</g>
<g id="#5e5e5eff">
<path fill="#5e5e5e" opacity="1.00" d=" M 1162.10 221.38 C 1167.33 220.71 1172.80 220.77 1177.74 222.86 C 1176.04 234.83 1177.10 246.99 1176.97 259.04 C 1178.72 259.16 1180.48 259.29 1182.27 259.38 C 1175.10 260.37 1167.79 259.73 1160.65 261.18 C 1161.33 247.92 1161.66 234.64 1162.10 221.38 Z" />
<path fill="#5e5e5e" opacity="1.00" d=" M 1230.41 255.59 C 1238.01 265.66 1245.58 275.77 1253.14 285.88 C 1251.78 294.65 1250.46 303.42 1249.03 312.18 C 1245.87 329.67 1243.64 347.33 1240.58 364.85 C 1235.49 358.76 1229.40 353.65 1223.86 348.00 C 1224.13 329.07 1226.23 310.22 1227.38 291.33 C 1228.59 279.43 1228.53 267.41 1230.41 255.59 Z" />
<path fill="#5e5e5e" opacity="1.00" d=" M 1152.34 293.26 C 1153.04 294.01 1153.72 294.77 1154.44 295.54 C 1155.54 295.47 1156.64 295.41 1157.78 295.36 C 1157.82 299.46 1157.75 303.56 1158.01 307.65 C 1168.87 306.81 1179.68 305.17 1190.59 305.01 C 1190.56 305.90 1190.57 306.79 1190.61 307.68 C 1190.88 307.77 1191.43 307.96 1191.70 308.05 C 1189.74 312.09 1189.66 316.64 1188.95 321.00 C 1188.12 326.54 1187.17 332.06 1186.41 337.62 C 1173.67 334.70 1161.81 328.88 1149.25 325.30 C 1148.68 330.19 1148.32 335.26 1145.93 339.67 C 1139.85 330.88 1133.39 322.32 1128.12 313.00 C 1127.44 311.82 1126.56 310.08 1128.24 309.29 C 1136.12 303.73 1144.60 299.04 1152.34 293.26 M 1154.09 307.90 C 1155.00 307.56 1155.92 307.22 1156.85 306.88 C 1156.98 303.26 1156.98 299.63 1156.83 296.00 C 1152.11 297.97 1153.93 303.92 1154.09 307.90 Z" />
<path fill="#5e5e5e" opacity="1.00" d=" M 1155.64 393.09 C 1159.39 393.65 1163.18 394.06 1166.85 395.11 C 1167.38 402.07 1166.69 409.06 1167.20 416.03 C 1168.48 428.95 1168.58 441.97 1168.26 454.94 C 1167.84 467.73 1165.80 480.39 1163.72 492.99 C 1163.51 494.36 1162.48 495.38 1161.79 496.51 C 1161.55 490.03 1161.67 483.55 1161.53 477.08 C 1158.80 483.26 1157.22 489.86 1155.34 496.33 C 1154.71 498.41 1154.22 500.66 1152.62 502.24 C 1149.82 494.69 1146.68 487.27 1143.28 479.97 C 1144.70 477.94 1144.87 475.43 1145.21 473.06 C 1148.78 446.42 1152.38 419.77 1155.64 393.09 Z" />
</g>
<g id="#444444ff">
<path fill="#444444" opacity="1.00" d=" M 653.63 329.37 C 656.71 328.46 659.76 327.25 663.01 327.10 C 659.22 331.31 653.44 332.43 648.45 334.60 C 641.03 337.28 633.63 340.64 625.66 341.19 C 626.40 340.39 627.26 339.75 628.24 339.27 C 636.40 335.27 644.89 331.92 653.63 329.37 Z" />
<path fill="#444444" opacity="1.00" d=" M 561.24 364.27 C 572.87 357.73 585.39 352.72 598.01 348.62 L 598.82 349.22 C 598.79 349.56 598.72 350.22 598.69 350.55 C 585.47 358.49 571.79 365.98 556.99 370.55 C 554.65 371.22 552.30 372.12 549.83 371.92 C 553.03 368.56 557.27 366.54 561.24 364.27 Z" />
<path fill="#444444" opacity="1.00" d=" M 505.08 394.25 C 511.00 391.55 517.04 388.76 523.54 387.78 C 521.57 392.51 516.78 395.00 512.99 398.08 C 499.50 407.50 485.05 416.35 468.82 420.05 C 470.58 416.56 473.70 414.04 476.70 411.66 C 485.61 405.02 495.15 399.24 505.08 394.25 Z" />
</g>
<g id="#4c5054ff">
<path fill="#4c5054" opacity="1.00" d=" M 1164.98 377.48 C 1166.83 374.19 1169.81 371.81 1172.72 369.49 C 1174.65 370.15 1176.64 370.72 1178.51 371.60 C 1179.08 373.94 1177.96 376.40 1177.60 378.73 C 1177.18 378.81 1176.35 378.97 1175.93 379.05 C 1172.25 378.78 1168.61 378.08 1164.98 377.48 Z" />
<path fill="#4c5054" opacity="1.00" d=" M 498.29 462.66 C 500.35 460.88 503.13 460.78 504.91 463.01 C 503.98 463.96 503.05 464.92 502.23 465.97 C 501.86 465.79 501.14 465.43 500.77 465.25 C 500.15 464.60 498.91 463.31 498.29 462.66 Z" />
<path fill="#4c5054" opacity="1.00" d=" M 290.09 545.04 C 291.67 545.26 293.26 545.41 294.85 545.56 C 295.06 547.69 295.24 550.14 293.18 551.46 C 291.71 549.55 290.70 547.36 290.09 545.04 Z" />
</g>
<g id="#555555ff">
<path fill="#555555" opacity="1.00" d=" M 1193.77 455.02 C 1193.76 452.31 1194.06 448.66 1196.94 447.45 C 1200.22 447.54 1202.28 450.59 1204.32 452.79 C 1210.36 459.73 1214.77 467.83 1219.78 475.49 C 1219.36 477.40 1219.04 479.33 1218.72 481.27 C 1219.43 481.30 1220.84 481.36 1221.55 481.39 C 1222.31 481.59 1223.84 482.01 1224.60 482.22 C 1224.69 485.56 1222.80 490.06 1218.98 490.16 C 1213.78 491.15 1207.87 491.23 1203.70 494.91 C 1211.54 494.85 1219.11 492.27 1226.96 492.32 C 1222.67 494.51 1218.01 495.98 1214.04 498.78 C 1223.26 497.66 1232.23 495.10 1241.17 492.68 C 1239.91 491.70 1238.60 490.80 1237.36 489.86 C 1239.35 485.21 1242.61 481.27 1244.91 476.79 C 1246.04 476.58 1247.18 476.35 1248.33 476.12 C 1248.21 474.41 1248.12 472.71 1248.04 471.01 C 1251.96 472.81 1255.76 474.86 1259.43 477.13 C 1257.45 478.26 1255.55 479.53 1253.78 480.96 C 1262.31 482.74 1270.55 485.73 1279.17 487.09 C 1280.89 488.96 1282.72 490.74 1284.52 492.55 C 1276.39 497.85 1269.65 505.04 1262.13 511.15 C 1258.35 513.98 1255.27 518.71 1250.11 518.85 C 1243.95 519.39 1237.09 516.73 1231.54 520.46 C 1223.54 525.42 1216.43 531.63 1209.34 537.77 C 1194.72 528.46 1178.37 521.59 1165.53 509.68 C 1168.37 507.41 1171.35 505.32 1174.51 503.51 C 1180.58 499.45 1186.95 495.89 1193.01 491.82 C 1194.50 491.89 1195.66 491.33 1196.50 490.14 L 1197.05 490.30 L 1197.80 489.83 C 1200.34 488.33 1202.90 486.83 1205.34 485.14 C 1199.33 476.15 1194.26 466.00 1193.77 455.02 Z" />
<path fill="#555555" opacity="1.00" d=" M 1232.35 477.03 C 1233.24 476.81 1234.16 476.61 1235.10 476.43 C 1237.08 476.51 1239.07 476.78 1241.06 477.00 C 1238.37 481.94 1235.64 486.85 1232.93 491.78 C 1230.26 491.06 1227.65 490.13 1225.14 488.98 C 1227.38 484.90 1230.02 481.06 1232.35 477.03 Z" />
</g>
<g id="#91a0d2ff">
<path fill="#91a0d2" opacity="1.00" d=" M 1284.01 455.48 C 1288.02 455.25 1293.22 453.16 1296.29 456.79 C 1292.23 456.01 1288.05 456.27 1284.01 455.48 Z" />
</g>
<g id="#cda0ccff">
<path fill="#cda0cc" opacity="1.00" d=" M 1330.64 462.87 C 1335.44 463.39 1339.41 466.47 1343.80 468.25 C 1347.34 470.27 1351.62 471.25 1354.49 474.27 C 1349.96 473.55 1346.04 471.00 1341.92 469.17 C 1338.16 467.08 1333.92 465.72 1330.64 462.87 Z" />
</g>
<g id="#88929cff">
<path fill="#88929c" opacity="1.00" d=" M 1223.09 463.88 C 1223.65 464.11 1224.75 464.56 1225.31 464.79 C 1223.81 470.27 1222.41 475.77 1221.55 481.39 C 1220.84 481.36 1219.43 481.30 1218.72 481.27 C 1219.04 479.33 1219.36 477.40 1219.78 475.49 C 1220.76 471.58 1221.94 467.73 1223.09 463.88 Z" />
</g>
<g id="#dadcd7fa">
<path fill="#dadcd7" opacity="0.98" d=" M 437.99 482.97 C 438.79 480.11 440.22 477.47 442.15 475.22 C 442.81 477.86 443.24 480.57 443.68 483.27 C 441.78 483.16 439.88 483.06 437.99 482.97 Z" />
</g>
<g id="#7f7974ff">
<path fill="#7f7974" opacity="1.00" d=" M 1228.89 475.56 C 1230.02 476.04 1231.18 476.54 1232.35 477.03 C 1230.02 481.06 1227.38 484.90 1225.14 488.98 C 1227.65 490.13 1230.26 491.06 1232.93 491.78 C 1235.64 486.85 1238.37 481.94 1241.06 477.00 C 1242.33 476.98 1243.61 476.91 1244.91 476.79 C 1242.61 481.27 1239.35 485.21 1237.36 489.86 C 1238.60 490.80 1239.91 491.70 1241.17 492.68 C 1232.23 495.10 1223.26 497.66 1214.04 498.78 C 1218.01 495.98 1222.67 494.51 1226.96 492.32 C 1219.11 492.27 1211.54 494.85 1203.70 494.91 C 1207.87 491.23 1213.78 491.15 1218.98 490.16 C 1222.80 490.06 1224.69 485.56 1224.60 482.22 C 1227.19 481.08 1227.74 477.87 1228.89 475.56 Z" />
</g>
<g id="#74adc1ff">
<path fill="#74adc1" opacity="1.00" d=" M 1337.88 475.55 C 1340.56 476.31 1343.24 477.11 1345.87 478.07 C 1345.60 479.09 1345.33 480.10 1345.07 481.12 C 1342.11 480.04 1337.95 479.57 1337.88 475.55 Z" />
</g>
<g id="#dbeaf4ff">
<path fill="#dbeaf4" opacity="1.00" d=" M 340.63 486.01 C 345.28 483.30 352.29 481.71 356.49 486.00 C 351.21 486.39 345.91 486.29 340.63 486.01 Z" />
</g>
<g id="#0d111428">
<path fill="#0d1114" opacity="0.16" d=" M 1178.85 489.19 C 1179.38 489.23 1180.44 489.31 1180.96 489.34 C 1180.65 490.41 1180.21 491.42 1179.64 492.37 C 1178.59 491.54 1178.32 490.48 1178.85 489.19 Z" />
</g>
<g id="#13131348">
<path fill="#131313" opacity="0.28" d=" M 1193.24 490.00 C 1194.33 489.69 1195.42 489.74 1196.50 490.14 C 1195.66 491.33 1194.50 491.89 1193.01 491.82 C 1193.07 491.37 1193.18 490.45 1193.24 490.00 Z" />
</g>
<g id="#222222ff">
<path fill="#222222" opacity="1.00" d=" M 1262.13 511.15 C 1269.65 505.04 1276.39 497.85 1284.52 492.55 C 1289.08 497.38 1292.62 503.22 1298.17 507.05 C 1297.97 504.37 1297.85 501.71 1297.89 499.03 C 1301.08 505.31 1305.12 511.10 1308.98 516.98 C 1313.83 524.23 1313.97 533.44 1313.68 541.81 C 1305.20 552.45 1295.37 562.01 1286.05 571.88 C 1275.66 572.40 1265.20 571.46 1254.83 572.37 C 1245.78 574.19 1237.39 579.03 1228.03 579.42 C 1220.39 578.44 1213.14 575.60 1205.90 573.07 C 1199.26 570.92 1194.10 565.87 1187.60 563.41 C 1175.38 558.63 1162.67 555.23 1150.01 551.83 C 1150.32 550.57 1150.67 549.33 1151.01 548.07 C 1154.05 535.59 1158.34 523.45 1161.76 511.07 C 1163.01 510.62 1164.28 510.19 1165.53 509.68 C 1178.37 521.59 1194.72 528.46 1209.34 537.77 C 1216.43 531.63 1223.54 525.42 1231.54 520.46 C 1237.09 516.73 1243.95 519.39 1250.11 518.85 C 1255.27 518.71 1258.35 513.98 1262.13 511.15 Z" />
</g>
<g id="#3b5237ff">
<path fill="#3b5237" opacity="1.00" d=" M 1087.84 507.30 C 1091.03 506.77 1094.27 506.16 1097.52 506.41 C 1097.69 506.73 1098.02 507.37 1098.19 507.70 C 1094.83 508.26 1090.75 509.88 1087.84 507.30 Z" />
</g>
</svg>
