<?xml version="1.0" encoding="UTF-8" ?>
<!DOCTYPE svg PUBLIC "-//W3C//DTD SVG 1.1//EN" "http://www.w3.org/Graphics/SVG/1.1/DTD/svg11.dtd">
<svg width="1000pt" height="500pt" viewBox="0 0 1000 500" version="1.1" xmlns="http://www.w3.org/2000/svg">
<g id="#38c6f4ff">
<path fill="#38c6f4" opacity="1.00" d=" M 25.81 28.49 C 29.12 29.81 31.47 32.66 34.59 34.32 C 52.43 45.05 71.36 53.77 89.87 63.23 C 94.18 66.05 96.91 70.67 99.76 74.84 C 100.26 76.36 100.94 77.94 100.75 79.59 C 96.80 83.60 90.96 84.40 86.18 87.01 C 84.54 87.85 82.83 88.48 81.03 88.90 C 81.28 88.43 81.78 87.49 82.03 87.02 C 84.47 85.37 86.51 83.22 87.35 80.32 C 87.46 80.05 87.67 79.51 87.78 79.24 C 86.25 78.71 84.61 78.82 83.06 79.15 C 80.61 76.40 76.69 73.35 77.81 69.20 C 76.17 67.46 74.37 65.81 73.23 63.68 C 74.13 64.24 76.50 64.76 76.75 63.34 C 76.01 62.23 74.53 62.19 73.36 61.88 C 68.09 58.76 62.25 56.81 56.77 54.12 C 49.60 50.60 42.70 46.46 36.49 41.41 C 33.70 39.16 31.38 36.30 28.16 34.60 L 27.63 34.28 C 26.69 32.47 25.79 30.58 25.81 28.49 Z" />
<path fill="#38c6f4" opacity="1.00" d=" M 98.66 48.88 C 102.95 45.58 108.78 45.55 113.96 45.28 C 121.06 44.85 127.86 49.84 129.73 56.68 L 129.07 57.75 C 128.78 58.31 128.19 59.43 127.89 59.99 C 127.42 61.00 126.96 62.03 126.52 63.05 C 125.34 64.18 123.48 65.10 123.75 67.03 C 124.87 68.12 126.13 69.05 127.37 70.00 C 124.92 72.87 121.77 75.22 117.96 75.82 L 117.05 76.00 C 115.75 75.88 114.46 75.87 113.16 75.96 C 112.65 75.97 111.65 75.99 111.14 76.00 C 110.61 75.73 109.53 75.17 108.99 74.90 C 107.72 74.11 106.44 73.34 105.13 72.60 C 99.43 69.27 98.94 61.90 99.26 56.01 C 99.81 55.30 100.37 54.60 100.94 53.91 C 100.29 52.70 99.00 52.21 97.83 51.67 C 98.82 50.76 99.93 49.98 101.08 49.28 C 100.47 49.18 99.26 48.98 98.66 48.88 M 116.36 53.05 C 114.16 54.05 114.56 57.90 117.07 58.02 C 118.76 58.47 120.47 56.80 120.02 55.10 C 120.01 53.29 117.88 52.58 116.36 53.05 Z" />
</g>
<g id="#33aed5ff">
<path fill="#33aed5" opacity="1.00" d=" M 28.16 34.60 C 31.38 36.30 33.70 39.16 36.49 41.41 C 42.70 46.46 49.60 50.60 56.77 54.12 C 62.25 56.81 68.09 58.76 73.36 61.88 C 73.33 62.33 73.26 63.23 73.23 63.68 C 74.37 65.81 76.17 67.46 77.81 69.20 C 76.69 73.35 80.61 76.40 83.06 79.15 C 84.16 80.24 85.86 80.49 87.35 80.32 C 86.51 83.22 84.47 85.37 82.03 87.02 C 77.82 91.95 71.19 93.77 64.95 94.33 C 63.80 94.56 60.41 93.92 62.19 92.27 C 63.94 90.46 66.15 89.18 67.95 87.41 C 64.25 87.34 60.66 88.37 56.99 88.56 C 55.36 88.74 53.98 87.67 53.78 86.05 C 55.78 85.23 57.91 84.84 60.05 84.59 C 53.76 82.88 47.02 80.74 42.38 75.97 C 46.10 75.86 49.61 77.19 53.20 77.93 C 48.87 74.28 43.67 71.86 38.61 69.40 C 37.51 68.96 36.61 68.17 35.96 67.19 C 39.94 66.05 44.08 66.62 48.14 66.42 C 42.25 63.04 36.34 58.96 32.98 52.89 C 32.88 52.28 32.68 51.07 32.58 50.47 C 38.53 50.82 43.53 54.44 48.78 56.87 C 41.44 51.43 34.80 44.97 29.56 37.46 C 28.94 36.59 28.47 35.63 28.16 34.60 Z" />
<path fill="#33aed5" opacity="1.00" d=" M 123.75 67.03 C 123.48 65.10 125.34 64.18 126.52 63.05 C 127.61 63.71 128.72 64.35 129.84 64.96 C 129.09 66.67 128.30 68.37 127.37 70.00 C 126.13 69.05 124.87 68.12 123.75 67.03 Z" />
<path fill="#33aed5" opacity="1.00" d=" M 99.76 74.84 C 101.41 73.91 103.03 71.41 105.13 72.60 C 106.44 73.34 107.72 74.11 108.99 74.90 C 109.53 75.17 110.61 75.73 111.14 76.00 C 111.65 75.99 112.65 75.97 113.16 75.96 C 114.23 76.88 115.28 77.84 116.29 78.84 L 116.22 80.01 L 115.37 80.21 C 115.26 80.67 115.04 81.57 114.94 82.03 C 114.63 82.98 114.31 83.94 114.00 84.89 C 113.74 85.44 113.21 86.55 112.95 87.10 C 110.78 91.94 108.47 96.73 105.66 101.23 C 105.59 101.34 105.45 101.56 105.38 101.67 C 104.94 102.35 104.04 103.70 103.60 104.37 L 103.51 104.50 L 103.41 104.64 C 101.30 107.67 98.82 110.43 96.20 113.03 C 95.85 113.34 95.14 113.95 94.78 114.26 L 94.44 114.46 L 94.19 114.77 C 89.67 117.92 84.02 118.13 78.89 119.68 C 68.69 122.69 58.89 127.22 50.12 133.24 C 46.87 135.64 43.27 138.16 41.90 142.15 C 41.06 144.77 39.12 146.78 36.66 147.95 C 33.31 140.85 36.35 131.95 42.40 127.27 C 50.75 120.65 61.71 118.89 72.02 117.78 C 73.92 106.49 79.14 95.96 86.18 87.01 C 90.96 84.40 96.80 83.60 100.75 79.59 C 100.94 77.94 100.26 76.36 99.76 74.84 Z" />
</g>
<g id="#000000ff">
<path fill="#000000" opacity="1.00" d=" M 116.36 53.05 C 117.88 52.58 120.01 53.29 120.02 55.10 C 120.47 56.80 118.76 58.47 117.07 58.02 C 114.56 57.90 114.16 54.05 116.36 53.05 Z" />
<path fill="#000000" opacity="1.00" d=" M 854.07 260.95 C 856.54 260.32 858.73 262.26 858.01 264.80 C 857.04 266.04 854.75 266.74 853.68 265.30 C 852.24 264.21 853.04 262.03 854.07 260.95 Z" />
<path fill="#000000" opacity="1.00" d=" M 342.37 328.05 C 345.50 326.74 347.64 331.46 344.62 332.96 C 341.49 334.24 339.36 329.55 342.37 328.05 Z" />
<path fill="#000000" opacity="1.00" d=" M 776.41 346.03 C 779.51 344.79 781.62 349.45 778.63 350.95 C 775.49 352.27 773.33 347.49 776.41 346.03 Z" />
<path fill="#000000" opacity="1.00" d=" M 194.37 378.04 C 197.51 376.74 199.64 381.46 196.62 382.96 C 193.49 384.24 191.37 379.54 194.37 378.04 Z" />
</g>
<g id="#fdc066ff">
<path fill="#fdc066" opacity="1.00" d=" M 130.03 57.08 C 139.35 56.54 148.81 56.41 158.04 58.05 C 161.67 58.87 166.27 59.83 167.57 63.87 C 162.44 61.32 156.58 61.61 151.02 61.88 C 143.82 62.28 136.68 63.34 129.56 64.45 C 127.76 63.95 127.38 61.56 127.89 59.99 C 128.19 59.43 128.78 58.31 129.07 57.75 C 129.31 57.59 129.79 57.25 130.03 57.08 Z" />
<path fill="#fdc066" opacity="1.00" d=" M 117.05 76.00 L 117.96 75.82 C 118.57 75.70 119.79 75.45 120.40 75.33 C 121.76 78.39 122.80 81.86 121.79 85.19 C 120.63 89.10 117.53 91.96 114.83 94.86 C 109.91 102.06 103.18 107.88 96.20 113.03 C 98.82 110.43 101.30 107.67 103.41 104.64 C 103.46 104.57 103.55 104.44 103.60 104.37 C 104.04 103.70 104.94 102.35 105.38 101.67 C 105.45 101.56 105.59 101.34 105.66 101.23 C 108.47 96.73 110.78 91.94 112.95 87.10 C 113.21 86.55 113.74 85.44 114.00 84.89 C 114.31 83.94 114.63 82.98 114.94 82.03 C 115.26 81.52 115.90 80.52 116.22 80.01 L 116.29 78.84 C 116.77 77.94 117.02 76.99 117.05 76.00 Z" />
</g>
<g id="#2c98bbd7">
<path fill="#2c98bb" opacity="0.84" d=" M 73.36 61.88 C 74.53 62.19 76.01 62.23 76.75 63.34 C 76.50 64.76 74.13 64.24 73.23 63.68 C 73.26 63.23 73.33 62.33 73.36 61.88 Z" />
</g>
<g id="#e3e9ecff">
<path fill="#e3e9ec" opacity="1.00" d=" M 334.08 140.17 C 340.84 114.50 348.31 88.99 354.01 63.05 C 354.25 67.09 354.59 71.14 355.43 75.12 C 358.68 91.81 363.68 108.10 368.88 124.27 C 374.30 140.74 380.05 157.10 386.32 173.27 C 391.47 159.02 396.49 144.62 399.25 129.69 C 402.13 138.96 404.10 148.48 406.59 157.86 C 413.83 187.02 420.94 216.21 428.08 245.40 C 404.07 253.74 381.96 266.50 360.04 279.17 C 347.33 286.84 334.48 294.49 323.18 304.19 C 320.37 306.91 316.81 309.78 316.44 313.94 C 317.06 318.33 322.45 318.58 325.94 318.35 C 339.70 317.05 352.87 312.39 365.89 307.97 C 390.17 299.75 412.63 287.21 435.42 275.66 C 439.28 291.43 443.14 307.21 446.89 323.01 C 436.35 329.22 425.60 335.08 415.07 341.32 C 390.50 343.11 365.93 345.26 341.33 346.34 C 337.15 343.13 331.46 345.58 326.64 345.31 C 326.51 342.78 326.36 340.25 326.13 337.73 C 329.05 336.36 332.11 335.31 335.05 333.96 C 337.37 338.53 341.26 343.31 346.97 342.84 C 352.53 342.54 359.98 341.30 361.88 335.15 C 362.35 334.42 362.82 333.69 363.30 332.96 C 361.79 331.52 360.29 331.97 358.93 333.35 C 356.25 333.54 356.13 330.51 355.21 328.73 C 353.42 323.68 347.63 320.41 342.40 321.82 C 341.61 320.14 340.92 318.27 339.30 317.20 C 336.45 318.23 338.22 321.35 339.17 323.14 C 338.80 323.28 338.07 323.57 337.71 323.71 C 335.64 322.55 334.57 319.75 331.77 319.77 C 331.19 323.00 332.98 325.79 334.21 328.62 C 326.25 330.22 318.10 331.86 310.96 335.91 C 305.08 339.15 299.93 343.67 295.79 348.95 C 292.40 349.25 289.01 349.39 285.62 349.42 C 286.02 341.26 282.98 333.26 278.68 326.46 C 274.00 319.00 265.77 313.37 256.73 313.70 C 248.16 313.28 239.04 315.64 232.87 321.89 C 224.90 329.64 222.85 341.12 216.69 350.09 C 209.52 350.45 202.33 349.97 195.16 350.29 C 194.19 348.90 193.26 347.50 192.31 346.11 C 192.58 347.44 192.84 348.76 193.17 350.08 C 170.09 350.01 146.99 349.70 123.95 348.21 C 117.31 347.61 110.59 347.24 104.10 345.60 C 101.00 344.94 98.71 342.57 96.74 340.24 C 90.96 333.29 87.07 325.03 83.37 316.85 C 89.98 303.87 96.07 290.61 102.99 277.81 C 103.41 284.18 103.79 290.57 104.68 296.90 C 109.26 286.12 113.87 275.36 118.68 264.69 C 120.12 268.65 120.78 272.84 121.98 276.87 C 124.42 269.66 126.19 262.23 128.82 255.08 C 131.14 265.12 133.50 275.18 136.17 285.14 C 140.10 270.03 143.76 254.84 147.79 239.75 C 150.88 252.23 153.58 264.82 156.56 277.33 C 160.83 270.04 164.63 262.47 168.82 255.13 C 164.45 257.09 160.09 259.22 155.38 260.26 C 160.50 249.02 167.26 238.60 173.38 227.89 C 167.89 230.33 162.54 233.26 156.63 234.55 C 163.47 223.12 173.35 213.32 177.57 200.43 C 182.10 186.83 185.45 172.86 188.84 158.94 C 193.08 171.81 197.22 184.76 202.82 197.13 C 204.64 201.09 206.58 205.10 209.64 208.28 C 212.81 199.09 216.10 189.94 219.55 180.85 C 214.55 183.74 209.50 186.56 204.51 189.48 C 212.58 168.00 220.30 146.37 227.21 124.48 C 229.16 118.81 230.01 112.86 231.55 107.09 C 231.80 107.10 232.31 107.11 232.56 107.12 C 235.31 114.27 238.05 121.46 239.38 129.04 C 242.89 145.04 246.27 161.38 253.97 175.99 C 255.86 179.93 259.43 182.93 260.45 187.29 C 256.09 188.62 251.97 185.84 248.07 184.29 C 254.10 199.11 260.27 213.88 266.06 228.79 C 271.59 215.78 276.77 202.61 281.89 189.42 C 282.90 189.57 282.60 191.14 283.08 191.82 C 285.88 201.20 288.64 210.61 291.75 219.90 C 296.19 206.60 301.10 193.47 305.66 180.22 C 300.20 185.16 294.75 190.12 289.32 195.10 C 298.26 177.88 305.84 159.50 307.89 140.05 C 310.10 123.76 311.92 107.42 313.85 91.10 C 319.99 106.62 326.46 122.01 332.64 137.51 C 333.02 138.44 333.55 139.31 334.08 140.17 Z" />
<path fill="#e3e9ec" opacity="1.00" d=" M 736.11 179.36 C 741.98 172.54 748.43 166.19 753.98 159.10 C 755.28 161.18 753.96 163.32 753.24 165.31 C 755.03 163.89 756.84 162.50 758.65 161.09 C 760.17 169.57 760.93 178.28 763.96 186.40 C 769.79 181.27 772.13 173.45 776.83 167.41 C 781.26 172.21 784.55 178.25 790.01 181.99 C 793.48 180.26 795.34 176.66 797.74 173.79 C 803.31 177.14 810.03 176.50 816.26 176.45 C 813.03 171.42 808.27 167.66 804.65 162.94 C 806.07 162.93 807.50 162.92 808.94 162.93 C 816.27 171.69 824.05 180.06 831.57 188.66 C 821.63 189.70 811.63 190.24 801.74 191.59 C 798.92 213.48 798.07 235.55 796.44 257.54 C 793.19 252.92 792.03 247.18 788.51 242.72 C 787.94 240.98 787.57 239.15 786.70 237.53 C 782.39 236.10 777.77 236.12 773.31 235.57 L 773.74 236.83 C 771.89 232.15 768.74 228.18 765.98 224.02 C 756.04 209.13 746.15 194.19 736.11 179.36 Z" />
<path fill="#e3e9ec" opacity="1.00" d=" M 637.80 210.24 C 638.73 209.47 639.81 209.23 641.04 209.51 C 640.48 210.44 639.71 211.09 638.74 211.47 C 638.51 211.16 638.04 210.55 637.80 210.24 Z" />
<path fill="#e3e9ec" opacity="1.00" d=" M 899.13 224.83 C 926.81 260.50 954.34 296.30 981.97 332.01 C 988.04 339.56 993.52 347.64 1000.00 354.84 L 1000.00 355.48 C 977.73 355.20 955.44 354.25 933.15 354.15 C 932.27 348.49 928.47 344.19 925.81 339.33 C 927.94 338.60 930.06 337.83 932.23 337.17 C 936.50 337.49 940.76 338.26 945.08 338.07 C 946.08 338.16 947.42 338.03 948.12 337.14 C 942.15 334.72 936.75 331.18 931.01 328.30 C 928.64 328.50 926.26 328.43 923.90 328.26 C 923.28 327.23 922.69 326.22 922.10 325.20 C 922.58 325.84 923.54 327.13 924.02 327.77 C 926.30 327.91 928.59 327.79 930.85 327.35 C 941.41 332.95 952.02 338.53 963.38 342.35 C 962.17 345.64 966.54 345.49 968.44 346.53 C 976.60 349.11 984.13 353.63 992.51 355.44 C 990.89 352.41 988.19 350.27 985.64 348.09 C 986.38 348.00 987.87 347.82 988.61 347.73 C 975.41 337.73 959.76 332.08 944.99 324.94 C 938.69 321.93 932.31 319.07 926.08 315.92 C 926.06 312.22 925.95 308.33 923.98 305.06 C 921.20 300.59 917.82 296.51 914.49 292.45 C 911.52 288.81 907.60 286.02 905.06 282.03 C 900.96 275.68 897.68 268.82 893.10 262.79 C 895.34 250.18 897.07 237.47 899.13 224.83 M 949.20 338.27 C 949.11 339.82 951.73 340.27 952.91 339.86 C 952.94 338.48 950.24 337.56 949.20 338.27 M 953.96 340.58 C 954.94 341.62 956.68 342.31 958.12 341.83 C 957.98 340.50 954.58 339.24 953.96 340.58 Z" />
<path fill="#e3e9ec" opacity="1.00" d=" M 400.03 269.89 C 410.77 266.46 421.15 261.69 430.57 255.49 C 431.89 261.32 433.41 267.09 434.73 272.93 C 417.42 281.61 400.38 290.87 382.60 298.57 C 368.09 304.48 353.27 309.79 338.04 313.52 C 335.57 313.98 333.11 314.91 330.58 314.79 C 327.40 313.64 324.01 313.73 320.69 313.73 C 322.60 310.35 325.70 307.94 328.21 305.04 L 326.95 304.75 C 332.57 300.15 338.29 295.51 344.77 292.16 C 341.13 294.58 337.64 297.43 335.07 301.00 C 333.84 302.53 335.19 304.92 337.04 304.95 C 342.15 304.93 346.83 302.46 351.40 300.45 C 361.02 295.57 370.77 290.24 378.30 282.39 C 380.53 280.69 380.51 276.30 376.93 276.60 C 370.15 277.32 364.17 281.06 358.06 283.84 C 365.41 278.70 373.48 274.76 381.26 270.34 L 381.41 270.37 C 381.82 270.45 382.65 270.62 383.07 270.70 C 385.96 270.06 388.80 266.26 391.76 267.92 C 392.32 272.30 397.12 270.67 400.03 269.89 Z" />
<path fill="#e3e9ec" opacity="1.00" d=" M 350.53 291.47 C 358.82 286.40 367.43 281.27 377.04 279.22 C 374.58 283.27 370.26 285.73 366.55 288.52 C 357.54 294.34 348.07 300.05 337.50 302.44 C 340.71 297.66 345.89 294.70 350.53 291.47 Z" />
<path fill="#e3e9ec" opacity="1.00" d=" M 805.81 279.17 C 814.57 280.46 823.34 281.76 832.10 283.06 C 829.19 304.23 826.65 325.45 823.58 346.60 C 822.20 343.68 820.80 340.77 819.64 337.76 C 819.45 332.42 818.11 327.22 817.14 321.99 C 815.16 311.72 813.10 301.45 810.53 291.31 C 809.37 287.11 807.33 283.24 805.81 279.17 Z" />
<path fill="#e3e9ec" opacity="1.00" d=" M 846.78 285.35 C 848.84 285.58 850.93 285.72 853.02 285.64 C 852.88 287.41 852.67 289.18 852.58 290.95 C 853.09 302.54 859.07 313.05 866.02 322.02 C 869.84 327.09 875.52 330.16 880.59 333.79 C 879.62 336.72 878.79 339.70 878.14 342.72 C 874.34 336.33 870.66 329.78 865.50 324.37 C 864.36 323.26 863.02 321.89 861.28 322.24 C 858.89 324.45 859.42 328.07 859.74 330.98 C 861.02 337.63 863.89 343.98 867.98 349.38 C 866.10 350.64 864.17 351.82 862.16 352.83 C 861.07 351.94 859.98 351.85 858.88 352.57 C 859.51 347.61 859.44 342.58 859.02 337.61 C 856.16 342.43 853.59 347.41 850.76 352.24 C 850.19 352.19 849.05 352.09 848.48 352.05 C 847.92 329.82 847.52 307.58 846.78 285.35 Z" />
<path fill="#e3e9ec" opacity="1.00" d=" M 532.65 327.30 C 541.06 326.23 549.49 325.31 557.92 324.48 C 558.17 324.99 558.68 326.01 558.93 326.51 C 550.60 327.48 542.25 328.26 533.93 329.21 C 532.37 329.34 530.59 329.77 529.24 328.75 C 529.25 327.27 531.67 327.75 532.65 327.30 Z" />
<path fill="#e3e9ec" opacity="1.00" d=" M 421.70 340.84 C 430.18 335.59 439.03 330.96 447.61 325.87 C 448.65 330.09 449.66 334.32 450.73 338.53 C 441.05 339.28 431.38 340.08 421.70 340.84 Z" />
<path fill="#e3e9ec" opacity="1.00" d=" M 902.11 346.39 C 903.62 345.31 905.18 344.27 906.95 343.64 C 909.65 344.36 912.45 344.23 915.21 343.93 C 917.32 346.20 919.30 348.59 921.30 350.97 C 914.80 349.88 908.59 347.56 902.11 346.39 Z" />
</g>
<g id="#2b95b7d1">
<path fill="#2b95b7" opacity="0.82" d=" M 108.99 74.90 C 109.53 75.17 110.61 75.73 111.14 76.00 C 110.61 75.73 109.53 75.17 108.99 74.90 Z" />
</g>
<g id="#4998a6da">
<path fill="#4998a6" opacity="0.85" d=" M 113.16 75.96 C 114.46 75.87 115.75 75.88 117.05 76.00 C 117.02 76.99 116.77 77.94 116.29 78.84 C 115.28 77.84 114.23 76.88 113.16 75.96 Z" />
</g>
<g id="#2b95b7cf">
<path fill="#2b95b7" opacity="0.81" d=" M 83.06 79.15 C 84.61 78.82 86.25 78.71 87.78 79.24 C 87.67 79.51 87.46 80.05 87.35 80.32 C 85.86 80.49 84.16 80.24 83.06 79.15 Z" />
</g>
<g id="#979974d3">
<path fill="#979974" opacity="0.83" d=" M 115.37 80.21 L 116.22 80.01 C 115.90 80.52 115.26 81.52 114.94 82.03 C 115.04 81.57 115.26 80.67 115.37 80.21 Z" />
</g>
<g id="#ffffffff">
<path fill="#ffffff" opacity="1.00" d=" M 644.24 125.44 C 653.82 110.22 663.68 95.17 673.08 79.84 C 679.50 92.79 686.07 105.66 692.55 118.59 C 695.91 124.97 698.75 131.65 702.69 137.71 C 701.73 138.84 700.78 139.97 699.84 141.11 C 696.07 139.58 692.27 138.12 688.38 136.96 C 686.25 143.38 684.53 149.92 682.45 156.36 C 681.78 158.37 681.45 160.48 681.54 162.60 C 680.03 162.29 678.51 162.06 677.00 161.88 C 673.90 155.56 670.82 149.23 667.62 142.97 C 663.28 150.51 658.99 158.12 655.50 166.09 C 655.02 166.26 654.05 166.59 653.57 166.75 C 651.60 162.25 653.61 157.11 653.18 152.34 C 647.47 156.64 642.68 162.02 637.02 166.37 C 636.85 161.72 637.11 157.07 636.95 152.43 C 629.32 160.39 623.25 169.74 615.51 177.58 C 618.92 168.73 624.61 160.87 627.33 151.75 C 633.21 143.14 638.58 134.19 644.24 125.44 Z" />
<path fill="#ffffff" opacity="1.00" d=" M 753.98 159.10 C 761.91 147.76 771.56 137.71 780.37 127.05 C 789.86 139.03 799.55 150.86 808.94 162.93 C 807.50 162.92 806.07 162.93 804.65 162.94 C 808.27 167.66 813.03 171.42 816.26 176.45 C 810.03 176.50 803.31 177.14 797.74 173.79 C 795.34 176.66 793.48 180.26 790.01 181.99 C 784.55 178.25 781.26 172.21 776.83 167.41 C 772.13 173.45 769.79 181.27 763.96 186.40 C 760.93 178.28 760.17 169.57 758.65 161.09 C 756.84 162.50 755.03 163.89 753.24 165.31 C 753.96 163.32 755.28 161.18 753.98 159.10 Z" />
<path fill="#ffffff" opacity="1.00" d=" M 398.05 261.36 C 407.89 255.97 418.45 252.09 428.89 248.04 L 428.78 249.24 C 418.15 252.24 408.08 256.98 398.58 262.55 C 396.02 263.96 393.84 265.91 391.76 267.92 C 388.80 266.26 385.96 270.06 383.07 270.70 C 382.65 270.62 381.82 270.45 381.41 270.37 C 386.88 267.24 392.51 264.39 398.05 261.36 Z" />
</g>
<g id="#0366d6ff">
<path fill="#0366d6" opacity="1.00" d=" M 492.21 89.59 C 508.75 82.16 528.19 81.48 545.16 87.91 C 559.78 93.38 573.74 102.38 582.14 115.84 C 584.84 116.12 588.19 115.45 590.20 117.76 C 596.96 124.17 597.96 134.28 596.95 143.06 C 596.65 147.38 594.75 151.55 595.38 155.92 C 596.63 169.28 596.02 183.32 590.24 195.66 C 593.05 194.11 595.91 192.64 598.74 191.13 C 616.66 182.29 634.29 172.38 653.57 166.75 C 654.05 166.59 655.02 166.26 655.50 166.09 C 662.49 163.97 669.62 161.85 677.00 161.88 C 678.51 162.06 680.03 162.29 681.54 162.60 C 683.70 163.35 685.72 164.48 687.53 165.90 C 688.45 166.94 689.33 168.03 690.17 169.15 C 692.84 173.96 693.03 179.69 692.02 184.99 C 691.27 189.10 689.89 193.07 688.03 196.81 C 680.08 211.55 662.55 221.97 645.63 218.32 C 644.55 218.01 643.49 217.66 642.46 217.29 C 640.47 216.33 638.62 215.11 636.96 213.66 C 636.10 212.60 635.30 211.48 634.56 210.34 C 634.01 209.27 633.53 208.17 633.04 207.08 C 629.57 208.88 626.00 210.46 622.57 212.34 C 613.73 216.31 604.76 219.99 595.78 223.65 C 598.61 225.80 601.55 227.97 603.53 231.00 C 603.12 231.44 602.31 232.31 601.90 232.75 C 598.81 229.88 595.88 226.78 592.21 224.62 C 589.10 225.87 585.92 226.90 582.73 227.88 C 585.68 231.62 588.90 235.35 590.43 239.94 L 590.07 241.05 C 589.61 241.04 588.70 241.04 588.24 241.04 C 585.91 236.64 583.17 232.48 579.82 228.77 C 571.77 230.99 563.56 232.63 555.26 233.47 C 543.43 234.81 531.42 234.99 519.63 233.27 C 521.94 236.78 524.36 240.23 526.58 243.82 C 533.98 242.20 541.51 239.67 549.18 240.91 C 557.32 242.11 564.65 247.37 568.51 254.61 C 572.46 261.72 573.02 270.22 571.66 278.11 C 570.28 285.46 566.57 292.41 560.79 297.21 C 559.71 298.08 558.58 298.89 557.46 299.70 C 556.52 300.34 555.58 300.98 554.65 301.64 C 554.31 303.80 553.81 305.93 553.14 308.02 C 555.08 312.21 557.11 316.36 559.08 320.55 C 559.64 321.74 560.22 322.92 560.81 324.11 C 561.06 324.63 561.57 325.67 561.82 326.19 C 565.71 334.22 569.81 342.15 573.87 350.11 C 580.55 342.60 591.62 341.92 600.98 342.80 C 604.47 343.60 608.53 340.63 611.50 343.57 C 614.70 345.98 613.99 350.45 612.80 353.75 C 609.23 363.21 603.24 372.05 594.63 377.61 C 590.76 380.28 586.55 382.40 582.26 384.30 C 574.56 387.54 566.42 390.23 558.02 390.62 C 549.65 390.42 543.63 383.33 539.83 376.58 C 534.89 361.14 530.54 345.51 525.95 329.97 C 522.56 318.73 519.30 307.44 515.93 296.19 C 515.20 296.18 513.73 296.17 513.00 296.17 C 508.17 309.23 502.25 321.92 494.78 333.69 C 486.14 347.66 473.88 359.17 459.99 367.83 C 461.57 369.72 463.00 371.76 464.02 374.03 C 465.69 378.07 466.38 382.43 466.32 386.79 C 468.26 386.64 470.88 386.07 471.64 388.51 C 471.91 392.21 467.99 394.31 465.43 396.26 C 458.16 401.64 448.74 402.41 440.00 402.21 C 429.67 401.71 418.71 400.17 410.24 393.73 C 405.31 390.19 401.39 385.30 399.02 379.71 C 395.59 370.91 395.54 360.42 399.98 351.99 C 404.17 347.38 409.98 344.76 415.07 341.32 C 425.60 335.08 436.35 329.22 446.89 323.01 C 458.79 314.62 468.18 303.27 477.60 292.30 C 469.45 289.82 461.45 285.36 456.81 278.00 C 454.37 274.14 454.38 269.36 455.49 265.07 C 448.92 268.82 442.12 272.16 435.42 275.66 C 412.63 287.21 390.17 299.75 365.89 307.97 C 352.87 312.39 339.70 317.05 325.94 318.35 C 322.45 318.58 317.06 318.33 316.44 313.94 C 316.81 309.78 320.37 306.91 323.18 304.19 C 334.48 294.49 347.33 286.84 360.04 279.17 C 381.96 266.50 404.07 253.74 428.08 245.40 C 447.20 238.37 466.68 232.44 486.17 226.54 C 474.07 221.33 463.50 212.63 456.24 201.63 C 451.14 194.53 448.86 185.58 449.94 176.90 C 445.00 170.88 437.27 168.60 429.96 167.08 C 430.03 166.61 430.16 165.67 430.22 165.20 L 431.00 164.85 C 438.56 165.22 445.42 169.01 451.25 173.58 C 451.12 173.00 450.86 171.83 450.73 171.25 C 445.64 163.03 438.39 156.00 429.58 151.85 C 429.95 151.34 430.67 150.33 431.03 149.82 C 440.00 153.10 446.46 160.61 452.16 167.94 C 451.79 159.66 451.14 151.38 451.36 143.09 C 451.92 132.55 456.31 122.61 461.95 113.83 C 460.40 107.20 458.09 100.75 456.84 94.05 C 458.83 90.85 462.45 89.16 465.88 87.94 C 474.49 85.18 483.84 86.63 492.21 89.59 M 493.88 91.97 C 491.96 93.25 490.00 91.53 488.07 91.19 C 479.70 88.77 469.84 87.88 462.21 92.83 C 471.27 96.27 478.52 104.25 480.95 113.64 C 480.37 113.91 479.20 114.45 478.62 114.72 C 475.81 105.66 468.94 97.85 459.83 94.84 C 461.29 101.30 463.35 107.61 464.89 114.05 C 462.43 118.62 459.62 123.06 457.58 127.88 C 460.96 125.63 465.40 125.96 468.57 128.45 C 477.50 135.08 480.69 146.77 489.29 153.75 C 492.25 156.27 496.32 156.43 500.02 156.16 C 514.01 155.16 527.88 152.25 541.96 152.65 C 547.92 152.90 554.11 153.61 559.43 156.52 C 568.03 161.62 573.79 171.88 572.06 181.97 C 570.39 192.51 563.59 201.18 558.30 210.14 C 560.36 213.31 561.14 217.19 559.33 220.69 C 562.81 218.22 567.22 216.79 570.04 213.55 C 568.70 213.32 567.36 213.11 566.03 212.91 C 566.08 212.19 566.18 210.73 566.23 210.01 C 568.51 210.42 570.74 211.08 572.92 211.90 C 577.62 207.96 582.10 203.64 585.47 198.48 C 592.66 187.00 593.59 172.90 593.08 159.71 C 592.21 160.81 591.46 161.98 590.83 163.23 C 590.10 162.60 589.37 161.98 588.65 161.35 C 593.90 151.22 596.09 138.94 593.15 127.79 C 591.65 123.79 589.16 118.10 583.99 118.66 C 573.47 118.88 563.77 124.38 555.82 130.91 C 555.30 130.43 554.25 129.48 553.72 129.00 C 560.93 122.88 569.56 117.99 578.97 116.33 C 569.56 101.73 553.27 92.84 536.89 88.26 C 522.67 84.69 507.27 85.99 493.88 91.97 M 460.45 129.59 C 457.46 131.33 456.26 134.84 455.32 137.98 C 451.82 150.06 457.17 162.90 453.26 174.89 C 451.27 183.13 453.18 192.08 457.91 199.06 C 465.78 211.54 478.08 220.97 491.98 225.81 C 495.97 223.91 500.68 222.17 505.04 223.93 C 508.03 224.99 510.04 227.55 511.84 230.02 C 523.36 230.92 535.07 229.60 546.03 225.92 C 550.07 224.38 554.45 222.59 556.92 218.85 C 558.76 215.98 556.80 212.80 554.74 210.73 C 559.43 202.69 565.03 195.03 568.23 186.23 C 571.15 178.26 569.11 168.85 562.98 162.94 C 558.74 158.03 552.16 156.22 545.93 155.69 C 531.55 154.48 517.31 157.48 503.05 158.71 C 497.92 159.02 492.13 159.64 487.85 156.16 C 479.42 149.68 476.04 138.86 468.28 131.74 C 466.21 129.98 463.17 128.18 460.45 129.59 M 646.84 171.81 C 629.01 178.56 612.05 187.42 595.18 196.25 C 591.73 197.88 587.76 199.31 585.77 202.82 C 583.07 206.88 578.93 209.70 576.03 213.53 C 582.05 213.43 588.09 212.19 594.10 213.09 C 595.81 213.12 596.96 214.38 597.73 215.80 C 596.41 218.56 592.46 218.84 591.55 221.60 C 598.24 220.02 604.58 217.01 610.93 214.37 C 609.92 214.43 608.92 214.53 607.94 214.65 C 605.47 214.23 602.13 214.62 600.60 212.20 C 599.64 210.18 601.97 208.66 602.82 207.04 C 609.96 201.48 617.98 196.17 627.25 195.38 C 636.59 181.61 653.49 176.16 669.26 174.23 C 669.52 174.75 670.04 175.79 670.30 176.31 C 670.10 176.54 669.70 177.02 669.49 177.26 C 655.74 178.65 641.07 183.01 631.91 194.00 C 630.15 196.45 627.66 198.86 627.70 202.09 C 629.99 202.23 632.21 201.66 634.23 200.58 L 635.18 201.40 C 634.90 204.57 635.99 207.67 637.80 210.24 C 638.04 210.55 638.51 211.16 638.74 211.47 C 640.48 213.04 642.49 214.28 644.67 215.15 C 645.72 215.42 646.78 215.70 647.85 215.99 C 662.23 218.13 676.15 209.71 684.18 198.20 C 686.27 194.40 687.89 190.37 689.05 186.19 C 689.94 181.32 690.33 176.12 688.32 171.45 C 687.43 170.25 686.52 169.05 685.61 167.87 C 683.84 166.65 681.92 165.71 679.92 164.96 C 668.45 163.75 657.61 168.68 646.84 171.81 M 608.14 206.51 C 606.25 207.87 604.43 209.41 603.18 211.40 C 608.16 211.98 613.13 211.03 617.98 209.96 C 622.59 208.99 627.37 207.57 631.11 204.61 C 629.12 204.85 627.12 204.82 625.49 203.47 C 624.84 201.73 624.90 199.95 625.52 198.20 C 619.22 199.72 613.36 202.69 608.14 206.51 M 583.30 215.31 C 583.19 215.67 582.95 216.38 582.83 216.74 L 583.33 216.62 L 584.77 216.85 C 585.83 217.49 586.87 218.20 588.04 218.68 C 589.37 218.74 590.42 217.61 591.61 217.13 C 591.88 217.04 592.42 216.85 592.69 216.76 L 592.91 215.83 L 593.30 215.15 C 589.97 214.95 586.60 214.75 583.30 215.31 M 571.37 217.09 C 573.51 219.22 575.95 221.04 578.13 223.15 C 580.35 222.16 582.92 221.69 584.76 220.02 C 582.14 218.86 579.62 217.49 576.94 216.50 C 575.06 216.50 573.21 216.85 571.37 217.09 M 566.19 220.07 C 564.99 220.50 563.85 221.07 562.77 221.74 C 554.46 226.63 545.14 229.44 535.77 231.44 C 543.00 232.35 550.26 230.96 557.48 230.57 C 563.50 228.95 569.20 226.35 575.14 224.46 C 573.27 221.92 570.46 220.35 568.05 218.42 C 567.58 218.83 566.65 219.65 566.19 220.07 M 580.08 225.69 C 583.13 224.71 587.02 224.72 589.21 222.11 C 585.88 222.23 582.96 224.21 580.08 225.69 M 488.05 231.17 C 476.23 238.78 465.85 249.18 459.78 261.97 C 457.73 266.29 456.38 271.60 458.90 276.02 C 462.29 281.65 467.97 285.68 474.02 288.05 C 484.26 291.99 495.28 293.44 506.19 293.79 C 517.88 293.54 529.48 291.79 541.12 290.81 C 543.05 291.16 544.55 293.07 544.94 294.94 C 544.69 298.33 543.35 301.68 543.95 305.10 C 544.37 308.35 549.24 308.61 550.79 306.11 C 551.87 304.25 551.62 302.01 551.85 299.96 C 554.29 298.38 556.83 296.91 559.04 294.99 C 569.39 286.38 572.00 270.77 567.34 258.52 C 564.10 250.28 556.03 244.18 547.20 243.48 C 540.69 242.89 534.35 244.96 528.07 246.33 C 513.04 249.79 497.79 255.29 482.16 253.10 C 482.29 252.42 482.55 251.06 482.68 250.37 C 486.61 250.84 490.57 251.00 494.53 250.73 C 496.00 244.40 499.50 238.73 503.68 233.82 C 504.19 234.32 505.21 235.32 505.72 235.82 C 502.03 240.07 499.02 244.97 497.44 250.39 C 502.98 249.47 508.49 248.32 513.97 247.01 C 513.43 243.95 512.78 240.91 512.21 237.85 C 512.85 237.70 514.14 237.40 514.78 237.25 C 515.55 240.26 516.13 243.31 516.72 246.36 C 518.99 245.69 521.28 245.18 523.61 244.76 C 521.48 240.62 518.66 236.85 516.02 233.04 C 513.78 231.89 512.57 234.18 510.80 234.99 C 509.35 231.03 506.78 226.57 502.15 226.08 C 496.97 225.75 492.37 228.70 488.05 231.17 M 428.89 248.04 C 418.45 252.09 407.89 255.97 398.05 261.36 C 392.51 264.39 386.88 267.24 381.41 270.37 L 381.26 270.34 C 373.48 274.76 365.41 278.70 358.06 283.84 C 364.17 281.06 370.15 277.32 376.93 276.60 C 380.51 276.30 380.53 280.69 378.30 282.39 C 370.77 290.24 361.02 295.57 351.40 300.45 C 346.83 302.46 342.15 304.93 337.04 304.95 C 335.19 304.92 333.84 302.53 335.07 301.00 C 337.64 297.43 341.13 294.58 344.77 292.16 C 338.29 295.51 332.57 300.15 326.95 304.75 C 323.95 307.30 320.33 309.98 319.24 313.90 C 322.05 316.74 326.99 315.36 330.58 314.79 C 333.11 314.91 335.57 313.98 338.04 313.52 C 353.27 309.79 368.09 304.48 382.60 298.57 C 400.38 290.87 417.42 281.61 434.73 272.93 C 441.53 269.32 448.38 265.79 455.20 262.23 C 457.88 261.19 458.30 257.99 459.82 255.88 C 462.33 251.10 466.12 247.22 469.21 242.87 C 462.06 245.61 454.71 248.58 446.99 248.91 C 444.02 248.65 445.04 244.92 447.22 244.19 C 458.25 238.00 470.39 233.78 482.86 231.69 C 483.14 231.27 483.69 230.42 483.97 230.00 C 465.52 235.74 447.02 241.36 428.89 248.04 M 449.95 245.75 C 456.09 245.18 461.87 242.59 467.65 240.56 C 470.81 238.93 474.85 238.44 477.10 235.45 C 467.75 237.93 458.45 241.09 449.95 245.75 M 350.53 291.47 C 345.89 294.70 340.71 297.66 337.50 302.44 C 348.07 300.05 357.54 294.34 366.55 288.52 C 370.26 285.73 374.58 283.27 377.04 279.22 C 367.43 281.27 358.82 286.40 350.53 291.47 M 480.48 293.16 C 470.50 304.93 460.49 317.14 447.61 325.87 C 439.03 330.96 430.18 335.59 421.70 340.84 C 416.75 343.36 412.10 346.44 407.43 349.44 C 405.13 351.15 402.22 352.62 401.31 355.56 C 398.48 363.17 398.80 371.75 401.78 379.26 C 405.00 386.32 411.03 391.82 418.00 395.09 C 423.69 397.45 430.07 399.42 436.21 397.66 C 445.14 395.58 453.51 391.75 462.02 388.45 C 463.16 388.17 463.73 387.23 463.52 386.07 C 463.73 381.95 462.64 377.89 461.04 374.13 C 458.74 369.74 454.85 366.23 450.09 364.77 C 441.07 361.85 431.29 361.93 422.03 363.54 C 421.62 362.91 420.81 361.65 420.40 361.02 C 432.86 358.86 447.13 358.36 458.00 365.82 C 470.93 357.61 482.84 347.23 491.02 334.16 C 498.96 322.53 505.04 309.67 509.85 296.45 C 507.91 296.45 505.98 296.44 504.04 296.41 C 496.09 296.26 488.20 295.03 480.48 293.16 M 526.43 295.31 C 532.64 303.82 534.04 315.29 531.70 325.37 C 531.19 327.05 529.44 326.31 528.15 326.44 C 528.28 327.79 528.37 329.16 528.61 330.52 C 530.10 332.96 530.38 335.91 531.38 338.56 C 538.67 341.24 542.29 348.81 544.21 355.82 C 546.00 362.75 548.02 370.02 546.54 377.20 L 546.78 377.23 C 546.16 378.06 545.55 378.90 544.95 379.74 C 548.54 383.82 553.10 388.31 559.01 387.80 C 565.37 387.17 571.75 385.67 577.55 382.94 L 578.05 383.09 C 588.69 378.74 599.49 372.70 605.40 362.42 C 608.02 357.73 611.48 352.69 610.79 347.08 C 609.47 344.04 606.17 344.94 603.82 346.07 C 598.26 344.98 592.47 344.97 586.93 346.11 C 582.43 346.94 578.05 349.05 575.29 352.81 C 576.43 354.59 577.57 356.39 578.76 358.15 C 577.92 358.70 577.09 359.25 576.26 359.80 C 569.91 349.01 564.33 337.80 558.93 326.51 C 558.68 326.01 558.17 324.99 557.92 324.48 C 557.37 323.35 556.81 322.23 556.27 321.12 C 554.54 317.36 552.75 313.64 550.97 309.90 C 547.95 310.81 543.88 310.99 542.07 307.88 C 540.03 303.81 541.65 299.21 542.15 294.98 C 541.87 294.65 541.30 293.99 541.01 293.66 C 536.16 294.21 531.19 294.22 526.43 295.31 M 518.79 295.78 C 520.99 303.87 523.52 311.87 525.82 319.93 C 526.16 321.61 527.15 323.02 528.36 324.20 C 530.00 324.06 529.51 322.17 529.77 321.09 C 530.43 312.48 529.34 303.06 523.62 296.21 C 522.46 294.69 520.37 295.85 518.79 295.78 M 532.34 342.04 C 535.45 352.32 538.44 362.63 541.48 372.93 C 541.94 374.44 542.34 376.12 543.72 377.09 C 545.07 371.67 543.76 366.10 542.62 360.77 C 540.89 353.88 538.81 346.00 532.34 342.04 M 443.82 398.33 C 442.99 398.45 442.38 398.87 442.00 399.60 C 451.78 399.49 462.73 397.33 468.98 389.16 C 460.38 391.61 452.44 395.92 443.82 398.33 Z" />
<path fill="#0366d6" opacity="1.00" d=" M 566.42 127.24 C 571.05 124.94 575.70 121.98 581.01 121.79 C 584.02 121.94 585.02 125.33 585.39 127.82 C 586.37 136.19 585.80 144.68 584.75 153.01 C 584.09 152.98 582.78 152.90 582.13 152.87 C 582.70 144.55 583.95 136.16 582.56 127.85 C 582.42 126.58 581.73 125.47 581.21 124.33 C 576.37 125.14 571.91 127.33 567.78 129.89 C 567.44 129.23 566.76 127.90 566.42 127.24 Z" />
<path fill="#0366d6" opacity="1.00" d=" M 479.50 199.68 C 483.93 198.08 488.67 201.09 491.86 204.06 C 493.85 205.73 494.88 209.67 491.77 210.78 C 487.15 211.46 482.65 208.81 479.58 205.56 C 478.08 204.05 477.18 200.87 479.50 199.68 M 480.62 201.81 C 482.45 205.79 487.00 208.07 491.25 208.23 C 489.35 204.28 484.86 202.07 480.62 201.81 Z" />
</g>
<g id="#9d9c74d6">
<path fill="#9d9c74" opacity="0.84" d=" M 112.95 87.10 C 113.21 86.55 113.74 85.44 114.00 84.89 C 113.74 85.44 113.21 86.55 112.95 87.10 Z" />
</g>
<g id="#f9c513ff">
<path fill="#f9c513" opacity="1.00" d=" M 733.35 99.49 C 737.25 98.19 741.25 100.60 743.61 103.61 C 733.46 116.40 720.68 126.73 710.19 139.20 C 702.62 148.08 694.67 156.66 687.53 165.90 C 685.72 164.48 683.70 163.35 681.54 162.60 C 688.05 155.80 693.73 148.26 699.84 141.11 C 700.78 139.97 701.73 138.84 702.69 137.71 C 711.52 126.88 720.52 116.17 728.96 105.03 C 730.44 103.22 731.47 100.93 733.35 99.49 Z" />
<path fill="#f9c513" opacity="1.00" d=" M 836.79 159.66 C 840.55 158.95 844.49 159.15 848.02 160.74 C 846.50 169.48 847.74 178.37 847.33 187.18 C 843.47 187.56 839.60 187.85 835.75 188.24 C 836.18 178.72 836.45 169.19 836.79 159.66 Z" />
<path fill="#f9c513" opacity="1.00" d=" M 679.92 164.96 C 681.92 165.71 683.84 166.65 685.61 167.87 C 672.14 183.78 658.12 199.23 644.67 215.15 C 642.49 214.28 640.48 213.04 638.74 211.47 C 639.71 211.09 640.48 210.44 641.04 209.51 C 644.51 205.42 648.42 201.73 651.96 197.70 C 657.89 190.96 663.72 184.13 669.49 177.26 C 669.70 177.02 670.10 176.54 670.30 176.31 C 673.53 172.54 676.73 168.75 679.92 164.96 Z" />
<path fill="#f9c513" opacity="1.00" d=" M 885.25 183.58 C 890.87 191.02 896.44 198.48 902.03 205.93 C 901.11 212.24 900.06 218.52 899.13 224.83 C 897.07 237.47 895.34 250.18 893.10 262.79 C 889.41 258.18 884.73 254.51 880.73 250.19 C 881.80 227.97 883.87 205.79 885.25 183.58 Z" />
<path fill="#f9c513" opacity="1.00" d=" M 621.36 230.04 C 626.64 224.66 631.85 219.21 636.96 213.66 C 638.62 215.11 640.47 216.33 642.46 217.29 C 630.09 231.65 617.41 245.72 604.88 259.93 C 592.61 273.98 579.21 286.98 566.50 300.61 C 564.74 299.24 562.77 298.20 560.79 297.21 C 566.57 292.41 570.28 285.46 571.66 278.11 C 576.32 274.43 580.72 270.43 585.00 266.31 C 597.50 254.62 609.48 242.37 621.36 230.04 Z" />
<path fill="#f9c513" opacity="1.00" d=" M 832.10 283.06 C 834.76 283.46 837.42 283.85 840.09 284.25 C 840.68 290.24 840.08 296.28 840.64 302.27 C 842.32 320.45 841.18 338.89 837.44 356.73 C 837.17 357.18 836.64 358.10 836.37 358.56 C 836.17 353.33 836.52 348.09 836.31 342.87 C 833.73 349.13 832.49 355.87 829.99 362.17 C 828.16 356.86 825.99 351.68 823.58 346.60 C 826.65 325.45 829.19 304.23 832.10 283.06 Z" />
</g>
<g id="#8c9473cc">
<path fill="#8c9473" opacity="0.80" d=" M 105.38 101.67 C 105.45 101.56 105.59 101.34 105.66 101.23 C 105.59 101.34 105.45 101.56 105.38 101.67 Z" />
</g>
<g id="#84967bd0">
<path fill="#84967b" opacity="0.82" d=" M 103.51 104.50 L 103.60 104.37 C 103.55 104.44 103.46 104.57 103.41 104.64 L 103.51 104.50 Z" />
</g>
<g id="#ffdf5dff">
<path fill="#ffdf5d" opacity="1.00" d=" M 743.61 103.61 C 744.13 105.44 745.05 107.84 743.43 109.39 C 731.40 121.44 720.53 134.57 709.16 147.24 C 702.89 154.59 696.38 161.74 690.17 169.15 C 689.33 168.03 688.45 166.94 687.53 165.90 C 694.67 156.66 702.62 148.08 710.19 139.20 C 720.68 126.73 733.46 116.40 743.61 103.61 Z" />
<path fill="#ffdf5d" opacity="1.00" d=" M 685.61 167.87 C 686.52 169.05 687.43 170.25 688.32 171.45 C 681.59 178.49 675.40 186.01 668.85 193.21 C 664.64 197.67 660.19 201.91 656.22 206.60 C 653.40 209.70 650.57 212.80 647.85 215.99 C 646.78 215.70 645.72 215.42 644.67 215.15 C 658.12 199.23 672.14 183.78 685.61 167.87 Z" />
<path fill="#ffdf5d" opacity="1.00" d=" M 642.46 217.29 C 643.49 217.66 644.55 218.01 645.63 218.32 C 620.45 247.32 594.81 275.95 570.68 305.82 C 569.40 303.99 568.06 302.20 566.50 300.61 C 579.21 286.98 592.61 273.98 604.88 259.93 C 617.41 245.72 630.09 231.65 642.46 217.29 Z" />
</g>
<g id="#ad925bc5">
<path fill="#ad925b" opacity="0.77" d=" M 94.44 114.46 L 94.78 114.26 C 94.63 114.38 94.34 114.64 94.19 114.77 L 94.44 114.46 Z" />
</g>
<g id="#cacfd3ff">
<path fill="#cacfd3" opacity="1.00" d=" M 688.38 136.96 C 692.27 138.12 696.07 139.58 699.84 141.11 C 693.73 148.26 688.05 155.80 681.54 162.60 C 681.45 160.48 681.78 158.37 682.45 156.36 C 684.53 149.92 686.25 143.38 688.38 136.96 Z" />
<path fill="#cacfd3" opacity="1.00" d=" M 655.50 166.09 C 658.99 158.12 663.28 150.51 667.62 142.97 C 670.82 149.23 673.90 155.56 677.00 161.88 C 669.62 161.85 662.49 163.97 655.50 166.09 Z" />
<path fill="#cacfd3" opacity="1.00" d=" M 690.17 169.15 C 696.38 161.74 702.89 154.59 709.16 147.24 C 712.09 151.78 715.13 156.24 718.02 160.80 C 713.60 166.46 709.47 172.35 704.97 177.93 C 701.10 180.99 696.34 182.68 692.02 184.99 C 693.03 179.69 692.84 173.96 690.17 169.15 Z" />
<path fill="#cacfd3" opacity="1.00" d=" M 598.74 191.13 C 608.35 178.06 617.59 164.72 627.33 151.75 C 624.61 160.87 618.92 168.73 615.51 177.58 C 623.25 169.74 629.32 160.39 636.95 152.43 C 637.11 157.07 636.85 161.72 637.02 166.37 C 642.68 162.02 647.47 156.64 653.18 152.34 C 653.61 157.11 651.60 162.25 653.57 166.75 C 634.29 172.38 616.66 182.29 598.74 191.13 Z" />
<path fill="#cacfd3" opacity="1.00" d=" M 646.84 171.81 C 657.61 168.68 668.45 163.75 679.92 164.96 C 676.73 168.75 673.53 172.54 670.30 176.31 C 670.04 175.79 669.52 174.75 669.26 174.23 C 653.49 176.16 636.59 181.61 627.25 195.38 C 617.98 196.17 609.96 201.48 602.82 207.04 C 597.08 208.31 591.20 208.70 585.41 209.60 C 588.71 205.18 591.82 200.63 595.18 196.25 C 612.05 187.42 629.01 178.56 646.84 171.81 Z" />
<path fill="#cacfd3" opacity="1.00" d=" M 713.93 182.79 C 719.72 178.23 723.11 171.50 726.91 165.35 C 729.85 170.10 733.02 174.71 736.11 179.36 C 746.15 194.19 756.04 209.13 765.98 224.02 C 768.74 228.18 771.89 232.15 773.74 236.83 C 776.31 243.72 775.95 252.26 770.83 257.91 C 764.82 264.92 755.39 266.97 747.07 269.93 C 707.37 282.52 667.14 293.36 626.86 303.91 C 604.33 309.72 581.77 315.41 559.08 320.55 C 557.11 316.36 555.08 312.21 553.14 308.02 C 553.81 305.93 554.31 303.80 554.65 301.64 C 555.58 300.98 556.52 300.34 557.46 299.70 C 558.88 304.73 563.75 308.14 568.92 308.10 C 569.36 307.53 570.24 306.39 570.68 305.82 C 594.81 275.95 620.45 247.32 645.63 218.32 C 662.55 221.97 680.08 211.55 688.03 196.81 C 697.09 193.01 706.15 188.88 713.93 182.79 Z" />
<path fill="#cacfd3" opacity="1.00" d=" M 668.85 193.21 C 675.40 186.01 681.59 178.49 688.32 171.45 C 690.33 176.12 689.94 181.32 689.05 186.19 C 682.46 188.90 675.74 191.36 668.85 193.21 Z" />
<path fill="#cacfd3" opacity="1.00" d=" M 631.91 194.00 C 641.07 183.01 655.74 178.65 669.49 177.26 C 663.72 184.13 657.89 190.96 651.96 197.70 C 646.42 199.16 640.84 200.51 635.18 201.40 L 634.23 200.58 C 632.21 201.66 629.99 202.23 627.70 202.09 C 627.66 198.86 630.15 196.45 631.91 194.00 Z" />
<path fill="#cacfd3" opacity="1.00" d=" M 656.22 206.60 C 665.67 204.28 675.05 201.61 684.18 198.20 C 676.15 209.71 662.23 218.13 647.85 215.99 C 650.57 212.80 653.40 209.70 656.22 206.60 Z" />
<path fill="#cacfd3" opacity="1.00" d=" M 608.14 206.51 C 613.36 202.69 619.22 199.72 625.52 198.20 C 624.90 199.95 624.84 201.73 625.49 203.47 C 619.72 204.54 613.91 205.42 608.14 206.51 Z" />
<path fill="#cacfd3" opacity="1.00" d=" M 622.57 212.34 C 626.58 211.76 630.54 210.84 634.56 210.34 C 635.30 211.48 636.10 212.60 636.96 213.66 C 631.85 219.21 626.64 224.66 621.36 230.04 L 620.93 228.72 C 614.15 235.03 607.94 241.91 601.27 248.32 C 595.51 254.31 589.31 259.87 583.69 265.99 L 585.00 266.31 C 580.72 270.43 576.32 274.43 571.66 278.11 C 573.02 270.22 572.46 261.72 568.51 254.61 C 564.65 247.37 557.32 242.11 549.18 240.91 C 551.16 238.40 553.20 235.92 555.26 233.47 C 563.56 232.63 571.77 230.99 579.82 228.77 C 583.17 232.48 585.91 236.64 588.24 241.04 C 588.70 241.04 589.61 241.04 590.07 241.05 L 590.43 239.94 C 588.90 235.35 585.68 231.62 582.73 227.88 C 585.92 226.90 589.10 225.87 592.21 224.62 C 595.88 226.78 598.81 229.88 601.90 232.75 C 602.31 232.31 603.12 231.44 603.53 231.00 C 601.55 227.97 598.61 225.80 595.78 223.65 C 604.76 219.99 613.73 216.31 622.57 212.34 Z" />
<path fill="#cacfd3" opacity="1.00" d=" M 566.19 220.07 C 566.65 219.65 567.58 218.83 568.05 218.42 C 570.46 220.35 573.27 221.92 575.14 224.46 C 569.20 226.35 563.50 228.95 557.48 230.57 C 560.43 227.10 563.22 223.51 566.19 220.07 Z" />
<path fill="#cacfd3" opacity="1.00" d=" M 580.08 225.69 C 582.96 224.21 585.88 222.23 589.21 222.11 C 587.02 224.72 583.13 224.71 580.08 225.69 Z" />
<path fill="#cacfd3" opacity="1.00" d=" M 788.51 242.72 C 792.03 247.18 793.19 252.92 796.44 257.54 C 796.33 261.97 795.99 266.38 795.77 270.81 C 795.71 273.11 795.75 275.41 795.81 277.72 C 799.14 278.19 802.48 278.67 805.81 279.17 C 807.33 283.24 809.37 287.11 810.53 291.31 C 813.10 301.45 815.16 311.72 817.14 321.99 C 818.11 327.22 819.45 332.42 819.64 337.76 C 819.67 343.64 820.68 349.48 820.21 355.38 C 818.77 355.30 817.34 355.23 815.91 355.16 C 813.03 348.26 810.85 340.87 806.27 334.86 C 807.98 341.44 809.06 348.14 810.02 354.87 C 807.62 354.71 805.23 354.53 802.85 354.48 C 798.78 351.69 794.57 348.97 789.82 347.51 C 786.92 342.74 783.21 338.18 778.03 335.79 C 772.06 332.76 764.42 332.79 758.87 336.74 C 754.66 339.53 752.32 344.19 750.32 348.66 C 745.08 347.79 739.86 346.80 734.63 345.87 C 730.08 340.39 724.95 335.30 718.80 331.63 C 709.59 326.22 698.46 324.08 687.91 325.77 C 683.12 326.28 678.46 327.52 673.89 328.98 C 676.87 327.78 679.98 326.93 683.13 326.26 C 681.43 324.63 680.27 322.02 681.86 319.90 C 685.54 314.54 691.64 311.59 697.13 308.41 C 715.76 298.70 735.57 291.50 755.25 284.25 C 763.21 281.55 770.96 278.23 778.33 274.18 C 783.19 271.50 786.58 266.68 788.23 261.45 C 790.41 255.40 789.63 248.90 788.51 242.72 Z" />
<path fill="#cacfd3" opacity="1.00" d=" M 506.19 293.79 C 519.87 277.03 533.38 260.13 547.20 243.48 C 556.03 244.18 564.10 250.28 567.34 258.52 C 572.00 270.77 569.39 286.38 559.04 294.99 C 556.83 296.91 554.29 298.38 551.85 299.96 C 551.62 302.01 551.87 304.25 550.79 306.11 C 549.24 308.61 544.37 308.35 543.95 305.10 C 543.35 301.68 544.69 298.33 544.94 294.94 C 544.55 293.07 543.05 291.16 541.12 290.81 C 529.48 291.79 517.88 293.54 506.19 293.79 Z" />
<path fill="#cacfd3" opacity="1.00" d=" M 526.43 295.31 C 531.19 294.22 536.16 294.21 541.01 293.66 C 541.30 293.99 541.87 294.65 542.15 294.98 C 541.65 299.21 540.03 303.81 542.07 307.88 C 543.88 310.99 547.95 310.81 550.97 309.90 C 552.75 313.64 554.54 317.36 556.27 321.12 C 548.00 323.46 539.45 324.55 531.19 326.90 L 531.70 325.37 C 534.04 315.29 532.64 303.82 526.43 295.31 Z" />
<path fill="#cacfd3" opacity="1.00" d=" M 518.79 295.78 C 520.37 295.85 522.46 294.69 523.62 296.21 C 529.34 303.06 530.43 312.48 529.77 321.09 C 529.51 322.17 530.00 324.06 528.36 324.20 C 527.15 323.02 526.16 321.61 525.82 319.93 C 523.52 311.87 520.99 303.87 518.79 295.78 Z" />
<path fill="#cacfd3" opacity="1.00" d=" M 504.04 296.41 C 505.98 296.44 507.91 296.45 509.85 296.45 C 505.04 309.67 498.96 322.53 491.02 334.16 C 484.54 335.44 477.94 335.95 471.38 336.63 C 482.24 323.20 493.17 309.83 504.04 296.41 Z" />
<path fill="#cacfd3" opacity="1.00" d=" M 513.00 296.17 C 513.73 296.17 515.20 296.18 515.93 296.19 C 519.30 307.44 522.56 318.73 525.95 329.97 C 523.45 330.04 520.61 331.23 518.41 329.53 C 510.52 330.76 502.69 332.52 494.78 333.69 C 502.25 321.92 508.17 309.23 513.00 296.17 Z" />
<path fill="#cacfd3" opacity="1.00" d=" M 938.97 329.17 C 953.04 333.98 966.35 340.87 980.04 346.71 C 976.66 346.26 973.59 344.68 970.44 343.51 C 959.77 339.14 949.24 334.42 938.97 329.17 Z" />
<path fill="#cacfd3" opacity="1.00" d=" M 955.03 332.16 C 963.19 334.29 970.58 338.78 978.07 342.60 C 976.51 342.82 975.12 341.95 973.75 341.40 C 967.42 338.51 961.09 335.59 955.03 332.16 Z" />
<path fill="#cacfd3" opacity="1.00" d=" M 898.27 339.14 C 901.27 340.41 904.12 342.01 906.95 343.64 C 905.18 344.27 903.62 345.31 902.11 346.39 C 908.59 347.56 914.80 349.88 921.30 350.97 C 922.36 352.22 923.43 353.46 924.49 354.73 C 917.81 360.31 911.34 366.14 904.79 371.87 C 900.46 376.03 893.94 372.37 888.78 373.80 C 882.17 377.57 876.36 382.58 870.70 387.64 C 860.07 380.73 848.10 375.77 838.70 367.10 C 840.50 365.85 842.32 364.63 844.13 363.37 C 849.13 360.47 853.96 357.29 858.95 354.38 C 860.14 354.15 861.21 353.63 862.16 352.83 C 864.17 351.82 866.10 350.64 867.98 349.38 C 870.70 347.57 874.07 347.54 877.19 347.03 C 877.98 346.88 878.78 346.73 879.59 346.57 C 880.25 346.81 881.57 347.28 882.23 347.52 C 881.33 349.25 880.44 351.00 879.57 352.75 C 874.82 353.43 869.53 353.48 865.71 356.78 C 871.88 356.08 877.98 354.67 884.20 354.33 C 880.46 356.08 876.37 357.12 873.06 359.68 C 880.20 358.20 887.29 356.51 894.35 354.70 C 893.06 354.12 891.78 353.55 890.52 352.99 C 892.41 349.74 894.48 346.58 896.43 343.36 C 897.04 343.22 898.26 342.95 898.87 342.82 C 898.66 341.58 898.46 340.36 898.27 339.14 Z" />
<path fill="#cacfd3" opacity="1.00" d=" M 887.22 343.55 C 887.65 343.42 888.52 343.15 888.95 343.02 C 890.48 343.01 892.02 343.21 893.56 343.42 C 891.59 346.99 889.67 350.60 887.76 354.21 C 885.78 353.63 883.82 353.02 881.87 352.40 C 883.51 349.37 885.32 346.43 887.22 343.55 Z" />
</g>
<g id="#dbab09ff">
<path fill="#dbab09" opacity="1.00" d=" M 848.02 160.74 C 852.75 162.93 856.66 166.60 859.38 171.03 C 858.62 176.10 857.99 181.19 857.29 186.28 C 853.96 186.55 850.64 186.82 847.33 187.18 C 847.74 178.37 846.50 169.48 848.02 160.74 Z" />
<path fill="#dbab09" opacity="1.00" d=" M 795.77 270.81 C 812.57 272.69 829.38 274.45 846.17 276.33 C 848.18 276.33 849.61 277.82 850.95 279.13 C 852.37 281.01 853.29 283.23 853.02 285.64 C 850.93 285.72 848.84 285.58 846.78 285.35 C 847.52 307.58 847.92 329.82 848.48 352.05 C 848.49 353.33 848.52 354.61 848.56 355.89 C 846.98 358.32 845.58 360.86 844.13 363.37 C 842.32 364.63 840.50 365.85 838.70 367.10 C 838.13 367.50 837.01 368.31 836.45 368.71 C 836.27 365.33 836.30 361.94 836.37 358.56 C 836.64 358.10 837.17 357.18 837.44 356.73 C 841.18 338.89 842.32 320.45 840.64 302.27 C 840.08 296.28 840.68 290.24 840.09 284.25 C 837.42 283.85 834.76 283.46 832.10 283.06 C 823.34 281.76 814.57 280.46 805.81 279.17 C 802.48 278.67 799.14 278.19 795.81 277.72 C 795.75 275.41 795.71 273.11 795.77 270.81 Z" />
<path fill="#dbab09" opacity="1.00" d=" M 557.46 299.70 C 558.58 298.89 559.71 298.08 560.79 297.21 C 562.77 298.20 564.74 299.24 566.50 300.61 C 568.06 302.20 569.40 303.99 570.68 305.82 C 570.24 306.39 569.36 307.53 568.92 308.10 C 563.75 308.14 558.88 304.73 557.46 299.70 Z" />
</g>
<g id="#ffea7fff">
<path fill="#ffea7f" opacity="1.00" d=" M 857.29 186.28 C 866.61 185.31 875.95 184.63 885.25 183.58 C 883.87 205.79 881.80 227.97 880.73 250.19 C 879.10 248.77 877.31 247.55 875.54 246.32 C 875.04 244.86 874.33 243.52 873.41 242.31 C 873.80 240.30 874.23 238.30 874.68 236.31 C 869.17 240.05 863.52 243.64 857.46 246.43 C 858.65 238.19 859.97 229.97 861.21 221.74 C 859.88 221.83 858.57 221.93 857.26 222.02 C 857.38 221.09 857.51 220.16 857.65 219.23 C 849.50 219.84 841.36 220.51 833.25 221.39 C 833.18 218.36 833.21 215.33 833.32 212.31 C 832.95 212.61 832.21 213.21 831.84 213.52 C 831.20 212.61 830.57 211.71 829.95 210.81 C 823.52 214.94 817.24 219.30 810.73 223.29 C 814.81 230.88 819.94 237.87 824.93 244.87 C 825.94 246.26 827.01 247.59 828.12 248.91 C 828.71 245.14 829.20 241.37 829.84 237.62 C 838.66 240.69 847.36 244.10 856.22 247.08 C 849.89 251.06 846.28 258.18 844.63 265.27 C 844.48 265.45 844.19 265.79 844.04 265.96 C 842.13 267.91 839.99 269.61 838.25 271.72 C 840.84 272.30 843.46 272.82 846.12 273.08 C 848.59 274.23 849.41 277.07 850.95 279.13 C 849.61 277.82 848.18 276.33 846.17 276.33 C 829.38 274.45 812.57 272.69 795.77 270.81 C 795.99 266.38 796.33 261.97 796.44 257.54 C 798.07 235.55 798.92 213.48 801.74 191.59 C 811.63 190.24 821.63 189.70 831.57 188.66 C 832.95 188.53 834.35 188.38 835.75 188.24 C 839.60 187.85 843.47 187.56 847.33 187.18 C 850.64 186.82 853.96 186.55 857.29 186.28 Z" />
</g>
<g id="#ffd33dff">
<path fill="#ffd33d" opacity="1.00" d=" M 810.73 223.29 C 817.24 219.30 823.52 214.94 829.95 210.81 C 830.57 211.71 831.20 212.61 831.84 213.52 C 831.52 213.78 830.88 214.30 830.56 214.56 C 830.54 216.93 830.52 219.30 830.52 221.67 C 831.41 221.57 832.33 221.48 833.25 221.39 C 841.36 220.51 849.50 219.84 857.65 219.23 C 857.51 220.16 857.38 221.09 857.26 222.02 C 856.19 229.09 855.10 236.15 853.98 243.20 C 844.97 240.56 836.31 236.89 827.35 234.10 C 826.84 237.75 826.63 241.53 824.93 244.87 C 819.94 237.87 814.81 230.88 810.73 223.29 Z" />
</g>
<g id="#d5a300ff">
<path fill="#d5a300" opacity="1.00" d=" M 831.84 213.52 C 832.21 213.21 832.95 212.61 833.32 212.31 C 833.21 215.33 833.18 218.36 833.25 221.39 C 832.33 221.48 831.41 221.57 830.52 221.67 C 830.52 219.30 830.54 216.93 830.56 214.56 C 830.88 214.30 831.52 213.78 831.84 213.52 Z" />
</g>
<g id="#ccd0d3ff">
<path fill="#ccd0d3" opacity="1.00" d=" M 607.94 214.65 C 608.92 214.53 609.92 214.43 610.93 214.37 C 604.58 217.01 598.24 220.02 591.55 221.60 C 592.46 218.84 596.41 218.56 597.73 215.80 C 601.14 215.48 604.55 215.16 607.94 214.65 Z" />
</g>
<g id="#1b4b819b">
<path fill="#1b4b81" opacity="0.61" d=" M 583.30 215.31 C 586.60 214.75 589.97 214.95 593.30 215.15 L 592.91 215.83 C 589.72 216.17 586.45 215.74 583.33 216.62 L 582.83 216.74 C 582.95 216.38 583.19 215.67 583.30 215.31 Z" />
</g>
<g id="#8d8c89a6">
<path fill="#8d8c89" opacity="0.65" d=" M 583.33 216.62 C 586.45 215.74 589.72 216.17 592.91 215.83 L 592.69 216.76 C 592.42 216.85 591.88 217.04 591.61 217.13 C 589.32 217.10 587.04 217.03 584.77 216.85 L 583.33 216.62 Z" />
</g>
<g id="#c9ced3ff">
<path fill="#c9ced3" opacity="1.00" d=" M 571.37 217.09 C 573.21 216.85 575.06 216.50 576.94 216.50 C 579.62 217.49 582.14 218.86 584.76 220.02 C 582.92 221.69 580.35 222.16 578.13 223.15 C 575.95 221.04 573.51 219.22 571.37 217.09 Z" />
</g>
<g id="#f0e6cfff">
<path fill="#f0e6cf" opacity="1.00" d=" M 584.77 216.85 C 587.04 217.03 589.32 217.10 591.61 217.13 C 590.42 217.61 589.37 218.74 588.04 218.68 C 586.87 218.20 585.83 217.49 584.77 216.85 Z" />
<path fill="#f0e6cf" opacity="1.00" d=" M 868.28 253.31 C 870.15 250.55 873.72 251.72 876.50 251.84 C 875.30 254.26 874.05 256.66 872.87 259.09 C 867.17 257.67 863.97 263.33 859.24 265.05 L 858.01 264.80 C 858.73 262.26 856.54 260.32 854.07 260.95 C 857.14 255.78 864.78 258.09 868.28 253.31 Z" />
</g>
<g id="#d8a704ff">
<path fill="#d8a704" opacity="1.00" d=" M 857.26 222.02 C 858.57 221.93 859.88 221.83 861.21 221.74 C 859.97 229.97 858.65 238.19 857.46 246.43 C 857.15 246.59 856.53 246.92 856.22 247.08 C 847.36 244.10 838.66 240.69 829.84 237.62 C 829.20 241.37 828.71 245.14 828.12 248.91 C 827.01 247.59 825.94 246.26 824.93 244.87 C 826.63 241.53 826.84 237.75 827.35 234.10 C 836.31 236.89 844.97 240.56 853.98 243.20 C 855.10 236.15 856.19 229.09 857.26 222.02 Z" />
</g>
<g id="#c4d0ebff">
<path fill="#c4d0eb" opacity="1.00" d=" M 601.27 248.32 C 607.94 241.91 614.15 235.03 620.93 228.72 L 621.36 230.04 C 609.48 242.37 597.50 254.62 585.00 266.31 L 583.69 265.99 C 589.31 259.87 595.51 254.31 601.27 248.32 Z" />
</g>
<g id="#2b91b5ff">
<path fill="#2b91b5" opacity="1.00" d=" M 857.46 246.43 C 863.52 243.64 869.17 240.05 874.68 236.31 C 874.23 238.30 873.80 240.30 873.41 242.31 C 874.33 243.52 875.04 244.86 875.54 246.32 C 872.65 248.07 869.18 248.07 866.00 248.90 C 861.54 249.95 856.98 251.33 853.37 254.26 C 849.67 257.27 847.84 261.83 844.63 265.27 C 846.28 258.18 849.89 251.06 856.22 247.08 C 856.53 246.92 857.15 246.59 857.46 246.43 Z" />
</g>
<g id="#77c1ceff">
<path fill="#77c1ce" opacity="1.00" d=" M 875.54 246.32 C 877.31 247.55 879.10 248.77 880.73 250.19 C 884.73 254.51 889.41 258.18 893.10 262.79 C 897.68 268.82 900.96 275.68 905.06 282.03 C 907.60 286.02 911.52 288.81 914.49 292.45 C 917.82 296.51 921.20 300.59 923.98 305.06 C 925.95 308.33 926.06 312.22 926.08 315.92 C 923.49 314.71 920.86 313.43 918.03 312.96 C 915.69 314.09 913.46 315.43 911.06 316.42 C 915.64 321.52 919.49 327.24 922.68 333.30 C 924.14 337.03 929.02 336.23 932.23 337.17 C 930.06 337.83 927.94 338.60 925.81 339.33 C 928.47 344.19 932.27 348.49 933.15 354.15 C 934.09 355.93 934.31 357.94 934.45 359.93 C 934.60 361.81 934.76 363.70 934.90 365.60 C 930.60 362.88 927.93 358.37 924.49 354.73 C 923.43 353.46 922.36 352.22 921.30 350.97 C 919.30 348.59 917.32 346.20 915.21 343.93 C 912.45 344.23 909.65 344.36 906.95 343.64 C 904.12 342.01 901.27 340.41 898.27 339.14 C 898.46 340.36 898.66 341.58 898.87 342.82 C 898.26 342.95 897.04 343.22 896.43 343.36 C 895.46 343.43 894.51 343.45 893.56 343.42 C 892.02 343.21 890.48 343.01 888.95 343.02 C 888.91 340.29 888.99 337.04 886.08 335.70 L 885.59 335.38 C 886.32 331.09 888.60 325.58 885.13 321.94 C 880.47 316.15 876.07 310.11 872.36 303.67 C 870.25 300.21 869.55 296.18 868.71 292.29 C 863.78 289.57 857.85 288.55 852.58 290.95 C 852.67 289.18 852.88 287.41 853.02 285.64 C 853.29 283.23 852.37 281.01 850.95 279.13 C 849.41 277.07 848.59 274.23 846.12 273.08 C 846.52 273.05 847.33 272.98 847.74 272.94 C 848.14 271.19 848.50 269.43 848.85 267.68 C 847.24 267.10 845.64 266.53 844.04 265.96 C 844.19 265.79 844.48 265.45 844.63 265.27 C 847.84 261.83 849.67 257.27 853.37 254.26 C 856.98 251.33 861.54 249.95 866.00 248.90 C 869.18 248.07 872.65 248.07 875.54 246.32 M 868.28 253.31 C 864.78 258.09 857.14 255.78 854.07 260.95 C 853.04 262.03 852.24 264.21 853.68 265.30 C 854.75 266.74 857.04 266.04 858.01 264.80 L 859.24 265.05 C 863.97 263.33 867.17 257.67 872.87 259.09 C 874.05 256.66 875.30 254.26 876.50 251.84 C 873.72 251.72 870.15 250.55 868.28 253.31 M 881.26 255.96 C 880.20 258.18 878.30 259.70 876.08 260.65 C 877.04 261.40 878.24 261.95 878.93 263.00 C 876.36 266.07 873.19 268.82 871.49 272.53 C 870.40 274.19 868.37 272.84 866.92 272.72 C 866.87 273.56 866.78 275.24 866.74 276.07 C 864.94 276.11 863.28 276.67 861.87 277.76 C 860.62 277.56 859.42 277.37 858.20 277.16 C 857.02 278.43 855.82 279.67 854.61 280.89 C 854.80 283.29 855.12 285.69 855.75 288.03 C 858.63 285.08 861.26 281.69 865.09 279.90 C 869.45 280.01 874.05 279.94 877.95 282.20 C 879.81 281.43 881.60 280.33 882.96 278.81 C 883.77 277.42 883.12 275.73 883.23 274.22 C 884.50 272.17 885.57 269.95 887.38 268.30 C 889.08 266.82 890.25 264.23 889.07 262.08 C 887.20 259.27 884.34 257.25 881.26 255.96 M 870.25 288.02 C 870.28 297.61 877.77 304.84 885.27 309.71 C 892.59 314.22 901.35 319.11 910.15 315.78 C 905.92 309.50 900.50 304.13 895.24 298.73 C 889.07 293.21 882.82 287.62 875.50 283.65 C 872.73 282.09 869.19 284.99 870.25 288.02 Z" />
</g>
<g id="#0054d3ff">
<path fill="#0054d3" opacity="1.00" d=" M 428.78 249.24 C 430.91 248.90 434.45 247.84 434.82 251.00 C 434.07 253.01 432.22 254.26 430.57 255.49 C 421.15 261.69 410.77 266.46 400.03 269.89 C 397.12 270.67 392.32 272.30 391.76 267.92 C 393.84 265.91 396.02 263.96 398.58 262.55 C 408.08 256.98 418.15 252.24 428.78 249.24 M 428.89 251.92 C 420.14 254.56 411.75 258.31 403.75 262.71 C 401.05 264.31 398.14 265.68 395.92 267.95 C 408.10 265.26 419.25 259.14 429.94 252.87 L 430.68 252.75 C 432.27 251.40 429.05 249.94 428.89 251.92 Z" />
</g>
<g id="#0c4f9fbd">
<path fill="#0c4f9f" opacity="0.74" d=" M 428.89 251.92 C 429.05 249.94 432.27 251.40 430.68 252.75 L 429.94 252.87 C 429.68 252.63 429.16 252.16 428.89 251.92 Z" />
</g>
<g id="#ebededff">
<path fill="#ebeded" opacity="1.00" d=" M 403.75 262.71 C 411.75 258.31 420.14 254.56 428.89 251.92 C 429.16 252.16 429.68 252.63 429.94 252.87 C 419.25 259.14 408.10 265.26 395.92 267.95 C 398.14 265.68 401.05 264.31 403.75 262.71 Z" />
</g>
<g id="#f0e5cfff">
<path fill="#f0e5cf" opacity="1.00" d=" M 881.26 255.96 C 884.34 257.25 887.20 259.27 889.07 262.08 C 890.25 264.23 889.08 266.82 887.38 268.30 C 885.57 269.95 884.50 272.17 883.23 274.22 C 883.12 275.73 883.77 277.42 882.96 278.81 C 881.60 280.33 879.81 281.43 877.95 282.20 C 874.05 279.94 869.45 280.01 865.09 279.90 C 861.26 281.69 858.63 285.08 855.75 288.03 C 855.12 285.69 854.80 283.29 854.61 280.89 C 855.82 279.67 857.02 278.43 858.20 277.16 C 859.42 277.37 860.62 277.56 861.87 277.76 C 863.28 276.67 864.94 276.11 866.74 276.07 C 866.78 275.24 866.87 273.56 866.92 272.72 C 868.37 272.84 870.40 274.19 871.49 272.53 C 873.19 268.82 876.36 266.07 878.93 263.00 C 878.24 261.95 877.04 261.40 876.08 260.65 C 878.30 259.70 880.20 258.18 881.26 255.96 Z" />
<path fill="#f0e5cf" opacity="1.00" d=" M 852.58 290.95 C 857.85 288.55 863.78 289.57 868.71 292.29 C 869.55 296.18 870.25 300.21 872.36 303.67 C 876.07 310.11 880.47 316.15 885.13 321.94 C 888.60 325.58 886.32 331.09 885.59 335.38 C 884.49 335.16 883.39 334.95 882.31 334.74 C 881.88 334.50 881.02 334.03 880.59 333.79 C 875.52 330.16 869.84 327.09 866.02 322.02 C 859.07 313.05 853.09 302.54 852.58 290.95 Z" />
</g>
<g id="#4c5054ff">
<path fill="#4c5054" opacity="1.00" d=" M 844.04 265.96 C 845.64 266.53 847.24 267.10 848.85 267.68 C 848.50 269.43 848.14 271.19 847.74 272.94 C 847.33 272.98 846.52 273.05 846.12 273.08 C 843.46 272.82 840.84 272.30 838.25 271.72 C 839.99 269.61 842.13 267.91 844.04 265.96 Z" />
</g>
<g id="#eee6cfff">
<path fill="#eee6cf" opacity="1.00" d=" M 870.25 288.02 C 869.19 284.99 872.73 282.09 875.50 283.65 C 882.82 287.62 889.07 293.21 895.24 298.73 C 900.50 304.13 905.92 309.50 910.15 315.78 C 901.35 319.11 892.59 314.22 885.27 309.71 C 877.77 304.84 870.28 297.61 870.25 288.02 Z" />
</g>
<g id="#f9f9efff">
<path fill="#f9f9ef" opacity="1.00" d=" M 319.24 313.90 C 320.33 309.98 323.95 307.30 326.95 304.75 L 328.21 305.04 C 325.70 307.94 322.60 310.35 320.69 313.73 C 324.01 313.73 327.40 313.64 330.58 314.79 C 326.99 315.36 322.05 316.74 319.24 313.90 Z" />
</g>
<g id="#e1e4e8ff">
<path fill="#e1e4e8" opacity="1.00" d=" M 634.17 313.52 C 641.53 311.91 649.07 310.49 655.83 307.00 C 656.08 307.50 656.58 308.50 656.83 309.00 C 649.38 312.75 641.09 314.28 633.00 316.00 C 609.45 320.55 585.63 323.43 561.82 326.19 C 561.57 325.67 561.06 324.63 560.81 324.11 C 585.34 321.23 609.92 318.32 634.17 313.52 Z" />
</g>
<g id="#ff9c57ff">
<path fill="#ff9c57" opacity="1.00" d=" M 18.15 323.22 C 29.95 313.00 47.73 309.53 62.12 316.08 C 73.35 321.28 80.81 331.79 86.87 342.17 C 91.98 350.96 97.26 360.74 106.92 365.21 C 111.89 367.52 119.00 368.75 122.90 363.88 C 127.80 358.07 134.07 352.53 142.02 352.00 C 158.02 350.70 173.43 358.46 184.61 369.48 C 184.23 369.92 183.48 370.80 183.10 371.24 C 178.19 365.80 172.37 360.94 165.38 358.45 C 159.66 356.41 153.72 354.86 147.67 354.28 C 153.08 358.01 160.06 358.10 165.80 361.22 C 172.41 364.06 177.03 369.68 181.96 374.67 C 180.03 380.12 179.25 386.46 182.95 391.38 C 184.15 397.30 187.25 402.74 191.63 406.89 C 194.99 410.80 199.91 412.66 203.75 415.94 C 196.48 417.77 189.73 413.92 184.17 409.68 C 182.34 406.04 178.55 403.98 176.56 400.45 C 173.75 395.59 173.69 389.77 173.51 384.33 C 171.38 384.52 169.25 384.71 167.12 384.85 C 161.81 385.00 156.28 385.25 151.27 383.18 C 153.41 380.74 157.97 378.96 157.63 375.29 C 155.62 371.47 151.79 369.00 148.18 366.84 C 149.67 369.83 151.75 372.61 152.37 375.95 C 152.30 378.43 150.87 380.61 150.07 382.91 L 150.90 383.49 C 149.38 384.69 148.08 386.13 146.94 387.69 C 150.34 392.30 152.42 398.08 151.41 403.86 C 151.20 404.48 150.79 405.71 150.58 406.33 C 149.64 405.47 148.71 404.60 147.82 403.71 C 143.75 399.29 140.39 394.27 137.53 388.99 C 139.65 386.53 141.76 384.06 143.84 381.56 C 141.92 381.65 140.01 381.79 138.09 381.84 C 133.74 381.86 129.34 381.16 125.45 379.13 C 122.63 377.42 120.42 374.93 118.95 371.99 C 115.47 372.16 111.99 372.60 108.72 373.84 C 102.89 371.02 96.27 370.87 89.93 371.02 C 87.16 371.04 84.05 371.16 81.79 369.28 C 79.02 366.70 78.03 362.28 74.26 360.81 C 71.26 360.01 68.11 360.64 65.07 360.13 C 61.99 359.42 60.62 356.28 59.32 353.74 C 55.69 345.86 49.06 339.06 40.65 336.45 C 34.48 334.50 27.53 335.64 22.18 339.24 C 13.75 344.76 8.37 353.81 4.98 363.10 C 4.22 364.96 4.24 366.99 4.07 368.96 L 3.72 369.84 C 1.42 368.61 0.26 366.25 0.00 363.74 L 0.00 360.36 C 1.27 346.36 7.36 332.47 18.15 323.22 M 41.78 315.38 C 44.73 316.87 48.02 317.49 50.99 318.94 C 59.69 322.99 67.34 329.14 73.47 336.49 C 80.88 345.09 85.98 355.77 95.12 362.80 C 99.75 366.17 105.00 369.89 110.98 369.61 C 107.61 368.27 104.04 367.28 101.03 365.18 C 94.33 360.74 90.19 353.60 86.22 346.82 C 81.50 338.54 76.27 330.33 68.95 324.10 C 61.53 317.82 51.52 314.18 41.78 315.38 Z" />
<path fill="#ff9c57" opacity="1.00" d=" M 232.87 321.89 C 239.04 315.64 248.16 313.28 256.73 313.70 C 264.71 319.04 272.88 325.03 277.19 333.91 C 282.11 343.52 281.92 354.66 281.02 365.14 C 278.88 371.25 276.20 377.24 275.16 383.67 C 275.55 384.88 275.85 386.37 277.31 386.71 C 280.68 387.69 284.00 385.52 286.33 383.27 C 284.11 371.19 288.66 358.65 295.79 348.95 C 299.93 343.67 305.08 339.15 310.96 335.91 C 318.10 331.86 326.25 330.22 334.21 328.62 C 332.98 325.79 331.19 323.00 331.77 319.77 C 334.57 319.75 335.64 322.55 337.71 323.71 C 342.66 324.58 348.44 324.85 351.90 329.06 C 354.19 331.85 356.52 336.24 360.85 335.32 L 361.88 335.15 C 359.98 341.30 352.53 342.54 346.97 342.84 C 341.26 343.31 337.37 338.53 335.05 333.96 C 332.11 335.31 329.05 336.36 326.13 337.73 C 322.78 339.53 322.02 344.79 324.29 347.52 C 330.02 347.92 335.59 344.33 341.33 346.34 C 340.51 348.85 339.71 351.36 338.66 353.79 C 337.79 352.43 336.99 351.02 336.20 349.62 C 332.34 351.68 328.33 353.77 323.93 354.30 C 320.85 354.09 320.27 350.28 319.49 347.93 C 319.12 345.87 318.82 343.81 318.45 341.76 C 316.85 343.47 316.07 345.69 315.18 347.81 C 309.86 354.26 306.01 361.93 302.88 369.66 C 303.23 369.53 303.94 369.28 304.29 369.15 C 307.78 368.31 311.19 365.98 314.88 366.79 C 318.26 367.89 318.54 371.86 319.80 374.63 C 319.61 374.97 319.22 375.64 319.02 375.98 C 315.47 379.54 311.82 383.04 307.79 386.07 C 305.49 387.52 303.25 389.08 301.15 390.82 C 304.46 391.00 307.78 391.10 311.09 391.38 C 310.33 391.44 308.83 391.55 308.08 391.61 C 309.16 393.18 309.99 394.91 310.53 396.75 C 304.32 396.77 298.09 396.76 291.92 396.01 C 292.66 394.41 293.40 392.82 294.15 391.23 C 291.68 390.26 289.46 388.81 287.64 386.88 C 281.58 393.23 273.26 397.82 264.24 397.11 C 262.51 395.09 260.07 392.93 260.75 389.94 C 262.33 383.82 267.54 379.29 268.88 373.08 C 269.83 369.87 266.39 368.46 264.36 366.91 C 267.75 362.49 273.00 359.39 274.96 353.97 C 276.58 349.67 273.29 344.93 269.01 344.02 C 266.79 343.05 263.61 343.11 262.50 340.59 C 261.18 337.94 259.72 334.17 255.98 334.94 C 246.36 336.13 240.09 344.31 233.63 350.66 C 228.36 355.86 222.51 361.37 214.91 362.62 C 207.51 364.03 199.84 359.35 196.79 352.66 C 200.22 355.54 204.85 355.73 209.11 355.66 C 212.46 355.44 214.88 352.65 216.69 350.09 C 222.85 341.12 224.90 329.64 232.87 321.89 M 342.37 328.05 C 339.36 329.55 341.49 334.24 344.62 332.96 C 347.64 331.46 345.50 326.74 342.37 328.05 Z" />
<path fill="#ff9c57" opacity="1.00" d=" M 188.97 366.49 C 192.28 366.85 192.17 370.38 193.05 372.81 C 195.57 372.93 198.60 372.40 200.42 374.61 C 204.26 378.28 202.90 383.92 203.48 388.62 C 203.63 390.49 205.45 391.34 206.93 392.06 C 207.51 392.25 208.69 392.64 209.27 392.83 C 208.97 394.53 210.02 395.73 211.19 396.79 C 205.26 399.13 198.27 399.57 192.63 396.22 C 187.82 393.66 184.83 388.66 184.13 383.34 C 184.93 380.44 185.22 377.11 187.83 375.16 C 188.79 374.25 189.79 373.36 190.78 372.48 C 190.03 370.52 189.32 368.55 188.97 366.49 M 194.37 378.04 C 191.37 379.54 193.49 384.24 196.62 382.96 C 199.64 381.46 197.51 376.74 194.37 378.04 Z" />
</g>
<g id="#2a92b5ff">
<path fill="#2a92b5" opacity="1.00" d=" M 911.06 316.42 C 913.46 315.43 915.69 314.09 918.03 312.96 C 920.86 313.43 923.49 314.71 926.08 315.92 C 932.31 319.07 938.69 321.93 944.99 324.94 C 959.76 332.08 975.41 337.73 988.61 347.73 C 987.87 347.82 986.38 348.00 985.64 348.09 C 988.19 350.27 990.89 352.41 992.51 355.44 C 984.13 353.63 976.60 349.11 968.44 346.53 C 968.65 345.93 969.05 344.73 969.26 344.13 C 967.29 343.53 965.32 342.95 963.38 342.35 C 952.02 338.53 941.41 332.95 930.85 327.35 C 928.59 327.79 926.30 327.91 924.02 327.77 C 923.54 327.13 922.58 325.84 922.10 325.20 C 922.69 326.22 923.28 327.23 923.90 328.26 C 926.26 328.43 928.64 328.50 931.01 328.30 C 936.75 331.18 942.15 334.72 948.12 337.14 C 947.42 338.03 946.08 338.16 945.08 338.07 C 940.76 338.26 936.50 337.49 932.23 337.17 C 929.02 336.23 924.14 337.03 922.68 333.30 C 919.49 327.24 915.64 321.52 911.06 316.42 M 938.97 329.17 C 949.24 334.42 959.77 339.14 970.44 343.51 C 973.59 344.68 976.66 346.26 980.04 346.71 C 966.35 340.87 953.04 333.98 938.97 329.17 M 955.03 332.16 C 961.09 335.59 967.42 338.51 973.75 341.40 C 975.12 341.95 976.51 342.82 978.07 342.60 C 970.58 338.78 963.19 334.29 955.03 332.16 Z" />
</g>
<g id="#ffc69bff">
<path fill="#ffc69b" opacity="1.00" d=" M 256.73 313.70 C 265.77 313.37 274.00 319.00 278.68 326.46 C 282.98 333.26 286.02 341.26 285.62 349.42 C 284.69 354.82 282.96 360.03 281.02 365.14 C 281.92 354.66 282.11 343.52 277.19 333.91 C 272.88 325.03 264.71 319.04 256.73 313.70 Z" />
<path fill="#ffc69b" opacity="1.00" d=" M 339.17 323.14 C 340.24 322.69 341.31 322.25 342.40 321.82 C 347.63 320.41 353.42 323.68 355.21 328.73 C 356.13 330.51 356.25 333.54 358.93 333.35 C 359.41 333.84 360.37 334.83 360.85 335.32 C 356.52 336.24 354.19 331.85 351.90 329.06 C 348.44 324.85 342.66 324.58 337.71 323.71 C 338.07 323.57 338.80 323.28 339.17 323.14 Z" />
</g>
<g id="#ffbc8aff">
<path fill="#ffbc8a" opacity="1.00" d=" M 41.78 315.38 C 51.52 314.18 61.53 317.82 68.95 324.10 C 76.27 330.33 81.50 338.54 86.22 346.82 C 90.19 353.60 94.33 360.74 101.03 365.18 C 104.04 367.28 107.61 368.27 110.98 369.61 C 105.00 369.89 99.75 366.17 95.12 362.80 C 85.98 355.77 80.88 345.09 73.47 336.49 C 67.34 329.14 59.69 322.99 50.99 318.94 C 48.02 317.49 44.73 316.87 41.78 315.38 Z" />
</g>
<g id="#fd9d57ff">
<path fill="#fd9d57" opacity="1.00" d=" M 339.30 317.20 C 340.92 318.27 341.61 320.14 342.40 321.82 C 341.31 322.25 340.24 322.69 339.17 323.14 C 338.22 321.35 336.45 318.23 339.30 317.20 Z" />
</g>
<g id="#bcc3c8ff">
<path fill="#bcc3c8" opacity="1.00" d=" M 861.28 322.24 C 863.02 321.89 864.36 323.26 865.50 324.37 C 870.66 329.78 874.34 336.33 878.14 342.72 C 877.81 344.15 877.51 345.59 877.19 347.03 C 874.07 347.54 870.70 347.57 867.98 349.38 C 863.89 343.98 861.02 337.63 859.74 330.98 C 859.42 328.07 858.89 324.45 861.28 322.24 Z" />
</g>
<g id="#549829ff">
<path fill="#549829" opacity="1.00" d=" M 687.91 325.77 C 698.46 324.08 709.59 326.22 718.80 331.63 C 716.06 336.31 713.42 341.44 713.64 347.02 C 713.79 352.19 717.22 357.11 722.09 358.90 C 728.35 361.39 736.07 358.49 739.56 352.87 C 740.91 355.08 742.10 357.40 743.22 359.74 C 746.59 366.90 749.23 374.37 750.87 382.12 C 750.88 383.73 752.39 384.12 753.65 384.43 C 746.80 386.04 740.36 389.16 733.34 390.15 C 731.59 385.39 730.52 379.93 726.44 376.51 C 723.02 373.32 716.80 372.99 713.61 376.64 C 710.31 381.66 710.81 388.00 710.83 393.74 C 699.65 394.65 688.35 395.28 677.17 394.01 C 675.69 393.70 674.21 393.32 672.76 392.96 C 672.65 387.77 673.44 382.10 670.65 377.44 C 667.85 373.01 661.08 373.13 657.45 376.42 C 653.69 379.33 652.42 384.10 651.05 388.42 C 650.24 388.37 648.64 388.28 647.83 388.23 C 642.93 386.65 638.11 384.60 633.85 381.68 C 634.43 378.01 635.56 374.46 636.74 370.94 C 638.38 366.44 640.35 362.05 642.72 357.88 C 642.35 359.18 642.03 360.50 641.72 361.82 C 645.03 364.62 648.52 367.60 652.93 368.37 C 660.06 369.71 667.66 364.28 668.59 357.07 C 669.44 349.34 664.84 342.47 660.48 336.54 C 663.38 334.31 666.44 332.25 669.78 330.71 C 672.98 337.72 677.41 345.39 685.39 347.54 C 692.57 349.60 700.32 344.13 701.65 336.99 C 702.21 333.32 701.51 329.64 700.89 326.03 C 696.59 325.40 692.23 325.47 687.91 325.77 Z" />
</g>
<g id="#1e7904ff">
<path fill="#1e7904" opacity="1.00" d=" M 673.89 328.98 C 678.46 327.52 683.12 326.28 687.91 325.77 C 692.23 325.47 696.59 325.40 700.89 326.03 C 701.51 329.64 702.21 333.32 701.65 336.99 C 700.32 344.13 692.57 349.60 685.39 347.54 C 677.41 345.39 672.98 337.72 669.78 330.71 C 671.12 330.09 672.49 329.49 673.89 328.98 Z" />
<path fill="#1e7904" opacity="1.00" d=" M 713.64 347.02 C 713.42 341.44 716.06 336.31 718.80 331.63 C 724.95 335.30 730.08 340.39 734.63 345.87 C 736.45 348.07 738.04 350.45 739.56 352.87 C 736.07 358.49 728.35 361.39 722.09 358.90 C 717.22 357.11 713.79 352.19 713.64 347.02 Z" />
<path fill="#1e7904" opacity="1.00" d=" M 642.72 357.88 C 647.17 349.71 653.14 342.30 660.48 336.54 C 664.84 342.47 669.44 349.34 668.59 357.07 C 667.66 364.28 660.06 369.71 652.93 368.37 C 648.52 367.60 645.03 364.62 641.72 361.82 C 642.03 360.50 642.35 359.18 642.72 357.88 Z" />
</g>
<g id="#535255ff">
<path fill="#535255" opacity="1.00" d=" M 358.93 333.35 C 360.29 331.97 361.79 331.52 363.30 332.96 C 362.82 333.69 362.35 334.42 361.88 335.15 L 360.85 335.32 C 360.37 334.83 359.41 333.84 358.93 333.35 Z" />
</g>
<g id="#84c55dff">
<path fill="#84c55d" opacity="1.00" d=" M 758.87 336.74 C 764.42 332.79 772.06 332.76 778.03 335.79 C 783.21 338.18 786.92 342.74 789.82 347.51 C 790.74 349.97 791.52 352.47 792.36 354.96 C 793.46 359.81 793.76 365.03 791.69 369.68 C 790.45 372.16 787.71 373.24 785.38 374.44 C 775.25 379.03 764.37 381.62 753.65 384.43 C 752.39 384.12 750.88 383.73 750.87 382.12 C 749.23 374.37 746.59 366.90 743.22 359.74 C 743.57 360.26 744.28 361.28 744.64 361.79 C 745.82 360.91 747.04 360.04 748.24 359.16 C 748.64 355.61 748.94 351.99 750.32 348.66 C 752.32 344.19 754.66 339.53 758.87 336.74 M 776.41 346.03 C 773.33 347.49 775.49 352.27 778.63 350.95 C 781.62 349.45 779.51 344.79 776.41 346.03 M 782.88 365.14 C 784.91 367.60 788.42 365.94 791.04 365.69 L 790.43 364.83 C 790.35 364.72 790.20 364.51 790.12 364.40 C 787.70 364.57 785.27 364.86 782.88 365.14 Z" />
<path fill="#84c55d" opacity="1.00" d=" M 657.45 376.42 C 661.08 373.13 667.85 373.01 670.65 377.44 C 673.44 382.10 672.65 387.77 672.76 392.96 C 674.21 393.32 675.69 393.70 677.17 394.01 C 675.69 393.85 674.22 393.73 672.75 393.66 C 671.73 398.90 672.12 405.11 667.81 409.02 C 667.14 407.28 666.36 405.57 665.03 404.24 C 663.85 406.07 662.99 408.07 662.38 410.15 C 661.82 410.09 660.69 409.97 660.12 409.92 C 659.77 407.75 659.32 405.57 658.11 403.72 C 656.82 405.44 655.62 407.24 654.49 409.07 C 654.02 408.93 653.09 408.66 652.62 408.52 C 652.51 406.31 652.35 404.10 652.02 401.92 C 650.52 402.90 649.06 403.93 647.63 405.01 C 647.40 404.53 646.94 403.57 646.71 403.09 C 647.19 401.26 647.64 399.43 648.14 397.61 C 648.95 394.74 649.94 391.92 650.60 389.01 C 649.91 388.81 648.53 388.42 647.83 388.23 C 648.64 388.28 650.24 388.37 651.05 388.42 C 652.42 384.10 653.69 379.33 657.45 376.42 Z" />
<path fill="#84c55d" opacity="1.00" d=" M 713.61 376.64 C 716.80 372.99 723.02 373.32 726.44 376.51 C 730.52 379.93 731.59 385.39 733.34 390.15 C 734.05 392.41 734.74 394.68 735.41 396.96 C 736.10 399.60 737.45 402.39 736.30 405.11 C 734.78 404.20 733.56 402.04 731.58 402.49 C 731.28 404.47 731.30 406.48 731.27 408.49 C 730.86 408.63 730.04 408.92 729.63 409.06 C 728.37 407.09 726.94 405.23 725.07 403.82 C 724.38 405.84 723.91 407.92 723.56 410.03 C 723.04 410.06 721.99 410.12 721.46 410.15 C 720.71 408.02 720.01 405.74 718.10 404.35 C 717.31 405.94 716.55 407.54 715.80 409.15 C 712.22 405.68 712.02 400.51 711.23 395.91 C 711.13 395.37 710.93 394.28 710.83 393.74 C 710.81 388.00 710.31 381.66 713.61 376.64 Z" />
</g>
<g id="#88929cff">
<path fill="#88929c" opacity="1.00" d=" M 880.59 333.79 C 881.02 334.03 881.88 334.50 882.31 334.74 C 881.17 338.63 880.17 342.56 879.59 346.57 C 878.78 346.73 877.98 346.88 877.19 347.03 C 877.51 345.59 877.81 344.15 878.14 342.72 C 878.79 339.70 879.62 336.72 880.59 333.79 Z" />
<path fill="#88929c" opacity="1.00" d=" M 806.27 334.86 C 810.85 340.87 813.03 348.26 815.91 355.16 C 816.78 357.50 817.68 359.88 819.24 361.86 C 819.67 359.72 820.03 357.55 820.21 355.38 C 820.68 349.48 819.67 343.64 819.64 337.76 C 820.80 340.77 822.20 343.68 823.58 346.60 C 825.99 351.68 828.16 356.86 829.99 362.17 C 832.49 355.87 833.73 349.13 836.31 342.87 C 836.52 348.09 836.17 353.33 836.37 358.56 C 836.30 361.94 836.27 365.33 836.45 368.71 C 833.73 377.30 831.10 385.92 828.78 394.63 C 824.01 393.95 819.10 393.92 814.42 392.76 C 809.45 389.43 804.84 385.58 799.98 382.11 C 801.73 377.69 803.24 372.72 801.57 368.04 C 799.67 362.96 795.55 359.22 792.36 354.96 C 791.52 352.47 790.74 349.97 789.82 347.51 C 794.57 348.97 798.78 351.69 802.85 354.48 C 805.91 356.59 808.84 358.91 811.44 361.60 C 810.89 359.36 810.39 357.13 810.02 354.87 C 809.06 348.14 807.98 341.44 806.27 334.86 Z" />
<path fill="#88929c" opacity="1.00" d=" M 850.76 352.24 C 853.59 347.41 856.16 342.43 859.02 337.61 C 859.44 342.58 859.51 347.61 858.88 352.57 C 858.90 353.02 858.93 353.93 858.95 354.38 C 853.96 357.29 849.13 360.47 844.13 363.37 C 845.58 360.86 846.98 358.32 848.56 355.89 C 849.31 354.69 850.05 353.47 850.76 352.24 Z" />
</g>
<g id="#ff7000ff">
<path fill="#ff7000" opacity="1.00" d=" M 233.63 350.66 C 240.09 344.31 246.36 336.13 255.98 334.94 C 259.72 334.17 261.18 337.94 262.50 340.59 C 263.61 343.11 266.79 343.05 269.01 344.02 C 273.29 344.93 276.58 349.67 274.96 353.97 C 273.00 359.39 267.75 362.49 264.36 366.91 C 266.39 368.46 269.83 369.87 268.88 373.08 C 267.54 379.29 262.33 383.82 260.75 389.94 C 260.07 392.93 262.51 395.09 264.24 397.11 C 261.10 396.56 257.54 396.18 255.22 393.72 C 253.58 392.08 252.98 389.77 252.40 387.61 C 252.10 376.16 257.31 365.40 257.69 354.00 C 257.75 352.57 257.22 351.24 256.73 349.95 C 253.51 346.84 248.59 348.21 245.04 349.94 C 240.04 352.38 236.77 357.08 232.35 360.32 C 226.90 364.64 219.97 366.92 213.03 366.93 C 208.73 367.23 204.45 365.83 201.13 363.10 L 200.68 362.67 C 196.84 359.44 194.52 354.83 193.17 350.08 C 192.84 348.76 192.58 347.44 192.31 346.11 C 193.26 347.50 194.19 348.90 195.16 350.29 C 195.57 350.88 196.38 352.07 196.79 352.66 C 199.84 359.35 207.51 364.03 214.91 362.62 C 222.51 361.37 228.36 355.86 233.63 350.66 Z" />
<path fill="#ff7000" opacity="1.00" d=" M 22.18 339.24 C 27.53 335.64 34.48 334.50 40.65 336.45 C 49.06 339.06 55.69 345.86 59.32 353.74 C 60.62 356.28 61.99 359.42 65.07 360.13 C 68.11 360.64 71.26 360.01 74.26 360.81 C 78.03 362.28 79.02 366.70 81.79 369.28 C 84.05 371.16 87.16 371.04 89.93 371.02 C 96.27 370.87 102.89 371.02 108.72 373.84 C 98.74 377.78 90.40 385.26 79.84 387.81 C 70.55 389.98 60.27 389.11 52.00 384.12 C 46.13 380.63 41.18 374.98 39.91 368.12 C 38.77 361.85 40.05 355.06 37.09 349.19 C 35.51 345.68 31.90 343.12 28.00 343.15 C 22.59 342.93 17.73 346.26 14.59 350.44 C 10.30 356.13 7.71 362.86 4.07 368.96 C 4.24 366.99 4.22 364.96 4.98 363.10 C 8.37 353.81 13.75 344.76 22.18 339.24 Z" />
<path fill="#ff7000" opacity="1.00" d=" M 125.45 379.13 C 129.34 381.16 133.74 381.86 138.09 381.84 C 135.22 385.67 130.39 388.95 125.41 387.82 C 126.22 390.52 127.64 393.17 127.44 396.07 C 127.29 397.90 125.41 398.60 124.07 399.41 C 120.68 394.60 120.04 388.49 116.91 383.50 C 119.75 382.03 122.58 380.54 125.45 379.13 Z" />
<path fill="#ff7000" opacity="1.00" d=" M 167.12 384.85 C 169.25 384.71 171.38 384.52 173.51 384.33 C 173.69 389.77 173.75 395.59 176.56 400.45 C 178.55 403.98 182.34 406.04 184.17 409.68 C 182.10 408.32 180.08 406.88 178.07 405.44 C 175.33 403.11 171.96 401.10 170.54 397.63 C 168.79 393.56 167.95 389.18 167.12 384.85 Z" />
</g>
<g id="#e4eaedff">
<path fill="#e4eaed" opacity="1.00" d=" M 882.31 334.74 C 883.39 334.95 884.49 335.16 885.59 335.38 L 886.08 335.70 L 884.76 335.65 C 884.72 337.47 884.66 339.30 884.65 341.13 L 884.97 342.22 C 884.06 343.99 883.14 345.75 882.23 347.52 C 881.57 347.28 880.25 346.81 879.59 346.57 C 880.17 342.56 881.17 338.63 882.31 334.74 Z" />
</g>
<g id="#2893b6ff">
<path fill="#2893b6" opacity="1.00" d=" M 884.76 335.65 L 886.08 335.70 C 888.99 337.04 888.91 340.29 888.95 343.02 C 888.52 343.15 887.65 343.42 887.22 343.55 C 886.66 343.22 885.53 342.55 884.97 342.22 L 884.65 341.13 C 884.66 339.30 884.72 337.47 884.76 335.65 Z" />
</g>
<g id="#ffca9fff">
<path fill="#ffca9f" opacity="1.00" d=" M 324.29 347.52 C 322.02 344.79 322.78 339.53 326.13 337.73 C 326.36 340.25 326.51 342.78 326.64 345.31 C 331.46 345.58 337.15 343.13 341.33 346.34 C 335.59 344.33 330.02 347.92 324.29 347.52 Z" />
</g>
<g id="#61a8bdff">
<path fill="#61a8bd" opacity="1.00" d=" M 949.20 338.27 C 950.24 337.56 952.94 338.48 952.91 339.86 C 951.73 340.27 949.11 339.82 949.20 338.27 Z" />
</g>
<g id="#63aabeff">
<path fill="#63aabe" opacity="1.00" d=" M 953.96 340.58 C 954.58 339.24 957.98 340.50 958.12 341.83 C 956.68 342.31 954.94 341.62 953.96 340.58 Z" />
</g>
<g id="#dfe1dcfa">
<path fill="#dfe1dc" opacity="0.98" d=" M 315.18 347.81 C 316.07 345.69 316.85 343.47 318.45 341.76 C 318.82 343.81 319.12 345.87 319.49 347.93 C 318.41 347.90 316.26 347.84 315.18 347.81 Z" />
</g>
<g id="#7f7974ff">
<path fill="#7f7974" opacity="1.00" d=" M 884.97 342.22 C 885.53 342.55 886.66 343.22 887.22 343.55 C 885.32 346.43 883.51 349.37 881.87 352.40 C 883.82 353.02 885.78 353.63 887.76 354.21 C 889.67 350.60 891.59 346.99 893.56 343.42 C 894.51 343.45 895.46 343.43 896.43 343.36 C 894.48 346.58 892.41 349.74 890.52 352.99 C 891.78 353.55 893.06 354.12 894.35 354.70 C 887.29 356.51 880.20 358.20 873.06 359.68 C 876.37 357.12 880.46 356.08 884.20 354.33 C 877.98 354.67 871.88 356.08 865.71 356.78 C 869.53 353.48 874.82 353.43 879.57 352.75 C 880.44 351.00 881.33 349.25 882.23 347.52 C 883.14 345.75 884.06 343.99 884.97 342.22 Z" />
</g>
<g id="#70b0c0ff">
<path fill="#70b0c0" opacity="1.00" d=" M 963.38 342.35 C 965.32 342.95 967.29 343.53 969.26 344.13 C 969.05 344.73 968.65 345.93 968.44 346.53 C 966.54 345.49 962.17 345.64 963.38 342.35 Z" />
</g>
<g id="#ddf4fcfc">
<path fill="#ddf4fc" opacity="1.00" d=" M 245.04 349.94 C 248.59 348.21 253.51 346.84 256.73 349.95 C 252.84 350.19 248.93 350.21 245.04 349.94 Z" />
</g>
<g id="#f66a0aff">
<path fill="#f66a0a" opacity="1.00" d=" M 302.88 369.66 C 306.01 361.93 309.86 354.26 315.18 347.81 C 314.68 352.02 314.41 356.27 314.68 360.52 C 317.91 359.98 323.37 358.63 324.52 362.97 C 324.10 366.71 322.25 370.09 320.50 373.36 C 321.62 369.47 319.82 364.80 315.92 363.35 C 311.29 362.99 307.56 366.33 304.29 369.15 C 303.94 369.28 303.23 369.53 302.88 369.66 Z" />
</g>
<g id="#ffbd8bff">
<path fill="#ffbd8b" opacity="1.00" d=" M 147.67 354.28 C 153.72 354.86 159.66 356.41 165.38 358.45 C 172.37 360.94 178.19 365.80 183.10 371.24 C 182.67 372.37 182.29 373.51 181.96 374.67 C 177.03 369.68 172.41 364.06 165.80 361.22 C 160.06 358.10 153.08 358.01 147.67 354.28 Z" />
<path fill="#ffbd8b" opacity="1.00" d=" M 188.97 366.49 C 189.05 364.50 190.11 361.90 192.54 362.40 C 195.65 363.82 194.28 367.89 194.14 370.54 C 194.81 370.54 196.14 370.55 196.81 370.56 C 196.61 368.71 196.17 366.85 196.47 364.99 C 196.68 362.92 199.14 362.90 200.68 362.67 L 201.13 363.10 C 202.49 365.61 201.94 368.39 201.18 370.99 C 203.49 373.15 205.57 375.75 206.18 378.94 C 207.48 383.30 203.92 388.10 206.93 392.06 C 205.45 391.34 203.63 390.49 203.48 388.62 C 202.90 383.92 204.26 378.28 200.42 374.61 C 198.60 372.40 195.57 372.93 193.05 372.81 C 192.17 370.38 192.28 366.85 188.97 366.49 Z" />
<path fill="#ffbd8b" opacity="1.00" d=" M 148.18 366.84 C 151.79 369.00 155.62 371.47 157.63 375.29 C 157.97 378.96 153.41 380.74 151.27 383.18 L 150.90 383.49 L 150.07 382.91 C 150.87 380.61 152.30 378.43 152.37 375.95 C 151.75 372.61 149.67 369.83 148.18 366.84 Z" />
</g>
<g id="#b1b7bbff">
<path fill="#b1b7bb" opacity="1.00" d=" M 924.49 354.73 C 927.93 358.37 930.60 362.88 934.90 365.60 C 934.76 363.70 934.60 361.81 934.45 359.93 C 936.93 364.25 939.54 368.49 942.39 372.58 C 945.94 377.72 945.46 384.21 945.94 390.14 C 939.36 397.50 932.46 404.58 925.81 411.88 C 918.19 411.88 910.55 411.65 902.93 411.96 C 896.63 413.75 890.56 416.66 883.95 417.21 C 878.20 416.10 872.60 414.19 867.14 412.10 C 862.81 410.52 859.45 407.13 855.11 405.60 C 846.33 402.19 837.22 399.71 828.14 397.28 C 828.30 396.62 828.62 395.29 828.78 394.63 C 831.10 385.92 833.73 377.30 836.45 368.71 C 837.01 368.31 838.13 367.50 838.70 367.10 C 848.10 375.77 860.07 380.73 870.70 387.64 C 876.36 382.58 882.17 377.57 888.78 373.80 C 893.94 372.37 900.46 376.03 904.79 371.87 C 911.34 366.14 917.81 360.31 924.49 354.73 Z" />
</g>
<g id="#ffcda6ff">
<path fill="#ffcda6" opacity="1.00" d=" M 304.29 369.15 C 307.56 366.33 311.29 362.99 315.92 363.35 C 319.82 364.80 321.62 369.47 320.50 373.36 L 319.80 374.63 C 318.54 371.86 318.26 367.89 314.88 366.79 C 311.19 365.98 307.78 368.31 304.29 369.15 Z" />
</g>
<g id="#3b5237fb">
<path fill="#3b5237" opacity="1.00" d=" M 782.88 365.14 C 785.27 364.86 787.70 364.57 790.12 364.40 C 790.20 364.51 790.35 364.72 790.43 364.83 L 791.04 365.69 C 788.42 365.94 784.91 367.60 782.88 365.14 Z" />
</g>
<g id="#a0a6abff">
<path fill="#a0a6ab" opacity="1.00" d=" M 790.12 364.40 C 790.20 364.51 790.35 364.72 790.43 364.83 C 790.35 364.72 790.20 364.51 790.12 364.40 Z" />
</g>
<g id="#84c55cff">
<path fill="#84c55c" opacity="1.00" d=" M 619.84 369.18 C 625.20 370.16 630.44 371.70 635.76 372.84 C 636.01 372.36 636.49 371.42 636.74 370.94 C 635.56 374.46 634.43 378.01 633.85 381.68 C 628.70 378.09 623.78 374.09 619.84 369.18 Z" />
</g>
<g id="#fb8532ff">
<path fill="#fb8532" opacity="1.00" d=" M 184.61 369.48 C 186.19 371.05 187.08 373.10 187.83 375.16 C 185.22 377.11 184.93 380.44 184.13 383.34 C 183.10 385.89 182.73 388.63 182.95 391.38 C 179.25 386.46 180.03 380.12 181.96 374.67 C 182.29 373.51 182.67 372.37 183.10 371.24 C 183.48 370.80 184.23 369.92 184.61 369.48 Z" />
</g>
<g id="#cacfd6ff">
<path fill="#cacfd6" opacity="1.00" d=" M 464.02 374.03 C 489.30 373.41 514.66 374.01 539.83 376.58 C 543.63 383.33 549.65 390.42 558.02 390.62 C 566.42 390.23 574.56 387.54 582.26 384.30 C 585.41 385.78 589.08 386.92 591.14 389.94 C 592.16 391.31 591.57 393.22 590.43 394.32 C 587.72 396.94 584.05 398.22 580.56 399.45 C 568.98 403.09 556.90 404.76 544.88 406.20 C 517.37 409.25 489.65 409.86 462.00 409.21 C 440.40 408.46 418.75 407.12 397.46 403.26 C 390.56 401.90 383.61 400.44 377.14 397.62 C 374.59 396.40 371.69 394.93 370.73 392.06 C 370.80 389.04 373.73 387.38 376.08 386.16 C 383.30 382.73 391.23 381.24 399.02 379.71 C 401.39 385.30 405.31 390.19 410.24 393.73 C 418.71 400.17 429.67 401.71 440.00 402.21 C 448.74 402.41 458.16 401.64 465.43 396.26 C 467.99 394.31 471.91 392.21 471.64 388.51 C 470.88 386.07 468.26 386.64 466.32 386.79 C 466.38 382.43 465.69 378.07 464.02 374.03 Z" />
<path fill="#cacfd6" opacity="1.00" d=" M 401.78 379.26 C 421.36 376.06 441.21 374.74 461.04 374.13 C 462.64 377.89 463.73 381.95 463.52 386.07 C 463.73 387.23 463.16 388.17 462.02 388.45 C 453.51 391.75 445.14 395.58 436.21 397.66 C 430.07 399.42 423.69 397.45 418.00 395.09 C 411.03 391.82 405.00 386.32 401.78 379.26 Z" />
<path fill="#cacfd6" opacity="1.00" d=" M 544.95 379.74 C 545.55 378.90 546.16 378.06 546.78 377.23 C 557.11 378.65 567.51 380.01 577.55 382.94 C 571.75 385.67 565.37 387.17 559.01 387.80 C 553.10 388.31 548.54 383.82 544.95 379.74 Z" />
<path fill="#cacfd6" opacity="1.00" d=" M 301.15 390.82 C 303.25 389.08 305.49 387.52 307.79 386.07 C 311.28 385.73 314.79 385.62 318.29 385.52 C 322.61 387.06 327.70 387.44 331.05 390.90 C 332.69 392.49 331.15 394.75 329.56 395.62 C 325.02 398.39 319.65 399.30 314.50 400.26 C 299.97 402.50 285.14 402.63 270.52 401.16 C 264.17 400.39 257.74 399.49 251.74 397.15 C 249.75 396.27 247.49 395.24 246.58 393.10 C 246.57 389.94 250.21 389.00 252.40 387.61 C 252.98 389.77 253.58 392.08 255.22 393.72 C 257.54 396.18 261.10 396.56 264.24 397.11 C 273.26 397.82 281.58 393.23 287.64 386.88 C 289.46 388.81 291.68 390.26 294.15 391.23 C 293.40 392.82 292.66 394.41 291.92 396.01 C 298.09 396.76 304.32 396.77 310.53 396.75 C 312.91 396.42 317.68 397.65 317.66 393.98 C 316.54 391.44 313.39 391.65 311.09 391.38 C 307.78 391.10 304.46 391.00 301.15 390.82 Z" />
<path fill="#cacfd6" opacity="1.00" d=" M 667.81 409.02 C 672.12 405.11 671.73 398.90 672.75 393.66 C 672.68 394.37 672.53 395.79 672.45 396.50 C 685.37 395.97 698.31 396.33 711.23 395.91 C 712.02 400.51 712.22 405.68 715.80 409.15 C 717.63 409.71 719.54 409.99 721.46 410.15 C 721.99 410.12 723.04 410.06 723.56 410.03 C 725.59 409.82 727.64 409.55 729.63 409.06 C 730.04 408.92 730.86 408.63 731.27 408.49 C 733.20 407.79 735.03 406.77 736.30 405.11 C 737.45 402.39 736.10 399.60 735.41 396.96 C 744.35 396.74 753.36 396.97 762.17 398.54 C 769.71 400.74 778.77 399.59 785.03 405.05 C 782.02 407.77 777.94 408.49 774.11 409.26 C 765.47 410.83 756.72 411.67 748.09 413.29 C 737.43 414.34 726.71 414.83 716.00 414.90 C 688.96 415.14 661.88 414.84 634.95 412.33 C 626.73 411.43 618.42 410.68 610.45 408.40 C 608.77 407.71 606.24 407.30 606.00 405.13 C 608.03 402.96 611.13 402.49 613.88 401.76 C 625.15 399.36 636.68 398.58 648.14 397.61 C 647.64 399.43 647.19 401.26 646.71 403.09 C 646.94 403.57 647.40 404.53 647.63 405.01 C 648.82 406.75 650.68 407.80 652.62 408.52 C 653.09 408.66 654.02 408.93 654.49 409.07 C 656.35 409.43 658.23 409.67 660.12 409.92 C 660.69 409.97 661.82 410.09 662.38 410.15 C 664.24 410.14 666.08 409.70 667.81 409.02 Z" />
<path fill="#cacfd6" opacity="1.00" d=" M 94.51 403.26 C 112.28 403.05 130.06 402.88 147.82 403.71 C 148.71 404.60 149.64 405.47 150.58 406.33 C 150.79 405.71 151.20 404.48 151.41 403.86 C 160.30 404.06 169.21 404.60 178.07 405.44 C 180.08 406.88 182.10 408.32 184.17 409.68 C 189.73 413.92 196.48 417.77 203.75 415.94 C 199.91 412.66 194.99 410.80 191.63 406.89 C 197.09 407.59 202.62 408.31 207.82 410.17 C 209.06 410.71 211.05 411.31 210.79 413.08 C 207.57 415.84 203.09 416.18 199.12 417.09 C 181.86 419.94 164.34 420.79 146.89 421.49 C 113.10 422.35 79.21 422.35 45.53 419.19 C 37.33 418.20 28.95 417.58 21.08 414.92 C 19.76 414.36 17.12 413.37 18.49 411.55 C 22.32 408.99 27.10 408.58 31.50 407.68 C 52.35 404.53 73.46 403.76 94.51 403.26 Z" />
</g>
<g id="#fd5900ff">
<path fill="#fd5900" opacity="1.00" d=" M 307.79 386.07 C 311.82 383.04 315.47 379.54 319.02 375.98 C 317.74 378.33 316.32 380.62 314.88 382.88 C 318.25 382.76 321.64 382.54 324.99 382.97 C 326.29 382.97 327.22 383.58 327.78 384.80 C 324.61 384.95 321.44 385.12 318.29 385.52 C 314.79 385.62 311.28 385.73 307.79 386.07 Z" />
</g>
<g id="#cacfd7ff">
<path fill="#cacfd7" opacity="1.00" d=" M 275.16 383.67 C 278.87 383.36 282.60 383.14 286.33 383.27 C 284.00 385.52 280.68 387.69 277.31 386.71 C 275.85 386.37 275.55 384.88 275.16 383.67 Z" />
</g>
<g id="#dfdad6ff">
<path fill="#dfdad6" opacity="1.00" d=" M 443.82 398.33 C 452.44 395.92 460.38 391.61 468.98 389.16 C 462.73 397.33 451.78 399.49 442.00 399.60 C 442.38 398.87 442.99 398.45 443.82 398.33 Z" />
</g>
<g id="#f66909ff">
<path fill="#f66909" opacity="1.00" d=" M 308.08 391.61 C 308.83 391.55 310.33 391.44 311.09 391.38 C 313.39 391.65 316.54 391.44 317.66 393.98 C 317.68 397.65 312.91 396.42 310.53 396.75 C 309.99 394.91 309.16 393.18 308.08 391.61 Z" />
</g>
<g id="#393231c6">
<path fill="#393231" opacity="0.78" d=" M 209.27 392.83 C 209.99 392.87 211.43 392.95 212.14 392.99 C 212.53 394.39 212.43 395.86 211.19 396.79 C 210.02 395.73 208.97 394.53 209.27 392.83 Z" />
</g>
<g id="#519425ff">
<path fill="#519425" opacity="1.00" d=" M 647.63 405.01 C 649.06 403.93 650.52 402.90 652.02 401.92 C 652.35 404.10 652.51 406.31 652.62 408.52 C 650.68 407.80 648.82 406.75 647.63 405.01 Z" />
<path fill="#519425" opacity="1.00" d=" M 725.07 403.82 C 726.94 405.23 728.37 407.09 729.63 409.06 C 727.64 409.55 725.59 409.82 723.56 410.03 C 723.91 407.92 724.38 405.84 725.07 403.82 Z" />
</g>
<g id="#519626ff">
<path fill="#519626" opacity="1.00" d=" M 731.58 402.49 C 733.56 402.04 734.78 404.20 736.30 405.11 C 735.03 406.77 733.20 407.79 731.27 408.49 C 731.30 406.48 731.28 404.47 731.58 402.49 Z" />
</g>
<g id="#469017ff">
<path fill="#469017" opacity="1.00" d=" M 654.49 409.07 C 655.62 407.24 656.82 405.44 658.11 403.72 C 659.32 405.57 659.77 407.75 660.12 409.92 C 658.23 409.67 656.35 409.43 654.49 409.07 Z" />
</g>
<g id="#4e9421ff">
<path fill="#4e9421" opacity="1.00" d=" M 662.38 410.15 C 662.99 408.07 663.85 406.07 665.03 404.24 C 666.36 405.57 667.14 407.28 667.81 409.02 C 666.08 409.70 664.24 410.14 662.38 410.15 Z" />
</g>
<g id="#4a8e1bff">
<path fill="#4a8e1b" opacity="1.00" d=" M 715.80 409.15 C 716.55 407.54 717.31 405.94 718.10 404.35 C 720.01 405.74 720.71 408.02 721.46 410.15 C 719.54 409.99 717.63 409.71 715.80 409.15 Z" />
</g>
</svg>
