<?xml version="1.0" encoding="UTF-8" ?>
<!DOCTYPE svg PUBLIC "-//W3C//DTD SVG 1.1//EN" "http://www.w3.org/Graphics/SVG/1.1/DTD/svg11.dtd">
<svg width="1000pt" height="500pt" viewBox="0 0 1000 500" version="1.1" xmlns="http://www.w3.org/2000/svg">
<g id="#38c6f4ff">
<path fill="#38c6f4" opacity="1.00" d=" M 25.80 28.44 C 29.30 30.03 31.93 32.97 35.32 34.78 C 52.36 44.87 70.27 53.36 87.97 62.21 C 93.41 64.67 96.51 70.12 99.75 74.83 C 100.24 76.37 101.04 77.96 100.74 79.61 C 96.78 83.61 90.94 84.45 86.15 87.02 C 84.51 87.84 82.79 88.47 81.00 88.90 C 81.27 88.43 81.79 87.50 82.05 87.03 C 84.45 85.33 86.49 83.17 87.34 80.28 C 87.45 80.01 87.68 79.47 87.79 79.20 C 86.26 78.70 84.62 78.80 83.08 79.16 C 80.74 77.04 78.93 74.43 77.33 71.73 C 77.54 70.92 77.75 70.11 77.96 69.30 C 76.23 67.60 74.37 65.95 73.30 63.74 C 74.23 64.21 76.49 64.72 76.75 63.30 C 76.00 62.15 74.39 61.86 73.14 62.19 C 71.96 60.37 69.72 59.91 67.89 59.03 C 57.18 54.67 46.69 49.49 37.59 42.27 C 34.34 39.83 31.73 36.58 28.13 34.59 L 27.62 34.28 C 26.66 32.45 25.82 30.54 25.80 28.44 Z" />
<path fill="#38c6f4" opacity="1.00" d=" M 107.53 45.73 C 112.07 45.23 116.95 44.68 121.22 46.71 C 125.41 48.57 128.45 52.43 129.76 56.77 L 129.06 57.82 C 128.74 58.36 128.11 59.44 127.79 59.98 L 127.41 60.63 C 127.29 61.21 127.05 62.38 126.94 62.96 C 125.33 63.88 124.10 65.22 123.38 66.93 C 124.72 67.93 126.06 68.95 127.40 69.97 C 124.93 72.84 121.80 75.24 117.95 75.80 L 117.02 75.98 C 115.75 75.90 114.48 75.89 113.20 75.97 C 112.69 75.96 111.66 75.96 111.15 75.95 C 110.59 75.70 109.48 75.20 108.92 74.95 C 107.68 74.15 106.44 73.36 105.16 72.61 C 99.51 69.31 98.83 61.95 99.34 56.07 C 99.77 55.11 101.48 53.86 100.21 52.86 C 99.61 52.55 98.39 51.94 97.79 51.64 C 98.83 50.71 100.04 49.99 101.22 49.24 C 100.57 49.15 99.26 48.97 98.61 48.89 C 101.08 46.77 104.43 46.27 107.53 45.73 M 116.39 53.05 C 113.35 54.50 115.49 59.28 118.61 57.94 C 121.65 56.50 119.50 51.72 116.39 53.05 Z" />
</g>
<g id="#33aed5ff">
<path fill="#33aed5" opacity="1.00" d=" M 28.13 34.59 C 31.73 36.58 34.34 39.83 37.59 42.27 C 46.69 49.49 57.18 54.67 67.89 59.03 C 69.72 59.91 71.96 60.37 73.14 62.19 C 73.18 62.58 73.26 63.35 73.30 63.74 C 74.37 65.95 76.23 67.60 77.96 69.30 C 77.75 70.11 77.54 70.92 77.33 71.73 C 78.93 74.43 80.74 77.04 83.08 79.16 C 84.18 80.23 85.87 80.51 87.34 80.28 C 86.49 83.17 84.45 85.33 82.05 87.03 C 78.01 91.70 71.85 93.53 65.92 94.27 C 64.63 94.17 61.76 94.89 61.73 92.95 C 63.34 90.64 66.05 89.42 67.92 87.33 C 64.26 87.43 60.69 88.33 57.05 88.56 C 55.40 88.79 54.02 87.64 53.73 86.06 C 55.78 85.30 57.92 84.81 60.07 84.45 C 53.69 83.03 47.05 80.65 42.34 75.96 C 46.09 75.87 49.63 77.19 53.26 77.93 C 48.86 74.34 43.70 71.84 38.60 69.40 C 37.48 68.97 36.67 68.09 35.92 67.18 C 40.00 66.13 44.24 66.43 48.40 66.60 C 42.05 62.66 34.35 58.26 32.43 50.52 C 38.44 50.68 43.45 54.46 48.77 56.84 C 41.58 51.56 35.12 45.25 29.92 37.99 C 29.15 36.96 28.57 35.80 28.13 34.59 Z" />
<path fill="#33aed5" opacity="1.00" d=" M 123.38 66.93 C 124.10 65.22 125.33 63.88 126.94 62.96 C 127.79 63.89 128.69 64.79 129.68 65.59 C 128.93 67.06 128.17 68.52 127.40 69.97 C 126.06 68.95 124.72 67.93 123.38 66.93 Z" />
<path fill="#33aed5" opacity="1.00" d=" M 99.75 74.83 C 101.42 73.90 103.03 71.41 105.16 72.61 C 106.44 73.36 107.68 74.15 108.92 74.95 C 109.48 75.20 110.59 75.70 111.15 75.95 C 111.66 75.96 112.69 75.96 113.20 75.97 C 114.23 76.93 115.26 77.89 116.31 78.83 L 116.23 80.04 L 115.39 80.22 C 115.27 80.67 115.03 81.57 114.91 82.02 C 114.62 82.96 114.33 83.89 114.03 84.83 C 113.77 85.38 113.24 86.49 112.98 87.05 C 110.78 91.92 108.46 96.76 105.62 101.30 C 105.57 101.38 105.45 101.56 105.40 101.65 C 104.96 102.31 104.08 103.64 103.65 104.30 C 103.58 104.40 103.44 104.60 103.37 104.70 C 101.26 107.68 98.84 110.44 96.24 113.01 C 95.86 113.33 95.10 113.99 94.72 114.31 L 94.48 114.51 L 94.24 114.72 C 89.68 117.95 83.93 118.13 78.75 119.72 C 68.61 122.73 58.88 127.23 50.15 133.22 C 46.91 135.61 43.32 138.13 41.92 142.10 C 41.07 144.74 39.13 146.79 36.63 147.98 C 33.48 141.10 36.10 132.52 41.80 127.78 C 50.17 120.73 61.47 118.93 72.02 117.78 C 73.92 106.50 79.14 95.99 86.15 87.02 C 90.94 84.45 96.78 83.61 100.74 79.61 C 101.04 77.96 100.24 76.37 99.75 74.83 Z" />
</g>
<g id="#000000ff">
<path fill="#000000" opacity="1.00" d=" M 116.39 53.05 C 119.50 51.72 121.65 56.50 118.61 57.94 C 115.49 59.28 113.35 54.50 116.39 53.05 Z" />
<path fill="#000000" opacity="1.00" d=" M 854.04 260.93 C 856.56 260.34 858.73 262.30 858.02 264.87 C 856.97 266.02 854.77 266.72 853.68 265.32 C 852.25 264.19 853.05 262.06 854.04 260.93 Z" />
<path fill="#000000" opacity="1.00" d=" M 342.38 328.04 C 344.25 327.38 346.56 328.83 346.02 330.95 C 346.01 332.97 342.87 333.87 341.68 332.32 C 340.30 331.18 340.87 328.82 342.38 328.04 Z" />
<path fill="#000000" opacity="1.00" d=" M 776.40 346.04 C 779.51 344.76 781.63 349.46 778.62 350.96 C 775.48 352.26 773.34 347.51 776.40 346.04 Z" />
<path fill="#000000" opacity="1.00" d=" M 194.39 378.05 C 197.49 376.73 199.66 381.49 196.61 382.93 C 193.48 384.30 191.36 379.48 194.39 378.05 Z" />
</g>
<g id="#fdc066ff">
<path fill="#fdc066" opacity="1.00" d=" M 129.96 57.10 C 138.97 56.51 148.10 56.48 157.04 57.86 C 161.01 58.69 166.02 59.53 167.63 63.85 C 157.24 59.68 145.73 62.51 135.00 63.64 C 132.34 64.18 127.26 65.31 127.56 60.99 L 127.79 59.98 C 128.11 59.44 128.74 58.36 129.06 57.82 C 129.29 57.64 129.73 57.28 129.96 57.10 Z" />
<path fill="#fdc066" opacity="1.00" d=" M 117.02 75.98 L 117.95 75.80 C 118.56 75.69 119.77 75.46 120.37 75.34 C 121.95 78.65 122.91 82.54 121.51 86.09 C 119.54 90.96 114.91 93.95 112.27 98.39 C 107.54 103.86 102.12 108.80 96.24 113.01 C 98.84 110.44 101.26 107.68 103.37 104.70 C 103.44 104.60 103.58 104.40 103.65 104.30 C 104.08 103.64 104.96 102.31 105.40 101.65 C 105.45 101.56 105.57 101.38 105.62 101.30 C 108.46 96.76 110.78 91.92 112.98 87.05 C 113.24 86.49 113.77 85.38 114.03 84.83 C 114.33 83.89 114.62 82.96 114.91 82.02 C 115.24 81.53 115.90 80.53 116.23 80.04 L 116.31 78.83 C 116.78 77.92 117.01 76.97 117.02 75.98 Z" />
</g>
<g id="#2c98bbd7">
<path fill="#2c98bb" opacity="0.84" d=" M 73.14 62.19 C 74.39 61.86 76.00 62.15 76.75 63.30 C 76.49 64.72 74.23 64.21 73.30 63.74 C 73.26 63.35 73.18 62.58 73.14 62.19 Z" />
</g>
<g id="#e3e9ecff">
<path fill="#e3e9ec" opacity="1.00" d=" M 333.82 140.32 C 341.07 114.73 348.14 89.06 354.00 63.11 C 354.26 67.16 354.60 71.21 355.44 75.19 C 358.76 92.12 363.84 108.65 369.14 125.06 C 374.51 141.26 380.11 157.39 386.36 173.27 C 391.41 158.97 396.58 144.59 399.23 129.61 C 402.45 140.24 404.78 151.11 407.57 161.86 C 414.49 189.69 421.26 217.55 428.08 245.40 C 405.26 253.29 384.21 265.28 363.34 277.23 C 349.68 285.35 335.89 293.47 323.70 303.73 C 320.70 306.59 316.82 309.58 316.44 314.01 C 316.87 317.57 321.04 318.47 324.02 318.39 C 332.57 318.21 340.86 315.77 349.03 313.48 C 365.93 308.34 382.61 302.29 398.43 294.39 C 410.84 288.31 423.16 282.03 435.42 275.66 C 439.28 291.43 443.13 307.21 446.90 323.00 C 436.36 329.22 425.62 335.07 415.10 341.30 C 391.75 343.20 368.37 344.75 344.99 346.35 C 343.78 346.41 342.58 346.38 341.38 346.24 C 337.02 343.33 331.52 345.53 326.65 345.28 C 326.52 342.75 326.37 340.23 326.15 337.71 C 329.07 336.38 332.09 335.27 335.03 333.98 C 337.40 338.50 341.24 343.30 346.93 342.84 C 352.42 342.51 360.32 341.38 361.74 334.97 C 362.16 334.67 362.99 334.08 363.41 333.78 C 362.42 331.67 360.50 331.65 358.91 333.18 C 358.43 333.16 357.46 333.11 356.97 333.08 C 355.57 329.95 354.78 326.26 351.89 324.08 C 349.32 321.83 345.74 321.08 342.43 321.83 C 341.59 320.15 340.90 318.24 339.25 317.19 C 336.49 318.30 338.25 321.35 339.17 323.16 C 338.80 323.30 338.07 323.57 337.70 323.70 C 335.68 322.46 334.45 319.93 331.79 319.67 C 331.24 322.92 332.92 325.79 334.21 328.62 C 326.49 330.18 318.59 331.75 311.60 335.56 C 305.45 338.84 300.07 343.48 295.78 348.96 C 292.40 349.25 289.01 349.39 285.62 349.42 C 286.03 341.24 282.95 333.24 278.66 326.40 C 273.97 318.98 265.76 313.39 256.74 313.70 C 248.18 313.29 239.06 315.63 232.89 321.87 C 224.91 329.62 222.85 341.11 216.70 350.09 C 209.52 350.43 202.33 349.99 195.15 350.28 C 194.19 348.89 193.25 347.50 192.30 346.12 C 192.57 347.44 192.85 348.77 193.17 350.09 C 170.10 350.01 147.01 349.71 123.98 348.22 C 117.33 347.61 110.60 347.24 104.11 345.60 C 100.76 344.88 98.37 342.22 96.29 339.69 C 90.75 332.85 86.98 324.82 83.37 316.86 C 89.96 303.87 96.07 290.63 102.98 277.81 C 103.42 284.20 103.79 290.61 104.69 296.96 C 109.21 286.13 113.92 275.38 118.68 264.65 C 120.09 268.65 120.82 272.85 121.98 276.93 C 124.40 269.68 126.19 262.23 128.84 255.05 C 130.97 265.13 133.75 275.06 135.97 285.13 C 140.34 270.12 143.65 254.79 147.80 239.71 C 150.87 252.23 153.59 264.84 156.58 277.39 C 160.77 270.03 164.66 262.49 168.82 255.11 C 164.45 257.11 160.07 259.20 155.35 260.27 C 160.47 249.05 167.27 238.69 173.29 227.94 C 167.83 230.33 162.54 233.32 156.63 234.50 C 163.09 223.83 172.05 214.60 176.69 202.88 C 181.86 188.54 185.04 173.59 188.99 158.91 C 192.80 171.62 197.15 184.20 202.47 196.36 C 204.42 200.56 206.33 204.95 209.70 208.23 C 212.79 199.08 216.05 189.97 219.55 180.97 C 214.45 183.66 209.50 186.62 204.51 189.49 C 211.71 170.52 218.41 151.35 224.81 132.09 C 227.73 123.77 229.75 115.19 231.67 106.59 C 232.44 107.38 233.15 108.26 233.45 109.35 C 235.23 114.55 237.44 119.62 238.50 125.04 C 242.69 143.46 245.94 162.72 255.86 179.12 C 257.14 181.79 261.16 184.49 259.56 187.58 C 255.50 188.21 251.72 185.73 248.06 184.30 C 254.11 199.12 260.27 213.91 266.08 228.83 C 271.58 215.60 276.99 202.32 282.03 188.91 C 285.46 199.18 288.28 209.64 291.72 219.91 C 296.24 206.63 301.05 193.45 305.69 180.22 C 300.27 185.10 294.85 189.99 289.53 194.99 C 296.95 180.09 303.73 164.60 306.73 148.13 C 309.52 129.18 311.61 110.14 313.83 91.11 C 320.43 107.54 327.16 123.91 333.82 140.32 Z" />
<path fill="#e3e9ec" opacity="1.00" d=" M 736.12 179.35 C 741.98 172.56 748.38 166.22 753.94 159.17 C 755.36 161.20 754.00 163.33 753.23 165.27 C 755.02 163.84 756.85 162.46 758.68 161.07 C 760.15 169.61 761.08 178.33 763.90 186.57 C 769.63 181.23 772.30 173.61 776.80 167.35 C 781.29 172.08 784.49 178.27 790.01 181.90 C 793.47 180.22 795.31 176.60 797.73 173.79 C 803.37 177.03 810.06 176.50 816.31 176.48 C 812.99 171.51 808.33 167.67 804.64 163.00 C 806.05 162.96 807.48 162.92 808.92 162.89 C 816.24 171.67 824.04 180.04 831.56 188.66 C 821.81 189.71 811.99 190.22 802.28 191.49 C 801.13 193.04 801.32 195.16 800.97 196.98 C 798.98 217.12 797.82 237.33 796.43 257.52 C 793.13 252.92 792.06 247.14 788.53 242.70 C 787.94 240.97 787.55 239.16 786.71 237.55 C 782.40 236.09 777.78 236.13 773.32 235.57 L 773.76 236.85 C 772.86 234.64 771.72 232.53 770.41 230.54 C 758.90 213.53 747.59 196.39 736.12 179.35 Z" />
<path fill="#e3e9ec" opacity="1.00" d=" M 637.78 210.22 C 638.73 209.47 639.82 209.23 641.06 209.50 C 640.48 210.44 639.68 211.08 638.67 211.41 C 638.45 211.12 638.00 210.52 637.78 210.22 Z" />
<path fill="#e3e9ec" opacity="1.00" d=" M 899.13 224.84 C 932.87 268.15 966.08 311.89 1000.00 355.06 L 1000.00 355.47 C 977.74 355.19 955.47 354.27 933.19 354.14 C 932.17 348.53 928.54 344.15 925.79 339.33 C 927.91 338.60 930.02 337.83 932.17 337.17 C 937.35 337.54 942.60 338.62 947.79 337.71 C 947.52 336.50 945.94 336.40 945.10 335.77 C 941.08 333.95 937.31 331.64 933.46 329.52 C 930.76 327.67 927.39 328.84 924.41 328.20 C 923.34 327.49 922.75 326.31 922.00 325.34 C 922.53 325.95 923.59 327.17 924.11 327.78 C 926.37 327.87 928.65 327.76 930.89 327.37 C 941.41 332.96 952.00 338.50 963.32 342.34 C 962.44 345.64 966.49 345.52 968.47 346.55 C 976.64 349.11 984.14 353.66 992.54 355.43 C 990.85 352.50 988.28 350.28 985.72 348.16 C 986.42 348.04 987.81 347.80 988.51 347.68 C 975.36 337.70 959.74 332.08 945.01 324.96 C 938.70 321.93 932.31 319.09 926.08 315.91 C 926.03 312.20 925.95 308.29 923.95 305.04 C 921.31 300.73 918.07 296.83 914.89 292.92 C 911.65 288.91 907.33 285.83 904.63 281.37 C 900.75 275.19 897.51 268.60 893.08 262.76 C 895.36 250.17 897.06 237.47 899.13 224.84 M 949.21 338.25 C 949.05 339.83 951.69 340.28 952.84 339.83 C 952.87 338.44 950.24 337.53 949.21 338.25 M 953.98 340.56 C 954.88 341.66 956.64 342.30 958.04 341.82 C 957.97 340.46 954.63 339.25 953.98 340.56 Z" />
<path fill="#e3e9ec" opacity="1.00" d=" M 407.30 267.36 C 415.39 264.11 423.33 260.35 430.58 255.49 C 431.88 261.32 433.42 267.10 434.73 272.93 C 413.00 283.74 391.78 295.80 368.85 303.93 C 357.38 308.07 345.78 311.95 333.84 314.46 C 332.79 314.62 331.70 314.97 330.64 314.76 C 327.41 313.81 324.03 313.70 320.69 313.71 C 322.59 310.37 325.60 307.93 328.23 305.19 L 327.05 304.69 C 332.55 300.11 338.24 295.59 344.60 292.25 C 341.03 294.70 337.54 297.50 335.04 301.07 C 333.88 302.59 335.18 304.82 336.97 304.96 C 341.59 305.00 345.87 302.87 350.03 301.09 C 359.45 296.59 368.65 291.31 376.47 284.33 C 378.03 282.66 380.43 280.72 379.79 278.17 C 378.69 276.00 375.86 276.56 373.95 277.03 C 368.41 278.61 363.26 281.32 358.10 283.84 C 364.34 279.32 371.32 276.01 377.94 272.12 C 379.06 271.56 380.11 270.74 381.38 270.55 C 383.66 270.60 385.67 269.53 387.62 268.47 C 388.89 267.93 390.45 266.62 391.69 267.95 C 392.10 268.95 392.64 269.87 393.30 270.73 C 398.19 271.14 402.79 268.96 407.30 267.36 Z" />
<path fill="#e3e9ec" opacity="1.00" d=" M 350.00 291.81 C 358.44 286.55 367.25 281.41 377.02 279.16 C 375.37 282.36 372.13 284.28 369.42 286.49 C 359.65 293.25 349.19 299.69 337.51 302.44 C 340.57 297.81 345.55 294.95 350.00 291.81 Z" />
<path fill="#e3e9ec" opacity="1.00" d=" M 805.78 279.17 C 814.55 280.46 823.33 281.76 832.10 283.07 C 829.18 304.23 826.66 325.45 823.58 346.59 C 822.20 343.65 820.77 340.73 819.63 337.69 C 819.46 332.36 818.07 327.19 817.12 321.97 C 815.22 311.95 813.13 301.97 810.73 292.06 C 809.60 287.57 807.40 283.48 805.78 279.17 Z" />
<path fill="#e3e9ec" opacity="1.00" d=" M 846.78 285.38 C 848.83 285.54 850.89 285.69 852.97 285.65 C 852.86 287.41 852.69 289.17 852.62 290.93 C 853.00 302.34 858.90 312.59 865.55 321.52 C 869.45 326.80 875.29 330.07 880.56 333.79 C 879.64 336.73 878.80 339.69 878.14 342.69 C 874.32 336.10 870.38 329.48 865.09 323.96 C 864.08 323.10 862.68 321.70 861.27 322.40 C 859.02 324.20 859.46 327.46 859.62 330.01 C 860.72 337.03 863.72 343.74 867.98 349.42 C 866.08 350.62 864.16 351.77 862.18 352.82 C 861.08 351.95 859.97 351.86 858.87 352.57 C 859.42 347.66 859.69 342.66 858.78 337.77 C 856.19 342.64 853.52 347.45 850.76 352.22 C 850.19 352.18 849.05 352.10 848.48 352.06 C 847.92 329.84 847.52 307.60 846.78 285.38 Z" />
<path fill="#e3e9ec" opacity="1.00" d=" M 529.32 327.33 C 538.90 326.96 548.36 325.19 557.92 324.48 C 558.17 324.99 558.68 326.00 558.93 326.51 C 549.09 327.67 539.23 328.54 529.39 329.70 C 529.35 328.91 529.32 328.12 529.32 327.33 Z" />
<path fill="#e3e9ec" opacity="1.00" d=" M 421.68 340.85 C 430.16 335.60 439.02 330.96 447.61 325.87 C 448.65 330.09 449.67 334.32 450.73 338.54 C 441.04 339.29 431.36 340.07 421.68 340.85 Z" />
<path fill="#e3e9ec" opacity="1.00" d=" M 902.13 346.40 C 903.66 345.40 905.22 344.43 906.82 343.52 C 909.51 344.49 912.37 344.18 915.15 343.91 C 917.30 346.19 919.33 348.58 921.33 351.00 C 914.84 349.83 908.61 347.59 902.13 346.40 Z" />
</g>
<g id="#2b95b7d1">
<path fill="#2b95b7" opacity="0.82" d=" M 108.92 74.95 C 109.48 75.20 110.59 75.70 111.15 75.95 C 110.59 75.70 109.48 75.20 108.92 74.95 Z" />
</g>
<g id="#4998a6da">
<path fill="#4998a6" opacity="0.85" d=" M 113.20 75.97 C 114.48 75.89 115.75 75.90 117.02 75.98 C 117.01 76.97 116.78 77.92 116.31 78.83 C 115.26 77.89 114.23 76.93 113.20 75.97 Z" />
</g>
<g id="#2b95b7cf">
<path fill="#2b95b7" opacity="0.81" d=" M 83.08 79.16 C 84.62 78.80 86.26 78.70 87.79 79.20 C 87.68 79.47 87.45 80.01 87.34 80.28 C 85.87 80.51 84.18 80.23 83.08 79.16 Z" />
</g>
<g id="#979974d3">
<path fill="#979974" opacity="0.83" d=" M 115.39 80.22 L 116.23 80.04 C 115.90 80.53 115.24 81.53 114.91 82.02 C 115.03 81.57 115.27 80.67 115.39 80.22 Z" />
</g>
<g id="#ffffffff">
<path fill="#ffffff" opacity="1.00" d=" M 643.95 125.91 C 653.63 110.53 663.58 95.32 673.08 79.84 C 680.14 94.06 687.34 108.20 694.47 122.39 C 697.11 127.55 699.50 132.85 702.69 137.71 C 701.74 138.83 700.80 139.95 699.87 141.07 C 696.06 139.58 692.24 138.08 688.30 136.97 C 686.79 141.94 685.35 146.92 683.83 151.87 C 682.76 155.37 681.31 158.87 681.52 162.59 C 680.00 162.28 678.46 162.05 676.94 161.87 C 673.91 155.54 670.80 149.25 667.62 143.01 C 663.22 150.52 659.04 158.19 655.45 166.12 C 654.96 166.28 654.00 166.61 653.51 166.77 C 651.70 162.24 653.58 157.14 653.19 152.37 C 647.48 156.68 642.65 162.00 637.02 166.41 C 636.88 161.75 637.01 157.10 636.91 152.45 C 629.30 160.42 623.20 169.73 615.51 177.62 C 618.93 168.80 624.55 160.92 627.29 151.82 C 633.08 143.34 638.37 134.53 643.95 125.91 Z" />
<path fill="#ffffff" opacity="1.00" d=" M 753.94 159.17 C 761.82 147.78 771.60 137.83 780.27 127.04 C 789.89 138.93 799.48 150.85 808.92 162.89 C 807.48 162.92 806.05 162.96 804.64 163.00 C 808.33 167.67 812.99 171.51 816.31 176.48 C 810.06 176.50 803.37 177.03 797.73 173.79 C 795.31 176.60 793.47 180.22 790.01 181.90 C 784.49 178.27 781.29 172.08 776.80 167.35 C 772.30 173.61 769.63 181.23 763.90 186.57 C 761.08 178.33 760.15 169.61 758.68 161.07 C 756.85 162.46 755.02 163.84 753.23 165.27 C 754.00 163.33 755.36 161.20 753.94 159.17 Z" />
<path fill="#ffffff" opacity="1.00" d=" M 396.95 261.95 C 407.14 256.28 418.09 252.20 428.95 248.04 L 428.72 249.24 C 418.10 252.27 408.04 257.00 398.54 262.57 C 395.99 264.00 393.81 265.96 391.69 267.95 C 390.45 266.62 388.89 267.93 387.62 268.47 C 385.67 269.53 383.66 270.60 381.38 270.55 C 386.37 267.34 391.78 264.86 396.95 261.95 Z" />
</g>
<g id="#0366d6ff">
<path fill="#0366d6" opacity="1.00" d=" M 492.22 89.58 C 508.79 82.15 528.25 81.48 545.24 87.94 C 559.83 93.41 573.74 102.41 582.14 115.83 C 584.29 115.98 586.54 115.84 588.63 116.54 C 592.28 119.01 594.56 123.07 595.89 127.19 C 598.50 135.63 596.93 144.53 595.26 152.98 C 596.48 167.29 596.52 182.37 590.27 195.66 C 593.07 194.10 595.91 192.64 598.73 191.13 C 616.65 182.31 634.25 172.39 653.51 166.77 C 654.00 166.61 654.96 166.28 655.45 166.12 C 662.42 163.96 669.57 161.89 676.94 161.87 C 678.46 162.05 680.00 162.28 681.52 162.59 C 683.68 163.35 685.71 164.47 687.52 165.89 C 688.44 166.93 689.33 168.02 690.18 169.15 C 692.83 173.97 693.02 179.68 692.02 184.99 C 691.27 189.09 689.89 193.07 688.04 196.81 C 680.07 211.55 662.53 221.98 645.60 218.32 C 644.52 218.00 643.46 217.65 642.42 217.28 C 640.45 216.31 638.62 215.10 636.97 213.67 C 636.11 212.60 635.31 211.48 634.57 210.34 C 634.02 209.27 633.53 208.17 633.03 207.08 C 629.56 208.86 626.01 210.49 622.58 212.34 C 613.70 216.19 604.89 220.20 595.77 223.45 C 598.53 225.79 601.53 227.97 603.55 231.04 C 603.14 231.46 602.32 232.32 601.91 232.74 C 598.82 229.88 595.88 226.81 592.24 224.63 C 589.16 225.85 585.97 226.76 582.87 227.92 C 585.57 231.78 589.01 235.31 590.40 239.93 L 590.08 241.10 C 589.62 241.07 588.71 241.02 588.25 240.99 C 585.85 236.64 583.17 232.45 579.82 228.77 C 571.77 231.00 563.55 232.63 555.24 233.48 C 543.41 234.80 531.40 235.00 519.61 233.26 C 521.96 236.77 524.34 240.27 526.62 243.84 C 534.00 242.14 541.53 239.71 549.19 240.90 C 557.07 242.10 564.22 247.05 568.16 253.98 C 572.40 261.20 573.06 269.97 571.67 278.09 C 570.28 285.42 566.60 292.38 560.82 297.18 C 559.72 298.07 558.57 298.90 557.43 299.72 C 556.50 300.36 555.58 301.00 554.67 301.64 C 554.28 303.79 553.78 305.92 553.16 308.02 C 555.07 312.22 557.12 316.36 559.08 320.55 C 559.64 321.74 560.22 322.92 560.81 324.11 C 561.06 324.63 561.56 325.67 561.82 326.19 C 565.79 334.10 569.54 342.14 573.91 349.84 C 580.86 342.78 591.52 341.85 600.87 342.79 C 603.60 343.24 606.24 342.12 608.95 342.24 C 611.51 342.91 613.72 345.26 613.80 347.98 C 613.91 351.77 612.31 355.31 610.71 358.65 C 607.89 364.23 604.41 369.60 599.66 373.73 C 594.54 378.24 588.50 381.56 582.28 384.29 C 574.54 387.54 566.38 390.26 557.94 390.62 C 549.61 390.37 543.61 383.31 539.84 376.57 C 534.88 361.14 530.54 345.49 525.94 329.94 C 522.55 318.70 519.32 307.41 515.91 296.17 C 515.19 296.17 513.74 296.16 513.02 296.15 C 508.15 309.21 502.26 321.92 494.77 333.70 C 486.13 347.58 474.00 359.23 460.03 367.69 C 461.51 369.69 462.94 371.76 464.02 374.03 C 465.69 378.06 466.35 382.40 466.33 386.75 C 468.23 386.66 470.88 386.10 471.63 388.50 C 471.98 391.97 468.35 394.03 465.98 395.89 C 458.34 401.72 448.31 402.53 439.03 402.17 C 429.04 401.60 418.49 399.99 410.30 393.78 C 405.34 390.23 401.40 385.32 399.02 379.71 C 395.62 371.06 395.62 360.89 399.67 352.47 C 403.72 347.47 409.89 344.88 415.10 341.30 C 425.62 335.07 436.36 329.22 446.90 323.00 C 458.78 314.61 468.19 303.28 477.58 292.30 C 469.46 289.82 461.48 285.37 456.83 278.04 C 454.37 274.19 454.40 269.40 455.47 265.10 C 448.89 268.82 442.12 272.17 435.42 275.66 C 423.16 282.03 410.84 288.31 398.43 294.39 C 382.61 302.29 365.93 308.34 349.03 313.48 C 340.86 315.77 332.57 318.21 324.02 318.39 C 321.04 318.47 316.87 317.57 316.44 314.01 C 316.82 309.58 320.70 306.59 323.70 303.73 C 335.89 293.47 349.68 285.35 363.34 277.23 C 384.21 265.28 405.26 253.29 428.08 245.40 C 447.21 238.43 466.64 232.33 486.18 226.63 C 473.73 221.10 462.78 212.09 455.51 200.51 C 450.83 193.63 448.96 185.10 449.93 176.87 C 445.20 171.34 438.10 168.57 431.06 167.49 C 429.68 167.41 429.47 164.96 431.04 164.83 C 438.60 165.24 445.43 169.04 451.30 173.58 C 451.04 171.84 450.34 170.22 449.24 168.85 C 444.83 162.99 439.76 157.32 433.18 153.86 C 431.84 152.91 429.08 152.40 430.25 150.23 C 430.64 150.20 431.42 150.14 431.81 150.11 C 440.38 153.52 446.51 160.80 452.13 167.81 C 451.81 159.53 451.12 151.25 451.37 142.96 C 451.95 132.47 456.34 122.57 461.95 113.83 C 460.42 107.17 458.00 100.71 456.88 93.97 C 458.89 90.84 462.43 89.16 465.82 87.95 C 474.46 85.17 483.82 86.64 492.22 89.58 M 492.29 92.63 C 482.85 89.09 471.21 87.11 462.23 92.84 C 471.41 96.28 478.47 104.39 481.09 113.79 C 479.37 114.93 478.30 114.63 477.89 112.89 C 475.00 104.51 468.19 97.64 459.76 94.84 C 461.44 101.29 463.18 107.73 465.03 114.14 C 462.30 118.50 459.62 122.94 457.81 127.78 C 461.35 125.42 465.94 126.19 469.10 128.82 C 477.61 135.58 480.87 146.87 489.27 153.74 C 492.22 156.25 496.28 156.43 499.96 156.17 C 514.97 155.11 529.87 151.79 544.98 152.81 C 552.02 153.31 559.52 155.08 564.49 160.46 C 571.04 166.62 573.96 176.31 571.48 185.01 C 568.94 194.21 563.15 202.05 558.31 210.14 C 560.34 213.32 561.14 217.18 559.34 220.68 C 562.82 218.21 567.22 216.79 570.04 213.53 C 568.70 213.31 567.36 213.11 566.03 212.92 C 566.08 212.19 566.18 210.72 566.23 209.99 C 568.51 210.43 570.74 211.08 572.92 211.89 C 577.62 207.95 582.10 203.64 585.47 198.48 C 592.64 187.01 593.62 172.92 593.06 159.74 C 592.22 160.84 591.48 161.99 590.84 163.21 C 590.09 162.60 589.36 161.98 588.66 161.35 C 593.89 151.24 596.07 139.00 593.18 127.87 C 591.68 123.85 589.20 118.13 584.02 118.66 C 573.45 118.86 563.75 124.42 555.75 130.93 C 555.24 130.43 554.23 129.43 553.73 128.92 C 561.02 122.89 569.59 117.97 579.00 116.30 C 570.77 103.50 557.08 95.25 543.05 90.12 C 526.66 84.21 508.03 85.23 492.29 92.63 M 460.01 129.84 C 457.07 131.95 455.96 135.63 455.06 138.96 C 452.09 150.76 457.06 163.19 453.27 174.85 C 451.62 181.65 452.62 188.99 455.70 195.25 C 463.32 209.58 476.70 220.51 491.98 225.81 C 495.97 223.92 500.65 222.18 505.01 223.92 C 508.03 224.97 510.03 227.57 511.87 230.04 C 523.91 230.91 536.21 229.52 547.57 225.34 C 551.30 223.75 555.55 221.87 557.33 217.95 C 558.47 215.21 556.48 212.65 554.75 210.72 C 558.52 204.50 562.44 198.36 565.84 191.92 C 569.01 185.89 570.75 178.66 568.56 172.01 C 565.95 164.27 559.21 157.80 551.02 156.46 C 534.71 153.49 518.31 157.60 502.03 158.78 C 497.23 159.08 491.86 159.42 487.88 156.19 C 479.44 149.71 476.05 138.90 468.31 131.77 C 466.15 129.87 462.75 127.99 460.01 129.84 M 660.96 167.41 C 652.99 169.80 644.97 172.10 637.39 175.55 C 623.07 181.91 608.99 188.84 595.20 196.26 C 591.73 197.86 587.79 199.32 585.78 202.81 C 583.09 206.90 578.87 209.67 576.06 213.58 C 582.07 213.37 588.11 212.21 594.13 213.10 C 595.85 213.10 596.90 214.45 597.76 215.79 C 596.34 218.50 592.52 218.87 591.52 221.65 C 598.23 219.94 604.65 217.08 610.97 214.28 C 609.92 214.39 608.87 214.53 607.84 214.67 C 605.39 214.20 602.10 214.59 600.58 212.19 C 599.68 210.17 601.97 208.65 602.81 207.03 C 609.98 201.48 617.98 196.17 627.27 195.36 C 636.60 181.62 653.46 176.15 669.21 174.25 C 669.49 174.75 670.06 175.76 670.34 176.26 C 670.13 176.51 669.70 177.01 669.48 177.26 C 653.05 178.71 634.81 185.35 627.26 201.21 C 629.37 203.03 632.03 201.51 634.19 200.64 L 635.18 201.38 C 634.91 204.56 635.98 207.64 637.78 210.22 C 638.00 210.52 638.45 211.12 638.67 211.41 C 640.44 213.00 642.47 214.26 644.67 215.16 C 645.73 215.43 646.78 215.70 647.85 215.99 C 662.24 218.13 676.15 209.70 684.19 198.20 C 686.26 194.39 687.88 190.36 689.06 186.20 C 689.94 181.30 690.31 176.11 688.33 171.43 C 687.41 170.23 686.50 169.04 685.60 167.85 C 683.82 166.65 681.89 165.71 679.90 164.95 C 673.47 164.12 667.09 165.63 660.96 167.41 M 608.20 206.49 C 606.22 207.79 604.53 209.48 603.11 211.37 C 608.61 212.07 614.08 210.82 619.43 209.64 C 623.56 208.71 627.73 207.22 631.12 204.62 C 629.12 204.86 627.12 204.77 625.47 203.48 C 624.88 201.74 624.96 199.95 625.47 198.20 C 619.22 199.76 613.36 202.66 608.20 206.49 M 583.30 215.35 C 583.17 215.68 582.91 216.33 582.78 216.66 L 583.31 216.57 L 584.77 216.83 C 586.83 218.76 589.45 219.16 591.63 217.14 C 592.21 216.81 593.37 216.15 593.95 215.83 C 590.63 214.32 586.79 214.95 583.30 215.35 M 571.35 217.09 C 573.53 219.18 575.90 221.05 578.09 223.13 C 580.39 222.26 582.81 221.57 584.82 220.08 C 580.58 217.99 576.23 215.29 571.35 217.09 M 566.18 220.08 C 556.70 225.27 546.61 229.54 535.88 231.31 C 543.04 232.50 550.29 230.87 557.48 230.57 C 563.52 228.92 569.25 226.37 575.20 224.41 C 573.18 222.02 570.52 220.33 568.10 218.41 C 567.62 218.83 566.66 219.66 566.18 220.08 M 580.08 225.68 C 583.15 224.71 587.13 224.75 589.22 222.00 C 585.90 222.35 582.97 224.14 580.08 225.68 M 487.06 231.81 C 475.68 239.36 465.69 249.51 459.79 261.94 C 457.75 266.25 456.38 271.55 458.88 275.98 C 462.10 281.37 467.45 285.30 473.18 287.70 C 483.64 291.92 494.98 293.42 506.19 293.79 C 516.68 293.59 527.09 292.09 537.53 291.14 C 539.35 291.08 541.65 290.14 543.06 291.80 C 547.62 295.74 541.50 302.11 544.68 306.69 C 545.94 308.16 548.49 308.05 549.98 306.98 C 552.02 305.25 551.55 302.27 551.90 299.90 C 558.38 296.26 564.36 291.07 567.05 283.96 C 570.70 274.36 570.70 262.74 564.90 253.97 C 560.96 247.97 554.23 244.23 547.18 243.37 C 544.43 243.29 541.66 243.40 538.96 243.93 C 528.48 245.88 518.28 249.05 507.86 251.26 C 499.43 253.06 490.72 254.51 482.12 253.10 C 482.26 252.43 482.54 251.09 482.68 250.42 C 486.62 250.78 490.57 251.03 494.53 250.72 C 495.90 244.38 499.62 238.97 503.42 233.86 C 504.21 234.48 504.98 235.12 505.75 235.78 C 502.06 240.04 499.02 244.94 497.44 250.39 C 502.99 249.47 508.50 248.32 513.97 247.01 C 513.41 243.95 512.79 240.89 512.21 237.84 C 512.86 237.69 514.16 237.40 514.81 237.26 C 515.51 240.25 516.13 243.26 516.73 246.27 C 519.02 245.70 521.32 245.19 523.64 244.76 C 521.42 240.65 518.71 236.78 515.96 233.01 C 513.84 232.07 512.42 234.02 510.84 235.03 C 509.31 230.69 506.21 225.94 501.07 225.93 C 495.92 226.40 491.36 229.15 487.06 231.81 M 482.56 230.49 C 464.56 235.91 446.60 241.56 428.95 248.04 C 418.09 252.20 407.14 256.28 396.95 261.95 C 391.78 264.86 386.37 267.34 381.38 270.55 C 380.11 270.74 379.06 271.56 377.94 272.12 C 371.32 276.01 364.34 279.32 358.10 283.84 C 363.26 281.32 368.41 278.61 373.95 277.03 C 375.86 276.56 378.69 276.00 379.79 278.17 C 380.43 280.72 378.03 282.66 376.47 284.33 C 368.65 291.31 359.45 296.59 350.03 301.09 C 345.87 302.87 341.59 305.00 336.97 304.96 C 335.18 304.82 333.88 302.59 335.04 301.07 C 337.54 297.50 341.03 294.70 344.60 292.25 C 338.24 295.59 332.55 300.11 327.05 304.69 C 324.69 306.44 322.54 308.50 320.73 310.82 C 319.95 311.95 318.33 313.62 319.94 314.85 C 323.38 316.03 327.17 315.58 330.64 314.76 C 331.70 314.97 332.79 314.62 333.84 314.46 C 345.78 311.95 357.38 308.07 368.85 303.93 C 391.78 295.80 413.00 283.74 434.73 272.93 C 442.07 268.86 449.80 265.40 456.96 261.05 C 460.28 254.49 464.47 248.41 469.41 242.96 C 462.40 245.33 455.43 248.30 447.99 248.91 C 446.33 249.32 444.51 247.95 445.15 246.17 C 446.58 244.20 448.89 243.15 451.01 242.08 C 459.98 237.92 469.23 233.98 479.08 232.54 C 480.93 232.26 482.82 231.78 484.18 230.39 C 483.77 230.42 482.97 230.46 482.56 230.49 M 449.93 245.72 C 456.10 245.21 461.89 242.57 467.69 240.54 C 470.85 238.94 474.83 238.40 477.11 235.46 C 467.74 237.90 458.47 241.13 449.93 245.72 M 350.00 291.81 C 345.55 294.95 340.57 297.81 337.51 302.44 C 349.19 299.69 359.65 293.25 369.42 286.49 C 372.13 284.28 375.37 282.36 377.02 279.16 C 367.25 281.41 358.44 286.55 350.00 291.81 M 480.46 293.37 C 470.29 304.90 460.51 317.23 447.61 325.87 C 439.02 330.96 430.16 335.60 421.68 340.85 C 416.75 343.34 412.13 346.43 407.49 349.41 C 405.18 351.11 402.28 352.58 401.33 355.49 C 398.47 363.11 398.81 371.72 401.77 379.26 C 405.32 386.98 412.17 392.87 420.02 395.94 C 425.15 397.75 430.74 399.27 436.15 397.67 C 445.53 395.32 454.62 391.64 463.36 387.64 C 464.02 383.01 462.83 378.37 461.05 374.13 C 458.74 369.78 454.90 366.26 450.16 364.79 C 441.11 361.83 431.29 361.95 421.99 363.53 C 421.61 362.90 420.83 361.64 420.44 361.01 C 432.89 358.86 447.14 358.37 458.00 365.82 C 470.94 357.61 482.84 347.21 491.03 334.15 C 498.98 322.53 505.01 309.65 509.88 296.46 C 507.93 296.45 505.99 296.44 504.05 296.41 C 496.08 296.43 488.20 294.71 480.46 293.37 M 526.43 295.30 C 532.47 303.72 534.32 315.25 531.47 325.13 L 531.73 325.51 C 530.47 325.51 529.72 327.23 528.28 326.61 C 528.33 327.89 528.39 329.19 528.55 330.48 C 530.10 332.91 530.39 335.89 531.39 338.56 C 538.66 341.24 542.28 348.79 544.21 355.80 C 546.00 362.73 548.01 370.01 546.54 377.20 L 546.73 377.22 C 546.13 378.06 545.54 378.91 544.97 379.77 C 548.57 383.84 553.15 388.34 559.06 387.79 C 565.44 387.19 571.79 385.60 577.64 382.96 L 578.08 383.09 C 588.72 378.72 599.52 372.69 605.42 362.39 C 608.03 357.73 611.45 352.72 610.80 347.14 C 609.54 344.05 606.20 344.94 603.84 346.05 C 594.19 344.55 581.99 344.47 575.28 352.81 C 576.44 354.59 577.57 356.38 578.76 358.15 C 577.93 358.72 577.09 359.26 576.25 359.80 C 569.91 349.00 564.33 337.79 558.93 326.51 C 558.68 326.00 558.17 324.99 557.92 324.48 C 557.37 323.35 556.81 322.23 556.27 321.12 C 554.55 317.37 552.76 313.65 550.98 309.93 C 547.97 310.76 543.93 311.02 542.10 307.93 C 539.99 303.86 541.67 299.22 542.14 294.97 C 541.86 294.64 541.28 293.99 541.00 293.67 C 536.15 294.19 531.19 294.25 526.43 295.30 M 518.75 295.77 C 521.03 303.84 523.49 311.85 525.81 319.91 C 526.20 321.86 527.40 323.62 529.30 324.38 C 530.76 314.83 530.01 304.04 523.67 296.28 C 522.50 294.68 520.37 295.84 518.75 295.77 M 532.35 342.03 C 535.55 352.65 538.61 363.31 541.80 373.93 C 542.05 375.19 542.80 376.24 543.67 377.16 C 545.19 371.27 543.58 365.21 542.30 359.44 C 540.61 352.98 538.40 345.73 532.35 342.03 M 443.81 398.34 C 443.03 398.52 442.40 398.93 441.89 399.55 C 451.67 399.54 462.78 397.39 468.92 389.12 C 460.37 391.70 452.40 395.89 443.81 398.34 Z" />
<path fill="#0366d6" opacity="1.00" d=" M 566.44 127.59 C 570.44 124.73 575.15 122.63 580.02 121.80 C 583.52 121.19 585.10 125.02 585.40 127.85 C 586.36 136.25 585.83 144.78 584.70 153.14 C 584.04 153.05 582.73 152.86 582.08 152.76 C 582.79 144.48 583.91 136.10 582.56 127.83 C 582.38 126.56 581.71 125.45 581.20 124.31 C 576.37 125.17 571.91 127.32 567.77 129.89 C 567.44 129.32 566.77 128.16 566.44 127.59 Z" />
<path fill="#0366d6" opacity="1.00" d=" M 479.57 199.63 C 482.79 198.28 486.35 200.12 489.11 201.80 C 491.41 203.40 494.35 205.80 493.66 208.96 C 492.92 210.85 490.59 211.23 488.82 210.81 C 485.04 210.10 481.48 207.97 479.10 204.95 C 477.87 203.43 477.47 200.60 479.57 199.63 M 480.59 201.76 C 482.44 205.76 486.98 208.12 491.28 208.20 C 489.28 204.27 484.86 202.10 480.59 201.76 Z" />
</g>
<g id="#9d9c74d6">
<path fill="#9d9c74" opacity="0.84" d=" M 112.98 87.05 C 113.24 86.49 113.77 85.38 114.03 84.83 C 113.77 85.38 113.24 86.49 112.98 87.05 Z" />
</g>
<g id="#f9c513ff">
<path fill="#f9c513" opacity="1.00" d=" M 733.38 99.48 C 737.29 98.19 741.24 100.63 743.63 103.61 C 733.25 116.53 720.35 127.10 709.70 139.77 C 702.26 148.44 694.54 156.88 687.52 165.89 C 685.71 164.47 683.68 163.35 681.52 162.59 C 688.07 155.81 693.74 148.23 699.87 141.07 C 700.80 139.95 701.74 138.83 702.69 137.71 C 711.53 126.87 720.54 116.15 728.98 104.98 C 730.45 103.17 731.50 100.91 733.38 99.48 Z" />
<path fill="#f9c513" opacity="1.00" d=" M 836.78 159.64 C 840.54 158.99 844.46 159.13 847.98 160.72 C 846.59 169.48 847.75 178.37 847.23 187.19 C 843.40 187.57 839.57 187.86 835.75 188.24 C 836.18 178.71 836.45 169.18 836.78 159.64 Z" />
<path fill="#f9c513" opacity="1.00" d=" M 679.90 164.95 C 681.89 165.71 683.82 166.65 685.60 167.85 C 672.16 183.79 658.11 199.22 644.67 215.16 C 642.47 214.26 640.44 213.00 638.67 211.41 C 639.68 211.08 640.48 210.44 641.06 209.50 C 644.52 205.41 648.42 201.72 651.96 197.70 C 657.89 190.96 663.72 184.14 669.48 177.26 C 669.70 177.01 670.13 176.51 670.34 176.26 C 673.55 172.51 676.75 168.75 679.90 164.95 Z" />
<path fill="#f9c513" opacity="1.00" d=" M 885.26 183.59 C 890.87 191.02 896.44 198.48 902.03 205.93 C 901.11 212.24 900.06 218.53 899.13 224.84 C 897.06 237.47 895.36 250.17 893.08 262.76 C 889.38 258.18 884.74 254.48 880.72 250.20 C 881.80 227.97 883.88 205.80 885.26 183.59 Z" />
<path fill="#f9c513" opacity="1.00" d=" M 621.27 230.12 C 626.59 224.72 631.82 219.23 636.97 213.67 C 638.62 215.10 640.45 216.31 642.42 217.28 C 629.95 231.85 617.09 246.08 604.41 260.46 C 592.31 274.33 579.02 287.10 566.54 300.61 C 564.79 299.22 562.80 298.17 560.82 297.18 C 566.60 292.38 570.28 285.42 571.67 278.09 C 576.38 274.39 580.81 270.35 585.11 266.19 C 597.56 254.57 609.47 242.39 621.27 230.12 Z" />
<path fill="#f9c513" opacity="1.00" d=" M 832.10 283.07 C 834.76 283.47 837.42 283.84 840.09 284.20 C 840.60 290.20 840.08 296.23 840.60 302.23 C 841.98 317.46 841.56 332.89 838.99 347.98 C 838.25 351.54 838.48 355.47 836.38 358.61 C 836.18 353.35 836.49 348.10 836.34 342.85 C 833.75 349.13 832.42 355.85 830.04 362.21 C 828.14 356.90 826.00 351.68 823.58 346.59 C 826.66 325.45 829.18 304.23 832.10 283.07 Z" />
</g>
<g id="#8c9473cc">
<path fill="#8c9473" opacity="0.80" d=" M 105.40 101.65 C 105.45 101.56 105.57 101.38 105.62 101.30 C 105.57 101.38 105.45 101.56 105.40 101.65 Z" />
</g>
<g id="#84967bd0">
<path fill="#84967b" opacity="0.82" d=" M 103.37 104.70 C 103.44 104.60 103.58 104.40 103.65 104.30 C 103.58 104.40 103.44 104.60 103.37 104.70 Z" />
</g>
<g id="#ffdf5dff">
<path fill="#ffdf5d" opacity="1.00" d=" M 743.63 103.61 C 744.11 105.46 745.06 107.86 743.40 109.41 C 731.40 121.47 720.51 134.58 709.16 147.25 C 702.87 154.58 696.38 161.74 690.18 169.15 C 689.33 168.02 688.44 166.93 687.52 165.89 C 694.54 156.88 702.26 148.44 709.70 139.77 C 720.35 127.10 733.25 116.53 743.63 103.61 Z" />
<path fill="#ffdf5d" opacity="1.00" d=" M 685.60 167.85 C 686.50 169.04 687.41 170.23 688.33 171.43 C 681.62 178.49 675.40 186.00 668.85 193.21 C 664.66 197.67 660.19 201.87 656.28 206.59 C 653.37 209.64 650.60 212.80 647.85 215.99 C 646.78 215.70 645.73 215.43 644.67 215.16 C 658.11 199.22 672.16 183.79 685.60 167.85 Z" />
<path fill="#ffdf5d" opacity="1.00" d=" M 642.42 217.28 C 643.46 217.65 644.52 218.00 645.60 218.32 C 620.47 247.33 594.82 275.92 570.70 305.79 C 569.39 304.00 568.04 302.24 566.54 300.61 C 579.02 287.10 592.31 274.33 604.41 260.46 C 617.09 246.08 629.95 231.85 642.42 217.28 Z" />
</g>
<g id="#ad925bc5">
<path fill="#ad925b" opacity="0.77" d=" M 94.48 114.51 L 94.72 114.31 C 94.60 114.41 94.36 114.62 94.24 114.72 L 94.48 114.51 Z" />
</g>
<g id="#cacfd3ff">
<path fill="#cacfd3" opacity="1.00" d=" M 688.30 136.97 C 692.24 138.08 696.06 139.58 699.87 141.07 C 693.74 148.23 688.07 155.81 681.52 162.59 C 681.31 158.87 682.76 155.37 683.83 151.87 C 685.35 146.92 686.79 141.94 688.30 136.97 Z" />
<path fill="#cacfd3" opacity="1.00" d=" M 655.45 166.12 C 659.04 158.19 663.22 150.52 667.62 143.01 C 670.80 149.25 673.91 155.54 676.94 161.87 C 669.57 161.89 662.42 163.96 655.45 166.12 Z" />
<path fill="#cacfd3" opacity="1.00" d=" M 690.18 169.15 C 696.38 161.74 702.87 154.58 709.16 147.25 C 712.09 151.78 715.14 156.24 718.02 160.81 C 713.57 166.47 709.47 172.40 704.92 177.97 C 701.06 181.00 696.33 182.69 692.02 184.99 C 693.02 179.68 692.83 173.97 690.18 169.15 Z" />
<path fill="#cacfd3" opacity="1.00" d=" M 598.73 191.13 C 608.34 178.09 617.55 164.76 627.29 151.82 C 624.55 160.92 618.93 168.80 615.51 177.62 C 623.20 169.73 629.30 160.42 636.91 152.45 C 637.01 157.10 636.88 161.75 637.02 166.41 C 642.65 162.00 647.48 156.68 653.19 152.37 C 653.58 157.14 651.70 162.24 653.51 166.77 C 634.25 172.39 616.65 182.31 598.73 191.13 Z" />
<path fill="#cacfd3" opacity="1.00" d=" M 660.96 167.41 C 667.09 165.63 673.47 164.12 679.90 164.95 C 676.75 168.75 673.55 172.51 670.34 176.26 C 670.06 175.76 669.49 174.75 669.21 174.25 C 653.46 176.15 636.60 181.62 627.27 195.36 C 617.98 196.17 609.98 201.48 602.81 207.03 C 597.08 208.34 591.19 208.66 585.41 209.64 C 588.69 205.19 591.81 200.62 595.20 196.26 C 608.99 188.84 623.07 181.91 637.39 175.55 C 644.97 172.10 652.99 169.80 660.96 167.41 Z" />
<path fill="#cacfd3" opacity="1.00" d=" M 715.08 181.84 C 720.17 177.26 723.44 171.13 726.87 165.30 C 729.83 170.06 733.00 174.69 736.12 179.35 C 747.59 196.39 758.90 213.53 770.41 230.54 C 771.72 232.53 772.86 234.64 773.76 236.85 C 776.30 243.73 775.95 252.25 770.84 257.89 C 764.83 264.93 755.37 266.97 747.04 269.94 C 706.72 282.72 665.86 293.72 624.94 304.41 C 603.05 310.04 581.12 315.56 559.08 320.55 C 557.12 316.36 555.07 312.22 553.16 308.02 C 553.78 305.92 554.28 303.79 554.67 301.64 C 555.58 301.00 556.50 300.36 557.43 299.72 C 558.94 304.74 563.75 308.13 568.95 308.11 C 569.38 307.53 570.26 306.37 570.70 305.79 C 594.82 275.92 620.47 247.33 645.60 218.32 C 662.53 221.98 680.07 211.55 688.04 196.81 C 697.53 192.81 707.10 188.48 715.08 181.84 Z" />
<path fill="#cacfd3" opacity="1.00" d=" M 668.85 193.21 C 675.40 186.00 681.62 178.49 688.33 171.43 C 690.31 176.11 689.94 181.30 689.06 186.20 C 682.46 188.90 675.74 191.36 668.85 193.21 Z" />
<path fill="#cacfd3" opacity="1.00" d=" M 627.26 201.21 C 634.81 185.35 653.05 178.71 669.48 177.26 C 663.72 184.14 657.89 190.96 651.96 197.70 C 646.42 199.15 640.84 200.54 635.18 201.38 L 634.19 200.64 C 632.03 201.51 629.37 203.03 627.26 201.21 Z" />
<path fill="#cacfd3" opacity="1.00" d=" M 656.28 206.59 C 665.71 204.25 675.08 201.61 684.19 198.20 C 676.15 209.70 662.24 218.13 647.85 215.99 C 650.60 212.80 653.37 209.64 656.28 206.59 Z" />
<path fill="#cacfd3" opacity="1.00" d=" M 608.20 206.49 C 613.36 202.66 619.22 199.76 625.47 198.20 C 624.96 199.95 624.88 201.74 625.47 203.48 C 619.71 204.53 613.94 205.42 608.20 206.49 Z" />
<path fill="#cacfd3" opacity="1.00" d=" M 622.58 212.34 C 626.58 211.73 630.55 210.87 634.57 210.34 C 635.31 211.48 636.11 212.60 636.97 213.67 C 631.82 219.23 626.59 224.72 621.27 230.12 L 621.05 228.67 C 614.85 234.27 609.26 240.52 603.27 246.34 C 596.80 253.02 589.86 259.23 583.63 266.12 L 585.11 266.19 C 580.81 270.35 576.38 274.39 571.67 278.09 C 573.06 269.97 572.40 261.20 568.16 253.98 C 564.22 247.05 557.07 242.10 549.19 240.90 C 551.17 238.40 553.19 235.93 555.24 233.48 C 563.55 232.63 571.77 231.00 579.82 228.77 C 583.17 232.45 585.85 236.64 588.25 240.99 C 588.71 241.02 589.62 241.07 590.08 241.10 L 590.40 239.93 C 589.01 235.31 585.57 231.78 582.87 227.92 C 585.97 226.76 589.16 225.85 592.24 224.63 C 595.88 226.81 598.82 229.88 601.91 232.74 C 602.32 232.32 603.14 231.46 603.55 231.04 C 601.53 227.97 598.53 225.79 595.77 223.45 C 604.89 220.20 613.70 216.19 622.58 212.34 Z" />
<path fill="#cacfd3" opacity="1.00" d=" M 566.18 220.08 C 566.66 219.66 567.62 218.83 568.10 218.41 C 570.52 220.33 573.18 222.02 575.20 224.41 C 569.25 226.37 563.52 228.92 557.48 230.57 C 560.43 227.11 563.20 223.51 566.18 220.08 Z" />
<path fill="#cacfd3" opacity="1.00" d=" M 580.08 225.68 C 582.97 224.14 585.90 222.35 589.22 222.00 C 587.13 224.75 583.15 224.71 580.08 225.68 Z" />
<path fill="#cacfd3" opacity="1.00" d=" M 788.53 242.70 C 792.06 247.14 793.13 252.92 796.43 257.52 C 796.32 261.96 795.99 266.39 795.77 270.83 C 795.71 273.13 795.77 275.43 795.83 277.74 C 799.14 278.19 802.46 278.67 805.78 279.17 C 807.40 283.48 809.60 287.57 810.73 292.06 C 813.13 301.97 815.22 311.95 817.12 321.97 C 818.07 327.19 819.46 332.36 819.63 337.69 C 819.66 343.59 820.67 349.46 820.21 355.37 C 818.77 355.30 817.33 355.23 815.90 355.16 C 813.04 348.26 810.85 340.86 806.24 334.87 C 807.99 341.42 809.03 348.12 810.00 354.83 C 807.61 354.72 805.22 354.54 802.84 354.46 C 798.81 351.68 794.61 349.00 789.89 347.57 C 786.95 342.79 783.24 338.20 778.04 335.79 C 772.07 332.75 764.40 332.79 758.86 336.75 C 754.64 339.53 752.32 344.20 750.31 348.66 C 745.08 347.80 739.88 346.79 734.66 345.89 C 730.12 340.43 725.00 335.35 718.87 331.67 C 709.65 326.24 698.51 324.08 687.94 325.76 C 683.16 326.26 678.50 327.52 673.93 328.96 C 676.88 327.79 679.93 326.95 683.03 326.26 C 681.50 324.53 680.25 322.01 681.86 319.90 C 685.40 314.70 691.27 311.81 696.57 308.72 C 715.15 298.93 734.96 291.74 754.63 284.48 C 762.79 281.70 770.77 278.35 778.32 274.18 C 783.17 271.51 786.57 266.70 788.22 261.48 C 790.42 255.41 789.62 248.89 788.53 242.70 Z" />
<path fill="#cacfd3" opacity="1.00" d=" M 506.19 293.79 C 519.84 276.97 533.49 260.16 547.18 243.37 C 554.23 244.23 560.96 247.97 564.90 253.97 C 570.70 262.74 570.70 274.36 567.05 283.96 C 564.36 291.07 558.38 296.26 551.90 299.90 C 551.55 302.27 552.02 305.25 549.98 306.98 C 548.49 308.05 545.94 308.16 544.68 306.69 C 541.50 302.11 547.62 295.74 543.06 291.80 C 541.65 290.14 539.35 291.08 537.53 291.14 C 527.09 292.09 516.68 293.59 506.19 293.79 Z" />
<path fill="#cacfd3" opacity="1.00" d=" M 526.43 295.30 C 531.19 294.25 536.15 294.19 541.00 293.67 C 541.28 293.99 541.86 294.64 542.14 294.97 C 541.67 299.22 539.99 303.86 542.10 307.93 C 543.93 311.02 547.97 310.76 550.98 309.93 C 552.76 313.65 554.55 317.37 556.27 321.12 C 548.38 323.25 540.31 324.62 532.35 326.44 C 532.19 326.21 531.88 325.74 531.73 325.51 L 531.47 325.13 C 534.32 315.25 532.47 303.72 526.43 295.30 Z" />
<path fill="#cacfd3" opacity="1.00" d=" M 518.75 295.77 C 520.37 295.84 522.50 294.68 523.67 296.28 C 530.01 304.04 530.76 314.83 529.30 324.38 C 527.40 323.62 526.20 321.86 525.81 319.91 C 523.49 311.85 521.03 303.84 518.75 295.77 Z" />
<path fill="#cacfd3" opacity="1.00" d=" M 504.05 296.41 C 505.99 296.44 507.93 296.45 509.88 296.46 C 505.01 309.65 498.98 322.53 491.03 334.15 C 484.54 335.44 477.94 335.97 471.37 336.62 C 482.26 323.21 493.16 309.82 504.05 296.41 Z" />
<path fill="#cacfd3" opacity="1.00" d=" M 513.02 296.15 C 513.74 296.16 515.19 296.17 515.91 296.17 C 519.32 307.41 522.55 318.70 525.94 329.94 C 523.88 330.16 521.83 330.40 519.79 330.67 C 519.52 330.31 518.98 329.59 518.71 329.23 C 510.78 331.00 502.78 332.37 494.77 333.70 C 502.26 321.92 508.15 309.21 513.02 296.15 Z" />
<path fill="#cacfd3" opacity="1.00" d=" M 939.08 329.23 C 941.10 329.65 943.04 330.37 944.94 331.22 C 956.68 336.30 968.45 341.35 980.02 346.83 C 965.83 342.40 952.41 335.74 939.08 329.23 Z" />
<path fill="#cacfd3" opacity="1.00" d=" M 955.01 332.15 C 959.07 332.77 962.61 335.00 966.33 336.60 C 970.31 338.63 974.54 340.26 978.16 342.93 C 970.06 340.27 962.52 336.12 955.01 332.15 Z" />
<path fill="#cacfd3" opacity="1.00" d=" M 898.30 339.10 C 901.22 340.40 904.01 341.99 906.82 343.52 C 905.22 344.43 903.66 345.40 902.13 346.40 C 908.61 347.59 914.84 349.83 921.33 351.00 C 922.38 352.24 923.45 353.48 924.53 354.74 C 917.28 360.75 910.33 367.13 903.11 373.17 C 898.59 374.97 893.43 372.60 888.79 373.85 C 882.12 377.50 876.45 382.67 870.66 387.53 C 860.00 380.78 848.11 375.72 838.75 367.06 C 840.56 365.84 842.37 364.60 844.16 363.33 C 849.16 360.46 853.97 357.27 858.96 354.38 C 860.15 354.14 861.23 353.62 862.18 352.82 C 864.16 351.77 866.08 350.62 867.98 349.42 C 870.63 347.47 874.02 347.50 877.15 347.13 C 877.94 346.94 878.74 346.72 879.54 346.48 C 880.21 346.76 881.55 347.32 882.23 347.60 C 881.35 349.28 880.55 351.00 879.48 352.57 C 874.84 353.70 869.56 353.41 865.72 356.73 C 871.91 356.12 877.98 354.63 884.21 354.36 C 880.44 356.01 876.39 357.14 873.09 359.70 C 880.20 358.07 887.40 356.72 894.36 354.52 C 893.29 353.74 890.90 354.13 890.94 352.33 C 892.57 349.19 894.73 346.37 896.43 343.27 C 897.04 343.17 898.27 342.96 898.89 342.85 C 898.68 341.60 898.48 340.35 898.30 339.10 Z" />
<path fill="#cacfd3" opacity="1.00" d=" M 887.26 343.48 C 887.69 343.37 888.55 343.15 888.98 343.05 C 890.51 342.94 892.05 343.18 893.56 343.53 C 891.53 347.05 889.64 350.65 887.74 354.25 C 885.74 353.61 883.76 352.92 881.79 352.24 C 883.62 349.33 885.37 346.36 887.26 343.48 Z" />
</g>
<g id="#dbab09ff">
<path fill="#dbab09" opacity="1.00" d=" M 847.98 160.72 C 852.73 162.91 856.63 166.60 859.39 171.02 C 858.62 176.09 857.99 181.19 857.30 186.27 C 853.93 186.55 850.58 186.82 847.23 187.19 C 847.75 178.37 846.59 169.48 847.98 160.72 Z" />
<path fill="#dbab09" opacity="1.00" d=" M 795.77 270.83 C 812.36 272.61 828.94 274.46 845.53 276.24 C 847.73 276.28 849.50 277.62 850.98 279.14 C 852.41 281.01 853.19 283.26 852.97 285.65 C 850.89 285.69 848.83 285.54 846.78 285.38 C 847.52 307.60 847.92 329.84 848.48 352.06 C 848.49 353.34 848.51 354.62 848.55 355.90 C 846.99 358.32 845.60 360.84 844.16 363.33 C 842.37 364.60 840.56 365.84 838.75 367.06 C 838.15 367.46 836.96 368.24 836.36 368.63 C 836.36 365.29 836.30 361.95 836.38 358.61 C 838.48 355.47 838.25 351.54 838.99 347.98 C 841.56 332.89 841.98 317.46 840.60 302.23 C 840.08 296.23 840.60 290.20 840.09 284.20 C 837.42 283.84 834.76 283.47 832.10 283.07 C 823.33 281.76 814.55 280.46 805.78 279.17 C 802.46 278.67 799.14 278.19 795.83 277.74 C 795.77 275.43 795.71 273.13 795.77 270.83 Z" />
<path fill="#dbab09" opacity="1.00" d=" M 557.43 299.72 C 558.57 298.90 559.72 298.07 560.82 297.18 C 562.80 298.17 564.79 299.22 566.54 300.61 C 568.04 302.24 569.39 304.00 570.70 305.79 C 570.26 306.37 569.38 307.53 568.95 308.11 C 563.75 308.13 558.94 304.74 557.43 299.72 Z" />
</g>
<g id="#ffea7fff">
<path fill="#ffea7f" opacity="1.00" d=" M 857.30 186.27 C 866.61 185.32 875.95 184.62 885.26 183.59 C 883.88 205.80 881.80 227.97 880.72 250.20 C 879.13 248.82 877.40 247.61 875.69 246.40 C 874.96 245.00 874.24 243.62 873.45 242.27 C 873.81 240.29 874.20 238.32 874.62 236.35 C 869.14 240.08 863.51 243.64 857.48 246.42 C 858.61 238.18 860.00 229.97 861.20 221.74 C 859.89 221.84 858.58 221.94 857.28 222.05 C 857.41 221.11 857.55 220.18 857.71 219.25 C 849.55 219.77 841.41 220.54 833.28 221.40 C 833.21 218.37 833.22 215.35 833.31 212.33 C 832.92 212.63 832.15 213.25 831.77 213.55 C 831.16 212.62 830.56 211.69 829.97 210.77 C 823.57 214.95 817.23 219.23 810.76 223.31 C 814.85 230.91 819.95 237.95 824.99 244.94 C 826.00 246.28 827.03 247.61 828.11 248.91 C 828.76 245.41 828.93 241.83 829.71 238.35 C 829.97 238.26 830.47 238.09 830.72 238.00 C 839.28 240.80 847.64 244.26 856.20 247.09 C 849.87 251.07 846.31 258.19 844.62 265.27 C 844.47 265.44 844.19 265.80 844.05 265.97 C 842.08 267.86 840.03 269.68 838.23 271.74 C 840.82 272.31 843.44 272.80 846.10 273.07 C 848.53 274.29 849.46 277.05 850.98 279.14 C 849.50 277.62 847.73 276.28 845.53 276.24 C 828.94 274.46 812.36 272.61 795.77 270.83 C 795.99 266.39 796.32 261.96 796.43 257.52 C 797.82 237.33 798.98 217.12 800.97 196.98 C 801.32 195.16 801.13 193.04 802.28 191.49 C 811.99 190.22 821.81 189.71 831.56 188.66 C 832.94 188.52 834.34 188.38 835.75 188.24 C 839.57 187.86 843.40 187.57 847.23 187.19 C 850.58 186.82 853.93 186.55 857.30 186.27 Z" />
</g>
<g id="#ffd33dff">
<path fill="#ffd33d" opacity="1.00" d=" M 810.76 223.31 C 817.23 219.23 823.57 214.95 829.97 210.77 C 830.56 211.69 831.16 212.62 831.77 213.55 C 831.46 213.80 830.86 214.28 830.55 214.53 C 830.51 216.91 830.48 219.29 830.45 221.67 C 831.38 221.58 832.32 221.49 833.28 221.40 C 841.41 220.54 849.55 219.77 857.71 219.25 C 857.55 220.18 857.41 221.11 857.28 222.05 C 856.17 229.10 855.07 236.14 853.99 243.20 C 844.97 240.56 836.29 236.91 827.34 234.08 C 826.87 237.76 826.45 241.49 824.99 244.94 C 819.95 237.95 814.85 230.91 810.76 223.31 Z" />
</g>
<g id="#d5a300ff">
<path fill="#d5a300" opacity="1.00" d=" M 831.77 213.55 C 832.15 213.25 832.92 212.63 833.31 212.33 C 833.22 215.35 833.21 218.37 833.28 221.40 C 832.32 221.49 831.38 221.58 830.45 221.67 C 830.48 219.29 830.51 216.91 830.55 214.53 C 830.86 214.28 831.46 213.80 831.77 213.55 Z" />
</g>
<g id="#ccd0d3ff">
<path fill="#ccd0d3" opacity="1.00" d=" M 607.84 214.67 C 608.87 214.53 609.92 214.39 610.97 214.28 C 604.65 217.08 598.23 219.94 591.52 221.65 C 592.52 218.87 596.34 218.50 597.76 215.79 C 601.12 215.48 604.49 215.17 607.84 214.67 Z" />
</g>
<g id="#1b4b819b">
<path fill="#1b4b81" opacity="0.61" d=" M 583.30 215.35 C 586.79 214.95 590.63 214.32 593.95 215.83 C 590.40 216.00 586.81 215.88 583.31 216.57 L 582.78 216.66 C 582.91 216.33 583.17 215.68 583.30 215.35 Z" />
</g>
<g id="#8d8c89a6">
<path fill="#8d8c89" opacity="0.65" d=" M 583.31 216.57 C 586.81 215.88 590.40 216.00 593.95 215.83 C 593.37 216.15 592.21 216.81 591.63 217.14 C 589.34 217.11 587.05 217.04 584.77 216.83 L 583.31 216.57 Z" />
</g>
<g id="#c9ced3ff">
<path fill="#c9ced3" opacity="1.00" d=" M 571.35 217.09 C 576.23 215.29 580.58 217.99 584.82 220.08 C 582.81 221.57 580.39 222.26 578.09 223.13 C 575.90 221.05 573.53 219.18 571.35 217.09 Z" />
</g>
<g id="#f0e6cfff">
<path fill="#f0e6cf" opacity="1.00" d=" M 584.77 216.83 C 587.05 217.04 589.34 217.11 591.63 217.14 C 589.45 219.16 586.83 218.76 584.77 216.83 Z" />
<path fill="#f0e6cf" opacity="1.00" d=" M 863.56 256.38 C 866.28 255.72 867.97 253.33 870.12 251.74 C 872.21 251.27 874.37 251.70 876.49 251.82 C 875.03 254.26 874.35 257.42 872.14 259.27 C 871.34 259.16 869.74 258.95 868.95 258.85 C 865.11 260.47 862.38 264.93 858.02 264.87 C 858.73 262.30 856.56 260.34 854.04 260.93 C 856.03 257.60 860.19 257.28 863.56 256.38 Z" />
</g>
<g id="#d8a704ff">
<path fill="#d8a704" opacity="1.00" d=" M 857.28 222.05 C 858.58 221.94 859.89 221.84 861.20 221.74 C 860.00 229.97 858.61 238.18 857.48 246.42 C 857.16 246.59 856.52 246.92 856.20 247.09 C 847.64 244.26 839.28 240.80 830.72 238.00 C 830.47 238.09 829.97 238.26 829.71 238.35 C 828.93 241.83 828.76 245.41 828.11 248.91 C 827.03 247.61 826.00 246.28 824.99 244.94 C 826.45 241.49 826.87 237.76 827.34 234.08 C 836.29 236.91 844.97 240.56 853.99 243.20 C 855.07 236.14 856.17 229.10 857.28 222.05 Z" />
</g>
<g id="#c4d0ebff">
<path fill="#c4d0eb" opacity="1.00" d=" M 603.27 246.34 C 609.26 240.52 614.85 234.27 621.05 228.67 L 621.27 230.12 C 609.47 242.39 597.56 254.57 585.11 266.19 L 583.63 266.12 C 589.86 259.23 596.80 253.02 603.27 246.34 Z" />
</g>
<g id="#2b91b5ff">
<path fill="#2b91b5" opacity="1.00" d=" M 857.48 246.42 C 863.51 243.64 869.14 240.08 874.62 236.35 C 874.20 238.32 873.81 240.29 873.45 242.27 C 874.24 243.62 874.96 245.00 875.69 246.40 C 869.15 248.96 861.71 248.90 855.61 252.69 C 850.54 255.49 848.33 261.12 844.62 265.27 C 846.31 258.19 849.87 251.07 856.20 247.09 C 856.52 246.92 857.16 246.59 857.48 246.42 Z" />
</g>
<g id="#77c1ceff">
<path fill="#77c1ce" opacity="1.00" d=" M 875.69 246.40 C 877.40 247.61 879.13 248.82 880.72 250.20 C 884.74 254.48 889.38 258.18 893.08 262.76 C 897.51 268.60 900.75 275.19 904.63 281.37 C 907.33 285.83 911.65 288.91 914.89 292.92 C 918.07 296.83 921.31 300.73 923.95 305.04 C 925.95 308.29 926.03 312.20 926.08 315.91 C 923.49 314.71 920.86 313.32 917.97 313.10 C 915.60 314.04 913.41 315.37 911.12 316.47 C 915.66 321.56 919.48 327.27 922.68 333.29 C 924.21 336.93 928.96 336.27 932.17 337.17 C 930.02 337.83 927.91 338.60 925.79 339.33 C 928.54 344.15 932.17 348.53 933.19 354.14 C 933.98 355.97 934.32 357.94 934.47 359.93 C 934.61 361.81 934.76 363.70 934.88 365.60 C 930.62 362.83 927.92 358.40 924.53 354.74 C 923.45 353.48 922.38 352.24 921.33 351.00 C 919.33 348.58 917.30 346.19 915.15 343.91 C 912.37 344.18 909.51 344.49 906.82 343.52 C 904.01 341.99 901.22 340.40 898.30 339.10 C 898.48 340.35 898.68 341.60 898.89 342.85 C 898.27 342.96 897.04 343.17 896.43 343.27 C 895.46 343.37 894.51 343.46 893.56 343.53 C 892.05 343.18 890.51 342.94 888.98 343.05 C 888.84 340.37 889.05 337.04 886.13 335.75 L 885.59 335.41 C 886.29 331.08 888.61 325.57 885.10 321.90 C 880.30 315.90 875.72 309.68 871.97 302.96 C 870.05 299.74 869.78 295.93 868.58 292.45 C 863.93 289.26 857.80 288.74 852.62 290.93 C 852.69 289.17 852.86 287.41 852.97 285.65 C 853.19 283.26 852.41 281.01 850.98 279.14 C 849.46 277.05 848.53 274.29 846.10 273.07 C 846.51 273.04 847.34 272.97 847.75 272.94 C 848.15 271.18 848.49 269.42 848.84 267.65 C 847.23 267.09 845.64 266.53 844.05 265.97 C 844.19 265.80 844.47 265.44 844.62 265.27 C 848.33 261.12 850.54 255.49 855.61 252.69 C 861.71 248.90 869.15 248.96 875.69 246.40 M 863.56 256.38 C 860.19 257.28 856.03 257.60 854.04 260.93 C 853.05 262.06 852.25 264.19 853.68 265.32 C 854.77 266.72 856.97 266.02 858.02 264.87 C 862.38 264.93 865.11 260.47 868.95 258.85 C 869.74 258.95 871.34 259.16 872.14 259.27 C 874.35 257.42 875.03 254.26 876.49 251.82 C 874.37 251.70 872.21 251.27 870.12 251.74 C 867.97 253.33 866.28 255.72 863.56 256.38 M 881.29 255.95 C 880.21 258.19 878.27 259.69 876.05 260.67 C 877.05 261.35 878.05 262.01 879.09 262.69 C 876.47 265.97 873.25 268.81 871.37 272.62 C 870.38 274.13 868.39 272.82 867.04 272.80 C 866.94 273.56 866.73 275.07 866.63 275.83 C 864.99 276.36 863.31 276.77 861.87 277.74 C 860.63 277.56 859.41 277.37 858.20 277.18 C 856.99 278.44 855.78 279.71 854.57 280.96 C 854.81 283.34 855.18 285.70 855.73 288.03 C 858.85 285.06 861.51 280.98 865.88 279.80 C 870.01 280.13 874.26 280.10 878.00 282.14 C 881.48 281.05 884.47 278.11 883.27 274.19 C 884.55 271.91 885.90 269.64 887.80 267.81 C 889.33 266.40 890.14 263.94 889.03 262.05 C 887.20 259.24 884.32 257.27 881.29 255.95 M 870.24 288.05 C 870.29 297.33 877.38 304.45 884.60 309.27 C 892.10 313.99 901.06 319.13 910.15 315.82 C 900.94 303.18 889.38 292.04 876.00 283.89 C 873.25 281.89 869.10 284.73 870.24 288.05 Z" />
</g>
<g id="#0054d3ff">
<path fill="#0054d3" opacity="1.00" d=" M 428.72 249.24 C 431.10 248.66 433.93 248.28 435.19 250.92 C 433.85 252.63 432.40 254.27 430.58 255.49 C 423.33 260.35 415.39 264.11 407.30 267.36 C 402.79 268.96 398.19 271.14 393.30 270.73 C 392.64 269.87 392.10 268.95 391.69 267.95 C 393.81 265.96 395.99 264.00 398.54 262.57 C 408.04 257.00 418.10 252.27 428.72 249.24 M 428.88 251.94 C 420.33 254.47 412.15 258.15 404.33 262.39 C 401.43 264.08 398.31 265.53 395.93 267.97 C 408.11 265.22 419.27 259.14 429.97 252.86 L 430.70 252.73 C 432.27 251.36 429.02 249.97 428.88 251.94 Z" />
</g>
<g id="#0c4f9fbd">
<path fill="#0c4f9f" opacity="0.74" d=" M 428.88 251.94 C 429.02 249.97 432.27 251.36 430.70 252.73 L 429.97 252.86 C 429.69 252.63 429.15 252.17 428.88 251.94 Z" />
</g>
<g id="#ebededff">
<path fill="#ebeded" opacity="1.00" d=" M 404.33 262.39 C 412.15 258.15 420.33 254.47 428.88 251.94 C 429.15 252.17 429.69 252.63 429.97 252.86 C 419.27 259.14 408.11 265.22 395.93 267.97 C 398.31 265.53 401.43 264.08 404.33 262.39 Z" />
</g>
<g id="#f0e5cfff">
<path fill="#f0e5cf" opacity="1.00" d=" M 881.29 255.95 C 884.32 257.27 887.20 259.24 889.03 262.05 C 890.14 263.94 889.33 266.40 887.80 267.81 C 885.90 269.64 884.55 271.91 883.27 274.19 C 884.47 278.11 881.48 281.05 878.00 282.14 C 874.26 280.10 870.01 280.13 865.88 279.80 C 861.51 280.98 858.85 285.06 855.73 288.03 C 855.18 285.70 854.81 283.34 854.57 280.96 C 855.78 279.71 856.99 278.44 858.20 277.18 C 859.41 277.37 860.63 277.56 861.87 277.74 C 863.31 276.77 864.99 276.36 866.63 275.83 C 866.73 275.07 866.94 273.56 867.04 272.80 C 868.39 272.82 870.38 274.13 871.37 272.62 C 873.25 268.81 876.47 265.97 879.09 262.69 C 878.05 262.01 877.05 261.35 876.05 260.67 C 878.27 259.69 880.21 258.19 881.29 255.95 Z" />
<path fill="#f0e5cf" opacity="1.00" d=" M 852.62 290.93 C 857.80 288.74 863.93 289.26 868.58 292.45 C 869.78 295.93 870.05 299.74 871.97 302.96 C 875.72 309.68 880.30 315.90 885.10 321.90 C 888.61 325.57 886.29 331.08 885.59 335.41 C 884.48 335.18 883.39 334.96 882.30 334.75 C 881.86 334.51 881.00 334.03 880.56 333.79 C 875.29 330.07 869.45 326.80 865.55 321.52 C 858.90 312.59 853.00 302.34 852.62 290.93 Z" />
</g>
<g id="#4c5054ff">
<path fill="#4c5054" opacity="1.00" d=" M 844.05 265.97 C 845.64 266.53 847.23 267.09 848.84 267.65 C 848.49 269.42 848.15 271.18 847.75 272.94 C 847.34 272.97 846.51 273.04 846.10 273.07 C 843.44 272.80 840.82 272.31 838.23 271.74 C 840.03 269.68 842.08 267.86 844.05 265.97 Z" />
</g>
<g id="#eee6cfff">
<path fill="#eee6cf" opacity="1.00" d=" M 870.24 288.05 C 869.10 284.73 873.25 281.89 876.00 283.89 C 889.38 292.04 900.94 303.18 910.15 315.82 C 901.06 319.13 892.10 313.99 884.60 309.27 C 877.38 304.45 870.29 297.33 870.24 288.05 Z" />
</g>
<g id="#f9f9efff">
<path fill="#f9f9ef" opacity="1.00" d=" M 320.73 310.82 C 322.54 308.50 324.69 306.44 327.05 304.69 L 328.23 305.19 C 325.60 307.93 322.59 310.37 320.69 313.71 C 324.03 313.70 327.41 313.81 330.64 314.76 C 327.17 315.58 323.38 316.03 319.94 314.85 C 318.33 313.62 319.95 311.95 320.73 310.82 Z" />
</g>
<g id="#e1e4e8ff">
<path fill="#e1e4e8" opacity="1.00" d=" M 631.14 314.12 C 639.60 312.35 648.28 310.86 656.06 306.91 C 656.18 307.83 657.21 309.17 655.70 309.49 C 649.50 312.63 642.56 313.87 635.85 315.42 C 611.38 320.34 586.58 323.31 561.82 326.19 C 561.56 325.67 561.06 324.63 560.81 324.11 C 584.33 321.37 607.87 318.53 631.14 314.12 Z" />
</g>
<g id="#ff9c57ff">
<path fill="#ff9c57" opacity="1.00" d=" M 14.14 327.08 C 23.94 316.19 39.49 310.64 53.94 313.47 C 62.93 315.07 70.77 320.53 76.60 327.39 C 84.23 335.82 88.56 346.53 95.37 355.54 C 100.40 362.20 108.24 367.81 116.95 367.16 C 121.16 366.87 123.52 362.96 126.24 360.28 C 130.59 355.57 136.55 352.18 143.05 351.90 C 158.70 351.08 173.62 358.67 184.57 369.44 C 184.22 369.89 183.51 370.79 183.15 371.25 C 178.40 365.99 172.82 361.28 166.12 358.75 C 160.21 356.53 154.04 354.94 147.76 354.30 C 153.39 358.08 160.55 358.25 166.44 361.54 C 172.79 364.37 177.11 369.92 181.95 374.65 C 180.95 378.23 179.77 381.95 180.40 385.72 C 180.85 387.75 182.06 389.50 182.93 391.37 C 184.17 397.29 187.24 402.74 191.64 406.90 C 195.02 410.78 199.91 412.70 203.79 415.95 C 196.57 417.69 189.74 414.04 184.27 409.70 C 181.95 405.78 177.73 403.35 175.86 399.14 C 173.77 394.50 173.65 389.31 173.53 384.31 C 171.39 384.51 169.26 384.71 167.12 384.85 C 161.80 385.01 156.26 385.24 151.24 383.16 C 153.56 380.96 156.96 379.27 157.84 375.99 C 156.24 371.72 151.88 369.20 148.20 366.82 C 149.67 369.82 151.71 372.64 152.33 375.99 C 152.36 378.58 150.79 380.85 149.88 383.20 L 151.07 383.29 C 149.52 384.57 148.16 386.07 146.93 387.67 C 150.32 392.30 152.42 398.07 151.41 403.86 C 151.20 404.49 150.77 405.74 150.56 406.37 C 149.64 405.49 148.72 404.61 147.83 403.71 C 143.73 399.30 140.40 394.26 137.53 389.00 C 139.65 386.53 141.76 384.06 143.85 381.57 C 141.93 381.66 140.02 381.79 138.10 381.85 C 133.75 381.88 129.35 381.14 125.46 379.12 C 122.61 377.43 120.43 374.90 118.92 371.99 C 115.45 372.18 111.96 372.61 108.69 373.84 C 102.89 371.03 96.30 370.85 89.98 371.02 C 87.20 371.02 84.03 371.24 81.78 369.26 C 79.06 366.66 77.99 362.33 74.26 360.83 C 71.00 359.89 67.46 360.86 64.21 359.86 C 61.38 358.64 60.31 355.54 58.97 353.04 C 55.20 345.25 48.41 338.59 39.94 336.26 C 33.97 334.58 27.39 335.79 22.25 339.20 C 14.02 344.54 8.69 353.31 5.25 362.31 C 4.33 364.40 4.26 366.70 4.11 368.95 L 3.71 369.70 C 1.29 368.70 0.33 366.18 0.00 363.77 L 0.00 360.33 C 1.13 348.15 5.83 336.15 14.14 327.08 M 41.79 315.31 C 44.73 316.93 48.08 317.53 51.08 319.01 C 60.65 323.41 68.84 330.46 75.30 338.74 C 81.94 347.04 86.99 356.91 95.77 363.27 C 100.20 366.55 105.27 369.77 110.99 369.69 C 107.41 368.15 103.57 367.07 100.39 364.73 C 93.41 359.86 89.38 352.13 85.14 345.00 C 80.03 336.17 74.10 327.39 65.58 321.51 C 58.64 316.92 50.11 314.44 41.79 315.31 Z" />
<path fill="#ff9c57" opacity="1.00" d=" M 232.89 321.87 C 239.06 315.63 248.18 313.29 256.74 313.70 C 264.48 318.96 272.47 324.67 276.84 333.23 C 282.08 342.98 281.93 354.41 281.03 365.14 C 278.87 371.25 276.21 377.24 275.15 383.68 C 275.58 384.83 275.85 386.33 277.25 386.71 C 280.65 387.71 283.93 385.51 286.34 383.33 C 284.09 371.24 288.64 358.67 295.78 348.96 C 300.07 343.48 305.45 338.84 311.60 335.56 C 318.59 331.75 326.49 330.18 334.21 328.62 C 332.92 325.79 331.24 322.92 331.79 319.67 C 334.45 319.93 335.68 322.46 337.70 323.70 C 342.63 324.62 348.44 324.79 351.85 329.05 C 354.23 331.78 356.50 336.22 360.84 335.36 L 361.74 334.97 C 360.32 341.38 352.42 342.51 346.93 342.84 C 341.24 343.30 337.40 338.50 335.03 333.98 C 332.09 335.27 329.07 336.38 326.15 337.71 C 322.86 339.49 322.72 343.47 323.49 346.69 C 324.28 348.24 326.16 347.51 327.51 347.43 C 332.07 346.51 336.71 345.00 341.38 346.24 C 340.53 348.77 339.70 351.32 338.70 353.80 C 337.82 352.43 337.00 351.03 336.19 349.64 C 332.06 351.71 327.76 354.29 323.01 354.20 C 320.71 353.05 320.20 350.19 319.49 347.96 C 319.12 345.89 318.82 343.81 318.43 341.75 C 316.93 343.51 316.05 345.66 315.16 347.77 C 309.90 354.29 306.00 361.91 302.85 369.66 C 303.23 369.53 303.97 369.25 304.34 369.12 C 307.83 368.30 311.28 365.90 314.96 366.86 C 318.35 367.90 318.51 371.93 319.80 374.66 C 319.60 375.00 319.20 375.69 319.00 376.03 C 315.44 379.55 311.82 383.05 307.79 386.04 C 305.49 387.50 303.29 389.10 301.16 390.80 C 304.47 390.98 307.79 391.13 311.11 391.39 C 310.35 391.43 308.84 391.52 308.09 391.57 C 309.13 393.18 309.96 394.93 310.59 396.76 C 304.36 396.76 298.12 396.79 291.93 396.00 C 292.65 394.42 293.38 392.84 294.11 391.27 C 291.66 390.16 289.40 388.68 287.39 386.90 C 281.60 393.47 273.09 397.74 264.21 397.12 C 262.54 395.08 260.09 392.96 260.75 390.02 C 262.33 383.84 267.54 379.26 268.90 373.00 C 269.82 369.84 266.31 368.49 264.38 366.89 C 268.04 361.96 274.55 358.58 275.37 351.99 C 275.69 346.64 270.42 343.89 265.93 343.02 C 261.08 342.51 262.08 334.96 257.02 334.89 C 251.04 335.04 245.84 338.72 241.62 342.64 C 233.79 349.86 227.07 359.46 216.28 362.36 C 208.48 364.55 200.09 359.79 196.77 352.67 C 200.45 355.65 205.40 355.85 209.91 355.58 C 212.89 354.93 215.00 352.46 216.70 350.09 C 222.85 341.11 224.91 329.62 232.89 321.87 M 342.38 328.04 C 340.87 328.82 340.30 331.18 341.68 332.32 C 342.87 333.87 346.01 332.97 346.02 330.95 C 346.56 328.83 344.25 327.38 342.38 328.04 Z" />
<path fill="#ff9c57" opacity="1.00" d=" M 188.96 366.47 C 192.13 367.01 192.17 370.33 192.97 372.77 C 194.87 372.89 196.85 372.68 198.69 373.26 C 202.10 375.15 203.49 379.29 203.26 383.01 C 203.18 386.38 202.82 390.89 206.84 392.15 C 207.43 392.30 208.62 392.60 209.21 392.75 C 209.12 394.41 210.02 395.72 211.13 396.85 C 205.22 399.09 198.29 399.58 192.68 396.24 C 187.83 393.69 184.85 388.67 184.11 383.34 C 184.89 380.42 185.28 377.13 187.84 375.14 C 188.80 374.23 189.79 373.35 190.76 372.47 C 190.02 370.51 189.36 368.52 188.96 366.47 M 194.39 378.05 C 191.36 379.48 193.48 384.30 196.61 382.93 C 199.66 381.49 197.49 376.73 194.39 378.05 Z" />
</g>
<g id="#2a92b5ff">
<path fill="#2a92b5" opacity="1.00" d=" M 911.12 316.47 C 913.41 315.37 915.60 314.04 917.97 313.10 C 920.86 313.32 923.49 314.71 926.08 315.91 C 932.31 319.09 938.70 321.93 945.01 324.96 C 959.74 332.08 975.36 337.70 988.51 347.68 C 987.81 347.80 986.42 348.04 985.72 348.16 C 988.28 350.28 990.85 352.50 992.54 355.43 C 984.14 353.66 976.64 349.11 968.47 346.55 C 968.65 345.94 969.03 344.73 969.21 344.12 C 967.24 343.53 965.27 342.94 963.32 342.34 C 952.00 338.50 941.41 332.96 930.89 327.37 C 928.65 327.76 926.37 327.87 924.11 327.78 C 923.59 327.17 922.53 325.95 922.00 325.34 C 922.75 326.31 923.34 327.49 924.41 328.20 C 927.39 328.84 930.76 327.67 933.46 329.52 C 937.31 331.64 941.08 333.95 945.10 335.77 C 945.94 336.40 947.52 336.50 947.79 337.71 C 942.60 338.62 937.35 337.54 932.17 337.17 C 928.96 336.27 924.21 336.93 922.68 333.29 C 919.48 327.27 915.66 321.56 911.12 316.47 M 939.08 329.23 C 952.41 335.74 965.83 342.40 980.02 346.83 C 968.45 341.35 956.68 336.30 944.94 331.22 C 943.04 330.37 941.10 329.65 939.08 329.23 M 955.01 332.15 C 962.52 336.12 970.06 340.27 978.16 342.93 C 974.54 340.26 970.31 338.63 966.33 336.60 C 962.61 335.00 959.07 332.77 955.01 332.15 Z" />
</g>
<g id="#ffc69bff">
<path fill="#ffc69b" opacity="1.00" d=" M 256.74 313.70 C 265.76 313.39 273.97 318.98 278.66 326.40 C 282.95 333.24 286.03 341.24 285.62 349.42 C 284.68 354.82 282.96 360.03 281.03 365.14 C 281.93 354.41 282.08 342.98 276.84 333.23 C 272.47 324.67 264.48 318.96 256.74 313.70 Z" />
<path fill="#ffc69b" opacity="1.00" d=" M 339.17 323.16 C 340.25 322.71 341.33 322.26 342.43 321.83 C 345.74 321.08 349.32 321.83 351.89 324.08 C 354.78 326.26 355.57 329.95 356.97 333.08 C 357.46 333.11 358.43 333.16 358.91 333.18 C 359.39 333.73 360.35 334.82 360.84 335.36 C 356.50 336.22 354.23 331.78 351.85 329.05 C 348.44 324.79 342.63 324.62 337.70 323.70 C 338.07 323.57 338.80 323.30 339.17 323.16 Z" />
</g>
<g id="#ffbc8aff">
<path fill="#ffbc8a" opacity="1.00" d=" M 41.79 315.31 C 50.11 314.44 58.64 316.92 65.58 321.51 C 74.10 327.39 80.03 336.17 85.14 345.00 C 89.38 352.13 93.41 359.86 100.39 364.73 C 103.57 367.07 107.41 368.15 110.99 369.69 C 105.27 369.77 100.20 366.55 95.77 363.27 C 86.99 356.91 81.94 347.04 75.30 338.74 C 68.84 330.46 60.65 323.41 51.08 319.01 C 48.08 317.53 44.73 316.93 41.79 315.31 Z" />
</g>
<g id="#fd9d57ff">
<path fill="#fd9d57" opacity="1.00" d=" M 339.25 317.19 C 340.90 318.24 341.59 320.15 342.43 321.83 C 341.33 322.26 340.25 322.71 339.17 323.16 C 338.25 321.35 336.49 318.30 339.25 317.19 Z" />
</g>
<g id="#bcc3c8ff">
<path fill="#bcc3c8" opacity="1.00" d=" M 861.27 322.40 C 862.68 321.70 864.08 323.10 865.09 323.96 C 870.38 329.48 874.32 336.10 878.14 342.69 C 877.79 344.16 877.47 345.65 877.15 347.13 C 874.02 347.50 870.63 347.47 867.98 349.42 C 863.72 343.74 860.72 337.03 859.62 330.01 C 859.46 327.46 859.02 324.20 861.27 322.40 Z" />
</g>
<g id="#549829ff">
<path fill="#549829" opacity="1.00" d=" M 687.94 325.76 C 698.51 324.08 709.65 326.24 718.87 331.67 C 716.06 336.30 713.41 341.42 713.65 347.01 C 713.83 352.15 717.15 357.15 722.08 358.87 C 728.34 361.45 736.05 358.50 739.58 352.89 C 740.92 355.10 742.08 357.41 743.21 359.74 C 746.98 367.46 749.46 375.69 751.42 384.03 C 752.00 384.11 753.15 384.27 753.72 384.34 C 746.88 386.15 740.36 389.07 733.33 390.18 C 731.55 385.21 730.39 379.46 725.91 376.12 C 722.49 373.25 716.73 373.19 713.66 376.57 C 710.33 381.59 710.78 387.98 710.83 393.74 C 699.63 394.64 688.32 395.30 677.13 394.00 C 675.67 393.70 674.22 393.32 672.79 392.98 C 672.62 388.00 673.40 382.64 671.01 378.05 C 668.62 373.37 661.83 372.88 658.00 376.02 C 653.89 378.89 652.46 383.91 651.01 388.44 C 650.21 388.38 648.60 388.26 647.79 388.19 C 642.88 386.66 638.09 384.56 633.83 381.66 C 634.47 378.02 635.48 374.46 636.78 371.01 C 638.32 366.45 640.37 362.08 642.70 357.88 C 642.37 359.17 641.85 360.48 642.06 361.84 C 645.71 365.67 650.79 369.07 656.32 368.51 C 663.43 367.92 669.58 361.17 668.67 353.94 C 668.16 347.36 664.16 341.77 660.49 336.54 C 663.39 334.29 666.46 332.25 669.80 330.70 C 672.96 337.69 677.36 345.39 685.33 347.50 C 692.55 349.66 700.40 344.11 701.68 336.89 C 702.22 333.25 701.47 329.60 700.88 326.01 C 696.59 325.44 692.25 325.46 687.94 325.76 Z" />
</g>
<g id="#1e7904ff">
<path fill="#1e7904" opacity="1.00" d=" M 673.93 328.96 C 678.50 327.52 683.16 326.26 687.94 325.76 C 692.25 325.46 696.59 325.44 700.88 326.01 C 701.47 329.60 702.22 333.25 701.68 336.89 C 700.40 344.11 692.55 349.66 685.33 347.50 C 677.36 345.39 672.96 337.69 669.80 330.70 C 671.15 330.07 672.53 329.47 673.93 328.96 Z" />
<path fill="#1e7904" opacity="1.00" d=" M 713.65 347.01 C 713.41 341.42 716.06 336.30 718.87 331.67 C 725.00 335.35 730.12 340.43 734.66 345.89 C 736.46 348.10 738.06 350.47 739.58 352.89 C 736.05 358.50 728.34 361.45 722.08 358.87 C 717.15 357.15 713.83 352.15 713.65 347.01 Z" />
<path fill="#1e7904" opacity="1.00" d=" M 642.70 357.88 C 647.19 349.72 653.13 342.29 660.49 336.54 C 664.16 341.77 668.16 347.36 668.67 353.94 C 669.58 361.17 663.43 367.92 656.32 368.51 C 650.79 369.07 645.71 365.67 642.06 361.84 C 641.85 360.48 642.37 359.17 642.70 357.88 Z" />
</g>
<g id="#535255ff">
<path fill="#535255" opacity="1.00" d=" M 358.91 333.18 C 360.50 331.65 362.42 331.67 363.41 333.78 C 362.99 334.08 362.16 334.67 361.74 334.97 L 360.84 335.36 C 360.35 334.82 359.39 333.73 358.91 333.18 Z" />
</g>
<g id="#84c55dff">
<path fill="#84c55d" opacity="1.00" d=" M 758.86 336.75 C 764.40 332.79 772.07 332.75 778.04 335.79 C 783.24 338.20 786.95 342.79 789.89 347.57 C 790.80 350.00 791.56 352.49 792.37 354.96 C 793.50 360.02 793.83 365.60 791.33 370.31 C 789.34 372.98 786.00 374.07 783.12 375.44 C 773.63 379.33 763.66 381.93 753.72 384.34 C 753.15 384.27 752.00 384.11 751.42 384.03 C 749.46 375.69 746.98 367.46 743.21 359.74 C 743.55 360.26 744.21 361.30 744.54 361.81 C 745.76 360.93 747.01 360.05 748.24 359.17 C 748.63 355.62 748.95 352.00 750.31 348.66 C 752.32 344.20 754.64 339.53 758.86 336.75 M 776.40 346.04 C 773.34 347.51 775.48 352.26 778.62 350.96 C 781.63 349.46 779.51 344.76 776.40 346.04 M 782.94 365.14 C 784.93 367.64 788.46 365.88 791.06 365.73 L 790.37 364.77 C 790.31 364.68 790.19 364.50 790.13 364.42 C 787.72 364.55 785.32 364.83 782.94 365.14 Z" />
<path fill="#84c55d" opacity="1.00" d=" M 658.00 376.02 C 661.83 372.88 668.62 373.37 671.01 378.05 C 673.40 382.64 672.62 388.00 672.79 392.98 C 674.22 393.32 675.67 393.70 677.13 394.00 C 675.67 393.84 674.21 393.72 672.76 393.66 C 671.75 398.92 672.07 405.11 667.82 409.06 C 667.14 407.28 666.28 405.59 665.06 404.13 C 663.92 406.03 663.06 408.06 662.39 410.16 C 661.82 410.10 660.67 409.98 660.10 409.92 C 659.72 407.97 659.39 406.01 658.68 404.15 C 656.36 404.61 655.79 407.42 654.48 409.06 C 654.01 408.93 653.07 408.66 652.60 408.53 C 652.37 406.47 652.93 404.17 651.84 402.31 C 650.09 402.63 648.87 404.17 647.44 405.10 C 646.58 402.61 647.44 400.03 648.10 397.61 C 648.99 394.75 649.93 391.90 650.58 388.98 C 649.89 388.78 648.49 388.39 647.79 388.19 C 648.60 388.26 650.21 388.38 651.01 388.44 C 652.46 383.91 653.89 378.89 658.00 376.02 Z" />
<path fill="#84c55d" opacity="1.00" d=" M 713.66 376.57 C 716.73 373.19 722.49 373.25 725.91 376.12 C 730.39 379.46 731.55 385.21 733.33 390.18 C 734.04 392.42 734.74 394.69 735.42 396.96 C 736.14 399.59 737.34 402.36 736.35 405.11 C 734.87 403.88 733.28 402.80 731.53 402.03 C 731.41 404.18 731.34 406.34 731.29 408.50 C 730.87 408.64 730.04 408.92 729.63 409.05 C 728.37 407.05 726.88 405.20 725.05 403.69 C 724.40 405.77 723.94 407.89 723.56 410.03 C 723.03 410.07 721.96 410.13 721.42 410.16 C 720.76 407.97 719.90 405.79 718.11 404.28 C 717.31 405.90 716.54 407.53 715.78 409.16 C 712.26 405.66 712.01 400.52 711.22 395.92 C 711.12 395.38 710.93 394.29 710.83 393.74 C 710.78 387.98 710.33 381.59 713.66 376.57 Z" />
</g>
<g id="#88929cff">
<path fill="#88929c" opacity="1.00" d=" M 880.56 333.79 C 881.00 334.03 881.86 334.51 882.30 334.75 C 881.15 338.60 880.28 342.53 879.54 346.48 C 878.74 346.72 877.94 346.94 877.15 347.13 C 877.47 345.65 877.79 344.16 878.14 342.69 C 878.80 339.69 879.64 336.73 880.56 333.79 Z" />
<path fill="#88929c" opacity="1.00" d=" M 806.24 334.87 C 810.85 340.86 813.04 348.26 815.90 355.16 C 816.76 357.53 817.76 359.86 819.23 361.93 C 819.66 359.76 820.01 357.57 820.21 355.37 C 820.67 349.46 819.66 343.59 819.63 337.69 C 820.77 340.73 822.20 343.65 823.58 346.59 C 826.00 351.68 828.14 356.90 830.04 362.21 C 832.42 355.85 833.75 349.13 836.34 342.85 C 836.49 348.10 836.18 353.35 836.38 358.61 C 836.30 361.95 836.36 365.29 836.36 368.63 C 833.95 377.33 831.05 385.89 828.78 394.62 C 823.01 393.40 816.15 394.85 811.41 390.69 C 807.63 387.79 803.81 384.95 799.99 382.12 C 801.71 377.69 803.25 372.71 801.56 368.02 C 799.66 362.95 795.54 359.22 792.37 354.96 C 791.56 352.49 790.80 350.00 789.89 347.57 C 794.61 349.00 798.81 351.68 802.84 354.46 C 805.91 356.58 808.82 358.93 811.44 361.60 C 810.90 359.35 810.39 357.10 810.00 354.83 C 809.03 348.12 807.99 341.42 806.24 334.87 Z" />
<path fill="#88929c" opacity="1.00" d=" M 858.78 337.77 C 859.69 342.66 859.42 347.66 858.87 352.57 C 858.89 353.02 858.93 353.93 858.96 354.38 C 853.97 357.27 849.16 360.46 844.16 363.33 C 845.60 360.84 846.99 358.32 848.55 355.90 C 849.30 354.69 850.05 353.46 850.76 352.22 C 853.52 347.45 856.19 342.64 858.78 337.77 Z" />
</g>
<g id="#ff7000ff">
<path fill="#ff7000" opacity="1.00" d=" M 241.62 342.64 C 245.84 338.72 251.04 335.04 257.02 334.89 C 262.08 334.96 261.08 342.51 265.93 343.02 C 270.42 343.89 275.69 346.64 275.37 351.99 C 274.55 358.58 268.04 361.96 264.38 366.89 C 266.31 368.49 269.82 369.84 268.90 373.00 C 267.54 379.26 262.33 383.84 260.75 390.02 C 260.09 392.96 262.54 395.08 264.21 397.12 C 261.30 396.59 258.10 396.25 255.76 394.24 C 253.76 392.59 253.03 390.00 252.38 387.60 C 252.13 376.16 257.28 365.42 257.69 354.03 C 257.73 352.60 257.21 351.26 256.76 349.94 C 253.50 346.87 248.61 348.19 245.06 349.97 C 240.23 352.20 237.09 356.70 232.93 359.86 C 227.38 364.45 220.22 366.93 213.04 366.94 C 208.74 367.22 204.46 365.84 201.14 363.11 L 200.65 362.64 C 196.84 359.41 194.52 354.83 193.17 350.09 C 192.85 348.77 192.57 347.44 192.30 346.12 C 193.25 347.50 194.19 348.89 195.15 350.28 C 195.56 350.88 196.37 352.07 196.77 352.67 C 200.09 359.79 208.48 364.55 216.28 362.36 C 227.07 359.46 233.79 349.86 241.62 342.64 Z" />
<path fill="#ff7000" opacity="1.00" d=" M 22.25 339.20 C 27.39 335.79 33.97 334.58 39.94 336.26 C 48.41 338.59 55.20 345.25 58.97 353.04 C 60.31 355.54 61.38 358.64 64.21 359.86 C 67.46 360.86 71.00 359.89 74.26 360.83 C 77.99 362.33 79.06 366.66 81.78 369.26 C 84.03 371.24 87.20 371.02 89.98 371.02 C 96.30 370.85 102.89 371.03 108.69 373.84 C 97.63 378.28 88.30 387.03 76.12 388.52 C 63.56 390.47 49.11 385.97 42.35 374.63 C 38.24 368.15 40.05 360.21 38.48 353.08 C 37.58 348.92 34.98 344.68 30.63 343.53 C 24.92 342.02 19.01 345.02 15.43 349.42 C 10.60 355.26 7.93 362.47 4.11 368.95 C 4.26 366.70 4.33 364.40 5.25 362.31 C 8.69 353.31 14.02 344.54 22.25 339.20 Z" />
<path fill="#ff7000" opacity="1.00" d=" M 125.46 379.12 C 129.35 381.14 133.75 381.88 138.10 381.85 C 135.25 385.77 130.59 388.46 125.65 388.18 C 126.44 390.72 127.55 393.29 127.44 396.01 C 127.35 397.87 125.37 398.53 124.12 399.48 C 120.66 394.72 120.20 388.53 116.85 383.68 C 119.66 382.05 122.53 380.52 125.46 379.12 Z" />
<path fill="#ff7000" opacity="1.00" d=" M 167.12 384.85 C 169.26 384.71 171.39 384.51 173.53 384.31 C 173.65 389.31 173.77 394.50 175.86 399.14 C 177.73 403.35 181.95 405.78 184.27 409.70 C 182.15 408.30 180.06 406.88 177.99 405.41 C 175.26 403.07 171.92 401.04 170.52 397.56 C 168.78 393.51 167.95 389.15 167.12 384.85 Z" />
</g>
<g id="#e4eaedff">
<path fill="#e4eaed" opacity="1.00" d=" M 882.30 334.75 C 883.39 334.96 884.48 335.18 885.59 335.41 L 886.13 335.75 L 884.72 335.57 C 884.75 337.80 884.60 340.04 884.89 342.27 C 884.01 344.05 883.10 345.82 882.23 347.60 C 881.55 347.32 880.21 346.76 879.54 346.48 C 880.28 342.53 881.15 338.60 882.30 334.75 Z" />
</g>
<g id="#2893b6ff">
<path fill="#2893b6" opacity="1.00" d=" M 884.72 335.57 L 886.13 335.75 C 889.05 337.04 888.84 340.37 888.98 343.05 C 888.55 343.15 887.69 343.37 887.26 343.48 C 886.66 343.17 885.48 342.57 884.89 342.27 C 884.60 340.04 884.75 337.80 884.72 335.57 Z" />
</g>
<g id="#ffca9fff">
<path fill="#ffca9f" opacity="1.00" d=" M 323.49 346.69 C 322.72 343.47 322.86 339.49 326.15 337.71 C 326.37 340.23 326.52 342.75 326.65 345.28 C 331.52 345.53 337.02 343.33 341.38 346.24 C 336.71 345.00 332.07 346.51 327.51 347.43 C 326.16 347.51 324.28 348.24 323.49 346.69 Z" />
</g>
<g id="#61a8bdff">
<path fill="#61a8bd" opacity="1.00" d=" M 949.21 338.25 C 950.24 337.53 952.87 338.44 952.84 339.83 C 951.69 340.28 949.05 339.83 949.21 338.25 Z" />
</g>
<g id="#63aabeff">
<path fill="#63aabe" opacity="1.00" d=" M 953.98 340.56 C 954.63 339.25 957.97 340.46 958.04 341.82 C 956.64 342.30 954.88 341.66 953.98 340.56 Z" />
</g>
<g id="#dfe1dcfa">
<path fill="#dfe1dc" opacity="0.98" d=" M 315.16 347.77 C 316.05 345.66 316.93 343.51 318.43 341.75 C 318.82 343.81 319.12 345.89 319.49 347.96 C 318.41 347.91 316.24 347.81 315.16 347.77 Z" />
</g>
<g id="#7f7974ff">
<path fill="#7f7974" opacity="1.00" d=" M 884.89 342.27 C 885.48 342.57 886.66 343.17 887.26 343.48 C 885.37 346.36 883.62 349.33 881.79 352.24 C 883.76 352.92 885.74 353.61 887.74 354.25 C 889.64 350.65 891.53 347.05 893.56 343.53 C 894.51 343.46 895.46 343.37 896.43 343.27 C 894.73 346.37 892.57 349.19 890.94 352.33 C 890.90 354.13 893.29 353.74 894.36 354.52 C 887.40 356.72 880.20 358.07 873.09 359.70 C 876.39 357.14 880.44 356.01 884.21 354.36 C 877.98 354.63 871.91 356.12 865.72 356.73 C 869.56 353.41 874.84 353.70 879.48 352.57 C 880.55 351.00 881.35 349.28 882.23 347.60 C 883.10 345.82 884.01 344.05 884.89 342.27 Z" />
</g>
<g id="#70b0c0ff">
<path fill="#70b0c0" opacity="1.00" d=" M 963.32 342.34 C 965.27 342.94 967.24 343.53 969.21 344.12 C 969.03 344.73 968.65 345.94 968.47 346.55 C 966.49 345.52 962.44 345.64 963.32 342.34 Z" />
</g>
<g id="#ddf4fcfc">
<path fill="#ddf4fc" opacity="1.00" d=" M 245.06 349.97 C 248.61 348.19 253.50 346.87 256.76 349.94 C 252.87 350.23 248.96 350.12 245.06 349.97 Z" />
</g>
<g id="#f66a0aff">
<path fill="#f66a0a" opacity="1.00" d=" M 302.85 369.66 C 306.00 361.91 309.90 354.29 315.16 347.77 C 314.71 352.00 314.41 356.24 314.67 360.50 C 317.91 360.01 323.31 358.63 324.53 362.93 C 324.11 366.68 322.26 370.05 320.51 373.33 C 321.57 369.47 319.85 364.83 315.97 363.37 C 311.33 362.94 307.61 366.32 304.34 369.12 C 303.97 369.25 303.23 369.53 302.85 369.66 Z" />
</g>
<g id="#ffbd8bff">
<path fill="#ffbd8b" opacity="1.00" d=" M 147.76 354.30 C 154.04 354.94 160.21 356.53 166.12 358.75 C 172.82 361.28 178.40 365.99 183.15 371.25 C 182.70 372.36 182.30 373.49 181.95 374.65 C 177.11 369.92 172.79 364.37 166.44 361.54 C 160.55 358.25 153.39 358.08 147.76 354.30 Z" />
<path fill="#ffbd8b" opacity="1.00" d=" M 188.96 366.47 C 188.90 364.25 190.75 361.28 193.19 362.70 C 195.45 364.69 194.23 367.98 194.17 370.56 C 194.82 370.56 196.13 370.57 196.78 370.57 C 196.74 368.27 195.49 365.32 197.36 363.48 C 198.19 363.27 199.83 362.85 200.65 362.64 L 201.14 363.11 C 202.47 365.61 201.92 368.39 201.20 370.99 C 203.19 372.98 205.19 375.16 205.91 377.97 C 207.77 382.63 203.97 387.74 206.84 392.15 C 202.82 390.89 203.18 386.38 203.26 383.01 C 203.49 379.29 202.10 375.15 198.69 373.26 C 196.85 372.68 194.87 372.89 192.97 372.77 C 192.17 370.33 192.13 367.01 188.96 366.47 Z" />
<path fill="#ffbd8b" opacity="1.00" d=" M 148.20 366.82 C 151.88 369.20 156.24 371.72 157.84 375.99 C 156.96 379.27 153.56 380.96 151.24 383.16 L 151.07 383.29 L 149.88 383.20 C 150.79 380.85 152.36 378.58 152.33 375.99 C 151.71 372.64 149.67 369.82 148.20 366.82 Z" />
</g>
<g id="#b1b7bbff">
<path fill="#b1b7bb" opacity="1.00" d=" M 924.53 354.74 C 927.92 358.40 930.62 362.83 934.88 365.60 C 934.76 363.70 934.61 361.81 934.47 359.93 C 936.91 364.27 939.57 368.48 942.39 372.59 C 945.80 377.69 945.69 384.12 945.79 390.01 C 939.60 397.66 932.35 404.48 925.82 411.88 C 918.19 411.90 910.54 411.62 902.93 411.98 C 896.63 413.71 890.59 416.67 884.00 417.20 C 878.48 416.22 873.14 414.31 867.87 412.40 C 863.23 410.84 859.66 407.25 855.07 405.58 C 846.30 402.17 837.19 399.72 828.12 397.27 C 828.28 396.61 828.61 395.28 828.78 394.62 C 831.05 385.89 833.95 377.33 836.36 368.63 C 836.96 368.24 838.15 367.46 838.75 367.06 C 848.11 375.72 860.00 380.78 870.66 387.53 C 876.45 382.67 882.12 377.50 888.79 373.85 C 893.43 372.60 898.59 374.97 903.11 373.17 C 910.33 367.13 917.28 360.75 924.53 354.74 Z" />
</g>
<g id="#ffcda6ff">
<path fill="#ffcda6" opacity="1.00" d=" M 304.34 369.12 C 307.61 366.32 311.33 362.94 315.97 363.37 C 319.85 364.83 321.57 369.47 320.51 373.33 L 319.80 374.66 C 318.51 371.93 318.35 367.90 314.96 366.86 C 311.28 365.90 307.83 368.30 304.34 369.12 Z" />
</g>
<g id="#3b5237fb">
<path fill="#3b5237" opacity="1.00" d=" M 782.94 365.14 C 785.32 364.83 787.72 364.55 790.13 364.42 C 790.19 364.50 790.31 364.68 790.37 364.77 L 791.06 365.73 C 788.46 365.88 784.93 367.64 782.94 365.14 Z" />
</g>
<g id="#a0a6abff">
<path fill="#a0a6ab" opacity="1.00" d=" M 790.13 364.42 C 790.19 364.50 790.31 364.68 790.37 364.77 C 790.31 364.68 790.19 364.50 790.13 364.42 Z" />
</g>
<g id="#84c55cff">
<path fill="#84c55c" opacity="1.00" d=" M 619.82 369.17 C 625.12 370.05 630.22 371.83 635.54 372.67 C 635.85 372.25 636.47 371.42 636.78 371.01 C 635.48 374.46 634.47 378.02 633.83 381.66 C 628.67 378.09 623.78 374.06 619.82 369.17 Z" />
</g>
<g id="#fb8532ff">
<path fill="#fb8532" opacity="1.00" d=" M 184.57 369.44 C 186.15 371.01 187.04 373.08 187.84 375.14 C 185.28 377.13 184.89 380.42 184.11 383.34 C 183.16 385.91 182.72 388.63 182.93 391.37 C 182.06 389.50 180.85 387.75 180.40 385.72 C 179.77 381.95 180.95 378.23 181.95 374.65 C 182.30 373.49 182.70 372.36 183.15 371.25 C 183.51 370.79 184.22 369.89 184.57 369.44 Z" />
</g>
<g id="#cacfd6ff">
<path fill="#cacfd6" opacity="1.00" d=" M 464.02 374.03 C 489.31 373.42 514.66 374.01 539.84 376.57 C 543.61 383.31 549.61 390.37 557.94 390.62 C 566.38 390.26 574.54 387.54 582.28 384.29 C 585.41 385.78 589.06 386.92 591.13 389.92 C 592.32 391.52 591.35 393.67 589.95 394.78 C 586.57 397.59 582.28 398.90 578.16 400.19 C 566.99 403.37 555.45 404.97 543.94 406.31 C 516.76 409.26 489.37 409.86 462.05 409.21 C 440.46 408.46 418.82 407.12 397.54 403.27 C 390.60 401.91 383.60 400.44 377.09 397.60 C 374.55 396.38 371.68 394.90 370.72 392.05 C 370.82 389.04 373.72 387.38 376.08 386.16 C 383.30 382.73 391.23 381.25 399.02 379.71 C 401.40 385.32 405.34 390.23 410.30 393.78 C 418.49 399.99 429.04 401.60 439.03 402.17 C 448.31 402.53 458.34 401.72 465.98 395.89 C 468.35 394.03 471.98 391.97 471.63 388.50 C 470.88 386.10 468.23 386.66 466.33 386.75 C 466.35 382.40 465.69 378.06 464.02 374.03 Z" />
<path fill="#cacfd6" opacity="1.00" d=" M 401.77 379.26 C 421.36 376.06 441.22 374.74 461.05 374.13 C 462.83 378.37 464.02 383.01 463.36 387.64 C 454.62 391.64 445.53 395.32 436.15 397.67 C 430.74 399.27 425.15 397.75 420.02 395.94 C 412.17 392.87 405.32 386.98 401.77 379.26 Z" />
<path fill="#cacfd6" opacity="1.00" d=" M 544.97 379.77 C 545.54 378.91 546.13 378.06 546.73 377.22 C 557.11 378.65 567.55 380.02 577.64 382.96 C 571.79 385.60 565.44 387.19 559.06 387.79 C 553.15 388.34 548.57 383.84 544.97 379.77 Z" />
<path fill="#cacfd6" opacity="1.00" d=" M 301.16 390.80 C 303.29 389.10 305.49 387.50 307.79 386.04 C 311.29 385.73 314.80 385.63 318.31 385.52 C 322.62 387.04 327.71 387.46 331.05 390.91 C 332.70 392.51 331.12 394.77 329.52 395.65 C 324.99 398.39 319.65 399.30 314.52 400.25 C 299.77 402.53 284.74 402.65 269.91 401.09 C 263.77 400.33 257.55 399.42 251.75 397.15 C 249.74 396.28 247.52 395.23 246.56 393.11 C 246.59 389.94 250.20 389.02 252.38 387.60 C 253.03 390.00 253.76 392.59 255.76 394.24 C 258.10 396.25 261.30 396.59 264.21 397.12 C 273.09 397.74 281.60 393.47 287.39 386.90 C 289.40 388.68 291.66 390.16 294.11 391.27 C 293.38 392.84 292.65 394.42 291.93 396.00 C 298.12 396.79 304.36 396.76 310.59 396.76 C 312.93 396.43 317.78 397.61 317.62 393.97 C 316.56 391.43 313.37 391.66 311.11 391.39 C 307.79 391.13 304.47 390.98 301.16 390.80 Z" />
<path fill="#cacfd6" opacity="1.00" d=" M 667.82 409.06 C 672.07 405.11 671.75 398.92 672.76 393.66 C 672.68 394.37 672.53 395.79 672.45 396.50 C 685.37 395.98 698.30 396.31 711.22 395.92 C 712.01 400.52 712.26 405.66 715.78 409.16 C 717.62 409.69 719.51 409.96 721.42 410.16 C 721.96 410.13 723.03 410.07 723.56 410.03 C 725.59 409.81 727.63 409.54 729.63 409.05 C 730.04 408.92 730.87 408.64 731.29 408.50 C 733.22 407.80 735.01 406.70 736.35 405.11 C 737.34 402.36 736.14 399.59 735.42 396.96 C 744.35 396.74 753.35 396.98 762.16 398.54 C 769.74 400.68 778.70 399.68 785.07 404.99 C 781.46 408.25 776.45 408.75 771.88 409.66 C 763.96 410.94 755.98 411.83 748.09 413.29 C 737.10 414.37 726.04 414.85 715.00 414.91 C 687.31 415.12 659.57 414.81 632.00 412.03 C 624.55 411.14 617.00 410.43 609.81 408.19 C 608.31 407.53 606.10 407.09 606.03 405.10 C 608.05 402.96 611.12 402.49 613.84 401.77 C 625.11 399.36 636.64 398.59 648.10 397.61 C 647.44 400.03 646.58 402.61 647.44 405.10 C 648.89 406.59 650.62 407.81 652.60 408.53 C 653.07 408.66 654.01 408.93 654.48 409.06 C 656.34 409.43 658.21 409.67 660.10 409.92 C 660.67 409.98 661.82 410.10 662.39 410.16 C 664.23 410.05 666.07 409.70 667.82 409.06 Z" />
<path fill="#cacfd6" opacity="1.00" d=" M 59.96 404.68 C 89.21 402.87 118.55 402.63 147.83 403.71 C 148.72 404.61 149.64 405.49 150.56 406.37 C 150.77 405.74 151.20 404.49 151.41 403.86 C 160.28 404.04 169.15 404.62 177.99 405.41 C 180.06 406.88 182.15 408.30 184.27 409.70 C 189.74 414.04 196.57 417.69 203.79 415.95 C 199.91 412.70 195.02 410.78 191.64 406.90 C 197.10 407.59 202.64 408.31 207.85 410.18 C 209.10 410.72 211.02 411.34 210.82 413.08 C 208.79 414.92 206.04 415.55 203.47 416.21 C 195.75 417.93 187.87 418.74 180.02 419.50 C 145.43 422.48 110.65 422.40 75.98 421.27 C 58.87 420.31 41.62 419.66 24.81 416.06 C 22.44 415.18 18.59 415.02 17.99 412.05 C 20.28 409.91 23.49 409.35 26.42 408.64 C 37.47 406.37 48.74 405.53 59.96 404.68 Z" />
</g>
<g id="#fd5900ff">
<path fill="#fd5900" opacity="1.00" d=" M 307.79 386.04 C 311.82 383.05 315.44 379.55 319.00 376.03 C 317.70 378.36 316.31 380.64 314.89 382.89 C 319.08 383.26 324.73 381.20 327.88 384.74 C 324.68 384.95 321.49 385.14 318.31 385.52 C 314.80 385.63 311.29 385.73 307.79 386.04 Z" />
</g>
<g id="#cacfd7ff">
<path fill="#cacfd7" opacity="1.00" d=" M 275.15 383.68 C 278.87 383.34 282.60 383.12 286.34 383.33 C 283.93 385.51 280.65 387.71 277.25 386.71 C 275.85 386.33 275.58 384.83 275.15 383.68 Z" />
</g>
<g id="#dfdad6ff">
<path fill="#dfdad6" opacity="1.00" d=" M 443.81 398.34 C 452.40 395.89 460.37 391.70 468.92 389.12 C 462.78 397.39 451.67 399.54 441.89 399.55 C 442.40 398.93 443.03 398.52 443.81 398.34 Z" />
</g>
<g id="#f66909ff">
<path fill="#f66909" opacity="1.00" d=" M 308.09 391.57 C 308.84 391.52 310.35 391.43 311.11 391.39 C 313.37 391.66 316.56 391.43 317.62 393.97 C 317.78 397.61 312.93 396.43 310.59 396.76 C 309.96 394.93 309.13 393.18 308.09 391.57 Z" />
</g>
<g id="#393231c6">
<path fill="#393231" opacity="0.78" d=" M 209.21 392.75 C 209.95 392.82 211.44 392.96 212.18 393.03 C 212.60 394.47 212.33 395.87 211.13 396.85 C 210.02 395.72 209.12 394.41 209.21 392.75 Z" />
</g>
<g id="#519425ff">
<path fill="#519425" opacity="1.00" d=" M 647.44 405.10 C 648.87 404.17 650.09 402.63 651.84 402.31 C 652.93 404.17 652.37 406.47 652.60 408.53 C 650.62 407.81 648.89 406.59 647.44 405.10 Z" />
<path fill="#519425" opacity="1.00" d=" M 725.05 403.69 C 726.88 405.20 728.37 407.05 729.63 409.05 C 727.63 409.54 725.59 409.81 723.56 410.03 C 723.94 407.89 724.40 405.77 725.05 403.69 Z" />
</g>
<g id="#519626ff">
<path fill="#519626" opacity="1.00" d=" M 731.53 402.03 C 733.28 402.80 734.87 403.88 736.35 405.11 C 735.01 406.70 733.22 407.80 731.29 408.50 C 731.34 406.34 731.41 404.18 731.53 402.03 Z" />
</g>
<g id="#469017ff">
<path fill="#469017" opacity="1.00" d=" M 654.48 409.06 C 655.79 407.42 656.36 404.61 658.68 404.15 C 659.39 406.01 659.72 407.97 660.10 409.92 C 658.21 409.67 656.34 409.43 654.48 409.06 Z" />
</g>
<g id="#4e9421ff">
<path fill="#4e9421" opacity="1.00" d=" M 662.39 410.16 C 663.06 408.06 663.92 406.03 665.06 404.13 C 666.28 405.59 667.14 407.28 667.82 409.06 C 666.07 409.70 664.23 410.05 662.39 410.16 Z" />
</g>
<g id="#4a8e1bff">
<path fill="#4a8e1b" opacity="1.00" d=" M 715.78 409.16 C 716.54 407.53 717.31 405.90 718.11 404.28 C 719.90 405.79 720.76 407.97 721.42 410.16 C 719.51 409.96 717.62 409.69 715.78 409.16 Z" />
</g>
</svg>
